%FSLAX24Y24*%
%MOIN*%
G70*
G01*
G75*
G04 Layer_Color=16711935*
G04:AMPARAMS|DCode=10|XSize=30mil|YSize=35mil|CornerRadius=0mil|HoleSize=0mil|Usage=FLASHONLY|Rotation=325.000|XOffset=0mil|YOffset=0mil|HoleType=Round|Shape=Rectangle|*
%AMROTATEDRECTD10*
4,1,4,-0.0223,-0.0057,-0.0023,0.0229,0.0223,0.0057,0.0023,-0.0229,-0.0223,-0.0057,0.0*
%
%ADD10ROTATEDRECTD10*%

G04:AMPARAMS|DCode=11|XSize=30mil|YSize=35mil|CornerRadius=0mil|HoleSize=0mil|Usage=FLASHONLY|Rotation=327.000|XOffset=0mil|YOffset=0mil|HoleType=Round|Shape=Rectangle|*
%AMROTATEDRECTD11*
4,1,4,-0.0221,-0.0065,-0.0030,0.0228,0.0221,0.0065,0.0030,-0.0228,-0.0221,-0.0065,0.0*
%
%ADD11ROTATEDRECTD11*%

G04:AMPARAMS|DCode=12|XSize=60mil|YSize=56mil|CornerRadius=0mil|HoleSize=0mil|Usage=FLASHONLY|Rotation=328.000|XOffset=0mil|YOffset=0mil|HoleType=Round|Shape=Rectangle|*
%AMROTATEDRECTD12*
4,1,4,-0.0403,-0.0078,-0.0106,0.0396,0.0403,0.0078,0.0106,-0.0396,-0.0403,-0.0078,0.0*
%
%ADD12ROTATEDRECTD12*%

G04:AMPARAMS|DCode=13|XSize=60mil|YSize=56mil|CornerRadius=0mil|HoleSize=0mil|Usage=FLASHONLY|Rotation=327.000|XOffset=0mil|YOffset=0mil|HoleType=Round|Shape=Rectangle|*
%AMROTATEDRECTD13*
4,1,4,-0.0404,-0.0071,-0.0099,0.0398,0.0404,0.0071,0.0099,-0.0398,-0.0404,-0.0071,0.0*
%
%ADD13ROTATEDRECTD13*%

%ADD14R,0.0140X0.0800*%
%ADD15R,0.0300X0.0350*%
%ADD16R,0.0350X0.0300*%
%ADD17R,0.0600X0.0560*%
%ADD18R,0.0200X0.0240*%
%ADD19R,0.0560X0.0600*%
%ADD20R,0.0400X0.0250*%
%ADD21O,0.0591X0.0394*%
%ADD22C,0.0300*%
%ADD23C,0.0100*%
%ADD24C,0.0200*%
%ADD25C,0.0240*%
%ADD26C,0.0600*%
%ADD27C,0.0787*%
%ADD28C,0.0900*%
%ADD29C,0.0700*%
%ADD30C,0.0400*%
%ADD31C,0.0500*%
%ADD32R,0.0430X0.0590*%
G04:AMPARAMS|DCode=33|XSize=38mil|YSize=43mil|CornerRadius=0mil|HoleSize=0mil|Usage=FLASHONLY|Rotation=325.000|XOffset=0mil|YOffset=0mil|HoleType=Round|Shape=Rectangle|*
%AMROTATEDRECTD33*
4,1,4,-0.0279,-0.0067,-0.0032,0.0285,0.0279,0.0067,0.0032,-0.0285,-0.0279,-0.0067,0.0*
%
%ADD33ROTATEDRECTD33*%

G04:AMPARAMS|DCode=34|XSize=38mil|YSize=43mil|CornerRadius=0mil|HoleSize=0mil|Usage=FLASHONLY|Rotation=327.000|XOffset=0mil|YOffset=0mil|HoleType=Round|Shape=Rectangle|*
%AMROTATEDRECTD34*
4,1,4,-0.0276,-0.0077,-0.0042,0.0284,0.0276,0.0077,0.0042,-0.0284,-0.0276,-0.0077,0.0*
%
%ADD34ROTATEDRECTD34*%

G04:AMPARAMS|DCode=35|XSize=68mil|YSize=64mil|CornerRadius=0mil|HoleSize=0mil|Usage=FLASHONLY|Rotation=328.000|XOffset=0mil|YOffset=0mil|HoleType=Round|Shape=Rectangle|*
%AMROTATEDRECTD35*
4,1,4,-0.0458,-0.0091,-0.0119,0.0452,0.0458,0.0091,0.0119,-0.0452,-0.0458,-0.0091,0.0*
%
%ADD35ROTATEDRECTD35*%

G04:AMPARAMS|DCode=36|XSize=68mil|YSize=64mil|CornerRadius=0mil|HoleSize=0mil|Usage=FLASHONLY|Rotation=327.000|XOffset=0mil|YOffset=0mil|HoleType=Round|Shape=Rectangle|*
%AMROTATEDRECTD36*
4,1,4,-0.0459,-0.0083,-0.0111,0.0454,0.0459,0.0083,0.0111,-0.0454,-0.0459,-0.0083,0.0*
%
%ADD36ROTATEDRECTD36*%

%ADD37R,0.0220X0.0880*%
%ADD38R,0.0380X0.0430*%
%ADD39R,0.0430X0.0380*%
%ADD40R,0.0680X0.0640*%
%ADD41R,0.0280X0.0320*%
%ADD42R,0.0640X0.0680*%
%ADD43R,0.0480X0.0330*%
%ADD44O,0.0591X0.0394*%
%ADD45C,0.0680*%
%ADD46C,0.0788*%
%ADD47C,0.0980*%
%ADD48C,0.0780*%
%ADD49C,0.0480*%
%ADD50C,0.0580*%
%ADD51R,0.0510X0.0670*%
G54D38*
X56000Y197000D02*
D03*
X55400D02*
D03*
G54D39*
X58800Y188000D02*
D03*
Y188600D02*
D03*
X58000Y188000D02*
D03*
Y188600D02*
D03*
X80400Y187600D02*
D03*
Y188200D02*
D03*
X80942Y187607D02*
D03*
Y188207D02*
D03*
G54D44*
X77743Y194406D02*
D03*
X77742Y193402D02*
D03*
X77743Y192390D02*
D03*
Y191406D02*
D03*
X77738Y190413D02*
D03*
X77743Y189406D02*
D03*
Y188406D02*
D03*
Y187406D02*
D03*
X77738Y186400D02*
D03*
X77743Y185406D02*
D03*
Y184406D02*
D03*
Y183406D02*
D03*
Y182406D02*
D03*
X77738Y181406D02*
D03*
X74195D02*
D03*
X74200Y182406D02*
D03*
Y183406D02*
D03*
Y184406D02*
D03*
Y185406D02*
D03*
X74195Y186400D02*
D03*
X74200Y187406D02*
D03*
Y188406D02*
D03*
Y189406D02*
D03*
X74195Y190413D02*
D03*
X74200Y191406D02*
D03*
Y192390D02*
D03*
X74199Y193402D02*
D03*
X74200Y194406D02*
D03*
G54D45*
X95800Y179600D02*
D03*
X95400Y198000D02*
D03*
X70200Y180200D02*
D03*
X72000Y198400D02*
D03*
X49800Y197400D02*
D03*
X95600Y159800D02*
D03*
X48600Y154200D02*
D03*
Y172000D02*
D03*
G54D46*
X89000Y166550D02*
D03*
Y167534D02*
D03*
Y168519D02*
D03*
X85000Y166550D02*
D03*
Y167534D02*
D03*
Y168519D02*
D03*
X87000Y171150D02*
D03*
Y172134D02*
D03*
Y173118D02*
D03*
X83000Y171150D02*
D03*
Y172134D02*
D03*
Y173118D02*
D03*
X79000Y171150D02*
D03*
Y172134D02*
D03*
Y173118D02*
D03*
X81000Y166550D02*
D03*
Y167534D02*
D03*
Y168519D02*
D03*
X77000Y166550D02*
D03*
Y167534D02*
D03*
Y168519D02*
D03*
X73200Y166550D02*
D03*
Y167534D02*
D03*
Y168519D02*
D03*
X75200Y171150D02*
D03*
Y172134D02*
D03*
Y173118D02*
D03*
X71200Y171150D02*
D03*
Y172134D02*
D03*
Y173118D02*
D03*
X67200Y171150D02*
D03*
Y172134D02*
D03*
Y173118D02*
D03*
X69200Y166600D02*
D03*
Y167584D02*
D03*
Y168568D02*
D03*
X63400Y171150D02*
D03*
Y172134D02*
D03*
Y173118D02*
D03*
X65400Y166616D02*
D03*
Y167600D02*
D03*
Y168584D02*
D03*
X61400Y166600D02*
D03*
Y167584D02*
D03*
Y168568D02*
D03*
G54D47*
X83200Y191800D02*
D03*
X91270D02*
D03*
G54D48*
X80600Y195800D02*
D03*
Y194800D02*
D03*
X71600Y193880D02*
D03*
Y194880D02*
D03*
X71400Y191080D02*
D03*
X70400D02*
D03*
X69400D02*
D03*
Y190080D02*
D03*
X70400D02*
D03*
X71400D02*
D03*
G54D49*
X75760Y192970D02*
D03*
X58840Y192770D02*
D03*
X76150Y197250D02*
D03*
X71430Y197590D02*
D03*
X71230Y198040D02*
D03*
X84540Y188550D02*
D03*
X85120Y188270D02*
D03*
X70010Y187730D02*
D03*
X71980Y185870D02*
D03*
X67100Y191520D02*
D03*
X84470Y181370D02*
D03*
X80080Y181290D02*
D03*
X81790Y188430D02*
D03*
X80760Y183140D02*
D03*
X63530Y186850D02*
D03*
X63650Y187540D02*
D03*
X64120Y187870D02*
D03*
X90670Y181830D02*
D03*
X90070Y182050D02*
D03*
X89700Y182800D02*
D03*
X88980Y183090D02*
D03*
X88710Y183820D02*
D03*
X88010Y183960D02*
D03*
X87740Y184790D02*
D03*
X87040Y185000D02*
D03*
X86810Y185470D02*
D03*
X60090Y189480D02*
D03*
X60070Y190020D02*
D03*
X58330Y192670D02*
D03*
X58410Y188600D02*
D03*
X58400Y188000D02*
D03*
X62190Y176210D02*
D03*
X61670D02*
D03*
X62200Y174930D02*
D03*
X61570D02*
D03*
X64590Y174900D02*
D03*
X63980Y174890D02*
D03*
X64680Y176210D02*
D03*
X64050D02*
D03*
X66530Y176290D02*
D03*
X66040Y176200D02*
D03*
X66480Y174890D02*
D03*
X65930Y174860D02*
D03*
X68470Y174890D02*
D03*
X67760D02*
D03*
X68390Y176210D02*
D03*
X67820D02*
D03*
X70580D02*
D03*
X70040D02*
D03*
X70490Y174910D02*
D03*
X69930D02*
D03*
X72290Y174890D02*
D03*
X71720D02*
D03*
X72330Y176280D02*
D03*
X71820Y176210D02*
D03*
X74350Y174780D02*
D03*
X73720D02*
D03*
X74490Y176310D02*
D03*
X73840Y176200D02*
D03*
X76380Y176300D02*
D03*
X75820Y176200D02*
D03*
X76200Y174830D02*
D03*
X75650D02*
D03*
X78310Y174730D02*
D03*
X77550D02*
D03*
X78170Y176190D02*
D03*
X77660Y176210D02*
D03*
X89980Y174300D02*
D03*
X89560Y174790D02*
D03*
X90170Y176120D02*
D03*
X89640Y176200D02*
D03*
X88140Y174770D02*
D03*
X87520Y174860D02*
D03*
X88120Y176210D02*
D03*
X87610D02*
D03*
X86420Y174760D02*
D03*
X85550D02*
D03*
X86340Y176170D02*
D03*
X85720Y176210D02*
D03*
X84220D02*
D03*
X83620D02*
D03*
X84300Y174770D02*
D03*
X83460Y174820D02*
D03*
X82170Y174900D02*
D03*
X81570D02*
D03*
X82410Y176220D02*
D03*
X81850Y176210D02*
D03*
X80340Y174820D02*
D03*
X79630D02*
D03*
X80310Y176210D02*
D03*
X79720Y176200D02*
D03*
G54D50*
X76120Y188530D02*
D03*
X75960Y193530D02*
D03*
X68470Y196060D02*
D03*
X66990Y195990D02*
D03*
X75460Y186120D02*
D03*
X72160Y177450D02*
D03*
X72640Y178230D02*
D03*
X72400Y178940D02*
D03*
X72750Y179590D02*
D03*
X68420Y197070D02*
D03*
X67160Y197150D02*
D03*
X73460Y195540D02*
D03*
G54D51*
X53400Y198180D02*
D03*
Y197000D02*
D03*
X52810D02*
D03*
Y198180D02*
D03*
M02*
