M48
;Layer_Color=9474304
;FILE_FORMAT=2:4
INCH,TZ
;TYPE=PLATED
T1F00S00C0.0200
T2F00S00C0.0213
T3F00S00C0.0217
T4F00S00C0.0276
T5F00S00C0.0280
T6F00S00C0.0350
T7F00S00C0.0600
%
T01
X80760Y183140
X80080Y181290
X84470Y181370
X84220Y176210
X83620
X82410Y176220
X81850Y176210
X80310
X79720Y176200
X79630Y174820
X80340
X81570Y174900
X82170
X83460Y174820
X84300Y174770
X85550Y174760
X86420
X87520Y174860
X88140Y174770
X89560Y174790
X89980Y174300
X90170Y176120
X89640Y176200
X88120Y176210
X87610
X86340Y176170
X85720Y176210
X78170Y176190
X78310Y174730
X88010Y183960
X88710Y183820
X88980Y183090
X89700Y182800
X90070Y182050
X90670Y181830
X87740Y184790
X87040Y185000
X86810Y185470
X71980Y185870
X63530Y186850
X64050Y176210
X64680
X66040Y176200
X66530Y176290
X67820Y176210
X68390
X68470Y174890
X67760
X66480
X65930Y174860
X64590Y174900
X63980Y174890
X69930Y174910
X70490
X71720Y174890
X72290
X72330Y176280
X71820Y176210
X70580
X70040
X73840Y176200
X74490Y176310
X75820Y176200
X76380Y176300
X77660Y176210
X77550Y174730
X76200Y174830
X75650
X74350Y174780
X73720
X62200Y174930
X61570
X61670Y176210
X62190
X60090Y189480
X60070Y190020
X58410Y188600
X58400Y188000
X58330Y192670
X58840Y192770
X67100Y191520
X64120Y187870
X63650Y187540
X70010Y187730
X75760Y192970
X76150Y197250
X71430Y197590
X71230Y198040
X81790Y188430
X84540Y188550
X85120Y188270
T02
X74200Y187406
X74195Y186400
X74200Y185406
Y184406
Y183406
Y182406
X74195Y181406
X77738
X77743Y182406
Y183406
Y184406
Y185406
X77738Y186400
X77743Y187406
Y188406
Y189406
X77738Y190413
X77743Y191406
Y192390
X77742Y193402
X74199
X74200Y194406
Y192390
Y191406
X74195Y190413
X74200Y189406
Y188406
T03
X77743Y194406
T04
X61400Y168568
Y167584
Y166600
X65400Y166616
Y167600
Y168584
X69200Y168568
Y167584
Y166600
X73200Y166550
Y167534
Y168519
X77000
Y167534
Y166550
X75200Y171150
X71200
X67200
X63400
X79000
X83000
X87000
X89000Y168519
Y167534
Y166550
X85000
Y167534
Y168519
X81000
Y167534
Y166550
X83000Y172134
Y173118
X87000
Y172134
X79000
Y173118
X75200
Y172134
X71200
Y173118
X67200
Y172134
X63400
Y173118
T05
X75460Y186120
X72750Y179590
X72400Y178940
X72640Y178230
X72160Y177450
X76120Y188530
X75960Y193530
X73460Y195540
X68470Y196060
X68420Y197070
X67160Y197150
X66990Y195990
T06
X48600Y154200
X95600Y159800
X95800Y179600
X70200Y180200
X48600Y172000
X49800Y197400
X72000Y198400
X71600Y194880
Y193880
X71400Y191080
X70400
X69400
Y190080
X70400
X71400
X80600Y194800
Y195800
X95400Y198000
T07
X83200Y191800
X91270
M30
