%FSLAX24Y24*%
%MOIN*%
G70*
G01*
G75*
G04 Layer_Physical_Order=2*
G04 Layer_Color=16711680*
%ADD10C,0.0591*%
%ADD11C,0.0472*%
%ADD12R,0.0394X0.0354*%
%ADD13R,0.0236X0.0512*%
%ADD14R,0.0276X0.0354*%
%ADD15R,0.0354X0.0276*%
%ADD16R,0.0551X0.0472*%
%ADD17R,0.0197X0.0591*%
%ADD18R,0.0512X0.0236*%
%ADD19R,0.0354X0.0394*%
%ADD20R,0.0787X0.0177*%
%ADD21R,0.0177X0.0787*%
%ADD22R,0.2362X0.0984*%
%ADD23O,0.0138X0.0827*%
%ADD24R,0.2165X0.0984*%
%ADD25R,0.0472X0.0551*%
G04:AMPARAMS|DCode=26|XSize=70.9mil|YSize=63mil|CornerRadius=0mil|HoleSize=0mil|Usage=FLASHONLY|Rotation=336.000|XOffset=0mil|YOffset=0mil|HoleType=Round|Shape=Rectangle|*
%AMROTATEDRECTD26*
4,1,4,-0.0452,-0.0144,-0.0196,0.0432,0.0452,0.0144,0.0196,-0.0432,-0.0452,-0.0144,0.0*
%
%ADD26ROTATEDRECTD26*%

G04:AMPARAMS|DCode=27|XSize=70.9mil|YSize=63mil|CornerRadius=0mil|HoleSize=0mil|Usage=FLASHONLY|Rotation=120.000|XOffset=0mil|YOffset=0mil|HoleType=Round|Shape=Rectangle|*
%AMROTATEDRECTD27*
4,1,4,0.0450,-0.0149,-0.0096,-0.0464,-0.0450,0.0149,0.0096,0.0464,0.0450,-0.0149,0.0*
%
%ADD27ROTATEDRECTD27*%

G04:AMPARAMS|DCode=28|XSize=51.2mil|YSize=39.4mil|CornerRadius=0mil|HoleSize=0mil|Usage=FLASHONLY|Rotation=31.000|XOffset=0mil|YOffset=0mil|HoleType=Round|Shape=Rectangle|*
%AMROTATEDRECTD28*
4,1,4,-0.0118,-0.0301,-0.0321,0.0037,0.0118,0.0301,0.0321,-0.0037,-0.0118,-0.0301,0.0*
%
%ADD28ROTATEDRECTD28*%

G04:AMPARAMS|DCode=29|XSize=51.2mil|YSize=39.4mil|CornerRadius=0mil|HoleSize=0mil|Usage=FLASHONLY|Rotation=319.000|XOffset=0mil|YOffset=0mil|HoleType=Round|Shape=Rectangle|*
%AMROTATEDRECTD29*
4,1,4,-0.0322,0.0019,-0.0064,0.0316,0.0322,-0.0019,0.0064,-0.0316,-0.0322,0.0019,0.0*
%
%ADD29ROTATEDRECTD29*%

G04:AMPARAMS|DCode=30|XSize=51.2mil|YSize=39.4mil|CornerRadius=0mil|HoleSize=0mil|Usage=FLASHONLY|Rotation=101.000|XOffset=0mil|YOffset=0mil|HoleType=Round|Shape=Rectangle|*
%AMROTATEDRECTD30*
4,1,4,0.0242,-0.0214,-0.0144,-0.0289,-0.0242,0.0214,0.0144,0.0289,0.0242,-0.0214,0.0*
%
%ADD30ROTATEDRECTD30*%

G04:AMPARAMS|DCode=31|XSize=70.9mil|YSize=63mil|CornerRadius=0mil|HoleSize=0mil|Usage=FLASHONLY|Rotation=190.000|XOffset=0mil|YOffset=0mil|HoleType=Round|Shape=Rectangle|*
%AMROTATEDRECTD31*
4,1,4,0.0294,0.0372,0.0404,-0.0249,-0.0294,-0.0372,-0.0404,0.0249,0.0294,0.0372,0.0*
%
%ADD31ROTATEDRECTD31*%

G04:AMPARAMS|DCode=32|XSize=70.9mil|YSize=63mil|CornerRadius=0mil|HoleSize=0mil|Usage=FLASHONLY|Rotation=48.000|XOffset=0mil|YOffset=0mil|HoleType=Round|Shape=Rectangle|*
%AMROTATEDRECTD32*
4,1,4,-0.0003,-0.0474,-0.0471,-0.0053,0.0003,0.0474,0.0471,0.0053,-0.0003,-0.0474,0.0*
%
%ADD32ROTATEDRECTD32*%

G04:AMPARAMS|DCode=33|XSize=51.2mil|YSize=39.4mil|CornerRadius=0mil|HoleSize=0mil|Usage=FLASHONLY|Rotation=246.000|XOffset=0mil|YOffset=0mil|HoleType=Round|Shape=Rectangle|*
%AMROTATEDRECTD33*
4,1,4,-0.0076,0.0314,0.0284,0.0154,0.0076,-0.0314,-0.0284,-0.0154,-0.0076,0.0314,0.0*
%
%ADD33ROTATEDRECTD33*%

G04:AMPARAMS|DCode=34|XSize=70.9mil|YSize=63mil|CornerRadius=0mil|HoleSize=0mil|Usage=FLASHONLY|Rotation=264.000|XOffset=0mil|YOffset=0mil|HoleType=Round|Shape=Rectangle|*
%AMROTATEDRECTD34*
4,1,4,-0.0276,0.0385,0.0350,0.0319,0.0276,-0.0385,-0.0350,-0.0319,-0.0276,0.0385,0.0*
%
%ADD34ROTATEDRECTD34*%

G04:AMPARAMS|DCode=35|XSize=51.2mil|YSize=39.4mil|CornerRadius=0mil|HoleSize=0mil|Usage=FLASHONLY|Rotation=176.000|XOffset=0mil|YOffset=0mil|HoleType=Round|Shape=Rectangle|*
%AMROTATEDRECTD35*
4,1,4,0.0269,0.0179,0.0242,-0.0214,-0.0269,-0.0179,-0.0242,0.0214,0.0269,0.0179,0.0*
%
%ADD35ROTATEDRECTD35*%

%ADD36C,0.0197*%
%ADD37C,0.0177*%
%ADD38C,0.0138*%
%ADD39C,0.0118*%
%ADD40C,0.0236*%
%ADD41C,0.0394*%
%ADD42C,0.0315*%
%ADD43C,0.0276*%
%ADD44O,0.0669X0.0787*%
%ADD45O,0.0787X0.0709*%
%ADD46O,0.1969X0.1181*%
%ADD47O,0.0591X0.0866*%
%ADD48R,0.0591X0.0866*%
%ADD49C,0.0700*%
%ADD50O,0.0866X0.0591*%
%ADD51R,0.0866X0.0591*%
%ADD52C,0.1181*%
%ADD53C,0.0394*%
G04:AMPARAMS|DCode=54|XSize=70.9mil|YSize=98.4mil|CornerRadius=0mil|HoleSize=0mil|Usage=FLASHONLY|Rotation=54.000|XOffset=0mil|YOffset=0mil|HoleType=Round|Shape=Round|*
%AMOVALD54*
21,1,0.0276,0.0709,0.0000,0.0000,144.0*
1,1,0.0709,0.0111,-0.0081*
1,1,0.0709,-0.0111,0.0081*
%
%ADD54OVALD54*%

G04:AMPARAMS|DCode=55|XSize=70.9mil|YSize=98.4mil|CornerRadius=0mil|HoleSize=0mil|Usage=FLASHONLY|Rotation=126.000|XOffset=0mil|YOffset=0mil|HoleType=Round|Shape=Round|*
%AMOVALD55*
21,1,0.0276,0.0709,0.0000,0.0000,216.0*
1,1,0.0709,0.0111,0.0081*
1,1,0.0709,-0.0111,-0.0081*
%
%ADD55OVALD55*%

G04:AMPARAMS|DCode=56|XSize=70.9mil|YSize=98.4mil|CornerRadius=0mil|HoleSize=0mil|Usage=FLASHONLY|Rotation=198.000|XOffset=0mil|YOffset=0mil|HoleType=Round|Shape=Round|*
%AMOVALD56*
21,1,0.0276,0.0709,0.0000,0.0000,288.0*
1,1,0.0709,-0.0043,0.0131*
1,1,0.0709,0.0043,-0.0131*
%
%ADD56OVALD56*%

%ADD57O,0.0984X0.0709*%
G04:AMPARAMS|DCode=58|XSize=70.9mil|YSize=98.4mil|CornerRadius=0mil|HoleSize=0mil|Usage=FLASHONLY|Rotation=342.000|XOffset=0mil|YOffset=0mil|HoleType=Round|Shape=Round|*
%AMOVALD58*
21,1,0.0276,0.0709,0.0000,0.0000,72.0*
1,1,0.0709,-0.0043,-0.0131*
1,1,0.0709,0.0043,0.0131*
%
%ADD58OVALD58*%

%ADD59C,0.0472*%
G36*
X558Y14454D02*
X580Y14409D01*
X567Y14392D01*
X523Y14286D01*
X508Y14173D01*
X523Y14060D01*
X567Y13955D01*
X636Y13864D01*
X726Y13795D01*
X832Y13751D01*
X945Y13736D01*
X1058Y13751D01*
X1163Y13795D01*
X1175Y13804D01*
X1449Y13782D01*
X2168Y13687D01*
X2881Y13555D01*
X3587Y13386D01*
X4282Y13180D01*
X4966Y12938D01*
X5637Y12660D01*
X6291Y12348D01*
X6929Y12001D01*
X7548Y11622D01*
X8146Y11211D01*
X8721Y10770D01*
X9273Y10299D01*
X9799Y9799D01*
X10299Y9273D01*
X10770Y8721D01*
X10944Y8494D01*
X10916Y8453D01*
X10784Y8493D01*
X10709Y8500D01*
Y7795D01*
X11413D01*
X11417Y7761D01*
X11464Y7778D01*
X11622Y7548D01*
X12001Y6929D01*
X12348Y6291D01*
X12660Y5637D01*
X12938Y4966D01*
X13180Y4282D01*
X13386Y3587D01*
X13555Y2881D01*
X13687Y2168D01*
X13782Y1449D01*
X13839Y725D01*
X13858Y0D01*
X13839Y-725D01*
X13782Y-1449D01*
X13687Y-2168D01*
X13555Y-2881D01*
X13386Y-3587D01*
X13180Y-4282D01*
X12938Y-4966D01*
X12660Y-5637D01*
X12348Y-6291D01*
X12001Y-6929D01*
X11622Y-7548D01*
X11211Y-8146D01*
X10770Y-8721D01*
X10299Y-9273D01*
X9799Y-9799D01*
X9273Y-10299D01*
X8721Y-10770D01*
X8146Y-11211D01*
X7548Y-11622D01*
X6929Y-12001D01*
X6291Y-12348D01*
X5637Y-12660D01*
X4966Y-12938D01*
X4282Y-13180D01*
X3587Y-13386D01*
X2881Y-13555D01*
X2168Y-13687D01*
X1449Y-13782D01*
X1103Y-13809D01*
X1085Y-13795D01*
X979Y-13751D01*
X866Y-13736D01*
X753Y-13751D01*
X648Y-13795D01*
X557Y-13864D01*
X488Y-13955D01*
X444Y-14060D01*
X429Y-14173D01*
X444Y-14286D01*
X488Y-14392D01*
X503Y-14411D01*
X481Y-14456D01*
X0Y-14468D01*
X-757Y-14449D01*
X-1512Y-14389D01*
X-2263Y-14290D01*
X-3008Y-14152D01*
X-3745Y-13975D01*
X-4471Y-13760D01*
X-5185Y-13507D01*
X-5885Y-13218D01*
X-6569Y-12891D01*
X-7234Y-12530D01*
X-7880Y-12134D01*
X-8504Y-11705D01*
X-9105Y-11244D01*
X-9681Y-10752D01*
X-10231Y-10231D01*
X-10752Y-9681D01*
X-11244Y-9105D01*
X-11705Y-8504D01*
X-12134Y-7880D01*
X-12530Y-7234D01*
X-12891Y-6569D01*
X-13218Y-5885D01*
X-13507Y-5185D01*
X-13760Y-4471D01*
X-13975Y-3745D01*
X-14152Y-3008D01*
X-14290Y-2263D01*
X-14389Y-1512D01*
X-14449Y-757D01*
X-14468Y0D01*
X-14449Y757D01*
X-14389Y1512D01*
X-14290Y2263D01*
X-14152Y3008D01*
X-13975Y3745D01*
X-13760Y4471D01*
X-13507Y5185D01*
X-13218Y5885D01*
X-12891Y6569D01*
X-12530Y7234D01*
X-12134Y7880D01*
X-11705Y8504D01*
X-11244Y9105D01*
X-10752Y9681D01*
X-10231Y10231D01*
X-9681Y10752D01*
X-9105Y11244D01*
X-8504Y11705D01*
X-7880Y12134D01*
X-7234Y12530D01*
X-6569Y12891D01*
X-5885Y13218D01*
X-5185Y13507D01*
X-4471Y13760D01*
X-4198Y13841D01*
X-4158Y13811D01*
Y13284D01*
X-4234Y13252D01*
X-4325Y13183D01*
X-4394Y13092D01*
X-4438Y12987D01*
X-4453Y12874D01*
X-4438Y12761D01*
X-4413Y12701D01*
Y12693D01*
X-4438Y12633D01*
X-4453Y12520D01*
X-4438Y12407D01*
X-4394Y12301D01*
X-4325Y12211D01*
X-4234Y12141D01*
X-4129Y12098D01*
X-4016Y12083D01*
X-3903Y12098D01*
X-3843Y12123D01*
X-3480D01*
X-3420Y12098D01*
X-3307Y12083D01*
X-3194Y12098D01*
X-3089Y12141D01*
X-2998Y12211D01*
X-2929Y12301D01*
X-2885Y12407D01*
X-2870Y12520D01*
X-2885Y12633D01*
X-2912Y12697D01*
X-2885Y12761D01*
X-2870Y12874D01*
X-2885Y12987D01*
X-2929Y13092D01*
X-2998Y13183D01*
X-3089Y13252D01*
X-3165Y13284D01*
Y14115D01*
X-3008Y14152D01*
X-2263Y14290D01*
X-1512Y14389D01*
X-757Y14449D01*
X0Y14468D01*
X558Y14454D01*
D02*
G37*
%LPC*%
G36*
X-695Y-529D02*
X-1201D01*
X-1193Y-594D01*
X-1137Y-728D01*
X-1049Y-843D01*
X-933Y-931D01*
X-799Y-987D01*
X-695Y-1001D01*
Y-529D01*
D02*
G37*
G36*
X-31D02*
X-537D01*
Y-1001D01*
X-433Y-987D01*
X-299Y-931D01*
X-184Y-843D01*
X-95Y-728D01*
X-40Y-594D01*
X-31Y-529D01*
D02*
G37*
G36*
X-3500Y-263D02*
X-3613Y-278D01*
X-3718Y-322D01*
X-3809Y-391D01*
X-3878Y-482D01*
X-3922Y-587D01*
X-3937Y-700D01*
X-3933Y-726D01*
X-4354Y-1146D01*
X-4354Y-1146D01*
X-4415Y-1207D01*
X-4775D01*
X-4791Y-1186D01*
X-4882Y-1117D01*
X-4987Y-1073D01*
X-5100Y-1058D01*
X-5213Y-1073D01*
X-5318Y-1117D01*
X-5409Y-1186D01*
X-5478Y-1277D01*
X-5522Y-1382D01*
X-5537Y-1495D01*
X-5522Y-1608D01*
X-5478Y-1714D01*
X-5409Y-1804D01*
X-5318Y-1874D01*
X-5213Y-1917D01*
X-5100Y-1932D01*
X-4987Y-1917D01*
X-4882Y-1874D01*
X-4791Y-1804D01*
X-4775Y-1783D01*
X-4295D01*
X-4295Y-1783D01*
X-4229Y-1775D01*
X-4221Y-1773D01*
X-4151Y-1745D01*
X-4092Y-1699D01*
X-3946Y-1554D01*
X-3946Y-1554D01*
X-3526Y-1133D01*
X-3500Y-1137D01*
X-3387Y-1122D01*
X-3282Y-1078D01*
X-3191Y-1009D01*
X-3122Y-918D01*
X-3078Y-813D01*
X-3063Y-700D01*
X-3078Y-587D01*
X-3122Y-482D01*
X-3191Y-391D01*
X-3282Y-322D01*
X-3387Y-278D01*
X-3500Y-263D01*
D02*
G37*
G36*
X683Y1090D02*
X604D01*
X460Y1071D01*
X326Y1016D01*
X211Y927D01*
X123Y812D01*
X67Y678D01*
X48Y534D01*
X67Y390D01*
X123Y256D01*
X211Y141D01*
X308Y67D01*
Y17D01*
X211Y-57D01*
X123Y-172D01*
X67Y-306D01*
X48Y-450D01*
X67Y-594D01*
X123Y-728D01*
X211Y-843D01*
X326Y-931D01*
X460Y-987D01*
X604Y-1006D01*
X683D01*
X827Y-987D01*
X961Y-931D01*
X1076Y-843D01*
X1165Y-728D01*
X1220Y-594D01*
X1239Y-450D01*
X1220Y-306D01*
X1165Y-172D01*
X1076Y-57D01*
X961Y31D01*
Y53D01*
X1076Y141D01*
X1165Y256D01*
X1220Y390D01*
X1239Y534D01*
X1220Y678D01*
X1165Y812D01*
X1076Y927D01*
X961Y1016D01*
X827Y1071D01*
X683Y1090D01*
D02*
G37*
G36*
X-30Y3203D02*
X-817D01*
X-971Y3188D01*
X-1120Y3143D01*
X-1257Y3070D01*
X-1376Y2972D01*
X-1475Y2852D01*
X-1548Y2715D01*
X-1593Y2567D01*
X-1608Y2412D01*
X-1593Y2258D01*
X-1548Y2109D01*
X-1475Y1973D01*
X-1376Y1853D01*
X-1257Y1754D01*
X-1120Y1681D01*
X-971Y1636D01*
X-817Y1621D01*
X-30D01*
X125Y1636D01*
X273Y1681D01*
X410Y1754D01*
X530Y1853D01*
X628Y1973D01*
X701Y2109D01*
X746Y2258D01*
X762Y2412D01*
X746Y2567D01*
X701Y2715D01*
X628Y2852D01*
X530Y2972D01*
X410Y3070D01*
X273Y3143D01*
X125Y3188D01*
X-30Y3203D01*
D02*
G37*
G36*
X3268Y4925D02*
X3155Y4910D01*
X3049Y4866D01*
X2959Y4797D01*
X2889Y4707D01*
X2846Y4601D01*
X2831Y4488D01*
X2846Y4375D01*
X2889Y4270D01*
X2950Y4191D01*
Y3368D01*
X2889Y3289D01*
X2846Y3184D01*
X2831Y3071D01*
X2846Y2958D01*
X2889Y2852D01*
X2959Y2762D01*
X3049Y2693D01*
X3155Y2649D01*
X3268Y2634D01*
X3381Y2649D01*
X3486Y2693D01*
X3577Y2762D01*
X3646Y2852D01*
X3690Y2958D01*
X3705Y3071D01*
X3690Y3184D01*
X3646Y3289D01*
X3585Y3368D01*
Y4191D01*
X3646Y4270D01*
X3690Y4375D01*
X3705Y4488D01*
X3690Y4601D01*
X3646Y4707D01*
X3577Y4797D01*
X3486Y4866D01*
X3381Y4910D01*
X3268Y4925D01*
D02*
G37*
G36*
X-577Y1090D02*
X-656D01*
X-799Y1071D01*
X-933Y1016D01*
X-1049Y927D01*
X-1137Y812D01*
X-1193Y678D01*
X-1211Y534D01*
X-1193Y390D01*
X-1137Y256D01*
X-1049Y141D01*
X-952Y67D01*
Y17D01*
X-1049Y-57D01*
X-1137Y-172D01*
X-1193Y-306D01*
X-1201Y-371D01*
X-31D01*
X-40Y-306D01*
X-95Y-172D01*
X-184Y-57D01*
X-299Y31D01*
Y53D01*
X-184Y141D01*
X-95Y256D01*
X-40Y390D01*
X-21Y534D01*
X-40Y678D01*
X-95Y812D01*
X-184Y927D01*
X-299Y1016D01*
X-433Y1071D01*
X-577Y1090D01*
D02*
G37*
G36*
X-9500Y1552D02*
X-9643Y1533D01*
X-9776Y1478D01*
X-9890Y1390D01*
X-9975Y1279D01*
X-10025D01*
X-10110Y1390D01*
X-10224Y1478D01*
X-10357Y1533D01*
X-10500Y1552D01*
X-10643Y1533D01*
X-10776Y1478D01*
X-10890Y1390D01*
X-10968Y1288D01*
X-11100D01*
X-11175Y1278D01*
X-11244Y1249D01*
X-11304Y1204D01*
X-11304Y1204D01*
X-12004Y504D01*
X-12049Y444D01*
X-12078Y375D01*
X-12079Y366D01*
X-12088Y300D01*
X-12088Y300D01*
Y-4600D01*
X-12088Y-4600D01*
X-12079Y-4666D01*
X-12078Y-4675D01*
X-12049Y-4744D01*
X-12004Y-4804D01*
X-11088Y-5719D01*
Y-6450D01*
X-11088Y-6450D01*
X-11079Y-6516D01*
X-11078Y-6525D01*
X-11049Y-6594D01*
X-11004Y-6654D01*
X-11004Y-6654D01*
X-11004Y-6654D01*
Y-6654D01*
X-10180Y-7478D01*
X-10180Y-7478D01*
X-10134Y-7513D01*
X-10120Y-7523D01*
X-10050Y-7552D01*
X-9976Y-7562D01*
X-9976Y-7562D01*
X-8954D01*
X-8938Y-7583D01*
X-8847Y-7652D01*
X-8742Y-7696D01*
X-8629Y-7711D01*
X-8516Y-7696D01*
X-8410Y-7652D01*
X-8320Y-7583D01*
X-8250Y-7492D01*
X-8207Y-7387D01*
X-8204Y-7366D01*
X-8157Y-7350D01*
X-7199Y-8309D01*
Y-8625D01*
X-7219Y-8641D01*
X-7289Y-8732D01*
X-7333Y-8837D01*
X-7347Y-8950D01*
X-7333Y-9063D01*
X-7289Y-9168D01*
X-7219Y-9259D01*
X-7129Y-9328D01*
X-7024Y-9372D01*
X-6911Y-9387D01*
X-6798Y-9372D01*
X-6692Y-9328D01*
X-6683Y-9321D01*
X-6638Y-9343D01*
Y-9659D01*
X-6668Y-9672D01*
X-6759Y-9741D01*
X-6828Y-9832D01*
X-6872Y-9937D01*
X-6887Y-10050D01*
X-6872Y-10163D01*
X-6828Y-10268D01*
X-6759Y-10359D01*
X-6668Y-10428D01*
X-6563Y-10472D01*
X-6450Y-10487D01*
X-6337Y-10472D01*
X-6239Y-10432D01*
X-6198Y-10459D01*
D01*
X-6198Y-10500D01*
X-6198Y-10500D01*
X-6198D01*
X-6188Y-10577D01*
X-6158Y-10649D01*
X-6111Y-10711D01*
X-4461Y-12361D01*
X-4461Y-12361D01*
X-4399Y-12408D01*
D01*
D01*
Y-12408D01*
X-4399Y-12408D01*
D01*
D01*
X-4399D01*
Y-12408D01*
D01*
X-4399D01*
Y-12408D01*
X-4327Y-12438D01*
X-4250Y-12448D01*
X-1408D01*
X-1402Y-12463D01*
X-1359Y-12518D01*
X-1372Y-12566D01*
X-1380Y-12569D01*
X-1462Y-12633D01*
X-1525Y-12715D01*
X-1565Y-12811D01*
X-1578Y-12913D01*
X-1565Y-13016D01*
X-1525Y-13112D01*
X-1462Y-13194D01*
X-1380Y-13257D01*
X-1284Y-13297D01*
X-1181Y-13310D01*
X-1078Y-13297D01*
X-983Y-13257D01*
X-900Y-13194D01*
X-876Y-13163D01*
X-828Y-13176D01*
X-831Y-13150D01*
X-824Y-13079D01*
X-820Y-13071D01*
X-118D01*
Y-12366D01*
X-194Y-12374D01*
X-342Y-12419D01*
X-479Y-12492D01*
X-599Y-12590D01*
X-697Y-12710D01*
X-747Y-12804D01*
X-771Y-12807D01*
X-800Y-12806D01*
X-837Y-12715D01*
X-858Y-12687D01*
X-845Y-12639D01*
X-805Y-12622D01*
X-715Y-12553D01*
X-645Y-12463D01*
X-602Y-12357D01*
X-587Y-12244D01*
X-597Y-12164D01*
X-558Y-12133D01*
X-507Y-12154D01*
X-394Y-12169D01*
X-281Y-12154D01*
X-175Y-12111D01*
X-85Y-12041D01*
X-15Y-11951D01*
X28Y-11845D01*
X43Y-11732D01*
X28Y-11619D01*
X-15Y-11514D01*
X-32Y-11493D01*
X-10Y-11448D01*
X127D01*
X937Y-12258D01*
X937Y-12258D01*
X998Y-12305D01*
X1070Y-12335D01*
X1147Y-12345D01*
X1147Y-12345D01*
X3504D01*
X3581Y-12335D01*
X3632Y-12314D01*
X3653Y-12305D01*
X3715Y-12258D01*
X4848Y-11125D01*
X5079D01*
X5156Y-11114D01*
X5228Y-11085D01*
X5289Y-11037D01*
X5289Y-11037D01*
X5289Y-11037D01*
X6411Y-9916D01*
X6458Y-9854D01*
X6458Y-9854D01*
X6458Y-9854D01*
X6488Y-9783D01*
X6496Y-9719D01*
X6509Y-9709D01*
X6578Y-9618D01*
X6622Y-9513D01*
X6637Y-9400D01*
X6622Y-9287D01*
X6578Y-9182D01*
X6509Y-9091D01*
X6418Y-9022D01*
X6313Y-8978D01*
X6200Y-8963D01*
X6087Y-8978D01*
X5982Y-9022D01*
X5951Y-9045D01*
X5916Y-9040D01*
X5896Y-9031D01*
Y-8979D01*
X5479D01*
Y-9524D01*
X5528Y-9517D01*
X5648Y-9468D01*
X5721Y-9412D01*
X5767Y-9431D01*
X5778Y-9513D01*
X5822Y-9618D01*
X5841Y-9643D01*
X4955Y-10529D01*
X4724D01*
X4647Y-10539D01*
X4597Y-10560D01*
X4575Y-10569D01*
X4514Y-10616D01*
X3391Y-11739D01*
X3342Y-11728D01*
X3334Y-11702D01*
X3351Y-11689D01*
X3430Y-11586D01*
X3479Y-11466D01*
X3496Y-11338D01*
Y-11062D01*
X3479Y-10934D01*
X3430Y-10814D01*
X3351Y-10711D01*
X3248Y-10632D01*
X3128Y-10583D01*
X3000Y-10566D01*
X2872Y-10583D01*
X2752Y-10632D01*
X2649Y-10711D01*
X2570Y-10814D01*
X2541Y-10884D01*
X2492Y-10874D01*
Y-10570D01*
X2110D01*
X2091Y-10524D01*
X3397Y-9218D01*
X3908D01*
Y-9530D01*
X4892D01*
Y-9226D01*
X4941Y-9216D01*
X4970Y-9286D01*
X5049Y-9389D01*
X5152Y-9468D01*
X5272Y-9517D01*
X5321Y-9524D01*
Y-8900D01*
Y-8276D01*
X5272Y-8283D01*
X5152Y-8332D01*
X5049Y-8411D01*
X4970Y-8514D01*
X4941Y-8584D01*
X4892Y-8574D01*
Y-8270D01*
X4618D01*
X4559Y-8225D01*
X4482Y-8193D01*
X4400Y-8182D01*
X4318Y-8193D01*
X4241Y-8225D01*
X4182Y-8270D01*
X3908D01*
Y-8582D01*
X3265D01*
X3183Y-8593D01*
X3107Y-8625D01*
X3041Y-8675D01*
X2564Y-9152D01*
X2518Y-9133D01*
Y-7869D01*
X2525Y-7859D01*
X2557Y-7782D01*
X2568Y-7700D01*
Y-7470D01*
X2668Y-7428D01*
X2759Y-7359D01*
X2828Y-7268D01*
X2872Y-7163D01*
X2887Y-7050D01*
X2872Y-6937D01*
X2847Y-6877D01*
Y-6814D01*
X3400Y-6262D01*
X3852Y-6714D01*
X3935Y-6777D01*
X3963Y-6789D01*
X4030Y-6817D01*
X4133Y-6830D01*
X4627D01*
X4687Y-6855D01*
X4800Y-6870D01*
X4913Y-6855D01*
X4973Y-6830D01*
X5216D01*
X5276Y-6855D01*
X5389Y-6870D01*
X5502Y-6855D01*
X5608Y-6811D01*
X5698Y-6742D01*
X5768Y-6651D01*
X5811Y-6546D01*
X5826Y-6433D01*
X5811Y-6320D01*
X5768Y-6215D01*
X5698Y-6124D01*
X5608Y-6055D01*
X5502Y-6011D01*
X5389Y-5996D01*
X5276Y-6011D01*
X5216Y-6036D01*
X4973D01*
X4913Y-6011D01*
X4800Y-5996D01*
X4687Y-6011D01*
X4627Y-6036D01*
X4298D01*
X3797Y-5536D01*
Y-2500D01*
X3784Y-2397D01*
X3744Y-2301D01*
X3732Y-2286D01*
X3737Y-2250D01*
X3722Y-2137D01*
X3678Y-2032D01*
X3609Y-1941D01*
X3518Y-1872D01*
X3413Y-1828D01*
X3300Y-1813D01*
X3187Y-1828D01*
X3127Y-1853D01*
X2923D01*
X2863Y-1828D01*
X2750Y-1813D01*
X2637Y-1828D01*
X2532Y-1872D01*
X2441Y-1941D01*
X2372Y-2032D01*
X2328Y-2137D01*
X2313Y-2250D01*
X2328Y-2363D01*
X2372Y-2468D01*
X2441Y-2559D01*
X2532Y-2628D01*
X2637Y-2672D01*
X2664Y-2675D01*
X3003Y-3014D01*
Y-5536D01*
X2332Y-6207D01*
X2263Y-6178D01*
X2150Y-6163D01*
X2037Y-6178D01*
X1932Y-6222D01*
X1841Y-6291D01*
X1772Y-6382D01*
X1728Y-6487D01*
X1713Y-6600D01*
X1728Y-6713D01*
X1772Y-6818D01*
X1841Y-6909D01*
X1882Y-6940D01*
Y-7300D01*
Y-9120D01*
X1634Y-9369D01*
X1614Y-9366D01*
X1501Y-9381D01*
X1396Y-9425D01*
X1305Y-9494D01*
X1236Y-9585D01*
X1192Y-9690D01*
X1182Y-9764D01*
X1158Y-9772D01*
X1118Y-9743D01*
Y-9347D01*
X1178Y-9268D01*
X1222Y-9163D01*
X1237Y-9050D01*
X1222Y-8937D01*
X1178Y-8832D01*
X1109Y-8741D01*
X1018Y-8672D01*
X913Y-8628D01*
X800Y-8613D01*
X687Y-8628D01*
X611Y-8660D01*
X578Y-8582D01*
X509Y-8491D01*
X418Y-8422D01*
X313Y-8378D01*
X200Y-8363D01*
X87Y-8378D01*
X-18Y-8422D01*
X-109Y-8491D01*
X-141D01*
X-232Y-8422D01*
X-337Y-8378D01*
X-450Y-8363D01*
X-563Y-8378D01*
X-668Y-8422D01*
X-759Y-8491D01*
X-828Y-8582D01*
X-872Y-8687D01*
X-885Y-8786D01*
X-1032Y-8932D01*
X-2903D01*
X-2982Y-8872D01*
X-3087Y-8828D01*
X-3200Y-8813D01*
X-3313Y-8828D01*
X-3418Y-8872D01*
X-3500Y-8934D01*
X-3582Y-8872D01*
X-3687Y-8828D01*
X-3800Y-8813D01*
X-3913Y-8828D01*
X-4018Y-8872D01*
X-4109Y-8941D01*
X-4178Y-9032D01*
X-4222Y-9137D01*
X-4237Y-9250D01*
X-4222Y-9363D01*
X-4178Y-9468D01*
X-4118Y-9547D01*
Y-9550D01*
X-4118Y-9550D01*
X-4118D01*
X-4107Y-9632D01*
X-4075Y-9709D01*
X-4025Y-9775D01*
X-3725Y-10075D01*
X-3659Y-10125D01*
X-3582Y-10157D01*
X-3500Y-10168D01*
X-550D01*
X-468Y-10157D01*
X-391Y-10125D01*
X-325Y-10075D01*
X-325Y-10075D01*
X-325Y-10075D01*
X421Y-9329D01*
X470Y-9332D01*
X482Y-9347D01*
Y-9894D01*
X493Y-9977D01*
X525Y-10053D01*
X575Y-10119D01*
X1075Y-10618D01*
X1140Y-10669D01*
X1217Y-10701D01*
X1299Y-10711D01*
X1508D01*
Y-11121D01*
X2000D01*
Y-11279D01*
X1508D01*
Y-11749D01*
X1271D01*
X461Y-10939D01*
X399Y-10892D01*
X327Y-10862D01*
X250Y-10852D01*
X-3927D01*
X-4689Y-10089D01*
X-4752Y-10027D01*
Y-6723D01*
X-4614Y-6585D01*
X-4600Y-6587D01*
X-4487Y-6572D01*
X-4382Y-6528D01*
X-4291Y-6459D01*
X-4222Y-6368D01*
X-4178Y-6263D01*
X-4163Y-6150D01*
X-4174Y-6067D01*
X-4139Y-6032D01*
X-4100Y-6037D01*
X-3987Y-6022D01*
X-3882Y-5978D01*
X-3791Y-5909D01*
X-3722Y-5818D01*
X-3678Y-5713D01*
X-3663Y-5600D01*
X-3678Y-5487D01*
X-3722Y-5382D01*
X-3791Y-5291D01*
X-3882Y-5222D01*
X-3987Y-5178D01*
X-4100Y-5163D01*
X-4213Y-5178D01*
X-4318Y-5222D01*
X-4409Y-5291D01*
X-4417Y-5302D01*
X-4720D01*
X-4748Y-5261D01*
X-4728Y-5213D01*
X-4713Y-5100D01*
X-4728Y-4987D01*
X-4772Y-4882D01*
X-4841Y-4791D01*
X-4932Y-4722D01*
X-5037Y-4678D01*
X-5055Y-4676D01*
X-5071Y-4628D01*
X-4696Y-4254D01*
X-4696Y-4254D01*
X-4661Y-4208D01*
X-4651Y-4194D01*
X-4622Y-4125D01*
X-4612Y-4050D01*
X-4612Y-4050D01*
Y-3125D01*
X-4591Y-3109D01*
X-4522Y-3018D01*
X-4478Y-2913D01*
X-4463Y-2800D01*
X-4478Y-2687D01*
X-4522Y-2582D01*
X-4591Y-2491D01*
X-4682Y-2422D01*
X-4787Y-2378D01*
X-4900Y-2363D01*
X-5013Y-2378D01*
X-5118Y-2422D01*
X-5209Y-2491D01*
X-5278Y-2582D01*
X-5322Y-2687D01*
X-5337Y-2800D01*
X-5322Y-2913D01*
X-5278Y-3018D01*
X-5209Y-3109D01*
X-5188Y-3125D01*
Y-3931D01*
X-6554Y-5296D01*
X-6599Y-5356D01*
X-6601Y-5361D01*
X-6642Y-5372D01*
X-6748Y-5328D01*
X-6861Y-5313D01*
X-6877Y-5315D01*
X-7062Y-5131D01*
Y-4580D01*
X-7021Y-4553D01*
X-6974Y-4572D01*
X-6861Y-4587D01*
X-6748Y-4572D01*
X-6642Y-4528D01*
X-6552Y-4459D01*
X-6482Y-4368D01*
X-6439Y-4263D01*
X-6424Y-4150D01*
X-6439Y-4037D01*
X-6482Y-3932D01*
X-6552Y-3841D01*
X-6573Y-3825D01*
Y-789D01*
X-6583Y-715D01*
X-6611Y-645D01*
X-6657Y-586D01*
X-6657Y-586D01*
X-6967Y-276D01*
X-6963Y-250D01*
X-6978Y-137D01*
X-7022Y-32D01*
X-7091Y59D01*
X-7182Y128D01*
X-7287Y172D01*
X-7400Y187D01*
X-7513Y172D01*
X-7618Y128D01*
X-7709Y59D01*
X-7778Y-32D01*
X-7822Y-137D01*
X-7837Y-250D01*
X-7822Y-363D01*
X-7778Y-468D01*
X-7709Y-559D01*
X-7618Y-628D01*
X-7513Y-672D01*
X-7400Y-687D01*
X-7374Y-683D01*
X-7149Y-909D01*
Y-2429D01*
X-7195Y-2448D01*
X-7417Y-2226D01*
X-7413Y-2200D01*
X-7428Y-2087D01*
X-7472Y-1982D01*
X-7541Y-1891D01*
X-7632Y-1822D01*
X-7737Y-1778D01*
X-7850Y-1763D01*
X-7879Y-1767D01*
X-7901Y-1722D01*
X-7864Y-1685D01*
X-7850Y-1687D01*
X-7737Y-1672D01*
X-7632Y-1628D01*
X-7541Y-1559D01*
X-7472Y-1468D01*
X-7428Y-1363D01*
X-7413Y-1250D01*
X-7428Y-1137D01*
X-7472Y-1032D01*
X-7541Y-941D01*
X-7632Y-872D01*
X-7737Y-828D01*
X-7850Y-813D01*
X-7963Y-828D01*
X-8068Y-872D01*
X-8159Y-941D01*
X-8228Y-1032D01*
X-8272Y-1137D01*
X-8287Y-1250D01*
X-8285Y-1264D01*
X-8430Y-1409D01*
X-8477Y-1393D01*
X-8478Y-1387D01*
X-8522Y-1282D01*
X-8591Y-1191D01*
X-8682Y-1122D01*
X-8787Y-1078D01*
X-8900Y-1063D01*
X-8917Y-1065D01*
X-8952Y-1030D01*
X-8958Y-1071D01*
X-9013Y-1078D01*
X-9015Y-1079D01*
X-9421D01*
Y-1541D01*
X-9357Y-1533D01*
X-9330Y-1548D01*
X-9322Y-1613D01*
X-9278Y-1718D01*
X-9209Y-1809D01*
X-9188Y-1825D01*
Y-2750D01*
X-9188Y-2750D01*
X-9179Y-2816D01*
X-9178Y-2825D01*
X-9178Y-2825D01*
X-9211Y-2862D01*
X-10000D01*
X-10075Y-2872D01*
X-10144Y-2901D01*
X-10167Y-2919D01*
X-10212Y-2896D01*
Y-1468D01*
X-10110Y-1390D01*
X-10025Y-1279D01*
X-9975D01*
X-9890Y-1390D01*
X-9776Y-1478D01*
X-9643Y-1533D01*
X-9579Y-1541D01*
Y-1000D01*
X-9500D01*
Y-921D01*
X-8959D01*
X-8967Y-857D01*
X-9022Y-724D01*
X-9110Y-610D01*
X-9224Y-522D01*
Y-478D01*
X-9110Y-390D01*
X-9022Y-276D01*
X-8967Y-143D01*
X-8948Y0D01*
X-8967Y143D01*
X-9022Y276D01*
X-9110Y390D01*
X-9224Y478D01*
Y522D01*
X-9110Y610D01*
X-9022Y724D01*
X-8967Y857D01*
X-8948Y1000D01*
X-8967Y1143D01*
X-9022Y1276D01*
X-9110Y1390D01*
X-9224Y1478D01*
X-9357Y1533D01*
X-9500Y1552D01*
D02*
G37*
G36*
X39Y-12366D02*
Y-13071D01*
X744D01*
X737Y-12995D01*
X692Y-12847D01*
X619Y-12710D01*
X520Y-12590D01*
X400Y-12492D01*
X263Y-12419D01*
X115Y-12374D01*
X39Y-12366D01*
D02*
G37*
G36*
X-8629Y-8437D02*
X-8742Y-8452D01*
X-8847Y-8496D01*
X-8938Y-8565D01*
X-9007Y-8656D01*
X-9051Y-8761D01*
X-9066Y-8874D01*
X-9051Y-8987D01*
X-9007Y-9092D01*
X-8938Y-9183D01*
X-8847Y-9252D01*
X-8742Y-9296D01*
X-8629Y-9311D01*
X-8516Y-9296D01*
X-8410Y-9252D01*
X-8320Y-9183D01*
X-8250Y-9092D01*
X-8207Y-8987D01*
X-8192Y-8874D01*
X-8207Y-8761D01*
X-8250Y-8656D01*
X-8320Y-8565D01*
X-8410Y-8496D01*
X-8516Y-8452D01*
X-8629Y-8437D01*
D02*
G37*
G36*
X-118Y-13228D02*
X-823D01*
X-815Y-13304D01*
X-770Y-13452D01*
X-697Y-13589D01*
X-599Y-13709D01*
X-479Y-13807D01*
X-342Y-13881D01*
X-194Y-13926D01*
X-118Y-13933D01*
Y-13228D01*
D02*
G37*
G36*
X744D02*
X39D01*
Y-13933D01*
X115Y-13926D01*
X263Y-13881D01*
X400Y-13807D01*
X520Y-13709D01*
X619Y-13589D01*
X692Y-13452D01*
X737Y-13304D01*
X744Y-13228D01*
D02*
G37*
G36*
X2298Y-3419D02*
X-1954D01*
X-2031Y-3435D01*
X-2096Y-3478D01*
X-2140Y-3543D01*
X-2155Y-3620D01*
Y-5352D01*
X-2140Y-5429D01*
X-2096Y-5494D01*
X-2031Y-5538D01*
X-1954Y-5553D01*
X2298D01*
X2375Y-5538D01*
X2440Y-5494D01*
X2483Y-5429D01*
X2498Y-5352D01*
Y-3620D01*
X2483Y-3543D01*
X2440Y-3478D01*
X2375Y-3435D01*
X2298Y-3419D01*
D02*
G37*
G36*
X-30Y-1537D02*
X-817D01*
X-971Y-1552D01*
X-1120Y-1597D01*
X-1257Y-1670D01*
X-1376Y-1768D01*
X-1475Y-1888D01*
X-1548Y-2025D01*
X-1593Y-2174D01*
X-1608Y-2328D01*
X-1593Y-2482D01*
X-1548Y-2631D01*
X-1475Y-2768D01*
X-1376Y-2887D01*
X-1257Y-2986D01*
X-1120Y-3059D01*
X-971Y-3104D01*
X-817Y-3119D01*
X-30D01*
X125Y-3104D01*
X273Y-3059D01*
X410Y-2986D01*
X530Y-2887D01*
X628Y-2768D01*
X701Y-2631D01*
X746Y-2482D01*
X762Y-2328D01*
X746Y-2174D01*
X701Y-2025D01*
X628Y-1888D01*
X530Y-1768D01*
X410Y-1670D01*
X273Y-1597D01*
X125Y-1552D01*
X-30Y-1537D01*
D02*
G37*
G36*
X5479Y-8276D02*
Y-8821D01*
X5896D01*
Y-8762D01*
X5879Y-8634D01*
X5830Y-8514D01*
X5751Y-8411D01*
X5648Y-8332D01*
X5528Y-8283D01*
X5479Y-8276D01*
D02*
G37*
G36*
X9150Y-5013D02*
X9037Y-5028D01*
X8932Y-5072D01*
X8841Y-5141D01*
X8772Y-5232D01*
X8728Y-5337D01*
X8713Y-5450D01*
X8728Y-5563D01*
X8772Y-5668D01*
X8841Y-5759D01*
X8932Y-5828D01*
X9037Y-5872D01*
X9052Y-5874D01*
Y-8007D01*
X8954Y-8105D01*
X8734Y-8274D01*
X8644Y-8204D01*
X8538Y-8161D01*
X8425Y-8146D01*
X8312Y-8161D01*
X8207Y-8204D01*
X8116Y-8274D01*
X8047Y-8364D01*
X8003Y-8470D01*
X7988Y-8583D01*
X8003Y-8696D01*
X8047Y-8801D01*
X8116Y-8892D01*
X8207Y-8961D01*
X8312Y-9005D01*
X8425Y-9019D01*
X8538Y-9005D01*
X8644Y-8961D01*
X8734Y-8892D01*
X8743Y-8881D01*
X8898D01*
X8975Y-8870D01*
X9047Y-8841D01*
X9108Y-8793D01*
X9561Y-8341D01*
X9561Y-8341D01*
X9608Y-8279D01*
X9638Y-8207D01*
X9648Y-8130D01*
Y-5650D01*
X9648Y-5650D01*
X9638Y-5573D01*
X9608Y-5501D01*
X9584Y-5470D01*
X9584Y-5470D01*
X9587Y-5450D01*
X9572Y-5337D01*
X9528Y-5232D01*
X9459Y-5141D01*
X9368Y-5072D01*
X9263Y-5028D01*
X9150Y-5013D01*
D02*
G37*
G36*
X4250Y6037D02*
X4137Y6022D01*
X4032Y5978D01*
X3941Y5909D01*
X3872Y5818D01*
X3828Y5713D01*
X3813Y5600D01*
X3828Y5487D01*
X3872Y5382D01*
X3941Y5291D01*
X4032Y5222D01*
X4137Y5178D01*
X4250Y5163D01*
X4363Y5178D01*
X4468Y5222D01*
X4522Y5263D01*
X4653Y5132D01*
X6034Y3750D01*
X6022Y3659D01*
X6037Y3546D01*
X6080Y3440D01*
X6150Y3350D01*
X6240Y3280D01*
X6346Y3237D01*
X6459Y3222D01*
X6572Y3237D01*
X6677Y3280D01*
X6768Y3350D01*
X6837Y3440D01*
X6881Y3546D01*
X6895Y3659D01*
X6881Y3772D01*
X6837Y3877D01*
X6768Y3968D01*
X6677Y4037D01*
X6572Y4081D01*
X6542Y4084D01*
X5074Y5553D01*
X4866Y5761D01*
X4866Y5761D01*
X4816Y5811D01*
X4754Y5858D01*
X4683Y5888D01*
X4606Y5898D01*
X4567D01*
X4559Y5909D01*
X4468Y5978D01*
X4363Y6022D01*
X4250Y6037D01*
D02*
G37*
G36*
X-9807Y7677D02*
X-10512D01*
Y6972D01*
X-10436Y6980D01*
X-10288Y7025D01*
X-10151Y7098D01*
X-10031Y7196D01*
X-9933Y7316D01*
X-9860Y7453D01*
X-9815Y7602D01*
X-9807Y7677D01*
D02*
G37*
G36*
X10551Y8500D02*
X10476Y8493D01*
X10327Y8448D01*
X10190Y8374D01*
X10070Y8276D01*
X9972Y8156D01*
X9899Y8019D01*
X9854Y7871D01*
X9846Y7795D01*
X10551D01*
Y8500D01*
D02*
G37*
G36*
X11413Y7638D02*
X10709D01*
Y6933D01*
X10784Y6941D01*
X10933Y6986D01*
X11069Y7059D01*
X11189Y7157D01*
X11288Y7277D01*
X11361Y7414D01*
X11406Y7562D01*
X11413Y7638D01*
D02*
G37*
G36*
X-10669Y7677D02*
X-11374D01*
X-11367Y7602D01*
X-11322Y7453D01*
X-11248Y7316D01*
X-11150Y7196D01*
X-11030Y7098D01*
X-10893Y7025D01*
X-10745Y6980D01*
X-10669Y6972D01*
Y7677D01*
D02*
G37*
G36*
X39Y11539D02*
X-74Y11524D01*
X-179Y11481D01*
X-269Y11411D01*
X-339Y11321D01*
X-383Y11215D01*
X-397Y11102D01*
X-383Y10989D01*
X-339Y10884D01*
X-318Y10856D01*
Y10525D01*
X-461Y10382D01*
X-461Y10382D01*
X-1668Y9175D01*
X-1767Y9162D01*
X-1872Y9118D01*
X-1962Y9049D01*
X-2032Y8959D01*
X-2075Y8853D01*
X-2090Y8740D01*
X-2075Y8627D01*
X-2032Y8522D01*
X-1962Y8431D01*
X-1872Y8362D01*
X-1767Y8318D01*
X-1654Y8303D01*
X-1540Y8318D01*
X-1435Y8362D01*
X-1345Y8431D01*
X-1275Y8522D01*
X-1232Y8627D01*
X-1219Y8726D01*
X-12Y9933D01*
X-12Y9933D01*
X225Y10169D01*
X253Y10206D01*
X275Y10235D01*
X284Y10257D01*
X307Y10311D01*
X318Y10394D01*
X318Y10394D01*
X318Y10394D01*
Y10394D01*
Y10770D01*
X348Y10793D01*
X418Y10884D01*
X461Y10989D01*
X476Y11102D01*
X461Y11215D01*
X418Y11321D01*
X348Y11411D01*
X258Y11481D01*
X152Y11524D01*
X39Y11539D01*
D02*
G37*
G36*
X-551Y12720D02*
X-654Y12706D01*
X-750Y12667D01*
X-832Y12604D01*
X-895Y12521D01*
X-935Y12426D01*
X-948Y12323D01*
X-935Y12220D01*
X-895Y12124D01*
X-832Y12042D01*
X-750Y11979D01*
X-654Y11939D01*
X-551Y11926D01*
X-448Y11939D01*
X-353Y11979D01*
X-270Y12042D01*
X-207Y12124D01*
X-168Y12220D01*
X-154Y12323D01*
X-168Y12426D01*
X-207Y12521D01*
X-270Y12604D01*
X-353Y12667D01*
X-448Y12706D01*
X-551Y12720D01*
D02*
G37*
G36*
X-10669Y8539D02*
X-10745Y8532D01*
X-10893Y8487D01*
X-11030Y8414D01*
X-11150Y8315D01*
X-11248Y8195D01*
X-11322Y8059D01*
X-11367Y7910D01*
X-11374Y7835D01*
X-10669D01*
Y8539D01*
D02*
G37*
G36*
X-10512D02*
Y7835D01*
X-9807D01*
X-9815Y7910D01*
X-9860Y8059D01*
X-9933Y8195D01*
X-10031Y8315D01*
X-10151Y8414D01*
X-10288Y8487D01*
X-10436Y8532D01*
X-10512Y8539D01*
D02*
G37*
G36*
X1026Y6221D02*
X571D01*
Y5715D01*
X631Y5723D01*
X760Y5777D01*
X871Y5862D01*
X956Y5973D01*
X1010Y6102D01*
X1026Y6221D01*
D02*
G37*
G36*
X-9579Y6396D02*
X-9638D01*
X-9766Y6379D01*
X-9886Y6330D01*
X-9989Y6251D01*
X-10068Y6148D01*
X-10117Y6028D01*
X-10124Y5979D01*
X-9579D01*
Y6396D01*
D02*
G37*
G36*
X-8876Y5821D02*
X-10124D01*
X-10117Y5772D01*
X-10068Y5652D01*
X-9989Y5549D01*
X-9886Y5470D01*
X-9777Y5425D01*
Y5421D01*
X-9777D01*
Y5379D01*
Y5379D01*
D01*
D01*
X-9777D01*
Y5375D01*
X-9886Y5330D01*
X-9989Y5251D01*
X-10068Y5148D01*
X-10117Y5028D01*
X-10134Y4900D01*
X-10117Y4772D01*
X-10068Y4652D01*
X-9989Y4549D01*
X-9886Y4470D01*
X-9816Y4441D01*
X-9826Y4392D01*
X-10130D01*
Y3408D01*
X-8870D01*
Y4392D01*
X-9174D01*
X-9184Y4441D01*
X-9114Y4470D01*
X-9011Y4549D01*
X-8932Y4652D01*
X-8883Y4772D01*
X-8866Y4900D01*
X-8883Y5028D01*
X-8932Y5148D01*
X-9011Y5251D01*
X-9114Y5330D01*
X-9223Y5375D01*
Y5379D01*
X-9223D01*
Y5421D01*
Y5421D01*
D01*
D01*
X-9223D01*
Y5425D01*
X-9114Y5470D01*
X-9011Y5549D01*
X-8932Y5652D01*
X-8883Y5772D01*
X-8876Y5821D01*
D02*
G37*
G36*
X-3450Y8274D02*
X-7702D01*
X-7779Y8258D01*
X-7844Y8215D01*
X-7888Y8150D01*
X-7903Y8073D01*
Y6341D01*
X-7888Y6264D01*
X-7844Y6199D01*
X-7779Y6155D01*
X-7702Y6140D01*
X-3693D01*
X-3660Y6102D01*
X-3665Y6063D01*
X-3650Y5950D01*
X-3625Y5890D01*
Y5512D01*
Y5212D01*
X-3634Y5191D01*
X-3684Y5184D01*
X-3741Y5259D01*
X-3832Y5328D01*
X-3937Y5372D01*
X-4050Y5387D01*
X-4163Y5372D01*
X-4268Y5328D01*
X-4322Y5288D01*
X-5350D01*
X-5437Y5276D01*
X-5495Y5252D01*
X-5519Y5242D01*
X-5589Y5189D01*
X-6597Y4181D01*
X-6663Y4172D01*
X-6768Y4128D01*
X-6859Y4059D01*
X-6928Y3968D01*
X-6972Y3863D01*
X-6987Y3750D01*
X-6972Y3637D01*
X-6928Y3532D01*
X-6859Y3441D01*
X-6768Y3372D01*
X-6663Y3328D01*
X-6550Y3313D01*
X-6437Y3328D01*
X-6332Y3372D01*
X-6241Y3441D01*
X-6172Y3532D01*
X-6128Y3637D01*
X-6119Y3703D01*
X-5210Y4612D01*
X-4322D01*
X-4268Y4572D01*
X-4163Y4528D01*
X-4050Y4513D01*
X-3937Y4528D01*
X-3832Y4572D01*
X-3741Y4641D01*
X-3672Y4732D01*
X-3644Y4799D01*
X-3594Y4805D01*
X-3537Y4730D01*
X-3447Y4661D01*
X-3341Y4617D01*
X-3228Y4603D01*
X-3115Y4617D01*
X-3010Y4661D01*
X-2919Y4730D01*
X-2850Y4821D01*
X-2825Y4881D01*
X-2237Y5469D01*
X-1197D01*
X-1185Y5464D01*
X-1176Y5415D01*
X-2272Y4319D01*
X-3523Y3068D01*
X-4653D01*
X-4732Y3128D01*
X-4837Y3172D01*
X-4950Y3187D01*
X-5063Y3172D01*
X-5168Y3128D01*
X-5259Y3059D01*
X-5328Y2968D01*
X-5372Y2863D01*
X-5387Y2750D01*
X-5372Y2637D01*
X-5328Y2532D01*
X-5259Y2441D01*
X-5168Y2372D01*
X-5063Y2328D01*
X-4950Y2313D01*
X-4837Y2328D01*
X-4732Y2372D01*
X-4653Y2432D01*
X-3392D01*
X-3310Y2443D01*
X-3233Y2475D01*
X-3167Y2525D01*
X-1823Y3870D01*
X-1823Y3870D01*
X-1823Y3870D01*
X-695Y4997D01*
X-691D01*
X-612Y4937D01*
X-507Y4893D01*
X-394Y4878D01*
X-281Y4893D01*
X-175Y4937D01*
X-85Y5006D01*
X-15Y5097D01*
X28Y5202D01*
X43Y5315D01*
X28Y5428D01*
X-15Y5533D01*
X-85Y5624D01*
X-175Y5693D01*
X-281Y5737D01*
X-283Y5752D01*
X-224Y5777D01*
X-113Y5862D01*
X-28Y5973D01*
X-25Y5980D01*
X25D01*
X28Y5973D01*
X113Y5862D01*
X224Y5777D01*
X353Y5723D01*
X413Y5715D01*
Y6300D01*
Y6885D01*
X353Y6877D01*
X224Y6823D01*
X113Y6738D01*
X28Y6627D01*
X25Y6620D01*
X-25D01*
X-28Y6627D01*
X-113Y6738D01*
X-224Y6823D01*
X-353Y6877D01*
X-492Y6895D01*
X-575Y6884D01*
X-621Y6930D01*
X-645Y6990D01*
X-715Y7081D01*
X-805Y7150D01*
X-911Y7194D01*
X-1024Y7208D01*
X-1137Y7194D01*
X-1242Y7150D01*
X-1332Y7081D01*
X-1402Y6990D01*
X-1427Y6930D01*
X-1897Y6460D01*
X-3055D01*
X-3115Y6485D01*
X-3228Y6500D01*
X-3250Y6518D01*
Y8073D01*
X-3265Y8150D01*
X-3308Y8215D01*
X-3373Y8258D01*
X-3450Y8274D01*
D02*
G37*
G36*
X571Y6885D02*
Y6379D01*
X1026D01*
X1010Y6498D01*
X956Y6627D01*
X871Y6738D01*
X760Y6823D01*
X631Y6877D01*
X571Y6885D01*
D02*
G37*
G36*
X10551Y7638D02*
X9846D01*
X9854Y7562D01*
X9899Y7414D01*
X9972Y7277D01*
X10070Y7157D01*
X10190Y7059D01*
X10327Y6986D01*
X10476Y6941D01*
X10551Y6933D01*
Y7638D01*
D02*
G37*
G36*
X-9362Y6396D02*
X-9421D01*
Y5979D01*
X-8876D01*
X-8883Y6028D01*
X-8932Y6148D01*
X-9011Y6251D01*
X-9114Y6330D01*
X-9234Y6379D01*
X-9362Y6396D01*
D02*
G37*
G36*
X8282Y8274D02*
X3951D01*
X3875Y8258D01*
X3809Y8215D01*
X3766Y8150D01*
X3751Y8073D01*
Y6341D01*
X3766Y6264D01*
X3809Y6199D01*
X3875Y6155D01*
X3951Y6140D01*
X8282D01*
X8359Y6155D01*
X8424Y6199D01*
X8467Y6264D01*
X8483Y6341D01*
Y8073D01*
X8467Y8150D01*
X8424Y8215D01*
X8359Y8258D01*
X8282Y8274D01*
D02*
G37*
%LPD*%
G54D10*
X14951Y534D02*
G03*
X-3592Y14523I-14951J-534D01*
G01*
X-3451Y14557D02*
G03*
X5007Y-14098I3451J-14557D01*
G01*
X-3661Y12874D02*
Y14488D01*
X4134Y14409D02*
X4464Y15404D01*
X14961Y484D02*
X16000D01*
X5079Y-14094D02*
X5436Y-15096D01*
X-12721Y-9796D02*
X-11890Y-9134D01*
X-13279Y9004D02*
X-12396Y8377D01*
X-6496Y-11260D02*
X-5551Y-11732D01*
X-6693Y-11575D02*
X-6496Y-11260D01*
G54D36*
X-8400Y-2500D02*
X-7750Y-3150D01*
Y-6500D02*
Y-3150D01*
Y-6500D02*
X-6900Y-7350D01*
X-8400Y-2500D02*
Y-1800D01*
X-7850Y-1250D01*
X900Y-8250D02*
Y-7350D01*
X700Y-7150D02*
X900Y-7350D01*
X700Y-7150D02*
Y-5850D01*
X4250Y5600D02*
X4606D01*
X4656Y5550D01*
X4863Y5342D01*
X6470Y3735D01*
X5944Y7012D02*
Y8700D01*
X9150Y-5450D02*
X9350Y-5650D01*
X-3500Y-3000D02*
X-2150D01*
X-4050Y-11150D02*
X250D01*
X-4900Y-10300D02*
X-4050Y-11150D01*
X-5900Y-10500D02*
X-4250Y-12150D01*
X-5050Y-10150D02*
X-4900Y-10300D01*
X-5050Y-10150D02*
Y-6600D01*
X-4600Y-6150D01*
X-4850Y-5600D02*
X-4100D01*
X-5500Y-10300D02*
Y-6250D01*
X-4850Y-5600D01*
X-5900Y-10500D02*
Y-5850D01*
X-5150Y-5100D01*
X250Y-11150D02*
X1147Y-12047D01*
X3268D01*
X6200Y-9706D02*
Y-9400D01*
X3268Y-12047D02*
X3504D01*
X4724Y-10827D01*
X5079D01*
X6200Y-9706D01*
X8425Y-8583D02*
X8898D01*
X9350Y-8130D01*
Y-5650D01*
X-5500Y-10300D02*
X-4100Y-11700D01*
X-472D01*
X-4250Y-12150D02*
X-1118D01*
X-1024Y-12244D01*
X7420Y5535D02*
X8756D01*
X8858Y5433D01*
X27664Y2454D02*
X27401Y2716D01*
X26877D01*
X26614Y2454D01*
Y1404D01*
X26877Y1142D01*
X27401D01*
X27664Y1404D01*
X28451Y1142D02*
X28976D01*
X29238Y1404D01*
Y1929D01*
X28976Y2191D01*
X28451D01*
X28188Y1929D01*
Y1404D01*
X28451Y1142D01*
X29763D02*
Y2191D01*
X30550D01*
X30812Y1929D01*
Y1142D01*
X31599Y2454D02*
Y2191D01*
X31337D01*
X31862D01*
X31599D01*
Y1404D01*
X31862Y1142D01*
X32649Y2191D02*
Y1142D01*
Y1666D01*
X32911Y1929D01*
X33174Y2191D01*
X33436D01*
X34486Y1142D02*
X35010D01*
X35273Y1404D01*
Y1929D01*
X35010Y2191D01*
X34486D01*
X34223Y1929D01*
Y1404D01*
X34486Y1142D01*
X35798D02*
X36322D01*
X36060D01*
Y2716D01*
X35798D01*
X37109Y1142D02*
X37634D01*
X37372D01*
Y2716D01*
X37109D01*
X39209Y1142D02*
X38684D01*
X38421Y1404D01*
Y1929D01*
X38684Y2191D01*
X39209D01*
X39471Y1929D01*
Y1666D01*
X38421D01*
X39996Y2191D02*
Y1142D01*
Y1666D01*
X40258Y1929D01*
X40520Y2191D01*
X40783D01*
X43144Y2716D02*
Y1666D01*
X43669Y1142D01*
X44194Y1666D01*
Y2716D01*
X44719Y1142D02*
X45243D01*
X44981D01*
Y2716D01*
X44719Y2454D01*
X46030Y1142D02*
Y1404D01*
X46293D01*
Y1142D01*
X46030D01*
X47342Y2454D02*
X47605Y2716D01*
X48130D01*
X48392Y2454D01*
Y1404D01*
X48130Y1142D01*
X47605D01*
X47342Y1404D01*
Y2454D01*
X48917Y2191D02*
X49179D01*
Y1929D01*
X48917D01*
Y2191D01*
Y1404D02*
X49179D01*
Y1142D01*
X48917D01*
Y1404D01*
X51803Y2716D02*
Y1142D01*
X52590D01*
X52852Y1404D01*
Y1666D01*
X52590Y1929D01*
X51803D01*
X52590D01*
X52852Y2191D01*
Y2454D01*
X52590Y2716D01*
X51803D01*
X53640Y1142D02*
X54164D01*
X54427Y1404D01*
Y1929D01*
X54164Y2191D01*
X53640D01*
X53377Y1929D01*
Y1404D01*
X53640Y1142D01*
X55214Y2454D02*
Y2191D01*
X54951D01*
X55476D01*
X55214D01*
Y1404D01*
X55476Y1142D01*
X56526Y2454D02*
Y2191D01*
X56263D01*
X56788D01*
X56526D01*
Y1404D01*
X56788Y1142D01*
X57838D02*
X58362D01*
X58625Y1404D01*
Y1929D01*
X58362Y2191D01*
X57838D01*
X57575Y1929D01*
Y1404D01*
X57838Y1142D01*
X59150D02*
Y2191D01*
X59412D01*
X59674Y1929D01*
Y1142D01*
Y1929D01*
X59937Y2191D01*
X60199Y1929D01*
Y1142D01*
X62298D02*
X62823D01*
X62561D01*
Y2716D01*
X62298D01*
X63872Y2191D02*
X64397D01*
X64660Y1929D01*
Y1142D01*
X63872D01*
X63610Y1404D01*
X63872Y1666D01*
X64660D01*
X65184Y2191D02*
Y1404D01*
X65447Y1142D01*
X66234D01*
Y879D01*
X65972Y617D01*
X65709D01*
X66234Y1142D02*
Y2191D01*
X67546Y1142D02*
X67021D01*
X66759Y1404D01*
Y1929D01*
X67021Y2191D01*
X67546D01*
X67808Y1929D01*
Y1666D01*
X66759D01*
X68333Y2191D02*
Y1142D01*
Y1666D01*
X68595Y1929D01*
X68858Y2191D01*
X69120D01*
G54D37*
X-906Y-13622D02*
X-866Y-13583D01*
X-7400Y-250D02*
X-6861Y-789D01*
Y-4150D02*
Y-789D01*
X-10800Y-6450D02*
X-9976Y-7274D01*
X-10800Y-6450D02*
Y-5600D01*
X-9976Y-7274D02*
X-9600D01*
X-11800Y-4600D02*
X-10800Y-5600D01*
X-10550Y-4600D02*
X-10250Y-4300D01*
Y-3650D01*
X-11050Y-4600D02*
X-10550D01*
X-11350Y-4300D02*
X-11050Y-4600D01*
X-11350Y-4300D02*
Y-3750D01*
X-10800Y-4050D02*
Y-3400D01*
X-8550Y-6550D02*
X-6911Y-8189D01*
Y-8950D02*
Y-8189D01*
X-10000Y-6550D02*
X-8550D01*
X-10300Y-6250D02*
X-10000Y-6550D01*
X-10300Y-6250D02*
Y-5150D01*
X-10050Y-4900D01*
X-9500D01*
X-9600Y-7274D02*
X-8629D01*
X-11800Y-4600D02*
Y300D01*
X-11100Y1000D02*
X-10500D01*
X-11800Y300D02*
X-11100Y1000D01*
X-11350Y-3750D02*
Y-250D01*
X-11100Y0D02*
X-10500D01*
X-11350Y-250D02*
X-11100Y0D01*
X-10250Y-3650D02*
Y-3400D01*
X-10000Y-3150D01*
X-9100D01*
X-8629Y-3621D01*
Y-4074D02*
Y-3621D01*
X-10800Y-3400D02*
X-10500Y-3100D01*
Y-1000D01*
X-8900Y-2750D02*
X-8150Y-3500D01*
X-8900Y-2750D02*
Y-1500D01*
X-8150Y-3750D02*
Y-3500D01*
Y-4400D02*
Y-3750D01*
X-8186Y-4436D02*
X-8150Y-4400D01*
X-7850Y-2200D02*
X-7350Y-2700D01*
Y-5250D02*
Y-2700D01*
Y-5250D02*
X-6875Y-5725D01*
X-8629Y-4879D02*
X-8186Y-4436D01*
X-8629Y-5674D02*
Y-4879D01*
X-6350Y-5500D02*
X-4900Y-4050D01*
X-6350Y-9950D02*
Y-5500D01*
X-6450Y-10050D02*
X-6350Y-9950D01*
X-7400Y-250D02*
X-7050Y-600D01*
X-4900Y-4050D02*
Y-2800D01*
X-5100Y-1495D02*
X-4295D01*
X-4150Y-1350D01*
X-5100Y-745D02*
X-5095Y-750D01*
X-4650D01*
X650Y-5900D02*
X700Y-5850D01*
X-2900Y-5900D02*
X650D01*
X-4150Y-1350D02*
X-3500Y-700D01*
X-4650Y-750D02*
X-3850Y50D01*
X1189Y-3000D02*
X2200D01*
X1181Y-2992D02*
X1189Y-3000D01*
X-2142Y-2992D02*
X-1654D01*
X-1378Y-3268D01*
X906D02*
X1181Y-2992D01*
X-1378Y-3268D02*
X-39D01*
X906D01*
X-39Y-5861D02*
Y-3268D01*
Y-5861D02*
X0Y-5900D01*
G54D40*
X1024Y-14136D02*
G03*
X943Y14142I-1024J14136D01*
G01*
X8348Y-1102D02*
X8350Y-1100D01*
X6000Y-1102D02*
X8348D01*
X6000D02*
Y-800D01*
Y-1400D02*
Y-1102D01*
X5787Y-1187D02*
Y-1142D01*
Y-1187D02*
X6000Y-1400D01*
X5700Y-1100D02*
X6000Y-800D01*
X3800Y-1100D02*
X5700D01*
X3800D02*
X4050Y-1350D01*
X-906Y-14173D02*
Y-13622D01*
X0Y10394D02*
Y11102D01*
X-236Y10157D02*
X0Y10394D01*
X-1654Y8740D02*
X-236Y10157D01*
X-2224Y8130D02*
X-2126Y8228D01*
Y9488D01*
X-2677Y8898D02*
Y9488D01*
X-2902Y8898D02*
X-2402D01*
X-3200Y8600D02*
X-2902Y8898D01*
X-3392Y2750D02*
X-2047Y4094D01*
X-827Y5315D02*
X-315D01*
X3268Y3071D02*
Y4488D01*
X-2047Y4094D02*
X-827Y5315D01*
X-4950Y2750D02*
X-3392D01*
X-2650Y-250D02*
X-2450Y-450D01*
X-616D01*
X-3200Y7250D02*
Y8600D01*
X2550Y6250D02*
X5141Y3659D01*
X2550Y6250D02*
Y13219D01*
X5141Y3659D02*
X5609D01*
X-8654Y-354D02*
X-8550Y-250D01*
Y1800D01*
X-8994Y2244D02*
X-8550Y1800D01*
X-11400Y2244D02*
X-8994D01*
X-5150Y-295D02*
X-4805Y50D01*
X-2950D02*
X-2650Y-250D01*
X-4805Y50D02*
X-2950D01*
X5950Y-8050D02*
X6200Y-8300D01*
X5950Y-8050D02*
Y-7300D01*
X2150Y-6600D02*
X2450Y-6900D01*
X2150Y-6600D02*
X2200Y-6650D01*
Y-7300D02*
Y-6650D01*
Y-7650D02*
X2250Y-7700D01*
X-3500Y-6500D02*
Y-5900D01*
X-1300Y-8100D01*
X0D01*
X-3500Y-5900D02*
X650D01*
X0Y-7850D02*
X700Y-7150D01*
X0Y-8100D02*
Y-7850D01*
Y-8100D02*
X750D01*
X900Y-8250D01*
X700Y-7150D02*
X800D01*
X1950Y-6000D01*
X-550Y-9850D02*
X200Y-9100D01*
Y-8800D01*
X-3500Y-9850D02*
X-550D01*
X-3800Y-9550D02*
X-3500Y-9850D01*
X-3800Y-9550D02*
Y-9250D01*
X-900D02*
X-450Y-8800D01*
X-3200Y-9250D02*
X-900D01*
X4400Y-8550D02*
Y-8500D01*
X800Y-9894D02*
Y-9050D01*
X2200Y-7300D02*
X2450Y-7050D01*
X2200Y-9252D02*
Y-7300D01*
X5609Y2741D02*
X5650Y2700D01*
X5609Y2741D02*
Y3659D01*
X8450Y2400D02*
X8700D01*
X8150Y2700D02*
X8450Y2400D01*
Y3000D02*
X8700D01*
X8150Y2700D02*
X8450Y3000D01*
X5650Y2700D02*
X8150D01*
X4200Y1250D02*
X5650Y2700D01*
X4650Y-6450D02*
X5389D01*
X2150Y-6600D02*
X2450D01*
X2250Y-7700D02*
Y-7250D01*
X2450Y-7050D01*
X5950Y-4300D02*
X6900Y-3350D01*
X5950Y-7300D02*
Y-5600D01*
Y-4300D01*
X5900Y-5650D02*
X5950Y-5600D01*
X4700Y-5650D02*
X5900D01*
X4050Y-5000D02*
X4700Y-5650D01*
X4050Y-5000D02*
Y-1350D01*
X5950Y-7300D02*
X8050D01*
X8700Y-7950D01*
X-5650Y6400D02*
Y8750D01*
X-3500Y-5900D02*
Y-1750D01*
X-2650Y-900D01*
Y-250D01*
X800Y-9894D02*
X1299Y-10394D01*
X1700Y-9752D02*
X2200Y-9252D01*
X1700Y-9805D02*
Y-9752D01*
X1299Y-10394D02*
X1772D01*
X3265Y-8900D01*
X4400D01*
X2550Y13219D02*
X2638Y13307D01*
X-3228Y9488D02*
X-2677D01*
X-2126D01*
G54D41*
X-5629Y12361D02*
G03*
X-2618Y13328I5629J-12361D01*
G01*
X3400Y-5700D02*
X4133Y-6433D01*
X5389D01*
X-1024Y5866D02*
Y6772D01*
X-3228Y5512D02*
X-2677Y6063D01*
X-3228Y5039D02*
Y5512D01*
Y5984D02*
X-2795Y5551D01*
X-3228Y5984D02*
Y6063D01*
Y5039D02*
Y6063D01*
X-1024Y5866D02*
Y6417D01*
X-1378Y6063D02*
X-1024Y6417D01*
X-2402Y5866D02*
X-1024D01*
X-3228Y5039D02*
X-2402Y5866D01*
X-1732Y6063D02*
X-1024Y6772D01*
X-3228Y6063D02*
X-1732D01*
X2800Y-2250D02*
X3400Y-2850D01*
X2750Y-2250D02*
X2800D01*
X2750D02*
X3300D01*
Y-2400D02*
Y-2250D01*
Y-2400D02*
X3400Y-2500D01*
X2450Y-7050D02*
Y-6650D01*
X3400Y-5700D02*
Y-2500D01*
X2450Y-6650D02*
X3400Y-5700D01*
X5400Y-8900D02*
X5950Y-8350D01*
Y-7300D01*
X450Y-10550D02*
X1100Y-11200D01*
X-3750Y-10550D02*
X450D01*
X-4550Y-9750D02*
X-3750Y-10550D01*
X-4550Y-9750D02*
Y-7550D01*
X-3500Y-6500D01*
X1100Y-11200D02*
X2000D01*
Y-10992D01*
X2892Y-10100D01*
X4915D01*
X5400Y-9615D01*
Y-8900D01*
X14961Y484D02*
Y512D01*
X-4016Y12520D02*
Y12874D01*
Y12520D02*
X-3307D01*
X-3661Y12874D02*
X-3307Y12520D01*
X-5650Y8750D02*
Y12341D01*
X-5629Y12361D01*
X8819Y-9370D02*
X10079Y-8071D01*
X8819Y-9370D02*
X9213Y-9803D01*
X10630Y6260D02*
X10906Y5787D01*
X11378Y6063D01*
X10630Y6299D02*
X11102Y6535D01*
X11249Y6283D01*
X11378Y6063D01*
X11249Y6283D02*
X11850Y6614D01*
X-12913Y787D02*
X-12717Y2244D01*
X-12874Y1299D02*
X-12808Y1564D01*
X-13386Y1654D02*
X-12808Y1564D01*
X-2618Y11910D02*
Y13328D01*
X-2677Y12402D02*
X-2126D01*
X-2677D02*
X-2126Y11850D01*
Y12402D01*
X-2677Y11850D02*
X-2126Y12402D01*
X-2677Y11850D02*
X-2126D01*
X-2618Y11910D02*
X-2126Y12402D01*
X-1457Y-450D02*
X-616D01*
X-630D02*
X-616D01*
X-630Y-1181D02*
Y-450D01*
Y-1181D02*
X34D01*
X-39Y-13150D02*
Y-12938D01*
X719D01*
X-39Y-13150D02*
Y-12441D01*
Y-5861D02*
Y-3386D01*
X5944Y5670D02*
Y8700D01*
Y5670D02*
X6079Y5535D01*
X8756D01*
X-5650Y5768D02*
Y8750D01*
Y5768D02*
X-5482Y5600D01*
X-4850D01*
X-1024Y6772D02*
X-552Y6300D01*
X-492D01*
X-926Y5866D02*
X-492Y6300D01*
X-1024Y5866D02*
X-926D01*
G54D42*
X-2402Y8307D02*
Y8898D01*
Y8307D02*
X-1614Y7520D01*
X-236D01*
X492Y6791D01*
Y6300D02*
Y6791D01*
X1300Y6300D02*
X1378Y6378D01*
X492Y6300D02*
X1300D01*
X1551Y-2351D02*
X2200Y-3000D01*
X1551Y-2351D02*
Y-1299D01*
X1378Y5472D02*
X3328D01*
X3396Y5404D01*
X1378Y5472D02*
Y6378D01*
X512Y4606D02*
X1378Y5472D01*
X512Y4606D02*
X1551Y3567D01*
Y-1299D02*
Y3567D01*
X-1969Y3307D02*
X-669Y4606D01*
X-1969Y-276D02*
Y3307D01*
X-669Y4606D02*
X512D01*
X2900Y1250D02*
X4100D01*
X1551Y-1299D02*
X4100Y1250D01*
X197Y-1299D02*
X1551D01*
X34Y-1136D02*
X197Y-1299D01*
X492Y5610D02*
Y6300D01*
Y5610D02*
X512Y5591D01*
X492Y5610D02*
X984Y5118D01*
X1024D01*
G54D43*
X-6150Y-1500D02*
Y-250D01*
X-5550Y-2100D02*
X-3500D01*
X-6150Y-1500D02*
X-5550Y-2100D01*
X-7350Y950D02*
X-6150Y-250D01*
X-7350Y950D02*
X-5750Y2550D01*
X-9300Y-1000D02*
X-7350Y950D01*
X-9500Y-1000D02*
X-9300D01*
X-5750Y2550D02*
Y3250D01*
X-6550Y3734D02*
Y3750D01*
X-5350Y4950D02*
X-4050D01*
X-6550Y3750D02*
X-5350Y4950D01*
G54D44*
X-492Y6300D02*
D03*
X492D02*
D03*
G54D45*
X-616Y-450D02*
D03*
Y534D02*
D03*
X644D02*
D03*
Y-450D02*
D03*
G54D46*
X-423Y-2328D02*
D03*
Y2412D02*
D03*
G54D47*
X5400Y-8900D02*
D03*
X3000Y-11200D02*
D03*
G54D48*
X4400Y-8900D02*
D03*
X2000Y-11200D02*
D03*
G54D49*
X-9500Y-1000D02*
D03*
Y0D02*
D03*
Y1000D02*
D03*
X-10500D02*
D03*
Y0D02*
D03*
Y-1000D02*
D03*
G54D50*
X-9500Y5900D02*
D03*
Y4900D02*
D03*
Y-5900D02*
D03*
Y-4900D02*
D03*
G54D51*
Y3900D02*
D03*
Y-3900D02*
D03*
G54D52*
X-39Y-13150D02*
D03*
X10630Y7717D02*
D03*
X-10591Y7756D02*
D03*
G54D53*
X-551Y12323D02*
D03*
X-1181Y-12913D02*
D03*
G54D54*
X-12700Y9800D02*
D03*
X-13279Y9004D02*
D03*
X12700Y-9800D02*
D03*
X13279Y-9004D02*
D03*
G54D55*
X-12721Y-9796D02*
D03*
X-13300Y-9000D02*
D03*
X12721Y9796D02*
D03*
X13300Y9000D02*
D03*
G54D56*
X4500Y-15400D02*
D03*
X5436Y-15096D02*
D03*
X-5336Y15096D02*
D03*
X-4400Y15400D02*
D03*
G54D57*
X16000Y484D02*
D03*
Y-500D02*
D03*
X-16000Y500D02*
D03*
Y-484D02*
D03*
G54D58*
X5400Y15100D02*
D03*
X4464Y15404D02*
D03*
X-4464Y-15404D02*
D03*
X-5400Y-15100D02*
D03*
G54D59*
X3800Y-1100D02*
D03*
X-906Y-14173D02*
D03*
X945Y14173D02*
D03*
X866Y-14173D02*
D03*
X-3661Y12874D02*
D03*
X-4016D02*
D03*
X-3307D02*
D03*
X-4016Y12520D02*
D03*
X-3307D02*
D03*
X39Y11102D02*
D03*
X-7953Y5197D02*
D03*
Y5748D02*
D03*
X-2126Y11850D02*
D03*
X-2677D02*
D03*
X-3228Y9488D02*
D03*
X-2402Y8937D02*
D03*
X-2677Y9488D02*
D03*
X-2126D02*
D03*
X-1654Y8740D02*
D03*
X1811Y9252D02*
D03*
X2323D02*
D03*
X1299D02*
D03*
X-2795Y5551D02*
D03*
X-1024Y6772D02*
D03*
Y6339D02*
D03*
Y5866D02*
D03*
X-394Y5315D02*
D03*
X3268Y4488D02*
D03*
X-3228Y6063D02*
D03*
Y5039D02*
D03*
X-709Y4606D02*
D03*
X-118D02*
D03*
X512D02*
D03*
X3500Y1250D02*
D03*
X2900D02*
D03*
X3300Y-2250D02*
D03*
X2750D02*
D03*
X3268Y3071D02*
D03*
X-6911Y-8950D02*
D03*
X-10800Y-4050D02*
D03*
X-8900Y-1500D02*
D03*
X-6861Y-7350D02*
D03*
Y-5750D02*
D03*
X-8629Y-8874D02*
D03*
Y-7274D02*
D03*
Y-5674D02*
D03*
Y-4074D02*
D03*
X-7850Y-2200D02*
D03*
X-6861Y-4150D02*
D03*
X-6450Y-10050D02*
D03*
X-4900Y-2800D02*
D03*
X-7850Y-1250D02*
D03*
X-7400Y-250D02*
D03*
X-5150Y-295D02*
D03*
X-11400Y4850D02*
D03*
Y4200D02*
D03*
Y2874D02*
D03*
Y2244D02*
D03*
X6200Y-8300D02*
D03*
X8850Y-6100D02*
D03*
X5950Y-7300D02*
D03*
X2150Y-6600D02*
D03*
X-3500Y-6500D02*
D03*
Y-5900D02*
D03*
X0Y-8100D02*
D03*
X-3800Y-9250D02*
D03*
X-3200D02*
D03*
X-450Y-8800D02*
D03*
X200D02*
D03*
X3740Y-8071D02*
D03*
X800Y-9050D02*
D03*
X2450Y-7050D02*
D03*
X900Y-8250D02*
D03*
X2150Y-5950D02*
D03*
X-2900Y-5900D02*
D03*
X-2150Y-3000D02*
D03*
X700Y-7150D02*
D03*
X1614Y-9803D02*
D03*
X2200Y-3000D02*
D03*
X8700Y2480D02*
D03*
Y3000D02*
D03*
X4100Y1250D02*
D03*
X5609Y3659D02*
D03*
X4250Y5600D02*
D03*
X6459Y3659D02*
D03*
X8350Y-1100D02*
D03*
X6000Y-1400D02*
D03*
Y-800D02*
D03*
X5944Y8700D02*
D03*
X4800Y-6433D02*
D03*
X5389D02*
D03*
X8250Y-3350D02*
D03*
X7550D02*
D03*
X6900D02*
D03*
X9900Y-6100D02*
D03*
X8700Y-7950D02*
D03*
X9150Y-5450D02*
D03*
X10400Y-6100D02*
D03*
X-5650Y8750D02*
D03*
X-4050Y4950D02*
D03*
X-5750Y3250D02*
D03*
Y2550D02*
D03*
X-6550Y3750D02*
D03*
X-4850Y5600D02*
D03*
X-4950Y2750D02*
D03*
X6200Y-9400D02*
D03*
X8425Y-8583D02*
D03*
X-394Y-11732D02*
D03*
X-1024Y-12244D02*
D03*
X-4600Y-6150D02*
D03*
X-4100Y-5600D02*
D03*
X-5150Y-5100D02*
D03*
X-5100Y-1495D02*
D03*
X-3500Y-700D02*
D03*
X-5100Y-745D02*
D03*
X-2677Y12402D02*
D03*
X-2126D02*
D03*
X11102Y6535D02*
D03*
X11378Y6063D02*
D03*
X10630Y6260D02*
D03*
X10906Y5787D02*
D03*
X10079Y-8071D02*
D03*
X8819Y-9370D02*
D03*
X9252Y-8976D02*
D03*
X9646Y-8543D02*
D03*
X-6024Y-11496D02*
D03*
X-5551Y-11732D02*
D03*
X-6496Y-11260D02*
D03*
X-12913Y787D02*
D03*
X-12874Y1299D02*
D03*
X-12795Y1772D02*
D03*
X-12717Y2244D02*
D03*
X7953Y5787D02*
D03*
X8858Y5433D02*
D03*
X1693Y-2992D02*
D03*
X-1654D02*
D03*
X1181D02*
D03*
X1260Y7559D02*
D03*
Y6969D02*
D03*
X1850D02*
D03*
Y7559D02*
D03*
X866Y12795D02*
D03*
Y12244D02*
D03*
X1417Y12795D02*
D03*
Y12244D02*
D03*
X-5827Y11063D02*
D03*
Y11614D02*
D03*
X-6378Y11063D02*
D03*
Y11614D02*
D03*
M02*
