%FSLAX24Y24*%
%MOIN*%
G70*
G01*
G75*
G04 Layer_Color=65535*
%ADD10C,0.0591*%
%ADD11C,0.0472*%
%ADD12R,0.0394X0.0354*%
%ADD13R,0.0236X0.0512*%
%ADD14R,0.0276X0.0354*%
%ADD15R,0.0354X0.0276*%
%ADD16R,0.0551X0.0472*%
%ADD17R,0.0197X0.0591*%
%ADD18R,0.0512X0.0236*%
%ADD19R,0.0354X0.0394*%
%ADD20R,0.0787X0.0177*%
%ADD21R,0.0177X0.0787*%
%ADD22R,0.2362X0.0984*%
%ADD23O,0.0138X0.0827*%
%ADD24R,0.2165X0.0984*%
%ADD25R,0.0472X0.0551*%
G04:AMPARAMS|DCode=26|XSize=70.9mil|YSize=63mil|CornerRadius=0mil|HoleSize=0mil|Usage=FLASHONLY|Rotation=336.000|XOffset=0mil|YOffset=0mil|HoleType=Round|Shape=Rectangle|*
%AMROTATEDRECTD26*
4,1,4,-0.0452,-0.0144,-0.0196,0.0432,0.0452,0.0144,0.0196,-0.0432,-0.0452,-0.0144,0.0*
%
%ADD26ROTATEDRECTD26*%

G04:AMPARAMS|DCode=27|XSize=70.9mil|YSize=63mil|CornerRadius=0mil|HoleSize=0mil|Usage=FLASHONLY|Rotation=120.000|XOffset=0mil|YOffset=0mil|HoleType=Round|Shape=Rectangle|*
%AMROTATEDRECTD27*
4,1,4,0.0450,-0.0149,-0.0096,-0.0464,-0.0450,0.0149,0.0096,0.0464,0.0450,-0.0149,0.0*
%
%ADD27ROTATEDRECTD27*%

G04:AMPARAMS|DCode=28|XSize=51.2mil|YSize=39.4mil|CornerRadius=0mil|HoleSize=0mil|Usage=FLASHONLY|Rotation=31.000|XOffset=0mil|YOffset=0mil|HoleType=Round|Shape=Rectangle|*
%AMROTATEDRECTD28*
4,1,4,-0.0118,-0.0301,-0.0321,0.0037,0.0118,0.0301,0.0321,-0.0037,-0.0118,-0.0301,0.0*
%
%ADD28ROTATEDRECTD28*%

G04:AMPARAMS|DCode=29|XSize=51.2mil|YSize=39.4mil|CornerRadius=0mil|HoleSize=0mil|Usage=FLASHONLY|Rotation=319.000|XOffset=0mil|YOffset=0mil|HoleType=Round|Shape=Rectangle|*
%AMROTATEDRECTD29*
4,1,4,-0.0322,0.0019,-0.0064,0.0316,0.0322,-0.0019,0.0064,-0.0316,-0.0322,0.0019,0.0*
%
%ADD29ROTATEDRECTD29*%

G04:AMPARAMS|DCode=30|XSize=51.2mil|YSize=39.4mil|CornerRadius=0mil|HoleSize=0mil|Usage=FLASHONLY|Rotation=101.000|XOffset=0mil|YOffset=0mil|HoleType=Round|Shape=Rectangle|*
%AMROTATEDRECTD30*
4,1,4,0.0242,-0.0214,-0.0144,-0.0289,-0.0242,0.0214,0.0144,0.0289,0.0242,-0.0214,0.0*
%
%ADD30ROTATEDRECTD30*%

G04:AMPARAMS|DCode=31|XSize=70.9mil|YSize=63mil|CornerRadius=0mil|HoleSize=0mil|Usage=FLASHONLY|Rotation=190.000|XOffset=0mil|YOffset=0mil|HoleType=Round|Shape=Rectangle|*
%AMROTATEDRECTD31*
4,1,4,0.0294,0.0372,0.0404,-0.0249,-0.0294,-0.0372,-0.0404,0.0249,0.0294,0.0372,0.0*
%
%ADD31ROTATEDRECTD31*%

G04:AMPARAMS|DCode=32|XSize=70.9mil|YSize=63mil|CornerRadius=0mil|HoleSize=0mil|Usage=FLASHONLY|Rotation=48.000|XOffset=0mil|YOffset=0mil|HoleType=Round|Shape=Rectangle|*
%AMROTATEDRECTD32*
4,1,4,-0.0003,-0.0474,-0.0471,-0.0053,0.0003,0.0474,0.0471,0.0053,-0.0003,-0.0474,0.0*
%
%ADD32ROTATEDRECTD32*%

G04:AMPARAMS|DCode=33|XSize=51.2mil|YSize=39.4mil|CornerRadius=0mil|HoleSize=0mil|Usage=FLASHONLY|Rotation=246.000|XOffset=0mil|YOffset=0mil|HoleType=Round|Shape=Rectangle|*
%AMROTATEDRECTD33*
4,1,4,-0.0076,0.0314,0.0284,0.0154,0.0076,-0.0314,-0.0284,-0.0154,-0.0076,0.0314,0.0*
%
%ADD33ROTATEDRECTD33*%

G04:AMPARAMS|DCode=34|XSize=70.9mil|YSize=63mil|CornerRadius=0mil|HoleSize=0mil|Usage=FLASHONLY|Rotation=264.000|XOffset=0mil|YOffset=0mil|HoleType=Round|Shape=Rectangle|*
%AMROTATEDRECTD34*
4,1,4,-0.0276,0.0385,0.0350,0.0319,0.0276,-0.0385,-0.0350,-0.0319,-0.0276,0.0385,0.0*
%
%ADD34ROTATEDRECTD34*%

G04:AMPARAMS|DCode=35|XSize=51.2mil|YSize=39.4mil|CornerRadius=0mil|HoleSize=0mil|Usage=FLASHONLY|Rotation=176.000|XOffset=0mil|YOffset=0mil|HoleType=Round|Shape=Rectangle|*
%AMROTATEDRECTD35*
4,1,4,0.0269,0.0179,0.0242,-0.0214,-0.0269,-0.0179,-0.0242,0.0214,0.0269,0.0179,0.0*
%
%ADD35ROTATEDRECTD35*%

%ADD36C,0.0197*%
%ADD37C,0.0177*%
%ADD38C,0.0138*%
%ADD39C,0.0118*%
%ADD40C,0.0236*%
%ADD41C,0.0394*%
%ADD42C,0.0315*%
%ADD43C,0.0276*%
%ADD44O,0.0669X0.0787*%
%ADD45O,0.0787X0.0709*%
%ADD46O,0.1969X0.1181*%
%ADD47O,0.0591X0.0866*%
%ADD48R,0.0591X0.0866*%
%ADD49C,0.0700*%
%ADD50O,0.0866X0.0591*%
%ADD51R,0.0866X0.0591*%
%ADD52C,0.1181*%
%ADD53C,0.0394*%
G04:AMPARAMS|DCode=54|XSize=70.9mil|YSize=98.4mil|CornerRadius=0mil|HoleSize=0mil|Usage=FLASHONLY|Rotation=54.000|XOffset=0mil|YOffset=0mil|HoleType=Round|Shape=Round|*
%AMOVALD54*
21,1,0.0276,0.0709,0.0000,0.0000,144.0*
1,1,0.0709,0.0111,-0.0081*
1,1,0.0709,-0.0111,0.0081*
%
%ADD54OVALD54*%

G04:AMPARAMS|DCode=55|XSize=70.9mil|YSize=98.4mil|CornerRadius=0mil|HoleSize=0mil|Usage=FLASHONLY|Rotation=126.000|XOffset=0mil|YOffset=0mil|HoleType=Round|Shape=Round|*
%AMOVALD55*
21,1,0.0276,0.0709,0.0000,0.0000,216.0*
1,1,0.0709,0.0111,0.0081*
1,1,0.0709,-0.0111,-0.0081*
%
%ADD55OVALD55*%

G04:AMPARAMS|DCode=56|XSize=70.9mil|YSize=98.4mil|CornerRadius=0mil|HoleSize=0mil|Usage=FLASHONLY|Rotation=198.000|XOffset=0mil|YOffset=0mil|HoleType=Round|Shape=Round|*
%AMOVALD56*
21,1,0.0276,0.0709,0.0000,0.0000,288.0*
1,1,0.0709,-0.0043,0.0131*
1,1,0.0709,0.0043,-0.0131*
%
%ADD56OVALD56*%

%ADD57O,0.0984X0.0709*%
G04:AMPARAMS|DCode=58|XSize=70.9mil|YSize=98.4mil|CornerRadius=0mil|HoleSize=0mil|Usage=FLASHONLY|Rotation=342.000|XOffset=0mil|YOffset=0mil|HoleType=Round|Shape=Round|*
%AMOVALD58*
21,1,0.0276,0.0709,0.0000,0.0000,72.0*
1,1,0.0709,-0.0043,-0.0131*
1,1,0.0709,0.0043,0.0131*
%
%ADD58OVALD58*%

%ADD59C,0.0472*%
%ADD60C,0.0079*%
%ADD61C,0.0098*%
%ADD62C,0.0100*%
G36*
X12913Y3822D02*
X12825D01*
Y3910D01*
X12913D01*
Y3822D01*
D02*
G37*
G36*
X12630Y4434D02*
X12640D01*
X12653Y4433D01*
X12666Y4432D01*
X12695Y4429D01*
X12725Y4425D01*
X12755Y4420D01*
X12768Y4416D01*
X12782Y4412D01*
X12783D01*
X12785Y4411D01*
X12788Y4410D01*
X12793Y4408D01*
X12799Y4405D01*
X12805Y4402D01*
X12820Y4395D01*
X12837Y4385D01*
X12855Y4374D01*
X12872Y4360D01*
X12887Y4344D01*
Y4343D01*
X12889Y4342D01*
X12890Y4339D01*
X12893Y4336D01*
X12899Y4325D01*
X12906Y4313D01*
X12912Y4296D01*
X12918Y4276D01*
X12922Y4254D01*
X12924Y4229D01*
Y4228D01*
Y4226D01*
Y4221D01*
X12923Y4214D01*
X12922Y4206D01*
X12920Y4198D01*
X12918Y4188D01*
X12916Y4177D01*
X12909Y4154D01*
X12903Y4142D01*
X12897Y4130D01*
X12889Y4118D01*
X12881Y4106D01*
X12871Y4096D01*
X12860Y4085D01*
X12859Y4084D01*
X12856Y4082D01*
X12851Y4079D01*
X12844Y4076D01*
X12836Y4071D01*
X12825Y4066D01*
X12812Y4060D01*
X12797Y4054D01*
X12781Y4049D01*
X12762Y4043D01*
X12740Y4038D01*
X12717Y4033D01*
X12691Y4029D01*
X12664Y4027D01*
X12634Y4025D01*
X12602Y4024D01*
X12584D01*
X12574Y4025D01*
X12564D01*
X12551Y4026D01*
X12538Y4027D01*
X12509Y4029D01*
X12479Y4033D01*
X12449Y4038D01*
X12436Y4042D01*
X12422Y4046D01*
X12421D01*
X12419Y4047D01*
X12416Y4049D01*
X12411Y4051D01*
X12405Y4053D01*
X12398Y4055D01*
X12383Y4063D01*
X12366Y4073D01*
X12348Y4084D01*
X12332Y4098D01*
X12317Y4114D01*
Y4115D01*
X12315Y4116D01*
X12313Y4119D01*
X12311Y4123D01*
X12305Y4132D01*
X12297Y4146D01*
X12291Y4162D01*
X12285Y4182D01*
X12281Y4204D01*
X12279Y4229D01*
Y4230D01*
Y4231D01*
Y4234D01*
Y4238D01*
X12280Y4248D01*
X12282Y4259D01*
X12284Y4273D01*
X12288Y4288D01*
X12294Y4303D01*
X12300Y4318D01*
X12301Y4320D01*
X12304Y4324D01*
X12309Y4331D01*
X12315Y4341D01*
X12323Y4350D01*
X12334Y4361D01*
X12345Y4372D01*
X12359Y4381D01*
X12361Y4382D01*
X12366Y4385D01*
X12374Y4390D01*
X12385Y4396D01*
X12398Y4401D01*
X12415Y4408D01*
X12433Y4415D01*
X12453Y4421D01*
X12454D01*
X12456Y4422D01*
X12459D01*
X12464Y4423D01*
X12468Y4424D01*
X12475Y4425D01*
X12484Y4426D01*
X12492Y4428D01*
X12503Y4429D01*
X12514Y4430D01*
X12526Y4432D01*
X12540Y4433D01*
X12554Y4434D01*
X12568D01*
X12602Y4435D01*
X12620D01*
X12630Y4434D01*
D02*
G37*
G36*
X12913Y3068D02*
Y2995D01*
X12456Y2821D01*
Y2903D01*
X12731Y3001D01*
X12733Y3002D01*
X12738Y3004D01*
X12747Y3007D01*
X12759Y3011D01*
X12772Y3016D01*
X12787Y3020D01*
X12805Y3026D01*
X12822Y3031D01*
X12820Y3032D01*
X12815Y3033D01*
X12808Y3036D01*
X12798Y3039D01*
X12786Y3043D01*
X12770Y3047D01*
X12754Y3053D01*
X12736Y3060D01*
X12456Y3162D01*
Y3241D01*
X12913Y3068D01*
D02*
G37*
G36*
Y3503D02*
X12419D01*
X12420Y3502D01*
X12424Y3498D01*
X12429Y3491D01*
X12436Y3483D01*
X12444Y3472D01*
X12453Y3460D01*
X12464Y3445D01*
X12473Y3429D01*
Y3428D01*
X12474Y3427D01*
X12478Y3421D01*
X12483Y3413D01*
X12489Y3402D01*
X12495Y3389D01*
X12501Y3376D01*
X12508Y3362D01*
X12514Y3348D01*
X12438D01*
Y3349D01*
X12437Y3351D01*
X12435Y3355D01*
X12432Y3359D01*
X12429Y3364D01*
X12426Y3371D01*
X12418Y3387D01*
X12407Y3404D01*
X12394Y3423D01*
X12380Y3442D01*
X12365Y3461D01*
X12364Y3462D01*
X12363Y3462D01*
X12357Y3468D01*
X12348Y3477D01*
X12338Y3487D01*
X12324Y3499D01*
X12310Y3511D01*
X12294Y3521D01*
X12279Y3530D01*
Y3581D01*
X12913D01*
Y3503D01*
D02*
G37*
G36*
X11969Y-3250D02*
X11650Y-3475D01*
X11749Y-3578D01*
X11969D01*
Y-3661D01*
X11337D01*
Y-3578D01*
X11649D01*
X11337Y-3265D01*
Y-3151D01*
X11594Y-3416D01*
X11969Y-3140D01*
Y-3250D01*
D02*
G37*
G36*
Y-2885D02*
X11337D01*
Y-2807D01*
X11969D01*
Y-2885D01*
D02*
G37*
G36*
X11756Y-2289D02*
X11765D01*
X11774Y-2290D01*
X11785Y-2291D01*
X11807Y-2295D01*
X11830Y-2300D01*
X11853Y-2306D01*
X11873Y-2315D01*
X11874D01*
X11875Y-2316D01*
X11882Y-2320D01*
X11891Y-2327D01*
X11902Y-2335D01*
X11915Y-2346D01*
X11927Y-2359D01*
X11940Y-2375D01*
X11951Y-2393D01*
Y-2394D01*
X11952Y-2395D01*
X11954Y-2398D01*
X11955Y-2402D01*
X11960Y-2412D01*
X11965Y-2426D01*
X11970Y-2442D01*
X11974Y-2460D01*
X11978Y-2480D01*
X11979Y-2502D01*
Y-2503D01*
Y-2506D01*
Y-2512D01*
X11978Y-2519D01*
X11977Y-2526D01*
X11976Y-2536D01*
X11974Y-2547D01*
X11971Y-2558D01*
X11964Y-2582D01*
X11959Y-2596D01*
X11953Y-2608D01*
X11946Y-2622D01*
X11938Y-2634D01*
X11928Y-2647D01*
X11918Y-2658D01*
X11917Y-2659D01*
X11915Y-2661D01*
X11911Y-2664D01*
X11906Y-2667D01*
X11899Y-2672D01*
X11892Y-2676D01*
X11883Y-2682D01*
X11872Y-2687D01*
X11860Y-2693D01*
X11847Y-2698D01*
X11832Y-2703D01*
X11817Y-2707D01*
X11799Y-2711D01*
X11781Y-2714D01*
X11761Y-2716D01*
X11740Y-2717D01*
X11734D01*
X11727Y-2716D01*
X11719D01*
X11708Y-2715D01*
X11697Y-2713D01*
X11683Y-2711D01*
X11669Y-2708D01*
X11653Y-2704D01*
X11638Y-2699D01*
X11623Y-2694D01*
X11607Y-2687D01*
X11592Y-2679D01*
X11577Y-2670D01*
X11564Y-2659D01*
X11551Y-2647D01*
X11550Y-2646D01*
X11550Y-2644D01*
X11547Y-2641D01*
X11544Y-2636D01*
X11540Y-2630D01*
X11535Y-2624D01*
X11530Y-2616D01*
X11525Y-2606D01*
X11522Y-2597D01*
X11517Y-2586D01*
X11508Y-2561D01*
X11502Y-2533D01*
X11501Y-2518D01*
X11501Y-2502D01*
Y-2501D01*
Y-2499D01*
Y-2494D01*
X11501Y-2487D01*
X11502Y-2478D01*
X11503Y-2470D01*
X11505Y-2459D01*
X11508Y-2448D01*
X11516Y-2424D01*
X11521Y-2411D01*
X11526Y-2398D01*
X11534Y-2385D01*
X11543Y-2373D01*
X11552Y-2360D01*
X11563Y-2349D01*
X11564Y-2348D01*
X11566Y-2346D01*
X11570Y-2343D01*
X11574Y-2339D01*
X11580Y-2334D01*
X11588Y-2329D01*
X11598Y-2324D01*
X11607Y-2318D01*
X11619Y-2313D01*
X11632Y-2307D01*
X11646Y-2303D01*
X11661Y-2298D01*
X11677Y-2294D01*
X11696Y-2291D01*
X11714Y-2289D01*
X11734Y-2288D01*
X11748D01*
X11756Y-2289D01*
D02*
G37*
G36*
X11426Y-3079D02*
X11337D01*
Y-3001D01*
X11426D01*
Y-3079D01*
D02*
G37*
G36*
X11969D02*
X11511D01*
Y-3001D01*
X11969D01*
Y-3079D01*
D02*
G37*
G36*
X12724Y2301D02*
X12646D01*
Y2538D01*
X12724D01*
Y2301D01*
D02*
G37*
G36*
X12542Y298D02*
X12541Y297D01*
X12540Y293D01*
X12537Y287D01*
X12534Y281D01*
X12531Y272D01*
X12528Y262D01*
X12526Y252D01*
X12525Y241D01*
Y240D01*
Y237D01*
X12526Y233D01*
X12527Y226D01*
X12529Y219D01*
X12532Y211D01*
X12536Y204D01*
X12541Y196D01*
X12541Y195D01*
X12543Y193D01*
X12547Y189D01*
X12552Y185D01*
X12558Y181D01*
X12566Y176D01*
X12574Y172D01*
X12584Y168D01*
X12586Y167D01*
X12590Y166D01*
X12599Y164D01*
X12611Y162D01*
X12624Y160D01*
X12639Y158D01*
X12656Y157D01*
X12674Y156D01*
X12913D01*
Y78D01*
X12456D01*
Y148D01*
X12524D01*
X12523Y149D01*
X12517Y153D01*
X12509Y158D01*
X12499Y163D01*
X12489Y171D01*
X12478Y180D01*
X12468Y187D01*
X12462Y196D01*
X12461Y197D01*
X12459Y200D01*
X12457Y205D01*
X12453Y211D01*
X12450Y218D01*
X12448Y227D01*
X12446Y236D01*
X12445Y246D01*
Y248D01*
Y253D01*
X12446Y260D01*
X12448Y271D01*
X12452Y283D01*
X12456Y296D01*
X12463Y310D01*
X12471Y326D01*
X12542Y298D01*
D02*
G37*
G36*
X12913Y571D02*
Y498D01*
X12456Y324D01*
Y406D01*
X12731Y504D01*
X12733Y505D01*
X12738Y506D01*
X12747Y509D01*
X12759Y513D01*
X12772Y518D01*
X12787Y523D01*
X12805Y529D01*
X12822Y533D01*
X12820Y534D01*
X12815Y535D01*
X12808Y538D01*
X12798Y541D01*
X12786Y545D01*
X12770Y550D01*
X12754Y555D01*
X12736Y562D01*
X12456Y664D01*
Y744D01*
X12913Y571D01*
D02*
G37*
G36*
Y-98D02*
X12912Y-99D01*
X12910Y-100D01*
X12904Y-102D01*
X12897Y-105D01*
X12888Y-108D01*
X12879Y-110D01*
X12868Y-111D01*
X12856Y-113D01*
X12858Y-115D01*
X12861Y-121D01*
X12868Y-129D01*
X12876Y-140D01*
X12886Y-153D01*
X12894Y-167D01*
X12902Y-182D01*
X12909Y-197D01*
X12910Y-199D01*
X12910Y-204D01*
X12913Y-211D01*
X12916Y-222D01*
X12919Y-235D01*
X12921Y-250D01*
X12923Y-265D01*
X12924Y-283D01*
Y-283D01*
Y-285D01*
Y-289D01*
X12923Y-295D01*
Y-301D01*
X12922Y-308D01*
X12919Y-325D01*
X12915Y-344D01*
X12909Y-362D01*
X12900Y-382D01*
X12887Y-398D01*
X12886Y-400D01*
X12881Y-405D01*
X12873Y-410D01*
X12861Y-418D01*
X12848Y-426D01*
X12833Y-432D01*
X12813Y-436D01*
X12793Y-438D01*
X12787D01*
X12781Y-437D01*
X12773Y-436D01*
X12763Y-434D01*
X12753Y-432D01*
X12742Y-429D01*
X12732Y-424D01*
X12731Y-423D01*
X12727Y-421D01*
X12722Y-418D01*
X12715Y-413D01*
X12709Y-407D01*
X12701Y-400D01*
X12694Y-392D01*
X12688Y-383D01*
X12687Y-382D01*
X12685Y-379D01*
X12682Y-374D01*
X12678Y-367D01*
X12673Y-358D01*
X12669Y-350D01*
X12665Y-339D01*
X12662Y-328D01*
Y-327D01*
X12661Y-323D01*
X12660Y-318D01*
X12658Y-310D01*
X12656Y-301D01*
X12654Y-288D01*
X12652Y-275D01*
X12650Y-259D01*
Y-258D01*
X12649Y-255D01*
Y-250D01*
X12648Y-243D01*
X12647Y-235D01*
X12646Y-227D01*
X12642Y-206D01*
X12639Y-184D01*
X12635Y-160D01*
X12629Y-138D01*
X12626Y-129D01*
X12623Y-120D01*
X12620D01*
X12615Y-119D01*
X12595D01*
X12587Y-120D01*
X12577Y-122D01*
X12566Y-125D01*
X12555Y-129D01*
X12545Y-134D01*
X12537Y-141D01*
X12536Y-142D01*
X12533Y-147D01*
X12528Y-154D01*
X12523Y-163D01*
X12518Y-176D01*
X12514Y-191D01*
X12511Y-210D01*
X12510Y-230D01*
Y-231D01*
Y-232D01*
Y-234D01*
Y-238D01*
X12511Y-248D01*
X12512Y-260D01*
X12515Y-274D01*
X12517Y-286D01*
X12522Y-300D01*
X12529Y-310D01*
X12530Y-311D01*
X12533Y-314D01*
X12538Y-319D01*
X12544Y-325D01*
X12554Y-332D01*
X12566Y-337D01*
X12580Y-344D01*
X12596Y-349D01*
X12586Y-425D01*
X12585D01*
X12584Y-424D01*
X12578Y-423D01*
X12569Y-420D01*
X12558Y-417D01*
X12545Y-412D01*
X12533Y-407D01*
X12519Y-400D01*
X12508Y-391D01*
X12507Y-390D01*
X12503Y-386D01*
X12497Y-382D01*
X12491Y-374D01*
X12484Y-364D01*
X12476Y-352D01*
X12468Y-338D01*
X12462Y-323D01*
Y-322D01*
X12461Y-321D01*
X12460Y-318D01*
X12459Y-315D01*
X12457Y-306D01*
X12453Y-293D01*
X12450Y-278D01*
X12448Y-260D01*
X12446Y-240D01*
X12445Y-219D01*
Y-218D01*
Y-216D01*
Y-213D01*
Y-210D01*
X12446Y-199D01*
X12447Y-185D01*
X12449Y-170D01*
X12451Y-154D01*
X12455Y-138D01*
X12460Y-124D01*
X12461Y-122D01*
X12462Y-118D01*
X12466Y-111D01*
X12469Y-104D01*
X12474Y-95D01*
X12480Y-86D01*
X12487Y-78D01*
X12494Y-70D01*
X12495Y-69D01*
X12498Y-67D01*
X12502Y-64D01*
X12509Y-61D01*
X12516Y-57D01*
X12525Y-53D01*
X12536Y-49D01*
X12547Y-46D01*
X12548D01*
X12551Y-45D01*
X12556Y-44D01*
X12564Y-43D01*
X12573D01*
X12586Y-42D01*
X12600Y-41D01*
X12758D01*
X12780Y-40D01*
X12804D01*
X12826Y-39D01*
X12837Y-38D01*
X12845D01*
X12853Y-37D01*
X12860Y-37D01*
X12861D01*
X12864Y-36D01*
X12870Y-35D01*
X12877Y-33D01*
X12885Y-30D01*
X12894Y-26D01*
X12913Y-17D01*
Y-98D01*
D02*
G37*
G36*
Y-625D02*
X12615D01*
Y-951D01*
X12913D01*
Y-1035D01*
X12282D01*
Y-951D01*
X12541D01*
Y-625D01*
X12282D01*
Y-541D01*
X12913D01*
Y-625D01*
D02*
G37*
G36*
Y1126D02*
X12912Y1125D01*
X12910Y1124D01*
X12904Y1122D01*
X12897Y1120D01*
X12888Y1117D01*
X12879Y1115D01*
X12868Y1113D01*
X12856Y1111D01*
X12858Y1109D01*
X12861Y1103D01*
X12868Y1096D01*
X12876Y1084D01*
X12886Y1072D01*
X12894Y1057D01*
X12902Y1043D01*
X12909Y1027D01*
X12910Y1025D01*
X12910Y1021D01*
X12913Y1013D01*
X12916Y1002D01*
X12919Y989D01*
X12921Y974D01*
X12923Y959D01*
X12924Y942D01*
Y941D01*
Y939D01*
Y935D01*
X12923Y929D01*
Y924D01*
X12922Y916D01*
X12919Y899D01*
X12915Y880D01*
X12909Y862D01*
X12900Y843D01*
X12887Y826D01*
X12886Y825D01*
X12881Y820D01*
X12873Y814D01*
X12861Y806D01*
X12848Y799D01*
X12833Y793D01*
X12813Y788D01*
X12793Y786D01*
X12787D01*
X12781Y787D01*
X12773Y788D01*
X12763Y790D01*
X12753Y792D01*
X12742Y796D01*
X12732Y801D01*
X12731Y801D01*
X12727Y803D01*
X12722Y806D01*
X12715Y811D01*
X12709Y817D01*
X12701Y825D01*
X12694Y832D01*
X12688Y841D01*
X12687Y842D01*
X12685Y846D01*
X12682Y850D01*
X12678Y857D01*
X12673Y866D01*
X12669Y874D01*
X12665Y885D01*
X12662Y897D01*
Y898D01*
X12661Y901D01*
X12660Y906D01*
X12658Y914D01*
X12656Y924D01*
X12654Y936D01*
X12652Y949D01*
X12650Y966D01*
Y967D01*
X12649Y970D01*
Y974D01*
X12648Y981D01*
X12647Y989D01*
X12646Y998D01*
X12642Y1019D01*
X12639Y1041D01*
X12635Y1064D01*
X12629Y1086D01*
X12626Y1096D01*
X12623Y1104D01*
X12620D01*
X12615Y1105D01*
X12595D01*
X12587Y1104D01*
X12577Y1102D01*
X12566Y1099D01*
X12555Y1096D01*
X12545Y1091D01*
X12537Y1083D01*
X12536Y1082D01*
X12533Y1077D01*
X12528Y1071D01*
X12523Y1061D01*
X12518Y1048D01*
X12514Y1033D01*
X12511Y1015D01*
X12510Y995D01*
Y994D01*
Y993D01*
Y990D01*
Y986D01*
X12511Y976D01*
X12512Y964D01*
X12515Y950D01*
X12517Y938D01*
X12522Y924D01*
X12529Y914D01*
X12530Y913D01*
X12533Y910D01*
X12538Y905D01*
X12544Y899D01*
X12554Y893D01*
X12566Y887D01*
X12580Y880D01*
X12596Y875D01*
X12586Y800D01*
X12585D01*
X12584Y801D01*
X12578Y801D01*
X12569Y804D01*
X12558Y807D01*
X12545Y812D01*
X12533Y818D01*
X12519Y825D01*
X12508Y833D01*
X12507Y834D01*
X12503Y838D01*
X12497Y843D01*
X12491Y850D01*
X12484Y860D01*
X12476Y873D01*
X12468Y886D01*
X12462Y901D01*
Y902D01*
X12461Y903D01*
X12460Y906D01*
X12459Y909D01*
X12457Y919D01*
X12453Y931D01*
X12450Y947D01*
X12448Y964D01*
X12446Y984D01*
X12445Y1005D01*
Y1006D01*
Y1008D01*
Y1011D01*
Y1015D01*
X12446Y1025D01*
X12447Y1039D01*
X12449Y1054D01*
X12451Y1071D01*
X12455Y1086D01*
X12460Y1100D01*
X12461Y1102D01*
X12462Y1106D01*
X12466Y1113D01*
X12469Y1121D01*
X12474Y1129D01*
X12480Y1139D01*
X12487Y1146D01*
X12494Y1154D01*
X12495Y1155D01*
X12498Y1157D01*
X12502Y1160D01*
X12509Y1164D01*
X12516Y1168D01*
X12525Y1171D01*
X12536Y1175D01*
X12547Y1178D01*
X12548D01*
X12551Y1179D01*
X12556Y1180D01*
X12564Y1181D01*
X12573D01*
X12586Y1182D01*
X12600Y1183D01*
X12758D01*
X12780Y1184D01*
X12804D01*
X12826Y1185D01*
X12837Y1186D01*
X12845D01*
X12853Y1187D01*
X12860Y1188D01*
X12861D01*
X12864Y1189D01*
X12870Y1190D01*
X12877Y1192D01*
X12885Y1195D01*
X12894Y1198D01*
X12913Y1207D01*
Y1126D01*
D02*
G37*
G36*
Y1891D02*
X12857D01*
X12858Y1890D01*
X12860Y1889D01*
X12862Y1886D01*
X12867Y1883D01*
X12872Y1879D01*
X12878Y1873D01*
X12884Y1866D01*
X12890Y1859D01*
X12896Y1850D01*
X12903Y1840D01*
X12909Y1830D01*
X12913Y1819D01*
X12918Y1807D01*
X12921Y1793D01*
X12923Y1779D01*
X12924Y1763D01*
Y1762D01*
Y1761D01*
Y1758D01*
X12923Y1754D01*
X12922Y1743D01*
X12920Y1731D01*
X12916Y1714D01*
X12911Y1698D01*
X12904Y1680D01*
X12894Y1663D01*
Y1662D01*
X12893Y1661D01*
X12888Y1655D01*
X12882Y1647D01*
X12872Y1637D01*
X12861Y1626D01*
X12846Y1614D01*
X12830Y1603D01*
X12811Y1592D01*
X12810D01*
X12808Y1591D01*
X12805Y1590D01*
X12801Y1589D01*
X12796Y1587D01*
X12789Y1585D01*
X12774Y1580D01*
X12756Y1575D01*
X12735Y1571D01*
X12712Y1568D01*
X12686Y1567D01*
X12674D01*
X12668Y1568D01*
X12661D01*
X12644Y1570D01*
X12625Y1573D01*
X12605Y1577D01*
X12583Y1582D01*
X12562Y1589D01*
X12561D01*
X12559Y1590D01*
X12556Y1592D01*
X12552Y1594D01*
X12542Y1599D01*
X12530Y1607D01*
X12516Y1616D01*
X12501Y1628D01*
X12488Y1641D01*
X12475Y1658D01*
Y1659D01*
X12474Y1660D01*
X12470Y1665D01*
X12466Y1675D01*
X12460Y1688D01*
X12455Y1703D01*
X12450Y1720D01*
X12446Y1739D01*
X12445Y1760D01*
Y1761D01*
Y1762D01*
Y1766D01*
X12446Y1774D01*
X12447Y1785D01*
X12450Y1795D01*
X12453Y1808D01*
X12458Y1820D01*
X12464Y1833D01*
X12465Y1835D01*
X12467Y1838D01*
X12470Y1844D01*
X12476Y1852D01*
X12482Y1860D01*
X12490Y1869D01*
X12499Y1878D01*
X12509Y1885D01*
X12282D01*
Y1963D01*
X12913D01*
Y1891D01*
D02*
G37*
G36*
Y-2006D02*
X12783Y-2089D01*
X12782D01*
X12780Y-2091D01*
X12777Y-2093D01*
X12773Y-2095D01*
X12763Y-2102D01*
X12751Y-2110D01*
X12737Y-2120D01*
X12722Y-2131D01*
X12709Y-2140D01*
X12696Y-2150D01*
X12695Y-2151D01*
X12691Y-2154D01*
X12686Y-2158D01*
X12679Y-2163D01*
X12665Y-2178D01*
X12659Y-2184D01*
X12654Y-2192D01*
X12653Y-2193D01*
X12652Y-2195D01*
X12650Y-2199D01*
X12647Y-2204D01*
X12641Y-2215D01*
X12637Y-2230D01*
Y-2230D01*
X12636Y-2232D01*
Y-2236D01*
X12635Y-2241D01*
X12634Y-2248D01*
Y-2255D01*
X12633Y-2265D01*
Y-2277D01*
Y-2373D01*
X12913D01*
Y-2456D01*
X12282D01*
Y-2177D01*
Y-2176D01*
Y-2173D01*
Y-2169D01*
Y-2163D01*
X12283Y-2156D01*
Y-2148D01*
X12284Y-2129D01*
X12286Y-2108D01*
X12290Y-2087D01*
X12294Y-2067D01*
X12296Y-2058D01*
X12299Y-2049D01*
Y-2048D01*
X12300Y-2047D01*
X12302Y-2041D01*
X12307Y-2033D01*
X12314Y-2024D01*
X12321Y-2012D01*
X12332Y-2001D01*
X12344Y-1989D01*
X12360Y-1979D01*
X12362Y-1978D01*
X12368Y-1975D01*
X12376Y-1970D01*
X12388Y-1965D01*
X12402Y-1960D01*
X12418Y-1956D01*
X12436Y-1953D01*
X12455Y-1952D01*
X12462D01*
X12467Y-1953D01*
X12472D01*
X12479Y-1954D01*
X12494Y-1958D01*
X12513Y-1962D01*
X12531Y-1970D01*
X12550Y-1982D01*
X12560Y-1988D01*
X12568Y-1996D01*
X12570Y-1998D01*
X12572Y-2001D01*
X12576Y-2004D01*
X12579Y-2008D01*
X12584Y-2014D01*
X12588Y-2021D01*
X12592Y-2029D01*
X12597Y-2037D01*
X12602Y-2048D01*
X12607Y-2058D01*
X12612Y-2071D01*
X12616Y-2083D01*
X12620Y-2098D01*
X12623Y-2113D01*
X12626Y-2130D01*
X12627Y-2128D01*
X12629Y-2124D01*
X12632Y-2118D01*
X12636Y-2111D01*
X12646Y-2095D01*
X12652Y-2086D01*
X12658Y-2080D01*
X12660Y-2078D01*
X12664Y-2073D01*
X12671Y-2066D01*
X12681Y-2058D01*
X12693Y-2047D01*
X12708Y-2035D01*
X12724Y-2023D01*
X12742Y-2010D01*
X12913Y-1901D01*
Y-2006D01*
D02*
G37*
G36*
X12724Y-1616D02*
X12646D01*
Y-1379D01*
X12724D01*
Y-1616D01*
D02*
G37*
G36*
X12542Y1522D02*
X12541Y1521D01*
X12540Y1517D01*
X12537Y1512D01*
X12534Y1505D01*
X12531Y1496D01*
X12528Y1487D01*
X12526Y1476D01*
X12525Y1466D01*
Y1465D01*
Y1462D01*
X12526Y1457D01*
X12527Y1450D01*
X12529Y1443D01*
X12532Y1436D01*
X12536Y1428D01*
X12541Y1420D01*
X12541Y1419D01*
X12543Y1417D01*
X12547Y1414D01*
X12552Y1410D01*
X12558Y1405D01*
X12566Y1400D01*
X12574Y1396D01*
X12584Y1392D01*
X12586Y1392D01*
X12590Y1391D01*
X12599Y1389D01*
X12611Y1387D01*
X12624Y1384D01*
X12639Y1382D01*
X12656Y1381D01*
X12674Y1380D01*
X12913D01*
Y1302D01*
X12456D01*
Y1372D01*
X12524D01*
X12523Y1373D01*
X12517Y1377D01*
X12509Y1382D01*
X12499Y1388D01*
X12489Y1395D01*
X12478Y1404D01*
X12468Y1412D01*
X12462Y1420D01*
X12461Y1421D01*
X12459Y1424D01*
X12457Y1429D01*
X12453Y1436D01*
X12450Y1442D01*
X12448Y1451D01*
X12446Y1461D01*
X12445Y1470D01*
Y1472D01*
Y1477D01*
X12446Y1485D01*
X12448Y1495D01*
X12452Y1507D01*
X12456Y1520D01*
X12463Y1535D01*
X12471Y1550D01*
X12542Y1522D01*
D02*
G37*
G36*
X11756Y1826D02*
X11765D01*
X11774Y1825D01*
X11785Y1824D01*
X11807Y1820D01*
X11830Y1815D01*
X11853Y1809D01*
X11873Y1800D01*
X11874D01*
X11875Y1799D01*
X11882Y1795D01*
X11891Y1788D01*
X11902Y1780D01*
X11915Y1769D01*
X11927Y1756D01*
X11940Y1740D01*
X11951Y1722D01*
Y1721D01*
X11952Y1720D01*
X11954Y1717D01*
X11955Y1713D01*
X11960Y1703D01*
X11965Y1689D01*
X11970Y1673D01*
X11974Y1655D01*
X11978Y1635D01*
X11979Y1613D01*
Y1612D01*
Y1609D01*
Y1603D01*
X11978Y1596D01*
X11977Y1589D01*
X11976Y1579D01*
X11974Y1568D01*
X11971Y1557D01*
X11964Y1533D01*
X11959Y1519D01*
X11953Y1507D01*
X11946Y1493D01*
X11938Y1481D01*
X11928Y1468D01*
X11918Y1457D01*
X11917Y1456D01*
X11915Y1454D01*
X11911Y1451D01*
X11906Y1448D01*
X11899Y1443D01*
X11892Y1439D01*
X11883Y1433D01*
X11872Y1428D01*
X11860Y1422D01*
X11847Y1417D01*
X11832Y1412D01*
X11817Y1408D01*
X11799Y1404D01*
X11781Y1401D01*
X11761Y1399D01*
X11740Y1398D01*
X11734D01*
X11727Y1399D01*
X11719D01*
X11708Y1400D01*
X11697Y1402D01*
X11683Y1404D01*
X11669Y1407D01*
X11653Y1411D01*
X11638Y1416D01*
X11623Y1421D01*
X11607Y1428D01*
X11592Y1436D01*
X11577Y1445D01*
X11564Y1456D01*
X11551Y1468D01*
X11550Y1469D01*
X11550Y1471D01*
X11547Y1474D01*
X11544Y1479D01*
X11540Y1485D01*
X11535Y1491D01*
X11530Y1499D01*
X11525Y1509D01*
X11522Y1518D01*
X11517Y1529D01*
X11508Y1554D01*
X11502Y1582D01*
X11501Y1597D01*
X11501Y1613D01*
Y1614D01*
Y1616D01*
Y1621D01*
X11501Y1628D01*
X11502Y1637D01*
X11503Y1645D01*
X11505Y1656D01*
X11508Y1667D01*
X11516Y1691D01*
X11521Y1704D01*
X11526Y1717D01*
X11534Y1730D01*
X11543Y1742D01*
X11552Y1755D01*
X11563Y1766D01*
X11564Y1767D01*
X11566Y1769D01*
X11570Y1772D01*
X11574Y1776D01*
X11580Y1781D01*
X11588Y1786D01*
X11598Y1791D01*
X11607Y1797D01*
X11619Y1802D01*
X11632Y1808D01*
X11646Y1812D01*
X11661Y1817D01*
X11677Y1821D01*
X11696Y1824D01*
X11714Y1826D01*
X11734Y1827D01*
X11748D01*
X11756Y1826D01*
D02*
G37*
G36*
X13262Y-2757D02*
X13819D01*
Y-2841D01*
X13262D01*
Y-3048D01*
X13188D01*
Y-2550D01*
X13262D01*
Y-2757D01*
D02*
G37*
G36*
X11598Y1354D02*
X11597Y1353D01*
X11595Y1349D01*
X11592Y1343D01*
X11589Y1337D01*
X11586Y1328D01*
X11583Y1318D01*
X11581Y1308D01*
X11580Y1297D01*
Y1296D01*
Y1294D01*
X11581Y1289D01*
X11582Y1282D01*
X11584Y1275D01*
X11587Y1268D01*
X11591Y1260D01*
X11596Y1252D01*
X11597Y1251D01*
X11599Y1249D01*
X11602Y1245D01*
X11607Y1242D01*
X11613Y1237D01*
X11621Y1232D01*
X11629Y1228D01*
X11639Y1224D01*
X11641Y1223D01*
X11646Y1222D01*
X11654Y1220D01*
X11666Y1219D01*
X11679Y1216D01*
X11695Y1214D01*
X11711Y1213D01*
X11729Y1212D01*
X11969D01*
Y1134D01*
X11511D01*
Y1204D01*
X11579D01*
X11578Y1205D01*
X11573Y1209D01*
X11564Y1214D01*
X11554Y1220D01*
X11544Y1227D01*
X11533Y1236D01*
X11524Y1244D01*
X11517Y1252D01*
X11516Y1253D01*
X11514Y1256D01*
X11512Y1261D01*
X11508Y1268D01*
X11505Y1274D01*
X11503Y1283D01*
X11501Y1293D01*
X11501Y1302D01*
Y1304D01*
Y1309D01*
X11501Y1317D01*
X11503Y1327D01*
X11507Y1339D01*
X11511Y1352D01*
X11518Y1367D01*
X11526Y1382D01*
X11598Y1354D01*
D02*
G37*
G36*
X11969Y693D02*
X11674D01*
X11664Y692D01*
X11653Y691D01*
X11641Y689D01*
X11630Y686D01*
X11621Y683D01*
X11620D01*
X11617Y681D01*
X11612Y679D01*
X11607Y677D01*
X11600Y672D01*
X11595Y666D01*
X11588Y659D01*
X11582Y652D01*
X11581Y651D01*
X11580Y648D01*
X11577Y643D01*
X11574Y636D01*
X11573Y628D01*
X11570Y619D01*
X11569Y609D01*
X11568Y598D01*
Y597D01*
Y596D01*
Y593D01*
Y589D01*
X11570Y580D01*
X11572Y568D01*
X11575Y554D01*
X11581Y541D01*
X11589Y526D01*
X11599Y512D01*
X11601Y510D01*
X11606Y506D01*
X11614Y501D01*
X11620Y498D01*
X11626Y495D01*
X11634Y491D01*
X11643Y488D01*
X11652Y485D01*
X11663Y482D01*
X11675Y480D01*
X11689Y479D01*
X11703Y477D01*
X11969D01*
Y399D01*
X11511D01*
Y469D01*
X11576D01*
X11575Y470D01*
X11574Y471D01*
X11570Y474D01*
X11565Y479D01*
X11559Y483D01*
X11552Y490D01*
X11546Y497D01*
X11538Y505D01*
X11531Y516D01*
X11525Y527D01*
X11518Y538D01*
X11512Y552D01*
X11507Y565D01*
X11503Y580D01*
X11501Y597D01*
X11501Y614D01*
Y615D01*
Y616D01*
Y621D01*
X11501Y629D01*
X11502Y639D01*
X11504Y651D01*
X11507Y664D01*
X11511Y677D01*
X11516Y690D01*
X11517Y692D01*
X11519Y696D01*
X11522Y702D01*
X11526Y709D01*
X11532Y718D01*
X11539Y727D01*
X11547Y735D01*
X11555Y742D01*
X11556Y743D01*
X11559Y745D01*
X11565Y748D01*
X11572Y751D01*
X11579Y755D01*
X11589Y759D01*
X11600Y763D01*
X11612Y766D01*
X11613D01*
X11616Y767D01*
X11622Y768D01*
X11629Y769D01*
X11640D01*
X11653Y770D01*
X11669Y771D01*
X11969D01*
Y693D01*
D02*
G37*
G36*
X11968Y1067D02*
X11969Y1063D01*
X11969Y1057D01*
X11970Y1048D01*
X11972Y1040D01*
X11973Y1030D01*
X11974Y1010D01*
Y1008D01*
Y1003D01*
X11973Y996D01*
X11972Y986D01*
X11971Y975D01*
X11969Y964D01*
X11966Y953D01*
X11962Y944D01*
X11961Y943D01*
X11959Y940D01*
X11956Y936D01*
X11952Y931D01*
X11947Y925D01*
X11942Y921D01*
X11935Y915D01*
X11927Y911D01*
X11926D01*
X11922Y910D01*
X11917Y908D01*
X11907Y907D01*
X11895Y905D01*
X11888Y904D01*
X11879Y903D01*
X11870D01*
X11859Y902D01*
X11572D01*
Y845D01*
X11511D01*
Y902D01*
X11399D01*
X11352Y980D01*
X11511D01*
Y1058D01*
X11572D01*
Y980D01*
X11850D01*
X11857Y981D01*
X11871Y982D01*
X11877Y983D01*
X11882Y984D01*
X11884Y985D01*
X11888Y987D01*
X11893Y991D01*
X11897Y997D01*
X11898Y998D01*
X11899Y1003D01*
X11901Y1012D01*
X11902Y1023D01*
Y1024D01*
Y1026D01*
Y1029D01*
Y1033D01*
X11901Y1038D01*
Y1044D01*
X11899Y1058D01*
X11968Y1069D01*
Y1067D01*
D02*
G37*
G36*
X13624Y-3105D02*
X13629Y-3107D01*
X13636Y-3109D01*
X13644Y-3113D01*
X13655Y-3117D01*
X13665Y-3120D01*
X13677Y-3126D01*
X13703Y-3139D01*
X13729Y-3156D01*
X13754Y-3175D01*
X13765Y-3187D01*
X13776Y-3199D01*
X13777Y-3200D01*
X13778Y-3202D01*
X13780Y-3206D01*
X13784Y-3212D01*
X13788Y-3218D01*
X13793Y-3226D01*
X13798Y-3235D01*
X13803Y-3245D01*
X13807Y-3257D01*
X13812Y-3269D01*
X13817Y-3284D01*
X13821Y-3298D01*
X13828Y-3330D01*
X13829Y-3347D01*
X13829Y-3365D01*
Y-3366D01*
Y-3370D01*
Y-3375D01*
X13829Y-3383D01*
Y-3391D01*
X13828Y-3401D01*
X13826Y-3413D01*
X13825Y-3424D01*
X13819Y-3451D01*
X13812Y-3479D01*
X13802Y-3506D01*
X13796Y-3519D01*
X13788Y-3532D01*
X13787Y-3533D01*
X13786Y-3535D01*
X13783Y-3537D01*
X13780Y-3542D01*
X13771Y-3554D01*
X13757Y-3567D01*
X13741Y-3584D01*
X13720Y-3599D01*
X13696Y-3615D01*
X13668Y-3629D01*
X13667D01*
X13664Y-3630D01*
X13660Y-3632D01*
X13655Y-3634D01*
X13647Y-3636D01*
X13638Y-3639D01*
X13629Y-3642D01*
X13617Y-3645D01*
X13606Y-3648D01*
X13592Y-3651D01*
X13563Y-3657D01*
X13533Y-3660D01*
X13499Y-3661D01*
X13489D01*
X13483Y-3660D01*
X13474D01*
X13463Y-3659D01*
X13453Y-3659D01*
X13440Y-3657D01*
X13413Y-3652D01*
X13385Y-3646D01*
X13355Y-3636D01*
X13327Y-3624D01*
X13326D01*
X13324Y-3622D01*
X13320Y-3620D01*
X13314Y-3617D01*
X13309Y-3613D01*
X13302Y-3609D01*
X13286Y-3596D01*
X13267Y-3582D01*
X13249Y-3563D01*
X13231Y-3541D01*
X13215Y-3517D01*
Y-3516D01*
X13213Y-3514D01*
X13212Y-3511D01*
X13210Y-3505D01*
X13207Y-3499D01*
X13203Y-3491D01*
X13200Y-3482D01*
X13196Y-3472D01*
X13192Y-3462D01*
X13189Y-3450D01*
X13183Y-3424D01*
X13179Y-3395D01*
X13177Y-3364D01*
Y-3364D01*
Y-3361D01*
Y-3355D01*
X13178Y-3348D01*
X13179Y-3340D01*
X13180Y-3331D01*
X13181Y-3320D01*
X13183Y-3309D01*
X13188Y-3284D01*
X13197Y-3257D01*
X13203Y-3243D01*
X13210Y-3230D01*
X13217Y-3217D01*
X13226Y-3205D01*
X13227Y-3204D01*
X13228Y-3202D01*
X13231Y-3199D01*
X13235Y-3194D01*
X13239Y-3190D01*
X13246Y-3183D01*
X13253Y-3176D01*
X13261Y-3169D01*
X13270Y-3162D01*
X13280Y-3155D01*
X13291Y-3147D01*
X13304Y-3140D01*
X13316Y-3133D01*
X13331Y-3126D01*
X13361Y-3115D01*
X13381Y-3197D01*
X13380D01*
X13378Y-3198D01*
X13374Y-3199D01*
X13369Y-3201D01*
X13363Y-3204D01*
X13357Y-3207D01*
X13342Y-3214D01*
X13326Y-3222D01*
X13309Y-3234D01*
X13293Y-3246D01*
X13280Y-3262D01*
X13279Y-3264D01*
X13275Y-3269D01*
X13270Y-3278D01*
X13263Y-3290D01*
X13258Y-3305D01*
X13253Y-3323D01*
X13249Y-3343D01*
X13248Y-3366D01*
Y-3367D01*
Y-3369D01*
Y-3373D01*
X13249Y-3378D01*
Y-3385D01*
X13250Y-3391D01*
X13253Y-3409D01*
X13257Y-3428D01*
X13263Y-3448D01*
X13272Y-3468D01*
X13284Y-3487D01*
Y-3488D01*
X13286Y-3489D01*
X13290Y-3495D01*
X13298Y-3504D01*
X13309Y-3514D01*
X13322Y-3525D01*
X13337Y-3536D01*
X13357Y-3547D01*
X13378Y-3556D01*
X13379D01*
X13381Y-3557D01*
X13384Y-3558D01*
X13388Y-3559D01*
X13393Y-3561D01*
X13400Y-3561D01*
X13415Y-3565D01*
X13434Y-3569D01*
X13454Y-3572D01*
X13476Y-3574D01*
X13499Y-3575D01*
X13512D01*
X13519Y-3574D01*
X13528D01*
X13536Y-3573D01*
X13546Y-3572D01*
X13568Y-3569D01*
X13592Y-3565D01*
X13616Y-3560D01*
X13639Y-3552D01*
X13640D01*
X13642Y-3551D01*
X13645Y-3549D01*
X13649Y-3547D01*
X13660Y-3542D01*
X13673Y-3535D01*
X13688Y-3524D01*
X13703Y-3512D01*
X13717Y-3497D01*
X13730Y-3480D01*
Y-3479D01*
X13730Y-3478D01*
X13732Y-3475D01*
X13734Y-3471D01*
X13738Y-3461D01*
X13744Y-3447D01*
X13749Y-3432D01*
X13754Y-3413D01*
X13757Y-3393D01*
X13758Y-3372D01*
Y-3371D01*
Y-3369D01*
Y-3365D01*
X13757Y-3361D01*
Y-3355D01*
X13756Y-3347D01*
X13754Y-3331D01*
X13749Y-3313D01*
X13741Y-3292D01*
X13731Y-3273D01*
X13718Y-3254D01*
X13717Y-3253D01*
X13716Y-3252D01*
X13710Y-3246D01*
X13701Y-3238D01*
X13688Y-3227D01*
X13671Y-3216D01*
X13651Y-3205D01*
X13626Y-3195D01*
X13598Y-3188D01*
X13619Y-3104D01*
X13620D01*
X13624Y-3105D01*
D02*
G37*
G36*
X11598Y3019D02*
X11597Y3018D01*
X11595Y3015D01*
X11592Y3009D01*
X11589Y3002D01*
X11586Y2994D01*
X11583Y2984D01*
X11581Y2973D01*
X11580Y2963D01*
Y2962D01*
Y2959D01*
X11581Y2954D01*
X11582Y2947D01*
X11584Y2941D01*
X11587Y2933D01*
X11591Y2925D01*
X11596Y2918D01*
X11597Y2917D01*
X11599Y2915D01*
X11602Y2911D01*
X11607Y2907D01*
X11613Y2902D01*
X11621Y2897D01*
X11629Y2894D01*
X11639Y2890D01*
X11641Y2889D01*
X11646Y2888D01*
X11654Y2886D01*
X11666Y2884D01*
X11679Y2881D01*
X11695Y2879D01*
X11711Y2878D01*
X11729Y2877D01*
X11969D01*
Y2799D01*
X11511D01*
Y2870D01*
X11579D01*
X11578Y2871D01*
X11573Y2874D01*
X11564Y2879D01*
X11554Y2885D01*
X11544Y2893D01*
X11533Y2901D01*
X11524Y2909D01*
X11517Y2918D01*
X11516Y2919D01*
X11514Y2921D01*
X11512Y2926D01*
X11508Y2933D01*
X11505Y2940D01*
X11503Y2948D01*
X11501Y2958D01*
X11501Y2968D01*
Y2969D01*
Y2974D01*
X11501Y2982D01*
X11503Y2993D01*
X11507Y3004D01*
X11511Y3018D01*
X11518Y3032D01*
X11526Y3047D01*
X11598Y3019D01*
D02*
G37*
G36*
X11760Y2704D02*
Y2364D01*
X11763D01*
X11768Y2365D01*
X11772D01*
X11779Y2366D01*
X11786Y2367D01*
X11803Y2371D01*
X11821Y2377D01*
X11841Y2383D01*
X11860Y2394D01*
X11876Y2406D01*
X11878Y2408D01*
X11882Y2413D01*
X11889Y2422D01*
X11895Y2432D01*
X11903Y2447D01*
X11910Y2463D01*
X11914Y2481D01*
X11916Y2501D01*
Y2502D01*
Y2503D01*
Y2509D01*
X11915Y2517D01*
X11913Y2526D01*
X11910Y2538D01*
X11906Y2550D01*
X11901Y2563D01*
X11894Y2575D01*
X11893Y2575D01*
X11889Y2579D01*
X11884Y2585D01*
X11875Y2592D01*
X11866Y2600D01*
X11853Y2607D01*
X11838Y2615D01*
X11821Y2623D01*
X11831Y2702D01*
X11832D01*
X11834Y2701D01*
X11838Y2700D01*
X11843Y2698D01*
X11848Y2697D01*
X11855Y2694D01*
X11871Y2686D01*
X11889Y2676D01*
X11907Y2665D01*
X11925Y2649D01*
X11941Y2632D01*
Y2631D01*
X11943Y2630D01*
X11944Y2627D01*
X11946Y2623D01*
X11949Y2618D01*
X11953Y2612D01*
X11956Y2605D01*
X11960Y2597D01*
X11967Y2578D01*
X11973Y2555D01*
X11977Y2530D01*
X11979Y2501D01*
Y2501D01*
Y2497D01*
Y2492D01*
X11978Y2485D01*
X11977Y2476D01*
X11976Y2467D01*
X11974Y2456D01*
X11971Y2444D01*
X11964Y2419D01*
X11959Y2405D01*
X11953Y2393D01*
X11946Y2379D01*
X11938Y2367D01*
X11928Y2354D01*
X11918Y2343D01*
X11917Y2342D01*
X11915Y2340D01*
X11911Y2337D01*
X11906Y2334D01*
X11900Y2329D01*
X11893Y2325D01*
X11883Y2319D01*
X11872Y2314D01*
X11861Y2308D01*
X11848Y2303D01*
X11834Y2298D01*
X11819Y2294D01*
X11802Y2290D01*
X11784Y2287D01*
X11765Y2285D01*
X11745Y2284D01*
X11733D01*
X11725Y2285D01*
X11716Y2286D01*
X11704Y2287D01*
X11692Y2289D01*
X11678Y2292D01*
X11649Y2299D01*
X11635Y2304D01*
X11620Y2309D01*
X11605Y2316D01*
X11591Y2324D01*
X11577Y2332D01*
X11565Y2343D01*
X11564Y2344D01*
X11562Y2346D01*
X11559Y2349D01*
X11554Y2353D01*
X11550Y2359D01*
X11545Y2367D01*
X11539Y2375D01*
X11532Y2384D01*
X11526Y2395D01*
X11521Y2406D01*
X11516Y2419D01*
X11510Y2433D01*
X11506Y2448D01*
X11503Y2463D01*
X11501Y2479D01*
X11501Y2497D01*
Y2498D01*
Y2501D01*
Y2505D01*
X11501Y2512D01*
X11502Y2520D01*
X11503Y2529D01*
X11505Y2539D01*
X11508Y2550D01*
X11516Y2574D01*
X11521Y2586D01*
X11527Y2599D01*
X11534Y2611D01*
X11543Y2624D01*
X11552Y2635D01*
X11564Y2647D01*
X11565Y2648D01*
X11567Y2649D01*
X11571Y2652D01*
X11575Y2656D01*
X11582Y2660D01*
X11590Y2665D01*
X11599Y2671D01*
X11609Y2676D01*
X11622Y2681D01*
X11634Y2687D01*
X11648Y2692D01*
X11665Y2697D01*
X11681Y2699D01*
X11699Y2702D01*
X11719Y2704D01*
X11740Y2705D01*
X11751D01*
X11760Y2704D01*
D02*
G37*
G36*
X11969Y1916D02*
X11337D01*
Y1994D01*
X11969D01*
Y1916D01*
D02*
G37*
G36*
Y2112D02*
X11337D01*
Y2190D01*
X11969D01*
Y2112D01*
D02*
G37*
G36*
X11752Y-1804D02*
X11763Y-1805D01*
X11773Y-1806D01*
X11787Y-1808D01*
X11800Y-1811D01*
X11829Y-1817D01*
X11845Y-1822D01*
X11860Y-1828D01*
X11875Y-1835D01*
X11890Y-1842D01*
X11903Y-1851D01*
X11916Y-1861D01*
X11917Y-1862D01*
X11919Y-1864D01*
X11921Y-1867D01*
X11925Y-1872D01*
X11930Y-1877D01*
X11936Y-1884D01*
X11942Y-1891D01*
X11947Y-1901D01*
X11959Y-1921D01*
X11969Y-1944D01*
X11973Y-1958D01*
X11976Y-1971D01*
X11978Y-1985D01*
X11979Y-2001D01*
Y-2002D01*
Y-2005D01*
Y-2008D01*
X11978Y-2014D01*
X11977Y-2021D01*
X11975Y-2029D01*
X11970Y-2047D01*
X11968Y-2057D01*
X11963Y-2067D01*
X11957Y-2078D01*
X11950Y-2088D01*
X11943Y-2098D01*
X11934Y-2108D01*
X11923Y-2118D01*
X11912Y-2127D01*
X11969D01*
Y-2199D01*
X11337D01*
Y-2121D01*
X11562D01*
X11561Y-2120D01*
X11559Y-2119D01*
X11556Y-2116D01*
X11552Y-2112D01*
X11548Y-2107D01*
X11543Y-2102D01*
X11531Y-2087D01*
X11520Y-2070D01*
X11510Y-2048D01*
X11506Y-2036D01*
X11503Y-2024D01*
X11501Y-2010D01*
X11501Y-1997D01*
Y-1996D01*
Y-1995D01*
Y-1989D01*
X11501Y-1982D01*
X11502Y-1971D01*
X11504Y-1959D01*
X11508Y-1945D01*
X11512Y-1932D01*
X11518Y-1917D01*
X11519Y-1915D01*
X11521Y-1910D01*
X11525Y-1904D01*
X11530Y-1895D01*
X11537Y-1885D01*
X11546Y-1876D01*
X11555Y-1865D01*
X11566Y-1856D01*
X11567Y-1855D01*
X11572Y-1852D01*
X11578Y-1847D01*
X11587Y-1841D01*
X11598Y-1836D01*
X11610Y-1829D01*
X11624Y-1823D01*
X11641Y-1817D01*
X11643Y-1816D01*
X11648Y-1815D01*
X11657Y-1812D01*
X11669Y-1810D01*
X11682Y-1808D01*
X11697Y-1805D01*
X11715Y-1804D01*
X11733Y-1803D01*
X11745D01*
X11752Y-1804D01*
D02*
G37*
G36*
X12754Y-2574D02*
X12766Y-2575D01*
X12781Y-2578D01*
X12797Y-2584D01*
X12814Y-2591D01*
X12831Y-2600D01*
X12833Y-2601D01*
X12838Y-2606D01*
X12846Y-2612D01*
X12856Y-2622D01*
X12867Y-2633D01*
X12879Y-2648D01*
X12889Y-2665D01*
X12900Y-2684D01*
Y-2685D01*
X12901Y-2687D01*
X12902Y-2690D01*
X12904Y-2694D01*
X12906Y-2698D01*
X12908Y-2704D01*
X12911Y-2720D01*
X12916Y-2737D01*
X12920Y-2758D01*
X12923Y-2780D01*
X12924Y-2805D01*
Y-2806D01*
Y-2809D01*
Y-2814D01*
Y-2820D01*
X12923Y-2826D01*
Y-2835D01*
X12922Y-2845D01*
X12921Y-2855D01*
X12918Y-2877D01*
X12913Y-2901D01*
X12908Y-2925D01*
X12900Y-2948D01*
Y-2949D01*
X12899Y-2951D01*
X12897Y-2954D01*
X12895Y-2958D01*
X12889Y-2969D01*
X12881Y-2981D01*
X12870Y-2996D01*
X12858Y-3011D01*
X12842Y-3026D01*
X12825Y-3040D01*
X12824D01*
X12823Y-3041D01*
X12820Y-3043D01*
X12816Y-3044D01*
X12812Y-3047D01*
X12806Y-3050D01*
X12791Y-3056D01*
X12775Y-3062D01*
X12755Y-3068D01*
X12734Y-3071D01*
X12711Y-3073D01*
X12704Y-2994D01*
X12706D01*
X12712Y-2994D01*
X12720Y-2992D01*
X12732Y-2990D01*
X12744Y-2986D01*
X12758Y-2982D01*
X12770Y-2976D01*
X12783Y-2970D01*
X12784Y-2969D01*
X12787Y-2966D01*
X12793Y-2961D01*
X12800Y-2953D01*
X12808Y-2945D01*
X12816Y-2934D01*
X12824Y-2920D01*
X12832Y-2906D01*
Y-2905D01*
X12833Y-2904D01*
X12835Y-2898D01*
X12837Y-2890D01*
X12840Y-2877D01*
X12844Y-2864D01*
X12847Y-2846D01*
X12849Y-2828D01*
X12850Y-2809D01*
Y-2808D01*
Y-2807D01*
Y-2801D01*
X12849Y-2792D01*
X12848Y-2781D01*
X12847Y-2768D01*
X12844Y-2754D01*
X12841Y-2740D01*
X12837Y-2725D01*
X12836Y-2723D01*
X12834Y-2720D01*
X12831Y-2713D01*
X12826Y-2705D01*
X12820Y-2696D01*
X12813Y-2687D01*
X12806Y-2678D01*
X12797Y-2671D01*
X12796Y-2670D01*
X12792Y-2668D01*
X12787Y-2665D01*
X12781Y-2661D01*
X12773Y-2658D01*
X12763Y-2655D01*
X12754Y-2653D01*
X12743Y-2652D01*
X12738D01*
X12733Y-2653D01*
X12726Y-2654D01*
X12717Y-2656D01*
X12709Y-2660D01*
X12700Y-2664D01*
X12691Y-2670D01*
X12690Y-2671D01*
X12688Y-2673D01*
X12684Y-2677D01*
X12678Y-2683D01*
X12672Y-2691D01*
X12666Y-2700D01*
X12660Y-2713D01*
X12654Y-2726D01*
X12653Y-2727D01*
X12652Y-2731D01*
X12650Y-2739D01*
X12648Y-2744D01*
X12646Y-2749D01*
X12644Y-2757D01*
X12642Y-2765D01*
X12639Y-2774D01*
X12637Y-2784D01*
X12634Y-2796D01*
X12631Y-2809D01*
X12627Y-2823D01*
X12623Y-2839D01*
Y-2840D01*
X12622Y-2843D01*
X12621Y-2847D01*
X12619Y-2853D01*
X12617Y-2860D01*
X12615Y-2868D01*
X12611Y-2886D01*
X12604Y-2906D01*
X12597Y-2926D01*
X12590Y-2945D01*
X12588Y-2953D01*
X12584Y-2960D01*
Y-2961D01*
X12583Y-2962D01*
X12579Y-2968D01*
X12574Y-2975D01*
X12567Y-2985D01*
X12559Y-2996D01*
X12549Y-3007D01*
X12538Y-3018D01*
X12525Y-3027D01*
X12523Y-3028D01*
X12518Y-3031D01*
X12512Y-3034D01*
X12502Y-3038D01*
X12491Y-3043D01*
X12477Y-3045D01*
X12462Y-3048D01*
X12446Y-3049D01*
X12438D01*
X12429Y-3047D01*
X12418Y-3045D01*
X12403Y-3043D01*
X12389Y-3038D01*
X12372Y-3031D01*
X12357Y-3022D01*
X12356D01*
X12355Y-3021D01*
X12350Y-3018D01*
X12343Y-3011D01*
X12333Y-3002D01*
X12323Y-2992D01*
X12313Y-2978D01*
X12302Y-2962D01*
X12294Y-2944D01*
Y-2943D01*
X12293Y-2942D01*
X12292Y-2939D01*
X12290Y-2934D01*
X12289Y-2929D01*
X12287Y-2923D01*
X12282Y-2910D01*
X12278Y-2893D01*
X12275Y-2873D01*
X12272Y-2851D01*
X12271Y-2828D01*
Y-2827D01*
Y-2825D01*
Y-2822D01*
Y-2817D01*
X12272Y-2810D01*
Y-2803D01*
X12274Y-2787D01*
X12277Y-2768D01*
X12281Y-2747D01*
X12287Y-2725D01*
X12294Y-2705D01*
Y-2704D01*
X12295Y-2703D01*
X12296Y-2700D01*
X12298Y-2697D01*
X12304Y-2687D01*
X12311Y-2674D01*
X12320Y-2661D01*
X12332Y-2648D01*
X12345Y-2634D01*
X12361Y-2623D01*
X12363Y-2622D01*
X12369Y-2618D01*
X12378Y-2613D01*
X12390Y-2608D01*
X12404Y-2602D01*
X12421Y-2597D01*
X12440Y-2593D01*
X12460Y-2591D01*
X12466Y-2671D01*
X12463D01*
X12460Y-2672D01*
X12456Y-2673D01*
X12445Y-2674D01*
X12432Y-2678D01*
X12418Y-2684D01*
X12403Y-2692D01*
X12389Y-2702D01*
X12376Y-2715D01*
X12375Y-2717D01*
X12371Y-2722D01*
X12367Y-2730D01*
X12361Y-2742D01*
X12355Y-2757D01*
X12350Y-2776D01*
X12346Y-2798D01*
X12345Y-2824D01*
Y-2825D01*
Y-2827D01*
Y-2831D01*
Y-2837D01*
X12346Y-2843D01*
Y-2850D01*
X12349Y-2867D01*
X12352Y-2885D01*
X12357Y-2903D01*
X12364Y-2920D01*
X12369Y-2928D01*
X12373Y-2935D01*
X12374Y-2936D01*
X12378Y-2940D01*
X12384Y-2945D01*
X12393Y-2951D01*
X12402Y-2958D01*
X12414Y-2963D01*
X12426Y-2967D01*
X12441Y-2969D01*
X12446D01*
X12453Y-2968D01*
X12461Y-2966D01*
X12469Y-2963D01*
X12479Y-2958D01*
X12488Y-2952D01*
X12496Y-2945D01*
X12497Y-2944D01*
X12500Y-2939D01*
X12502Y-2936D01*
X12505Y-2932D01*
X12507Y-2926D01*
X12510Y-2920D01*
X12514Y-2912D01*
X12517Y-2903D01*
X12520Y-2894D01*
X12524Y-2882D01*
X12529Y-2869D01*
X12533Y-2854D01*
X12537Y-2838D01*
X12541Y-2820D01*
Y-2819D01*
X12542Y-2815D01*
X12543Y-2810D01*
X12545Y-2803D01*
X12547Y-2795D01*
X12550Y-2785D01*
X12555Y-2764D01*
X12562Y-2741D01*
X12568Y-2718D01*
X12571Y-2706D01*
X12575Y-2697D01*
X12579Y-2687D01*
X12582Y-2679D01*
Y-2678D01*
X12583Y-2676D01*
X12585Y-2674D01*
X12587Y-2671D01*
X12592Y-2661D01*
X12599Y-2649D01*
X12609Y-2635D01*
X12620Y-2622D01*
X12633Y-2609D01*
X12646Y-2599D01*
X12648Y-2598D01*
X12653Y-2595D01*
X12661Y-2590D01*
X12672Y-2585D01*
X12685Y-2580D01*
X12700Y-2575D01*
X12717Y-2573D01*
X12736Y-2572D01*
X12744D01*
X12754Y-2574D01*
D02*
G37*
G36*
Y-3162D02*
X12766Y-3164D01*
X12781Y-3167D01*
X12797Y-3172D01*
X12814Y-3179D01*
X12831Y-3189D01*
X12833Y-3190D01*
X12838Y-3194D01*
X12846Y-3200D01*
X12856Y-3210D01*
X12867Y-3221D01*
X12879Y-3236D01*
X12889Y-3253D01*
X12900Y-3272D01*
Y-3273D01*
X12901Y-3275D01*
X12902Y-3278D01*
X12904Y-3282D01*
X12906Y-3287D01*
X12908Y-3292D01*
X12911Y-3308D01*
X12916Y-3325D01*
X12920Y-3346D01*
X12923Y-3368D01*
X12924Y-3393D01*
Y-3394D01*
Y-3397D01*
Y-3402D01*
Y-3408D01*
X12923Y-3414D01*
Y-3423D01*
X12922Y-3433D01*
X12921Y-3443D01*
X12918Y-3465D01*
X12913Y-3489D01*
X12908Y-3513D01*
X12900Y-3536D01*
Y-3537D01*
X12899Y-3539D01*
X12897Y-3542D01*
X12895Y-3546D01*
X12889Y-3557D01*
X12881Y-3569D01*
X12870Y-3585D01*
X12858Y-3599D01*
X12842Y-3614D01*
X12825Y-3628D01*
X12824D01*
X12823Y-3629D01*
X12820Y-3631D01*
X12816Y-3633D01*
X12812Y-3635D01*
X12806Y-3638D01*
X12791Y-3644D01*
X12775Y-3650D01*
X12755Y-3656D01*
X12734Y-3659D01*
X12711Y-3661D01*
X12704Y-3583D01*
X12706D01*
X12712Y-3582D01*
X12720Y-3580D01*
X12732Y-3578D01*
X12744Y-3574D01*
X12758Y-3570D01*
X12770Y-3564D01*
X12783Y-3558D01*
X12784Y-3557D01*
X12787Y-3554D01*
X12793Y-3549D01*
X12800Y-3541D01*
X12808Y-3533D01*
X12816Y-3522D01*
X12824Y-3509D01*
X12832Y-3494D01*
Y-3493D01*
X12833Y-3492D01*
X12835Y-3487D01*
X12837Y-3478D01*
X12840Y-3465D01*
X12844Y-3452D01*
X12847Y-3435D01*
X12849Y-3416D01*
X12850Y-3397D01*
Y-3396D01*
Y-3395D01*
Y-3389D01*
X12849Y-3380D01*
X12848Y-3369D01*
X12847Y-3356D01*
X12844Y-3342D01*
X12841Y-3328D01*
X12837Y-3314D01*
X12836Y-3312D01*
X12834Y-3308D01*
X12831Y-3301D01*
X12826Y-3293D01*
X12820Y-3284D01*
X12813Y-3275D01*
X12806Y-3266D01*
X12797Y-3259D01*
X12796Y-3258D01*
X12792Y-3256D01*
X12787Y-3253D01*
X12781Y-3249D01*
X12773Y-3246D01*
X12763Y-3243D01*
X12754Y-3241D01*
X12743Y-3241D01*
X12738D01*
X12733Y-3241D01*
X12726Y-3242D01*
X12717Y-3244D01*
X12709Y-3248D01*
X12700Y-3252D01*
X12691Y-3258D01*
X12690Y-3259D01*
X12688Y-3261D01*
X12684Y-3265D01*
X12678Y-3271D01*
X12672Y-3279D01*
X12666Y-3289D01*
X12660Y-3301D01*
X12654Y-3314D01*
X12653Y-3315D01*
X12652Y-3319D01*
X12650Y-3327D01*
X12648Y-3332D01*
X12646Y-3338D01*
X12644Y-3345D01*
X12642Y-3353D01*
X12639Y-3363D01*
X12637Y-3372D01*
X12634Y-3384D01*
X12631Y-3397D01*
X12627Y-3412D01*
X12623Y-3427D01*
Y-3428D01*
X12622Y-3431D01*
X12621Y-3436D01*
X12619Y-3441D01*
X12617Y-3448D01*
X12615Y-3456D01*
X12611Y-3474D01*
X12604Y-3494D01*
X12597Y-3514D01*
X12590Y-3533D01*
X12588Y-3541D01*
X12584Y-3548D01*
Y-3549D01*
X12583Y-3550D01*
X12579Y-3556D01*
X12574Y-3563D01*
X12567Y-3573D01*
X12559Y-3585D01*
X12549Y-3595D01*
X12538Y-3606D01*
X12525Y-3615D01*
X12523Y-3616D01*
X12518Y-3619D01*
X12512Y-3622D01*
X12502Y-3626D01*
X12491Y-3631D01*
X12477Y-3634D01*
X12462Y-3636D01*
X12446Y-3637D01*
X12438D01*
X12429Y-3635D01*
X12418Y-3634D01*
X12403Y-3631D01*
X12389Y-3626D01*
X12372Y-3619D01*
X12357Y-3610D01*
X12356D01*
X12355Y-3610D01*
X12350Y-3606D01*
X12343Y-3599D01*
X12333Y-3590D01*
X12323Y-3580D01*
X12313Y-3566D01*
X12302Y-3550D01*
X12294Y-3532D01*
Y-3531D01*
X12293Y-3530D01*
X12292Y-3527D01*
X12290Y-3522D01*
X12289Y-3517D01*
X12287Y-3512D01*
X12282Y-3498D01*
X12278Y-3481D01*
X12275Y-3462D01*
X12272Y-3439D01*
X12271Y-3416D01*
Y-3415D01*
Y-3413D01*
Y-3410D01*
Y-3405D01*
X12272Y-3398D01*
Y-3391D01*
X12274Y-3375D01*
X12277Y-3356D01*
X12281Y-3335D01*
X12287Y-3314D01*
X12294Y-3293D01*
Y-3292D01*
X12295Y-3291D01*
X12296Y-3289D01*
X12298Y-3285D01*
X12304Y-3275D01*
X12311Y-3263D01*
X12320Y-3249D01*
X12332Y-3236D01*
X12345Y-3222D01*
X12361Y-3211D01*
X12363Y-3210D01*
X12369Y-3206D01*
X12378Y-3201D01*
X12390Y-3196D01*
X12404Y-3191D01*
X12421Y-3185D01*
X12440Y-3181D01*
X12460Y-3179D01*
X12466Y-3259D01*
X12463D01*
X12460Y-3260D01*
X12456Y-3261D01*
X12445Y-3263D01*
X12432Y-3266D01*
X12418Y-3272D01*
X12403Y-3280D01*
X12389Y-3290D01*
X12376Y-3303D01*
X12375Y-3305D01*
X12371Y-3310D01*
X12367Y-3318D01*
X12361Y-3330D01*
X12355Y-3345D01*
X12350Y-3364D01*
X12346Y-3387D01*
X12345Y-3413D01*
Y-3413D01*
Y-3415D01*
Y-3419D01*
Y-3425D01*
X12346Y-3431D01*
Y-3438D01*
X12349Y-3455D01*
X12352Y-3473D01*
X12357Y-3491D01*
X12364Y-3509D01*
X12369Y-3516D01*
X12373Y-3523D01*
X12374Y-3524D01*
X12378Y-3528D01*
X12384Y-3534D01*
X12393Y-3539D01*
X12402Y-3546D01*
X12414Y-3551D01*
X12426Y-3555D01*
X12441Y-3557D01*
X12446D01*
X12453Y-3556D01*
X12461Y-3554D01*
X12469Y-3551D01*
X12479Y-3546D01*
X12488Y-3540D01*
X12496Y-3533D01*
X12497Y-3532D01*
X12500Y-3527D01*
X12502Y-3524D01*
X12505Y-3520D01*
X12507Y-3514D01*
X12510Y-3508D01*
X12514Y-3500D01*
X12517Y-3491D01*
X12520Y-3482D01*
X12524Y-3470D01*
X12529Y-3457D01*
X12533Y-3442D01*
X12537Y-3426D01*
X12541Y-3408D01*
Y-3407D01*
X12542Y-3403D01*
X12543Y-3398D01*
X12545Y-3391D01*
X12547Y-3383D01*
X12550Y-3373D01*
X12555Y-3352D01*
X12562Y-3329D01*
X12568Y-3306D01*
X12571Y-3294D01*
X12575Y-3285D01*
X12579Y-3275D01*
X12582Y-3267D01*
Y-3266D01*
X12583Y-3265D01*
X12585Y-3263D01*
X12587Y-3259D01*
X12592Y-3249D01*
X12599Y-3237D01*
X12609Y-3223D01*
X12620Y-3210D01*
X12633Y-3197D01*
X12646Y-3187D01*
X12648Y-3186D01*
X12653Y-3183D01*
X12661Y-3178D01*
X12672Y-3173D01*
X12685Y-3168D01*
X12700Y-3164D01*
X12717Y-3161D01*
X12736Y-3160D01*
X12744D01*
X12754Y-3162D01*
D02*
G37*
G36*
X11756Y-1309D02*
X11765D01*
X11774Y-1310D01*
X11785Y-1311D01*
X11807Y-1315D01*
X11830Y-1319D01*
X11853Y-1326D01*
X11873Y-1335D01*
X11874D01*
X11875Y-1336D01*
X11882Y-1340D01*
X11891Y-1346D01*
X11902Y-1355D01*
X11915Y-1366D01*
X11927Y-1379D01*
X11940Y-1394D01*
X11951Y-1413D01*
Y-1414D01*
X11952Y-1415D01*
X11954Y-1417D01*
X11955Y-1421D01*
X11960Y-1432D01*
X11965Y-1445D01*
X11970Y-1462D01*
X11974Y-1480D01*
X11978Y-1500D01*
X11979Y-1522D01*
Y-1523D01*
Y-1526D01*
Y-1532D01*
X11978Y-1539D01*
X11977Y-1546D01*
X11976Y-1556D01*
X11974Y-1566D01*
X11971Y-1578D01*
X11964Y-1602D01*
X11959Y-1615D01*
X11953Y-1628D01*
X11946Y-1641D01*
X11938Y-1654D01*
X11928Y-1666D01*
X11918Y-1678D01*
X11917Y-1679D01*
X11915Y-1681D01*
X11911Y-1684D01*
X11906Y-1687D01*
X11899Y-1691D01*
X11892Y-1696D01*
X11883Y-1702D01*
X11872Y-1707D01*
X11860Y-1713D01*
X11847Y-1718D01*
X11832Y-1723D01*
X11817Y-1727D01*
X11799Y-1731D01*
X11781Y-1734D01*
X11761Y-1736D01*
X11740Y-1737D01*
X11734D01*
X11727Y-1736D01*
X11719D01*
X11708Y-1735D01*
X11697Y-1733D01*
X11683Y-1731D01*
X11669Y-1728D01*
X11653Y-1724D01*
X11638Y-1719D01*
X11623Y-1713D01*
X11607Y-1707D01*
X11592Y-1699D01*
X11577Y-1689D01*
X11564Y-1679D01*
X11551Y-1666D01*
X11550Y-1665D01*
X11550Y-1664D01*
X11547Y-1661D01*
X11544Y-1656D01*
X11540Y-1650D01*
X11535Y-1643D01*
X11530Y-1636D01*
X11525Y-1626D01*
X11522Y-1616D01*
X11517Y-1606D01*
X11508Y-1581D01*
X11502Y-1553D01*
X11501Y-1538D01*
X11501Y-1522D01*
Y-1521D01*
Y-1518D01*
Y-1514D01*
X11501Y-1507D01*
X11502Y-1498D01*
X11503Y-1490D01*
X11505Y-1479D01*
X11508Y-1467D01*
X11516Y-1443D01*
X11521Y-1431D01*
X11526Y-1417D01*
X11534Y-1405D01*
X11543Y-1392D01*
X11552Y-1380D01*
X11563Y-1368D01*
X11564Y-1368D01*
X11566Y-1366D01*
X11570Y-1363D01*
X11574Y-1359D01*
X11580Y-1354D01*
X11588Y-1349D01*
X11598Y-1343D01*
X11607Y-1338D01*
X11619Y-1333D01*
X11632Y-1327D01*
X11646Y-1322D01*
X11661Y-1318D01*
X11677Y-1314D01*
X11696Y-1311D01*
X11714Y-1309D01*
X11734Y-1308D01*
X11748D01*
X11756Y-1309D01*
D02*
G37*
G36*
Y308D02*
X11765D01*
X11774Y307D01*
X11785Y306D01*
X11807Y302D01*
X11830Y297D01*
X11853Y290D01*
X11873Y282D01*
X11874D01*
X11875Y281D01*
X11882Y277D01*
X11891Y270D01*
X11902Y261D01*
X11915Y251D01*
X11927Y237D01*
X11940Y222D01*
X11951Y204D01*
Y203D01*
X11952Y202D01*
X11954Y199D01*
X11955Y195D01*
X11960Y185D01*
X11965Y171D01*
X11970Y155D01*
X11974Y136D01*
X11978Y116D01*
X11979Y94D01*
Y93D01*
Y90D01*
Y85D01*
X11978Y78D01*
X11977Y70D01*
X11976Y61D01*
X11974Y50D01*
X11971Y38D01*
X11964Y14D01*
X11959Y1D01*
X11953Y-12D01*
X11946Y-25D01*
X11938Y-37D01*
X11928Y-50D01*
X11918Y-62D01*
X11917Y-62D01*
X11915Y-64D01*
X11911Y-67D01*
X11906Y-70D01*
X11899Y-75D01*
X11892Y-80D01*
X11883Y-86D01*
X11872Y-90D01*
X11860Y-96D01*
X11847Y-102D01*
X11832Y-107D01*
X11817Y-111D01*
X11799Y-114D01*
X11781Y-117D01*
X11761Y-119D01*
X11740Y-120D01*
X11734D01*
X11727Y-119D01*
X11719D01*
X11708Y-118D01*
X11697Y-116D01*
X11683Y-114D01*
X11669Y-111D01*
X11653Y-108D01*
X11638Y-103D01*
X11623Y-97D01*
X11607Y-90D01*
X11592Y-83D01*
X11577Y-73D01*
X11564Y-62D01*
X11551Y-50D01*
X11550Y-49D01*
X11550Y-47D01*
X11547Y-44D01*
X11544Y-39D01*
X11540Y-34D01*
X11535Y-27D01*
X11530Y-19D01*
X11525Y-10D01*
X11522Y-0D01*
X11517Y11D01*
X11508Y36D01*
X11502Y63D01*
X11501Y79D01*
X11501Y94D01*
Y95D01*
Y98D01*
Y103D01*
X11501Y110D01*
X11502Y118D01*
X11503Y127D01*
X11505Y137D01*
X11508Y149D01*
X11516Y173D01*
X11521Y185D01*
X11526Y199D01*
X11534Y211D01*
X11543Y224D01*
X11552Y236D01*
X11563Y248D01*
X11564Y249D01*
X11566Y251D01*
X11570Y254D01*
X11574Y258D01*
X11580Y262D01*
X11588Y267D01*
X11598Y273D01*
X11607Y279D01*
X11619Y283D01*
X11632Y289D01*
X11646Y294D01*
X11661Y299D01*
X11677Y303D01*
X11696Y306D01*
X11714Y308D01*
X11734Y308D01*
X11748D01*
X11756Y308D01*
D02*
G37*
G36*
X13819Y-2037D02*
X13628Y-2110D01*
Y-2376D01*
X13819Y-2444D01*
Y-2532D01*
X13188Y-2291D01*
Y-2200D01*
X13819Y-1943D01*
Y-2037D01*
D02*
G37*
G36*
X11968Y-1040D02*
X11969Y-1044D01*
X11969Y-1049D01*
X11970Y-1058D01*
X11972Y-1067D01*
X11973Y-1076D01*
X11974Y-1097D01*
Y-1098D01*
Y-1103D01*
X11973Y-1111D01*
X11972Y-1121D01*
X11971Y-1131D01*
X11969Y-1143D01*
X11966Y-1153D01*
X11962Y-1163D01*
X11961Y-1164D01*
X11959Y-1167D01*
X11956Y-1170D01*
X11952Y-1175D01*
X11947Y-1181D01*
X11942Y-1186D01*
X11935Y-1192D01*
X11927Y-1195D01*
X11926D01*
X11922Y-1196D01*
X11917Y-1198D01*
X11907Y-1199D01*
X11895Y-1201D01*
X11888Y-1202D01*
X11879Y-1203D01*
X11870D01*
X11859Y-1204D01*
X11572D01*
Y-1262D01*
X11511D01*
Y-1204D01*
X11399D01*
X11352Y-1126D01*
X11511D01*
Y-1048D01*
X11572D01*
Y-1126D01*
X11850D01*
X11857Y-1125D01*
X11871Y-1124D01*
X11877Y-1123D01*
X11882Y-1122D01*
X11884Y-1121D01*
X11888Y-1120D01*
X11893Y-1116D01*
X11897Y-1110D01*
X11898Y-1108D01*
X11899Y-1103D01*
X11901Y-1095D01*
X11902Y-1083D01*
Y-1082D01*
Y-1080D01*
Y-1077D01*
Y-1073D01*
X11901Y-1069D01*
Y-1063D01*
X11899Y-1048D01*
X11968Y-1038D01*
Y-1040D01*
D02*
G37*
G36*
X11773Y-185D02*
X11778Y-186D01*
X11786Y-188D01*
X11794Y-192D01*
X11804Y-196D01*
X11815Y-200D01*
X11826Y-206D01*
X11852Y-218D01*
X11878Y-235D01*
X11903Y-255D01*
X11915Y-266D01*
X11925Y-279D01*
X11926Y-280D01*
X11927Y-282D01*
X11930Y-285D01*
X11934Y-291D01*
X11938Y-298D01*
X11943Y-306D01*
X11947Y-314D01*
X11952Y-325D01*
X11957Y-336D01*
X11962Y-349D01*
X11967Y-363D01*
X11970Y-378D01*
X11977Y-409D01*
X11978Y-427D01*
X11979Y-445D01*
Y-446D01*
Y-450D01*
Y-455D01*
X11978Y-462D01*
Y-471D01*
X11977Y-481D01*
X11975Y-492D01*
X11974Y-504D01*
X11969Y-530D01*
X11962Y-558D01*
X11951Y-585D01*
X11945Y-599D01*
X11938Y-611D01*
X11937Y-612D01*
X11936Y-614D01*
X11933Y-617D01*
X11930Y-622D01*
X11920Y-633D01*
X11907Y-647D01*
X11891Y-663D01*
X11870Y-678D01*
X11846Y-695D01*
X11818Y-708D01*
X11817D01*
X11814Y-709D01*
X11810Y-711D01*
X11804Y-713D01*
X11796Y-716D01*
X11788Y-719D01*
X11778Y-722D01*
X11767Y-725D01*
X11755Y-727D01*
X11742Y-730D01*
X11713Y-736D01*
X11682Y-740D01*
X11648Y-741D01*
X11639D01*
X11632Y-740D01*
X11624D01*
X11613Y-739D01*
X11602Y-738D01*
X11590Y-736D01*
X11563Y-731D01*
X11534Y-726D01*
X11504Y-716D01*
X11476Y-703D01*
X11476D01*
X11474Y-702D01*
X11470Y-700D01*
X11464Y-697D01*
X11458Y-693D01*
X11451Y-688D01*
X11435Y-676D01*
X11417Y-661D01*
X11399Y-643D01*
X11380Y-621D01*
X11365Y-597D01*
Y-596D01*
X11363Y-594D01*
X11361Y-590D01*
X11359Y-584D01*
X11356Y-579D01*
X11352Y-571D01*
X11350Y-561D01*
X11346Y-552D01*
X11342Y-541D01*
X11339Y-530D01*
X11332Y-504D01*
X11328Y-475D01*
X11327Y-444D01*
Y-443D01*
Y-440D01*
Y-434D01*
X11328Y-428D01*
X11328Y-420D01*
X11329Y-410D01*
X11330Y-400D01*
X11332Y-388D01*
X11338Y-363D01*
X11347Y-336D01*
X11352Y-323D01*
X11359Y-309D01*
X11367Y-297D01*
X11376Y-284D01*
X11377Y-283D01*
X11377Y-282D01*
X11380Y-279D01*
X11384Y-274D01*
X11389Y-269D01*
X11396Y-262D01*
X11402Y-256D01*
X11410Y-249D01*
X11420Y-241D01*
X11429Y-234D01*
X11441Y-227D01*
X11453Y-219D01*
X11466Y-212D01*
X11480Y-206D01*
X11511Y-194D01*
X11530Y-277D01*
X11529D01*
X11527Y-278D01*
X11524Y-279D01*
X11519Y-281D01*
X11513Y-283D01*
X11506Y-286D01*
X11492Y-293D01*
X11476Y-302D01*
X11458Y-313D01*
X11443Y-326D01*
X11429Y-341D01*
X11428Y-343D01*
X11425Y-349D01*
X11420Y-358D01*
X11413Y-370D01*
X11407Y-384D01*
X11402Y-403D01*
X11399Y-423D01*
X11398Y-446D01*
Y-447D01*
Y-449D01*
Y-453D01*
X11399Y-457D01*
Y-464D01*
X11400Y-471D01*
X11402Y-488D01*
X11406Y-507D01*
X11413Y-528D01*
X11422Y-548D01*
X11433Y-567D01*
Y-568D01*
X11435Y-569D01*
X11440Y-575D01*
X11448Y-583D01*
X11458Y-594D01*
X11472Y-604D01*
X11487Y-616D01*
X11506Y-627D01*
X11527Y-635D01*
X11528D01*
X11530Y-636D01*
X11533Y-637D01*
X11538Y-638D01*
X11543Y-640D01*
X11550Y-641D01*
X11565Y-645D01*
X11583Y-649D01*
X11603Y-652D01*
X11625Y-653D01*
X11648Y-654D01*
X11662D01*
X11669Y-653D01*
X11677D01*
X11686Y-653D01*
X11696Y-652D01*
X11718Y-649D01*
X11742Y-645D01*
X11766Y-639D01*
X11789Y-631D01*
X11790D01*
X11792Y-630D01*
X11795Y-628D01*
X11798Y-627D01*
X11810Y-622D01*
X11822Y-614D01*
X11838Y-604D01*
X11852Y-591D01*
X11867Y-577D01*
X11879Y-559D01*
Y-558D01*
X11880Y-557D01*
X11882Y-554D01*
X11884Y-551D01*
X11888Y-540D01*
X11894Y-527D01*
X11898Y-511D01*
X11903Y-493D01*
X11907Y-473D01*
X11908Y-452D01*
Y-451D01*
Y-449D01*
Y-445D01*
X11907Y-440D01*
Y-434D01*
X11906Y-427D01*
X11903Y-410D01*
X11898Y-392D01*
X11891Y-372D01*
X11881Y-353D01*
X11868Y-333D01*
X11867Y-333D01*
X11866Y-332D01*
X11860Y-326D01*
X11850Y-317D01*
X11838Y-307D01*
X11821Y-296D01*
X11800Y-284D01*
X11775Y-275D01*
X11747Y-267D01*
X11769Y-184D01*
X11770D01*
X11773Y-185D01*
D02*
G37*
%LPC*%
G36*
X12455Y-2038D02*
X12447D01*
X12440Y-2040D01*
X12429Y-2042D01*
X12418Y-2046D01*
X12405Y-2052D01*
X12393Y-2060D01*
X12381Y-2071D01*
X12380Y-2073D01*
X12376Y-2077D01*
X12371Y-2085D01*
X12367Y-2096D01*
X12361Y-2110D01*
X12357Y-2128D01*
X12353Y-2149D01*
X12352Y-2174D01*
Y-2373D01*
X12561D01*
Y-2194D01*
Y-2193D01*
Y-2191D01*
Y-2188D01*
Y-2184D01*
X12560Y-2174D01*
X12559Y-2161D01*
X12558Y-2147D01*
X12556Y-2131D01*
X12553Y-2117D01*
X12549Y-2105D01*
X12548Y-2103D01*
X12547Y-2099D01*
X12544Y-2093D01*
X12541Y-2086D01*
X12535Y-2079D01*
X12528Y-2070D01*
X12520Y-2062D01*
X12512Y-2056D01*
X12511Y-2055D01*
X12507Y-2053D01*
X12502Y-2050D01*
X12494Y-2047D01*
X12487Y-2044D01*
X12477Y-2041D01*
X12467Y-2039D01*
X12455Y-2038D01*
D02*
G37*
G36*
X13559Y-2137D02*
X13385Y-2203D01*
X13385D01*
X13382Y-2204D01*
X13378Y-2206D01*
X13372Y-2207D01*
X13365Y-2210D01*
X13358Y-2213D01*
X13339Y-2219D01*
X13318Y-2227D01*
X13296Y-2234D01*
X13274Y-2241D01*
X13253Y-2248D01*
X13254D01*
X13256Y-2249D01*
X13259D01*
X13263Y-2250D01*
X13269Y-2252D01*
X13276Y-2254D01*
X13291Y-2257D01*
X13311Y-2262D01*
X13331Y-2268D01*
X13353Y-2275D01*
X13375Y-2282D01*
X13559Y-2352D01*
Y-2137D01*
D02*
G37*
G36*
X11754Y-1388D02*
X11730D01*
X11723Y-1389D01*
X11717D01*
X11709Y-1390D01*
X11690Y-1392D01*
X11670Y-1397D01*
X11648Y-1404D01*
X11627Y-1414D01*
X11609Y-1427D01*
X11608D01*
X11607Y-1429D01*
X11602Y-1434D01*
X11595Y-1442D01*
X11587Y-1453D01*
X11579Y-1467D01*
X11572Y-1484D01*
X11567Y-1502D01*
X11565Y-1512D01*
Y-1522D01*
Y-1523D01*
Y-1525D01*
Y-1528D01*
X11566Y-1532D01*
X11567Y-1542D01*
X11571Y-1556D01*
X11575Y-1571D01*
X11583Y-1588D01*
X11595Y-1604D01*
X11601Y-1612D01*
X11609Y-1619D01*
X11611Y-1621D01*
X11614Y-1623D01*
X11617Y-1625D01*
X11622Y-1628D01*
X11627Y-1631D01*
X11634Y-1635D01*
X11642Y-1638D01*
X11650Y-1641D01*
X11660Y-1645D01*
X11671Y-1648D01*
X11683Y-1651D01*
X11696Y-1653D01*
X11710Y-1655D01*
X11724Y-1657D01*
X11749D01*
X11755Y-1656D01*
X11762D01*
X11771Y-1655D01*
X11790Y-1652D01*
X11811Y-1647D01*
X11833Y-1641D01*
X11854Y-1632D01*
X11864Y-1626D01*
X11872Y-1619D01*
X11874Y-1617D01*
X11879Y-1613D01*
X11886Y-1604D01*
X11894Y-1592D01*
X11902Y-1579D01*
X11909Y-1562D01*
X11914Y-1543D01*
X11915Y-1533D01*
X11916Y-1522D01*
Y-1521D01*
Y-1519D01*
Y-1516D01*
X11915Y-1513D01*
X11914Y-1502D01*
X11910Y-1489D01*
X11905Y-1473D01*
X11897Y-1457D01*
X11887Y-1442D01*
X11880Y-1434D01*
X11872Y-1426D01*
X11871D01*
X11870Y-1424D01*
X11868Y-1422D01*
X11864Y-1420D01*
X11859Y-1417D01*
X11853Y-1414D01*
X11846Y-1411D01*
X11839Y-1407D01*
X11830Y-1403D01*
X11821Y-1400D01*
X11809Y-1396D01*
X11796Y-1393D01*
X11784Y-1392D01*
X11770Y-1390D01*
X11754Y-1388D01*
D02*
G37*
G36*
X11756Y-1883D02*
X11731D01*
X11725Y-1884D01*
X11718D01*
X11709Y-1885D01*
X11690Y-1887D01*
X11668Y-1891D01*
X11647Y-1898D01*
X11625Y-1907D01*
X11616Y-1911D01*
X11607Y-1918D01*
X11606D01*
X11605Y-1920D01*
X11600Y-1925D01*
X11594Y-1932D01*
X11585Y-1942D01*
X11577Y-1955D01*
X11571Y-1970D01*
X11566Y-1986D01*
X11564Y-1995D01*
Y-2005D01*
Y-2006D01*
Y-2007D01*
Y-2009D01*
X11565Y-2013D01*
X11566Y-2023D01*
X11570Y-2034D01*
X11574Y-2048D01*
X11583Y-2063D01*
X11594Y-2078D01*
X11601Y-2085D01*
X11609Y-2092D01*
X11610D01*
X11611Y-2094D01*
X11614Y-2095D01*
X11618Y-2098D01*
X11622Y-2101D01*
X11627Y-2104D01*
X11634Y-2107D01*
X11642Y-2110D01*
X11650Y-2114D01*
X11660Y-2117D01*
X11671Y-2120D01*
X11681Y-2123D01*
X11707Y-2127D01*
X11737Y-2129D01*
X11750D01*
X11757Y-2128D01*
X11765D01*
X11783Y-2126D01*
X11802Y-2123D01*
X11822Y-2119D01*
X11841Y-2114D01*
X11848Y-2110D01*
X11856Y-2107D01*
X11857D01*
X11859Y-2105D01*
X11862Y-2103D01*
X11866Y-2100D01*
X11875Y-2092D01*
X11886Y-2081D01*
X11896Y-2066D01*
X11906Y-2049D01*
X11910Y-2040D01*
X11913Y-2030D01*
X11915Y-2019D01*
X11916Y-2008D01*
Y-2007D01*
Y-2006D01*
Y-2003D01*
X11915Y-1999D01*
X11914Y-1989D01*
X11910Y-1978D01*
X11905Y-1963D01*
X11897Y-1949D01*
X11886Y-1935D01*
X11879Y-1927D01*
X11871Y-1920D01*
X11870D01*
X11870Y-1918D01*
X11867Y-1916D01*
X11863Y-1914D01*
X11859Y-1911D01*
X11853Y-1909D01*
X11846Y-1905D01*
X11839Y-1901D01*
X11829Y-1898D01*
X11820Y-1894D01*
X11809Y-1891D01*
X11797Y-1888D01*
X11784Y-1886D01*
X11771Y-1885D01*
X11756Y-1883D01*
D02*
G37*
G36*
X11754Y229D02*
X11730D01*
X11723Y228D01*
X11717D01*
X11709Y227D01*
X11690Y224D01*
X11670Y219D01*
X11648Y212D01*
X11627Y203D01*
X11609Y189D01*
X11608D01*
X11607Y187D01*
X11602Y183D01*
X11595Y174D01*
X11587Y163D01*
X11579Y149D01*
X11572Y133D01*
X11567Y114D01*
X11565Y105D01*
Y94D01*
Y93D01*
Y91D01*
Y88D01*
X11566Y85D01*
X11567Y74D01*
X11571Y61D01*
X11575Y45D01*
X11583Y29D01*
X11595Y12D01*
X11601Y5D01*
X11609Y-3D01*
X11611Y-5D01*
X11614Y-7D01*
X11617Y-9D01*
X11622Y-12D01*
X11627Y-14D01*
X11634Y-18D01*
X11642Y-21D01*
X11650Y-25D01*
X11660Y-29D01*
X11671Y-32D01*
X11683Y-35D01*
X11696Y-37D01*
X11710Y-38D01*
X11724Y-40D01*
X11749D01*
X11755Y-39D01*
X11762D01*
X11771Y-38D01*
X11790Y-36D01*
X11811Y-31D01*
X11833Y-25D01*
X11854Y-15D01*
X11864Y-10D01*
X11872Y-3D01*
X11874Y-1D01*
X11879Y4D01*
X11886Y12D01*
X11894Y24D01*
X11902Y37D01*
X11909Y55D01*
X11914Y73D01*
X11915Y84D01*
X11916Y94D01*
Y95D01*
Y97D01*
Y100D01*
X11915Y104D01*
X11914Y114D01*
X11910Y128D01*
X11905Y143D01*
X11897Y160D01*
X11887Y175D01*
X11880Y183D01*
X11872Y190D01*
X11871D01*
X11870Y192D01*
X11868Y194D01*
X11864Y196D01*
X11859Y199D01*
X11853Y203D01*
X11846Y206D01*
X11839Y209D01*
X11830Y213D01*
X11821Y216D01*
X11809Y220D01*
X11796Y223D01*
X11784Y225D01*
X11770Y227D01*
X11754Y229D01*
D02*
G37*
G36*
X11697Y2624D02*
X11694D01*
X11691Y2623D01*
X11687D01*
X11676Y2621D01*
X11664Y2618D01*
X11650Y2614D01*
X11636Y2608D01*
X11622Y2602D01*
X11610Y2594D01*
X11609D01*
X11608Y2592D01*
X11602Y2587D01*
X11596Y2578D01*
X11587Y2568D01*
X11578Y2553D01*
X11571Y2537D01*
X11566Y2519D01*
X11565Y2508D01*
X11564Y2498D01*
Y2497D01*
Y2496D01*
Y2493D01*
X11565Y2489D01*
X11566Y2478D01*
X11569Y2466D01*
X11573Y2451D01*
X11579Y2437D01*
X11588Y2422D01*
X11600Y2407D01*
X11602Y2405D01*
X11607Y2402D01*
X11615Y2396D01*
X11626Y2389D01*
X11640Y2382D01*
X11656Y2376D01*
X11675Y2371D01*
X11697Y2368D01*
Y2624D01*
D02*
G37*
G36*
X11754Y1747D02*
X11730D01*
X11723Y1746D01*
X11717D01*
X11709Y1745D01*
X11690Y1742D01*
X11670Y1737D01*
X11648Y1731D01*
X11627Y1721D01*
X11609Y1708D01*
X11608D01*
X11607Y1706D01*
X11602Y1701D01*
X11595Y1692D01*
X11587Y1682D01*
X11579Y1667D01*
X11572Y1651D01*
X11567Y1633D01*
X11565Y1623D01*
Y1613D01*
Y1612D01*
Y1610D01*
Y1607D01*
X11566Y1603D01*
X11567Y1592D01*
X11571Y1579D01*
X11575Y1564D01*
X11583Y1547D01*
X11595Y1531D01*
X11601Y1523D01*
X11609Y1515D01*
X11611Y1514D01*
X11614Y1512D01*
X11617Y1510D01*
X11622Y1507D01*
X11627Y1504D01*
X11634Y1500D01*
X11642Y1497D01*
X11650Y1493D01*
X11660Y1490D01*
X11671Y1487D01*
X11683Y1484D01*
X11696Y1482D01*
X11710Y1480D01*
X11724Y1478D01*
X11749D01*
X11755Y1479D01*
X11762D01*
X11771Y1480D01*
X11790Y1483D01*
X11811Y1488D01*
X11833Y1493D01*
X11854Y1503D01*
X11864Y1509D01*
X11872Y1515D01*
X11874Y1517D01*
X11879Y1522D01*
X11886Y1531D01*
X11894Y1542D01*
X11902Y1556D01*
X11909Y1573D01*
X11914Y1591D01*
X11915Y1602D01*
X11916Y1613D01*
Y1614D01*
Y1615D01*
Y1618D01*
X11915Y1622D01*
X11914Y1633D01*
X11910Y1646D01*
X11905Y1662D01*
X11897Y1678D01*
X11887Y1693D01*
X11880Y1701D01*
X11872Y1709D01*
X11871D01*
X11870Y1711D01*
X11868Y1713D01*
X11864Y1714D01*
X11859Y1717D01*
X11853Y1721D01*
X11846Y1724D01*
X11839Y1728D01*
X11830Y1732D01*
X11821Y1735D01*
X11809Y1738D01*
X11796Y1741D01*
X11784Y1743D01*
X11770Y1745D01*
X11754Y1747D01*
D02*
G37*
G36*
X12713Y1104D02*
X12684D01*
X12685Y1102D01*
X12686Y1099D01*
X12687Y1096D01*
X12689Y1092D01*
X12689Y1086D01*
X12691Y1080D01*
X12694Y1072D01*
X12696Y1064D01*
X12698Y1054D01*
X12701Y1045D01*
X12704Y1033D01*
X12706Y1021D01*
X12709Y1007D01*
X12711Y993D01*
X12714Y977D01*
Y976D01*
Y975D01*
X12714Y970D01*
X12716Y961D01*
X12718Y950D01*
X12723Y928D01*
X12726Y918D01*
X12729Y909D01*
Y908D01*
X12731Y906D01*
X12733Y902D01*
X12736Y899D01*
X12743Y889D01*
X12755Y879D01*
X12756D01*
X12758Y877D01*
X12761Y876D01*
X12765Y874D01*
X12777Y871D01*
X12784Y870D01*
X12791Y869D01*
X12796D01*
X12802Y870D01*
X12810Y872D01*
X12817Y874D01*
X12826Y878D01*
X12835Y884D01*
X12843Y892D01*
X12844Y893D01*
X12846Y897D01*
X12850Y901D01*
X12853Y909D01*
X12857Y919D01*
X12861Y931D01*
X12862Y945D01*
X12863Y961D01*
Y962D01*
Y963D01*
Y969D01*
X12862Y976D01*
X12861Y988D01*
X12859Y999D01*
X12856Y1013D01*
X12851Y1026D01*
X12844Y1040D01*
X12843Y1042D01*
X12840Y1046D01*
X12837Y1052D01*
X12830Y1060D01*
X12823Y1068D01*
X12813Y1076D01*
X12803Y1085D01*
X12790Y1092D01*
X12789Y1093D01*
X12786Y1094D01*
X12780Y1096D01*
X12771Y1098D01*
X12760Y1100D01*
X12746Y1102D01*
X12731Y1103D01*
X12713Y1104D01*
D02*
G37*
G36*
Y-120D02*
X12684D01*
X12685Y-122D01*
X12686Y-125D01*
X12687Y-128D01*
X12689Y-133D01*
X12689Y-138D01*
X12691Y-144D01*
X12694Y-152D01*
X12696Y-160D01*
X12698Y-170D01*
X12701Y-180D01*
X12704Y-191D01*
X12706Y-204D01*
X12709Y-217D01*
X12711Y-232D01*
X12714Y-247D01*
Y-248D01*
Y-249D01*
X12714Y-255D01*
X12716Y-263D01*
X12718Y-274D01*
X12723Y-296D01*
X12726Y-307D01*
X12729Y-315D01*
Y-316D01*
X12731Y-318D01*
X12733Y-322D01*
X12736Y-326D01*
X12743Y-335D01*
X12755Y-345D01*
X12756D01*
X12758Y-347D01*
X12761Y-348D01*
X12765Y-350D01*
X12777Y-354D01*
X12784Y-355D01*
X12791Y-356D01*
X12796D01*
X12802Y-355D01*
X12810Y-353D01*
X12817Y-350D01*
X12826Y-346D01*
X12835Y-340D01*
X12843Y-333D01*
X12844Y-332D01*
X12846Y-328D01*
X12850Y-323D01*
X12853Y-315D01*
X12857Y-306D01*
X12861Y-293D01*
X12862Y-280D01*
X12863Y-263D01*
Y-262D01*
Y-261D01*
Y-256D01*
X12862Y-248D01*
X12861Y-236D01*
X12859Y-225D01*
X12856Y-211D01*
X12851Y-198D01*
X12844Y-185D01*
X12843Y-183D01*
X12840Y-179D01*
X12837Y-172D01*
X12830Y-164D01*
X12823Y-157D01*
X12813Y-148D01*
X12803Y-139D01*
X12790Y-133D01*
X12789Y-132D01*
X12786Y-131D01*
X12780Y-129D01*
X12771Y-126D01*
X12760Y-124D01*
X12746Y-122D01*
X12731Y-121D01*
X12713Y-120D01*
D02*
G37*
G36*
X12708Y1893D02*
X12684D01*
X12677Y1892D01*
X12669D01*
X12661Y1891D01*
X12639Y1888D01*
X12617Y1885D01*
X12594Y1878D01*
X12572Y1869D01*
X12563Y1863D01*
X12554Y1857D01*
X12553D01*
X12552Y1855D01*
X12547Y1850D01*
X12540Y1842D01*
X12532Y1832D01*
X12524Y1819D01*
X12516Y1804D01*
X12512Y1786D01*
X12510Y1777D01*
Y1767D01*
Y1766D01*
Y1765D01*
Y1762D01*
X12511Y1759D01*
X12512Y1749D01*
X12515Y1737D01*
X12520Y1724D01*
X12528Y1710D01*
X12538Y1695D01*
X12544Y1688D01*
X12552Y1682D01*
X12554Y1680D01*
X12557Y1679D01*
X12560Y1676D01*
X12565Y1674D01*
X12570Y1671D01*
X12577Y1667D01*
X12585Y1664D01*
X12593Y1662D01*
X12603Y1658D01*
X12615Y1655D01*
X12626Y1653D01*
X12639Y1650D01*
X12654Y1649D01*
X12669Y1647D01*
X12694D01*
X12700Y1648D01*
X12708D01*
X12715Y1649D01*
X12736Y1652D01*
X12757Y1656D01*
X12779Y1663D01*
X12799Y1671D01*
X12809Y1677D01*
X12817Y1684D01*
X12819Y1686D01*
X12824Y1690D01*
X12831Y1698D01*
X12838Y1709D01*
X12847Y1721D01*
X12854Y1736D01*
X12859Y1753D01*
X12860Y1762D01*
X12861Y1771D01*
Y1772D01*
Y1773D01*
Y1776D01*
X12860Y1780D01*
X12859Y1789D01*
X12856Y1801D01*
X12850Y1814D01*
X12843Y1829D01*
X12833Y1844D01*
X12827Y1851D01*
X12819Y1858D01*
X12818D01*
X12817Y1860D01*
X12814Y1860D01*
X12812Y1863D01*
X12807Y1866D01*
X12802Y1869D01*
X12795Y1872D01*
X12787Y1876D01*
X12780Y1879D01*
X12770Y1882D01*
X12760Y1885D01*
X12748Y1887D01*
X12736Y1890D01*
X12722Y1891D01*
X12708Y1893D01*
D02*
G37*
G36*
X11754Y-2368D02*
X11730D01*
X11723Y-2369D01*
X11717D01*
X11709Y-2370D01*
X11690Y-2373D01*
X11670Y-2378D01*
X11648Y-2384D01*
X11627Y-2394D01*
X11609Y-2407D01*
X11608D01*
X11607Y-2409D01*
X11602Y-2414D01*
X11595Y-2423D01*
X11587Y-2433D01*
X11579Y-2448D01*
X11572Y-2464D01*
X11567Y-2482D01*
X11565Y-2492D01*
Y-2502D01*
Y-2503D01*
Y-2505D01*
Y-2508D01*
X11566Y-2512D01*
X11567Y-2523D01*
X11571Y-2536D01*
X11575Y-2551D01*
X11583Y-2568D01*
X11595Y-2584D01*
X11601Y-2592D01*
X11609Y-2600D01*
X11611Y-2601D01*
X11614Y-2603D01*
X11617Y-2605D01*
X11622Y-2608D01*
X11627Y-2611D01*
X11634Y-2615D01*
X11642Y-2618D01*
X11650Y-2622D01*
X11660Y-2625D01*
X11671Y-2628D01*
X11683Y-2631D01*
X11696Y-2633D01*
X11710Y-2635D01*
X11724Y-2637D01*
X11749D01*
X11755Y-2636D01*
X11762D01*
X11771Y-2635D01*
X11790Y-2632D01*
X11811Y-2627D01*
X11833Y-2622D01*
X11854Y-2612D01*
X11864Y-2606D01*
X11872Y-2600D01*
X11874Y-2598D01*
X11879Y-2593D01*
X11886Y-2584D01*
X11894Y-2573D01*
X11902Y-2559D01*
X11909Y-2542D01*
X11914Y-2524D01*
X11915Y-2513D01*
X11916Y-2502D01*
Y-2501D01*
Y-2500D01*
Y-2497D01*
X11915Y-2493D01*
X11914Y-2482D01*
X11910Y-2469D01*
X11905Y-2453D01*
X11897Y-2437D01*
X11887Y-2422D01*
X11880Y-2414D01*
X11872Y-2406D01*
X11871D01*
X11870Y-2404D01*
X11868Y-2403D01*
X11864Y-2401D01*
X11859Y-2398D01*
X11853Y-2394D01*
X11846Y-2391D01*
X11839Y-2387D01*
X11830Y-2383D01*
X11821Y-2380D01*
X11809Y-2377D01*
X11796Y-2374D01*
X11784Y-2372D01*
X11770Y-2370D01*
X11754Y-2368D01*
D02*
G37*
G36*
X12630Y4355D02*
X12588D01*
X12577Y4354D01*
X12565D01*
X12550Y4353D01*
X12535Y4352D01*
X12517Y4350D01*
X12483Y4347D01*
X12449Y4340D01*
X12433Y4336D01*
X12418Y4331D01*
X12406Y4325D01*
X12395Y4319D01*
X12394D01*
X12393Y4317D01*
X12388Y4312D01*
X12379Y4304D01*
X12369Y4294D01*
X12360Y4280D01*
X12351Y4265D01*
X12345Y4248D01*
X12344Y4238D01*
X12344Y4228D01*
Y4227D01*
Y4226D01*
Y4224D01*
X12344Y4220D01*
X12345Y4210D01*
X12349Y4198D01*
X12355Y4184D01*
X12363Y4170D01*
X12374Y4155D01*
X12382Y4149D01*
X12390Y4143D01*
X12391D01*
X12393Y4141D01*
X12396Y4139D01*
X12401Y4137D01*
X12408Y4134D01*
X12416Y4130D01*
X12426Y4127D01*
X12438Y4124D01*
X12451Y4120D01*
X12467Y4116D01*
X12484Y4113D01*
X12504Y4109D01*
X12525Y4107D01*
X12548Y4105D01*
X12574Y4103D01*
X12616D01*
X12627Y4104D01*
X12639D01*
X12654Y4105D01*
X12670Y4106D01*
X12687Y4108D01*
X12721Y4112D01*
X12756Y4119D01*
X12771Y4123D01*
X12786Y4127D01*
X12799Y4133D01*
X12810Y4139D01*
X12811D01*
X12812Y4141D01*
X12817Y4146D01*
X12826Y4153D01*
X12835Y4164D01*
X12844Y4177D01*
X12853Y4193D01*
X12859Y4210D01*
X12860Y4220D01*
X12861Y4229D01*
Y4230D01*
Y4231D01*
Y4234D01*
X12860Y4238D01*
X12858Y4248D01*
X12854Y4260D01*
X12848Y4275D01*
X12839Y4289D01*
X12834Y4297D01*
X12826Y4304D01*
X12818Y4312D01*
X12810Y4319D01*
X12809D01*
X12807Y4321D01*
X12804Y4323D01*
X12799Y4324D01*
X12793Y4327D01*
X12785Y4330D01*
X12775Y4333D01*
X12764Y4337D01*
X12751Y4341D01*
X12737Y4344D01*
X12719Y4347D01*
X12700Y4349D01*
X12679Y4352D01*
X12656Y4353D01*
X12630Y4355D01*
D02*
G37*
%LPD*%
G54D36*
X27664Y8359D02*
X27401Y8622D01*
X26877D01*
X26614Y8359D01*
Y7310D01*
X26877Y7047D01*
X27401D01*
X27664Y7310D01*
X28451Y7047D02*
X28976D01*
X29238Y7310D01*
Y7834D01*
X28976Y8097D01*
X28451D01*
X28188Y7834D01*
Y7310D01*
X28451Y7047D01*
X29763D02*
Y8097D01*
X30550D01*
X30812Y7834D01*
Y7047D01*
X31599Y8359D02*
Y8097D01*
X31337D01*
X31862D01*
X31599D01*
Y7310D01*
X31862Y7047D01*
X32649Y8097D02*
Y7047D01*
Y7572D01*
X32911Y7834D01*
X33174Y8097D01*
X33436D01*
X34486Y7047D02*
X35010D01*
X35273Y7310D01*
Y7834D01*
X35010Y8097D01*
X34486D01*
X34223Y7834D01*
Y7310D01*
X34486Y7047D01*
X35798D02*
X36322D01*
X36060D01*
Y8622D01*
X35798D01*
X37109Y7047D02*
X37634D01*
X37372D01*
Y8622D01*
X37109D01*
X39209Y7047D02*
X38684D01*
X38421Y7310D01*
Y7834D01*
X38684Y8097D01*
X39209D01*
X39471Y7834D01*
Y7572D01*
X38421D01*
X39996Y8097D02*
Y7047D01*
Y7572D01*
X40258Y7834D01*
X40520Y8097D01*
X40783D01*
X43144Y8622D02*
Y7572D01*
X43669Y7047D01*
X44194Y7572D01*
Y8622D01*
X44719Y7047D02*
X45243D01*
X44981D01*
Y8622D01*
X44719Y8359D01*
X46030Y7047D02*
Y7310D01*
X46293D01*
Y7047D01*
X46030D01*
X47342Y8359D02*
X47605Y8622D01*
X48130D01*
X48392Y8359D01*
Y7310D01*
X48130Y7047D01*
X47605D01*
X47342Y7310D01*
Y8359D01*
X48917Y8097D02*
X49179D01*
Y7834D01*
X48917D01*
Y8097D01*
Y7310D02*
X49179D01*
Y7047D01*
X48917D01*
Y7310D01*
X51803Y8622D02*
X52852D01*
X52328D01*
Y7047D01*
X53640D02*
X54164D01*
X54427Y7310D01*
Y7834D01*
X54164Y8097D01*
X53640D01*
X53377Y7834D01*
Y7310D01*
X53640Y7047D01*
X54951Y6522D02*
Y8097D01*
X55739D01*
X56001Y7834D01*
Y7310D01*
X55739Y7047D01*
X54951D01*
X58362D02*
X58887D01*
X59150Y7310D01*
Y7834D01*
X58887Y8097D01*
X58362D01*
X58100Y7834D01*
Y7310D01*
X58362Y7047D01*
X59674Y8097D02*
X60199Y7047D01*
X60724Y8097D01*
X62036Y7047D02*
X61511D01*
X61249Y7310D01*
Y7834D01*
X61511Y8097D01*
X62036D01*
X62298Y7834D01*
Y7572D01*
X61249D01*
X62823Y8097D02*
Y7047D01*
Y7572D01*
X63085Y7834D01*
X63348Y8097D01*
X63610D01*
X64397Y7047D02*
X64922D01*
X64660D01*
Y8622D01*
X64397D01*
X65972Y8097D02*
X66496D01*
X66759Y7834D01*
Y7047D01*
X65972D01*
X65709Y7310D01*
X65972Y7572D01*
X66759D01*
X67283Y8097D02*
Y7310D01*
X67546Y7047D01*
X68333D01*
Y6785D01*
X68071Y6522D01*
X67808D01*
X68333Y7047D02*
Y8097D01*
X69645Y7047D02*
X69120D01*
X68858Y7310D01*
Y7834D01*
X69120Y8097D01*
X69645D01*
X69907Y7834D01*
Y7572D01*
X68858D01*
X70432Y8097D02*
Y7047D01*
Y7572D01*
X70694Y7834D01*
X70957Y8097D01*
X71219D01*
G54D40*
X6864Y-6068D02*
G03*
X6864Y-6068I-118J0D01*
G01*
G54D53*
X-10500Y-1850D02*
D03*
X787Y-7313D02*
D03*
X5199Y3672D02*
D03*
X-5113Y3687D02*
D03*
G54D60*
X984Y6300D02*
G03*
X984Y6300I-984J0D01*
G01*
X-3797Y11425D02*
X-3516D01*
X-4247Y11620D02*
Y12025D01*
X-3932D01*
X-3066Y11620D02*
Y12025D01*
X-3381D02*
X-3066D01*
X-3735Y10737D02*
X-3578D01*
X-3735Y10461D02*
X-3578D01*
X-4055Y9655D02*
Y9813D01*
X-3780Y9655D02*
Y9813D01*
X-6529Y8888D02*
X-6371D01*
X-6529Y8612D02*
X-6371D01*
X-4929Y8612D02*
X-4771D01*
X-4929Y8888D02*
X-4771D01*
X-2572Y10135D02*
Y10293D01*
X-2847Y10135D02*
Y10293D01*
X-2247Y10135D02*
Y10293D01*
X-1972Y10135D02*
Y10293D01*
X-1536Y10200D02*
X-1064D01*
X-197Y6694D02*
Y7087D01*
X-394Y6891D02*
X0D01*
X1521Y10638D02*
X1679D01*
X1521Y10362D02*
X1679D01*
X1521Y9762D02*
X1679D01*
X1521Y10038D02*
X1679D01*
X1521Y8362D02*
X1679D01*
X1521Y8638D02*
X1679D01*
X847Y10144D02*
Y10302D01*
X572Y10144D02*
Y10302D01*
X247Y10144D02*
Y10302D01*
X-28Y10144D02*
Y10302D01*
X-628Y10144D02*
Y10302D01*
X-353Y10144D02*
Y10302D01*
X-481Y8326D02*
Y8720D01*
Y8326D02*
X700D01*
Y8720D01*
X-481D02*
X700D01*
X-1791Y7221D02*
Y7379D01*
X-1516Y7221D02*
Y7379D01*
X-287Y3817D02*
Y3974D01*
X-562Y3817D02*
Y3974D01*
X313Y3817D02*
Y3974D01*
X38Y3817D02*
Y3974D01*
X-11779Y-2362D02*
X-11621D01*
X-11779Y-2638D02*
X-11621D01*
X-11779Y1138D02*
X-11621D01*
X-11779Y862D02*
X-11621D01*
X-11779Y-3338D02*
X-11621D01*
X-11779Y-3062D02*
X-11621D01*
X-7924Y-5441D02*
Y-5159D01*
X-7729Y-4709D02*
X-7324D01*
Y-5024D02*
Y-4709D01*
X-7729Y-5891D02*
X-7324D01*
Y-5576D01*
X-7924Y-7041D02*
Y-6759D01*
X-7729Y-6309D02*
X-7324D01*
Y-6624D02*
Y-6309D01*
X-7729Y-7491D02*
X-7324D01*
Y-7176D01*
X-7924Y-3841D02*
Y-3559D01*
X-7729Y-3109D02*
X-7324D01*
Y-3424D02*
Y-3109D01*
X-7729Y-4291D02*
X-7324D01*
Y-3976D01*
X4021Y-11338D02*
X4179D01*
X4021Y-11062D02*
X4179D01*
X-3938Y-8579D02*
Y-8421D01*
X-3662Y-8579D02*
Y-8421D01*
X-3338Y-8579D02*
Y-8421D01*
X-3062Y-8579D02*
Y-8421D01*
X-250Y0D02*
X250D01*
X0Y-250D02*
Y250D01*
X1562Y-6379D02*
Y-6221D01*
X1838Y-6379D02*
Y-6221D01*
X2738Y-6379D02*
Y-6221D01*
X2462Y-6379D02*
Y-6221D01*
X3900Y-8400D02*
X5900D01*
X3900Y-9400D02*
Y-8400D01*
Y-9400D02*
X5900D01*
Y-8400D01*
X2662Y-3379D02*
Y-3221D01*
X2938Y-3379D02*
Y-3221D01*
X-2938Y-3379D02*
Y-3221D01*
X-2662Y-3379D02*
Y-3221D01*
X1102Y-9202D02*
Y-6998D01*
X-1102Y-9202D02*
X1102D01*
X-1102D02*
Y-6998D01*
X1102D01*
X-1838Y-6279D02*
Y-6121D01*
X-1562Y-6279D02*
Y-6121D01*
X-2162Y-6279D02*
Y-6121D01*
X-2438Y-6279D02*
Y-6121D01*
X1962Y-10179D02*
Y-10021D01*
X2238Y-10179D02*
Y-10021D01*
X3062Y-8879D02*
Y-8721D01*
X3338Y-8879D02*
Y-8721D01*
X3338Y-10179D02*
Y-10021D01*
X3062Y-10179D02*
Y-10021D01*
X-2205Y-5445D02*
X2205D01*
X-2205D02*
Y-5209D01*
X2205Y-5445D02*
Y-5209D01*
X-2205Y-3791D02*
Y-3555D01*
X2205Y-3791D02*
Y-3555D01*
X-2205D02*
X2205D01*
X6404Y-1762D02*
X6562D01*
X6404Y-2038D02*
X6562D01*
X7504Y-2038D02*
X7662D01*
X7504Y-1762D02*
X7662D01*
X7504Y-100D02*
X7662D01*
X7504Y-376D02*
X7662D01*
X6404Y-376D02*
X6562D01*
X6404Y-100D02*
X6562D01*
X8156Y5005D02*
Y5162D01*
X8432Y5005D02*
Y5162D01*
X3438Y2021D02*
Y2179D01*
X3162Y2021D02*
Y2179D01*
X7556Y5005D02*
Y5162D01*
X7832Y5005D02*
Y5162D01*
X2664Y-700D02*
X3136D01*
X6352Y-6462D02*
X10526D01*
X6352Y-4887D02*
X10526D01*
X6352Y-6462D02*
Y-4887D01*
X10526Y-6462D02*
Y-4887D01*
X2762Y521D02*
Y679D01*
X3038Y521D02*
Y679D01*
X-1364Y4338D02*
X-1206D01*
X-1364Y4062D02*
X-1206D01*
X-1364Y3462D02*
X-1206D01*
X-1364Y3738D02*
X-1206D01*
X1838Y3226D02*
Y3383D01*
X2113Y3226D02*
Y3383D01*
X2713Y3221D02*
Y3379D01*
X2438Y3221D02*
Y3379D01*
X1238Y3226D02*
Y3383D01*
X1513Y3226D02*
Y3383D01*
X638Y3821D02*
Y3979D01*
X913Y3821D02*
Y3979D01*
X4884Y3987D02*
X7089D01*
Y1783D02*
Y3987D01*
X4884Y1783D02*
X7089D01*
X4884D02*
Y3987D01*
X4112Y4721D02*
Y4879D01*
X4388Y4721D02*
Y4879D01*
X8194Y7909D02*
Y8145D01*
X5950D02*
X8194D01*
X3706Y6255D02*
Y6491D01*
Y6255D02*
X5950D01*
X8194D02*
Y6491D01*
X5950Y6255D02*
X8194D01*
X3706Y8145D02*
X5950D01*
X3706Y7909D02*
Y8145D01*
X6156Y5737D02*
X6313D01*
X6156Y6013D02*
X6313D01*
X5071Y8838D02*
X5229D01*
X5071Y8562D02*
X5229D01*
X6671Y8562D02*
X6829D01*
X6671Y8838D02*
X6829D01*
X5404Y-100D02*
X5562D01*
X5404Y-376D02*
X5562D01*
X4304Y-376D02*
X4462D01*
X4304Y-100D02*
X4462D01*
X5353Y-1179D02*
Y-1021D01*
X5078Y-1179D02*
Y-1021D01*
X4788Y-1179D02*
Y-1021D01*
X4512Y-1179D02*
Y-1021D01*
X4304Y-1762D02*
X4462D01*
X4304Y-2038D02*
X4462D01*
X5404Y-2038D02*
X5562D01*
X5404Y-1762D02*
X5562D01*
X6888Y-1179D02*
Y-1021D01*
X6612Y-1179D02*
Y-1021D01*
X7479Y-1179D02*
Y-1021D01*
X7204Y-1179D02*
Y-1021D01*
X-4798Y1798D02*
Y4002D01*
X-7002Y1798D02*
X-4798D01*
X-7002D02*
Y4002D01*
X-4798D01*
X-8738Y321D02*
Y479D01*
X-8462Y321D02*
Y479D01*
X10912Y-6329D02*
Y-6171D01*
X11188Y-6329D02*
Y-6171D01*
X11188Y-5129D02*
Y-4971D01*
X10912Y-5129D02*
Y-4971D01*
X4644Y-4576D02*
Y-4419D01*
X4920Y-4576D02*
Y-4419D01*
X5244Y-4576D02*
Y-4419D01*
X5520Y-4576D02*
Y-4419D01*
X4938Y-7179D02*
Y-7021D01*
X4662Y-7179D02*
Y-7021D01*
X7421Y-7962D02*
X7579D01*
X7421Y-8238D02*
X7579D01*
X5538Y-7179D02*
Y-7021D01*
X5262Y-7179D02*
Y-7021D01*
X9021Y-3438D02*
X9179D01*
X9021Y-3162D02*
X9179D01*
X2462Y4721D02*
Y4879D01*
X2738Y4721D02*
Y4879D01*
X-8138Y321D02*
Y479D01*
X-7862Y321D02*
Y479D01*
X-7538Y321D02*
Y479D01*
X-7262Y321D02*
Y479D01*
X-6338Y-2374D02*
Y-2217D01*
X-6062Y-2374D02*
Y-2217D01*
X-5979Y67D02*
X-5821D01*
X-5979Y343D02*
X-5821D01*
X-5679Y5462D02*
X-5521D01*
X-5679Y5738D02*
X-5521D01*
X-5979Y-257D02*
X-5821D01*
X-5979Y-533D02*
X-5821D01*
X-3700Y5314D02*
Y5786D01*
X-4638Y-179D02*
Y-21D01*
X-4362Y-179D02*
Y-21D01*
X-6338Y-1324D02*
Y-1167D01*
X-6062Y-1324D02*
Y-1167D01*
X-5462Y-1324D02*
Y-1167D01*
X-5738Y-1324D02*
Y-1167D01*
X-4538Y-9479D02*
Y-9321D01*
X-4262Y-9479D02*
Y-9321D01*
X-1979Y-10638D02*
X-1821D01*
X-1979Y-10362D02*
X-1821D01*
X-1979Y-10038D02*
X-1821D01*
X-1979Y-9762D02*
X-1821D01*
X-1979Y-11238D02*
X-1821D01*
X-1979Y-10962D02*
X-1821D01*
X-5462Y-2374D02*
Y-2217D01*
X-5738Y-2374D02*
Y-2217D01*
X3500Y-11700D02*
Y-10700D01*
X1500Y-11700D02*
X3500D01*
X1500D02*
Y-10700D01*
X3500D01*
X-11779Y-262D02*
X-11621D01*
X-11779Y-538D02*
X-11621D01*
X-11779Y-1662D02*
X-11621D01*
X-11779Y-1938D02*
X-11621D01*
X-7179Y-838D02*
X-7021D01*
X-7179Y-562D02*
X-7021D01*
X-7924Y-8641D02*
Y-8359D01*
X-7729Y-7909D02*
X-7324D01*
Y-8224D02*
Y-7909D01*
X-7729Y-9091D02*
X-7324D01*
Y-8776D01*
X-11779Y-1238D02*
X-11621D01*
X-11779Y-962D02*
X-11621D01*
X-11779Y438D02*
X-11621D01*
X-11779Y162D02*
X-11621D01*
X-7179Y-2038D02*
X-7021D01*
X-7179Y-1762D02*
X-7021D01*
X-7179Y-1438D02*
X-7021D01*
X-7179Y-1162D02*
X-7021D01*
X-10000Y3400D02*
X-9000D01*
X-10000D02*
Y6400D01*
X-9000D01*
Y3400D02*
Y6400D01*
X-9379Y2106D02*
X-9221D01*
X-9379Y2382D02*
X-9221D01*
X-9379Y2736D02*
X-9221D01*
X-9379Y3012D02*
X-9221D01*
X-2938Y-2179D02*
Y-2021D01*
X-2662Y-2179D02*
Y-2021D01*
X-5660Y-13136D02*
X-5564Y-12920D01*
X-6236Y-12880D02*
X-6140Y-12664D01*
X12140Y7114D02*
X12345Y7232D01*
X12455Y6568D02*
X12660Y6686D01*
X13654Y7988D02*
X14025Y8212D01*
X11837Y-10458D02*
X12163Y-10742D01*
X-3441Y15882D02*
X-3359Y15457D01*
X-2991Y13962D02*
X-2950Y13729D01*
X-2371Y14071D02*
X-2330Y13838D01*
X10523Y-9287D02*
X10699Y-9445D01*
X10101Y-9755D02*
X10277Y-9913D01*
X-6488Y-14883D02*
X-6312Y-14487D01*
X-14250Y1392D02*
X-14015Y1367D01*
X-14185Y2018D02*
X-13950Y1994D01*
X-16155Y1615D02*
X-15723Y1585D01*
X-7955Y6255D02*
X-3545D01*
X-7955D02*
Y6491D01*
X-3545Y6255D02*
Y6491D01*
X-7955Y7909D02*
Y8145D01*
X-3545Y7909D02*
Y8145D01*
X-7955D02*
X-3545D01*
X-10000Y-3400D02*
X-9000D01*
Y-6400D02*
Y-3400D01*
X-10000Y-6400D02*
X-9000D01*
X-10000D02*
Y-3400D01*
X-13400Y-2008D02*
Y-1614D01*
X-13203D01*
X-13138Y-1680D01*
Y-1811D01*
X-13203Y-1877D01*
X-13400D01*
X-13269D02*
X-13138Y-2008D01*
X-13006D02*
X-12875D01*
X-12941D01*
Y-1614D01*
X-13006Y-1680D01*
X-12678Y-1614D02*
X-12416D01*
Y-1680D01*
X-12678Y-1942D01*
Y-2008D01*
X2600Y-1506D02*
Y-1900D01*
X2862D01*
X2994Y-1572D02*
X3059Y-1506D01*
X3190D01*
X3256Y-1572D01*
Y-1638D01*
X3190Y-1703D01*
X3125D01*
X3190D01*
X3256Y-1769D01*
Y-1834D01*
X3190Y-1900D01*
X3059D01*
X2994Y-1834D01*
X-6509Y5761D02*
X-6575Y5827D01*
X-6706D01*
X-6772Y5761D01*
Y5499D01*
X-6706Y5433D01*
X-6575D01*
X-6509Y5499D01*
X-6378Y5433D02*
X-6247D01*
X-6312D01*
Y5827D01*
X-6378Y5761D01*
X-5228Y167D02*
X-5294Y102D01*
Y-30D01*
X-5228Y-95D01*
X-4966D01*
X-4900Y-30D01*
Y102D01*
X-4966Y167D01*
X-4900Y561D02*
Y298D01*
X-5162Y561D01*
X-5228D01*
X-5294Y495D01*
Y364D01*
X-5228Y298D01*
X-6824Y-138D02*
X-6890Y-203D01*
Y-334D01*
X-6824Y-400D01*
X-6562D01*
X-6496Y-334D01*
Y-203D01*
X-6562Y-138D01*
X-6824Y-6D02*
X-6890Y59D01*
Y190D01*
X-6824Y256D01*
X-6758D01*
X-6693Y190D01*
Y125D01*
Y190D01*
X-6627Y256D01*
X-6562D01*
X-6496Y190D01*
Y59D01*
X-6562Y-6D01*
X-4974Y9422D02*
X-5039Y9488D01*
X-5171D01*
X-5236Y9422D01*
Y9160D01*
X-5171Y9094D01*
X-5039D01*
X-4974Y9160D01*
X-4646Y9094D02*
Y9488D01*
X-4843Y9291D01*
X-4580D01*
X-6549Y9422D02*
X-6614Y9488D01*
X-6745D01*
X-6811Y9422D01*
Y9160D01*
X-6745Y9094D01*
X-6614D01*
X-6549Y9160D01*
X-6155Y9488D02*
X-6417D01*
Y9291D01*
X-6286Y9357D01*
X-6221D01*
X-6155Y9291D01*
Y9160D01*
X-6221Y9094D01*
X-6352D01*
X-6417Y9160D01*
X-13138Y-971D02*
X-13203Y-906D01*
X-13334D01*
X-13400Y-971D01*
Y-1234D01*
X-13334Y-1299D01*
X-13203D01*
X-13138Y-1234D01*
X-12744Y-906D02*
X-12875Y-971D01*
X-13006Y-1102D01*
Y-1234D01*
X-12941Y-1299D01*
X-12810D01*
X-12744Y-1234D01*
Y-1168D01*
X-12810Y-1102D01*
X-13006D01*
X-2257Y11089D02*
X-2323Y11024D01*
Y10892D01*
X-2257Y10827D01*
X-1995D01*
X-1929Y10892D01*
Y11024D01*
X-1995Y11089D01*
X-2257Y11220D02*
X-2323Y11286D01*
Y11417D01*
X-2257Y11483D01*
X-2192D01*
X-2126Y11417D01*
X-2060Y11483D01*
X-1995D01*
X-1929Y11417D01*
Y11286D01*
X-1995Y11220D01*
X-2060D01*
X-2126Y11286D01*
X-2192Y11220D01*
X-2257D01*
X-2126Y11286D02*
Y11417D01*
X-2808Y11089D02*
X-2874Y11024D01*
Y10892D01*
X-2808Y10827D01*
X-2546D01*
X-2480Y10892D01*
Y11024D01*
X-2546Y11089D01*
Y11220D02*
X-2480Y11286D01*
Y11417D01*
X-2546Y11483D01*
X-2808D01*
X-2874Y11417D01*
Y11286D01*
X-2808Y11220D01*
X-2743D01*
X-2677Y11286D01*
Y11483D01*
X1483Y6430D02*
X1417Y6496D01*
X1286D01*
X1220Y6430D01*
Y6168D01*
X1286Y6102D01*
X1417D01*
X1483Y6168D01*
X1614Y6496D02*
X1876D01*
Y6430D01*
X1614Y6168D01*
Y6102D01*
X12894Y5668D02*
X12867Y5580D01*
X12929Y5464D01*
X13017Y5437D01*
X13249Y5560D01*
X13276Y5648D01*
X13215Y5764D01*
X13126Y5791D01*
X13122Y5938D02*
X13061Y6054D01*
X13092Y5996D01*
X12744Y5811D01*
X12833Y5784D01*
X12679Y6074D02*
X12590Y6101D01*
X12528Y6217D01*
X12556Y6305D01*
X12787Y6429D01*
X12876Y6401D01*
X12938Y6286D01*
X12910Y6197D01*
X12679Y6074D01*
X-6904Y-12261D02*
X-6934Y-12173D01*
X-7052Y-12116D01*
X-7140Y-12146D01*
X-7255Y-12382D01*
X-7225Y-12470D01*
X-7107Y-12527D01*
X-7019Y-12497D01*
X-6930Y-12613D02*
X-6812Y-12671D01*
X-6871Y-12642D01*
X-6698Y-12288D01*
X-6786Y-12319D01*
X-6635Y-12757D02*
X-6517Y-12815D01*
X-6576Y-12786D01*
X-6403Y-12432D01*
X-6491Y-12462D01*
X-13767Y3002D02*
X-13693Y3057D01*
X-13674Y3187D01*
X-13730Y3261D01*
X-13990Y3298D01*
X-14064Y3242D01*
X-14083Y3112D01*
X-14027Y3038D01*
X-14110Y2917D02*
X-14128Y2787D01*
X-14119Y2852D01*
X-13729Y2798D01*
X-13785Y2872D01*
X-14192Y2333D02*
X-14156Y2593D01*
X-13932Y2296D01*
X-13867Y2287D01*
X-13793Y2343D01*
X-13775Y2473D01*
X-13831Y2547D01*
X3512Y978D02*
X3447Y1044D01*
X3316D01*
X3250Y978D01*
Y716D01*
X3316Y650D01*
X3447D01*
X3512Y716D01*
X3644Y650D02*
X3775D01*
X3709D01*
Y1044D01*
X3644Y978D01*
X3972D02*
X4037Y1044D01*
X4168D01*
X4234Y978D01*
Y912D01*
X4168Y847D01*
X4103D01*
X4168D01*
X4234Y781D01*
Y716D01*
X4168Y650D01*
X4037D01*
X3972Y716D01*
X-2651Y3714D02*
X-2717Y3779D01*
X-2848D01*
X-2913Y3714D01*
Y3451D01*
X-2848Y3386D01*
X-2717D01*
X-2651Y3451D01*
X-2520Y3386D02*
X-2389D01*
X-2454D01*
Y3779D01*
X-2520Y3714D01*
X-1995Y3386D02*
Y3779D01*
X-2192Y3583D01*
X-1929D01*
X-2651Y4330D02*
X-2717Y4396D01*
X-2848D01*
X-2913Y4330D01*
Y4068D01*
X-2848Y4002D01*
X-2717D01*
X-2651Y4068D01*
X-2520Y4002D02*
X-2389D01*
X-2454D01*
Y4396D01*
X-2520Y4330D01*
X-1929Y4396D02*
X-2192D01*
Y4199D01*
X-2061Y4265D01*
X-1995D01*
X-1929Y4199D01*
Y4068D01*
X-1995Y4002D01*
X-2126D01*
X-2192Y4068D01*
X2979Y3058D02*
X2914Y2992D01*
Y2861D01*
X2979Y2795D01*
X3241D01*
X3307Y2861D01*
Y2992D01*
X3241Y3058D01*
X3307Y3189D02*
Y3320D01*
Y3254D01*
X2914D01*
X2979Y3189D01*
X2914Y3779D02*
X2979Y3648D01*
X3110Y3517D01*
X3241D01*
X3307Y3582D01*
Y3714D01*
X3241Y3779D01*
X3176D01*
X3110Y3714D01*
Y3517D01*
X420Y3281D02*
X354Y3346D01*
X223D01*
X157Y3281D01*
Y3018D01*
X223Y2953D01*
X354D01*
X420Y3018D01*
X551Y2953D02*
X682D01*
X617D01*
Y3346D01*
X551Y3281D01*
X879Y3346D02*
X1141D01*
Y3281D01*
X879Y3018D01*
Y2953D01*
X2625Y1877D02*
X2559Y1811D01*
Y1680D01*
X2625Y1614D01*
X2887D01*
X2953Y1680D01*
Y1811D01*
X2887Y1877D01*
X2953Y2008D02*
Y2139D01*
Y2073D01*
X2559D01*
X2625Y2008D01*
Y2336D02*
X2559Y2401D01*
Y2533D01*
X2625Y2598D01*
X2690D01*
X2756Y2533D01*
X2822Y2598D01*
X2887D01*
X2953Y2533D01*
Y2401D01*
X2887Y2336D01*
X2822D01*
X2756Y2401D01*
X2690Y2336D01*
X2625D01*
X2756Y2401D02*
Y2533D01*
X7038Y6048D02*
X6972Y6114D01*
X6841D01*
X6775Y6048D01*
Y5786D01*
X6841Y5720D01*
X6972D01*
X7038Y5786D01*
X7169Y5720D02*
X7300D01*
X7234D01*
Y6114D01*
X7169Y6048D01*
X7497Y5786D02*
X7562Y5720D01*
X7694D01*
X7759Y5786D01*
Y6048D01*
X7694Y6114D01*
X7562D01*
X7497Y6048D01*
Y5983D01*
X7562Y5917D01*
X7759D01*
X8416Y6048D02*
X8350Y6114D01*
X8219D01*
X8153Y6048D01*
Y5786D01*
X8219Y5720D01*
X8350D01*
X8416Y5786D01*
X8809Y5720D02*
X8547D01*
X8809Y5983D01*
Y6048D01*
X8744Y6114D01*
X8612D01*
X8547Y6048D01*
X8940D02*
X9006Y6114D01*
X9137D01*
X9203Y6048D01*
Y5786D01*
X9137Y5720D01*
X9006D01*
X8940Y5786D01*
Y6048D01*
X-997Y5052D02*
X-1063Y5118D01*
X-1194D01*
X-1260Y5052D01*
Y4790D01*
X-1194Y4724D01*
X-1063D01*
X-997Y4790D01*
X-604Y4724D02*
X-866D01*
X-604Y4987D01*
Y5052D01*
X-669Y5118D01*
X-801D01*
X-866Y5052D01*
X-473Y4724D02*
X-342D01*
X-407D01*
Y5118D01*
X-473Y5052D01*
X6501Y9407D02*
X6436Y9472D01*
X6305D01*
X6239Y9407D01*
Y9144D01*
X6305Y9079D01*
X6436D01*
X6501Y9144D01*
X6895Y9079D02*
X6633D01*
X6895Y9341D01*
Y9407D01*
X6829Y9472D01*
X6698D01*
X6633Y9407D01*
X7289Y9079D02*
X7026D01*
X7289Y9341D01*
Y9407D01*
X7223Y9472D01*
X7092D01*
X7026Y9407D01*
X4927D02*
X4861Y9472D01*
X4730D01*
X4664Y9407D01*
Y9144D01*
X4730Y9079D01*
X4861D01*
X4927Y9144D01*
X5320Y9079D02*
X5058D01*
X5320Y9341D01*
Y9407D01*
X5255Y9472D01*
X5123D01*
X5058Y9407D01*
X5451D02*
X5517Y9472D01*
X5648D01*
X5714Y9407D01*
Y9341D01*
X5648Y9276D01*
X5583D01*
X5648D01*
X5714Y9210D01*
Y9144D01*
X5648Y9079D01*
X5517D01*
X5451Y9144D01*
X3812Y428D02*
X3747Y494D01*
X3616D01*
X3550Y428D01*
Y166D01*
X3616Y100D01*
X3747D01*
X3812Y166D01*
X4206Y100D02*
X3944D01*
X4206Y362D01*
Y428D01*
X4140Y494D01*
X4009D01*
X3944Y428D01*
X4534Y100D02*
Y494D01*
X4337Y297D01*
X4600D01*
X5062Y428D02*
X4997Y494D01*
X4866D01*
X4800Y428D01*
Y166D01*
X4866Y100D01*
X4997D01*
X5062Y166D01*
X5456Y100D02*
X5194D01*
X5456Y362D01*
Y428D01*
X5390Y494D01*
X5259D01*
X5194Y428D01*
X5850Y494D02*
X5587D01*
Y297D01*
X5718Y362D01*
X5784D01*
X5850Y297D01*
Y166D01*
X5784Y100D01*
X5653D01*
X5587Y166D01*
X-19Y11135D02*
X-84Y11070D01*
Y10938D01*
X-19Y10873D01*
X244D01*
X309Y10938D01*
Y11070D01*
X244Y11135D01*
X309Y11529D02*
Y11266D01*
X47Y11529D01*
X-19D01*
X-84Y11463D01*
Y11332D01*
X-19Y11266D01*
X-84Y11922D02*
X-19Y11791D01*
X113Y11660D01*
X244D01*
X309Y11726D01*
Y11857D01*
X244Y11922D01*
X178D01*
X113Y11857D01*
Y11660D01*
X581Y11135D02*
X516Y11070D01*
Y10938D01*
X581Y10873D01*
X844D01*
X909Y10938D01*
Y11070D01*
X844Y11135D01*
X909Y11529D02*
Y11266D01*
X647Y11529D01*
X581D01*
X516Y11463D01*
Y11332D01*
X581Y11266D01*
X516Y11660D02*
Y11922D01*
X581D01*
X844Y11660D01*
X909D01*
X2497Y10030D02*
X2431Y10095D01*
X2300D01*
X2235Y10030D01*
Y9767D01*
X2300Y9702D01*
X2431D01*
X2497Y9767D01*
X2891Y9702D02*
X2628D01*
X2891Y9964D01*
Y10030D01*
X2825Y10095D01*
X2694D01*
X2628Y10030D01*
X3022D02*
X3087Y10095D01*
X3219D01*
X3284Y10030D01*
Y9964D01*
X3219Y9898D01*
X3284Y9833D01*
Y9767D01*
X3219Y9702D01*
X3087D01*
X3022Y9767D01*
Y9833D01*
X3087Y9898D01*
X3022Y9964D01*
Y10030D01*
X3087Y9898D02*
X3219D01*
X2467Y8635D02*
X2402Y8701D01*
X2270D01*
X2205Y8635D01*
Y8373D01*
X2270Y8307D01*
X2402D01*
X2467Y8373D01*
X2861Y8307D02*
X2598D01*
X2861Y8569D01*
Y8635D01*
X2795Y8701D01*
X2664D01*
X2598Y8635D01*
X2992Y8373D02*
X3057Y8307D01*
X3189D01*
X3254Y8373D01*
Y8635D01*
X3189Y8701D01*
X3057D01*
X2992Y8635D01*
Y8569D01*
X3057Y8504D01*
X3254D01*
X6362Y428D02*
X6297Y494D01*
X6166D01*
X6100Y428D01*
Y166D01*
X6166Y100D01*
X6297D01*
X6362Y166D01*
X6494Y428D02*
X6559Y494D01*
X6690D01*
X6756Y428D01*
Y362D01*
X6690Y297D01*
X6625D01*
X6690D01*
X6756Y231D01*
Y166D01*
X6690Y100D01*
X6559D01*
X6494Y166D01*
X6887Y428D02*
X6953Y494D01*
X7084D01*
X7150Y428D01*
Y166D01*
X7084Y100D01*
X6953D01*
X6887Y166D01*
Y428D01*
X7662D02*
X7597Y494D01*
X7466D01*
X7400Y428D01*
Y166D01*
X7466Y100D01*
X7597D01*
X7662Y166D01*
X7794Y428D02*
X7859Y494D01*
X7990D01*
X8056Y428D01*
Y362D01*
X7990Y297D01*
X7925D01*
X7990D01*
X8056Y231D01*
Y166D01*
X7990Y100D01*
X7859D01*
X7794Y166D01*
X8187Y100D02*
X8318D01*
X8253D01*
Y494D01*
X8187Y428D01*
X8845Y-2625D02*
X8779Y-2559D01*
X8648D01*
X8583Y-2625D01*
Y-2887D01*
X8648Y-2953D01*
X8779D01*
X8845Y-2887D01*
X8976Y-2625D02*
X9042Y-2559D01*
X9173D01*
X9239Y-2625D01*
Y-2690D01*
X9173Y-2756D01*
X9107D01*
X9173D01*
X9239Y-2822D01*
Y-2887D01*
X9173Y-2953D01*
X9042D01*
X8976Y-2887D01*
X9632Y-2953D02*
X9370D01*
X9632Y-2690D01*
Y-2625D01*
X9567Y-2559D01*
X9435D01*
X9370Y-2625D01*
X5814Y-7539D02*
X5748Y-7605D01*
Y-7736D01*
X5814Y-7802D01*
X6076D01*
X6142Y-7736D01*
Y-7605D01*
X6076Y-7539D01*
X5814Y-7408D02*
X5748Y-7342D01*
Y-7211D01*
X5814Y-7146D01*
X5879D01*
X5945Y-7211D01*
Y-7277D01*
Y-7211D01*
X6011Y-7146D01*
X6076D01*
X6142Y-7211D01*
Y-7342D01*
X6076Y-7408D01*
X5814Y-7014D02*
X5748Y-6949D01*
Y-6818D01*
X5814Y-6752D01*
X5879D01*
X5945Y-6818D01*
Y-6883D01*
Y-6818D01*
X6011Y-6752D01*
X6076D01*
X6142Y-6818D01*
Y-6949D01*
X6076Y-7014D01*
X11483Y-6509D02*
X11417Y-6575D01*
Y-6706D01*
X11483Y-6772D01*
X11745D01*
X11811Y-6706D01*
Y-6575D01*
X11745Y-6509D01*
X11483Y-6378D02*
X11417Y-6312D01*
Y-6181D01*
X11483Y-6116D01*
X11549D01*
X11614Y-6181D01*
Y-6247D01*
Y-6181D01*
X11680Y-6116D01*
X11745D01*
X11811Y-6181D01*
Y-6312D01*
X11745Y-6378D01*
X11811Y-5788D02*
X11417D01*
X11614Y-5985D01*
Y-5722D01*
X3072Y-7938D02*
X3006Y-8003D01*
Y-8134D01*
X3072Y-8200D01*
X3334D01*
X3400Y-8134D01*
Y-8003D01*
X3334Y-7938D01*
X3072Y-7806D02*
X3006Y-7741D01*
Y-7610D01*
X3072Y-7544D01*
X3138D01*
X3203Y-7610D01*
Y-7675D01*
Y-7610D01*
X3269Y-7544D01*
X3334D01*
X3400Y-7610D01*
Y-7741D01*
X3334Y-7806D01*
X3006Y-7150D02*
Y-7413D01*
X3203D01*
X3138Y-7282D01*
Y-7216D01*
X3203Y-7150D01*
X3334D01*
X3400Y-7216D01*
Y-7347D01*
X3334Y-7413D01*
X3022Y-6588D02*
X2956Y-6653D01*
Y-6784D01*
X3022Y-6850D01*
X3284D01*
X3350Y-6784D01*
Y-6653D01*
X3284Y-6588D01*
X3022Y-6456D02*
X2956Y-6391D01*
Y-6260D01*
X3022Y-6194D01*
X3088D01*
X3153Y-6260D01*
Y-6325D01*
Y-6260D01*
X3219Y-6194D01*
X3284D01*
X3350Y-6260D01*
Y-6391D01*
X3284Y-6456D01*
X2956Y-5800D02*
X3022Y-5932D01*
X3153Y-6063D01*
X3284D01*
X3350Y-5997D01*
Y-5866D01*
X3284Y-5800D01*
X3219D01*
X3153Y-5866D01*
Y-6063D01*
X2612Y-5322D02*
X2547Y-5256D01*
X2416D01*
X2350Y-5322D01*
Y-5584D01*
X2416Y-5650D01*
X2547D01*
X2612Y-5584D01*
X2744Y-5322D02*
X2809Y-5256D01*
X2940D01*
X3006Y-5322D01*
Y-5388D01*
X2940Y-5453D01*
X2875D01*
X2940D01*
X3006Y-5519D01*
Y-5584D01*
X2940Y-5650D01*
X2809D01*
X2744Y-5584D01*
X3137Y-5256D02*
X3400D01*
Y-5322D01*
X3137Y-5584D01*
Y-5650D01*
X3272Y-3588D02*
X3206Y-3653D01*
Y-3784D01*
X3272Y-3850D01*
X3534D01*
X3600Y-3784D01*
Y-3653D01*
X3534Y-3588D01*
X3272Y-3456D02*
X3206Y-3391D01*
Y-3260D01*
X3272Y-3194D01*
X3338D01*
X3403Y-3260D01*
Y-3325D01*
Y-3260D01*
X3469Y-3194D01*
X3534D01*
X3600Y-3260D01*
Y-3391D01*
X3534Y-3456D01*
X3272Y-3063D02*
X3206Y-2997D01*
Y-2866D01*
X3272Y-2800D01*
X3338D01*
X3403Y-2866D01*
X3469Y-2800D01*
X3534D01*
X3600Y-2866D01*
Y-2997D01*
X3534Y-3063D01*
X3469D01*
X3403Y-2997D01*
X3338Y-3063D01*
X3272D01*
X3403Y-2997D02*
Y-2866D01*
X-3528Y-3538D02*
X-3594Y-3603D01*
Y-3734D01*
X-3528Y-3800D01*
X-3266D01*
X-3200Y-3734D01*
Y-3603D01*
X-3266Y-3538D01*
X-3528Y-3406D02*
X-3594Y-3341D01*
Y-3210D01*
X-3528Y-3144D01*
X-3462D01*
X-3397Y-3210D01*
Y-3275D01*
Y-3210D01*
X-3331Y-3144D01*
X-3266D01*
X-3200Y-3210D01*
Y-3341D01*
X-3266Y-3406D01*
Y-3013D02*
X-3200Y-2947D01*
Y-2816D01*
X-3266Y-2750D01*
X-3528D01*
X-3594Y-2816D01*
Y-2947D01*
X-3528Y-3013D01*
X-3462D01*
X-3397Y-2947D01*
Y-2750D01*
X-11822Y2638D02*
X-11756Y2703D01*
Y2834D01*
X-11822Y2900D01*
X-12084D01*
X-12150Y2834D01*
Y2703D01*
X-12084Y2638D01*
X-11756Y2310D02*
Y2441D01*
X-11822Y2506D01*
X-12084D01*
X-12150Y2441D01*
Y2310D01*
X-12084Y2244D01*
X-11822D01*
X-11756Y2310D01*
X-12150Y2113D02*
X-11756D01*
X-12150Y1850D01*
X-11756D01*
X-11822Y1719D02*
X-11756Y1654D01*
Y1522D01*
X-11822Y1457D01*
X-11888D01*
X-11953Y1522D01*
Y1588D01*
Y1522D01*
X-12019Y1457D01*
X-12084D01*
X-12150Y1522D01*
Y1654D01*
X-12084Y1719D01*
X112Y-11122D02*
X47Y-11056D01*
X-84D01*
X-150Y-11122D01*
Y-11384D01*
X-84Y-11450D01*
X47D01*
X112Y-11384D01*
X440Y-11056D02*
X309D01*
X244Y-11122D01*
Y-11384D01*
X309Y-11450D01*
X440D01*
X506Y-11384D01*
Y-11122D01*
X440Y-11056D01*
X637Y-11450D02*
Y-11056D01*
X900Y-11450D01*
Y-11056D01*
X1228Y-11450D02*
Y-11056D01*
X1031Y-11253D01*
X1293D01*
X6412Y-8772D02*
X6347Y-8706D01*
X6216D01*
X6150Y-8772D01*
Y-9034D01*
X6216Y-9100D01*
X6347D01*
X6412Y-9034D01*
X6740Y-8706D02*
X6609D01*
X6544Y-8772D01*
Y-9034D01*
X6609Y-9100D01*
X6740D01*
X6806Y-9034D01*
Y-8772D01*
X6740Y-8706D01*
X6937Y-9100D02*
Y-8706D01*
X7200Y-9100D01*
Y-8706D01*
X7593D02*
X7331D01*
Y-8903D01*
X7462Y-8838D01*
X7528D01*
X7593Y-8903D01*
Y-9034D01*
X7528Y-9100D01*
X7396D01*
X7331Y-9034D01*
X-8150Y4606D02*
X-8018D01*
X-8084D01*
Y4213D01*
X-8150D01*
X-8018D01*
X-7559Y4541D02*
X-7625Y4606D01*
X-7756D01*
X-7822Y4541D01*
Y4278D01*
X-7756Y4213D01*
X-7625D01*
X-7559Y4278D01*
X-7428Y4213D02*
X-7297D01*
X-7362D01*
Y4606D01*
X-7428Y4541D01*
X7402Y4567D02*
X7533D01*
X7467D01*
Y4173D01*
X7402D01*
X7533D01*
X7992Y4501D02*
X7926Y4567D01*
X7795D01*
X7730Y4501D01*
Y4239D01*
X7795Y4173D01*
X7926D01*
X7992Y4239D01*
X8386Y4173D02*
X8123D01*
X8386Y4436D01*
Y4501D01*
X8320Y4567D01*
X8189D01*
X8123Y4501D01*
X-1718Y8701D02*
X-1587D01*
X-1653D01*
Y8307D01*
X-1718D01*
X-1587D01*
X-1128Y8635D02*
X-1193Y8701D01*
X-1325D01*
X-1390Y8635D01*
Y8373D01*
X-1325Y8307D01*
X-1193D01*
X-1128Y8373D01*
X-997Y8635D02*
X-931Y8701D01*
X-800D01*
X-734Y8635D01*
Y8569D01*
X-800Y8504D01*
X-865D01*
X-800D01*
X-734Y8438D01*
Y8373D01*
X-800Y8307D01*
X-931D01*
X-997Y8373D01*
X10394Y-7047D02*
X10525D01*
X10459D01*
Y-7441D01*
X10394D01*
X10525D01*
X10984Y-7113D02*
X10918Y-7047D01*
X10787D01*
X10722Y-7113D01*
Y-7375D01*
X10787Y-7441D01*
X10918D01*
X10984Y-7375D01*
X11312Y-7441D02*
Y-7047D01*
X11115Y-7244D01*
X11378D01*
X-512Y-10473D02*
X-381D01*
X-446D01*
Y-10866D01*
X-512D01*
X-381D01*
X79Y-10538D02*
X13Y-10473D01*
X-118D01*
X-184Y-10538D01*
Y-10801D01*
X-118Y-10866D01*
X13D01*
X79Y-10801D01*
X472Y-10473D02*
X210D01*
Y-10669D01*
X341Y-10604D01*
X407D01*
X472Y-10669D01*
Y-10801D01*
X407Y-10866D01*
X275D01*
X210Y-10801D01*
X12595Y7761D02*
X12518Y7867D01*
X12556Y7814D01*
X12875Y8045D01*
X12913Y7992D01*
X12836Y8098D01*
X12721Y8257D02*
X12402Y8026D01*
X12287Y8185D01*
X12301Y8277D01*
X12407Y8354D01*
X12499Y8340D01*
X12614Y8180D01*
X12537Y8286D02*
X12566Y8470D01*
X12330Y8460D02*
X12176Y8672D01*
X11940Y8663D02*
X12258Y8894D01*
X12104Y9107D01*
X11554Y9194D02*
X11708Y8981D01*
X12027Y9213D01*
X11872Y9425D01*
X11867Y9097D02*
X11790Y9203D01*
X11477Y9300D02*
X11795Y9531D01*
X11680Y9690D01*
X11588Y9705D01*
X11376Y9551D01*
X11361Y9459D01*
X11477Y9300D01*
X11410Y10062D02*
X11564Y9850D01*
X11197Y9908D01*
X11144Y9869D01*
X11130Y9777D01*
X11207Y9671D01*
X11299Y9657D01*
X11217Y-9611D02*
X11294Y-9505D01*
X11256Y-9558D01*
X11574Y-9789D01*
X11535Y-9843D01*
X11613Y-9736D01*
X11728Y-9577D02*
X11410Y-9346D01*
X11525Y-9187D01*
X11617Y-9172D01*
X11723Y-9249D01*
X11738Y-9341D01*
X11622Y-9500D01*
X11699Y-9394D02*
X11882Y-9365D01*
X11800Y-9143D02*
X11955Y-8931D01*
X11872Y-8709D02*
X12191Y-8940D01*
X12345Y-8728D01*
X12258Y-8178D02*
X12104Y-8391D01*
X12422Y-8622D01*
X12576Y-8410D01*
X12263Y-8506D02*
X12340Y-8400D01*
X12335Y-8072D02*
X12654Y-8304D01*
X12769Y-8144D01*
X12755Y-8053D01*
X12542Y-7898D01*
X12451Y-7913D01*
X12335Y-8072D01*
X13001Y-7826D02*
X12682Y-7595D01*
X12726Y-7869D01*
X12880Y-7657D01*
X-5548Y-13681D02*
X-5423Y-13721D01*
X-5485Y-13701D01*
X-5607Y-14075D01*
X-5669Y-14055D01*
X-5545Y-14096D01*
X-5357Y-14156D02*
X-5236Y-13782D01*
X-5049Y-13843D01*
X-5006Y-13926D01*
X-5047Y-14050D01*
X-5130Y-14093D01*
X-5317Y-14032D01*
X-5192Y-14072D02*
X-5108Y-14238D01*
X-4922Y-14091D02*
X-4673Y-14172D01*
X-4487Y-14025D02*
X-4609Y-14400D01*
X-4359Y-14481D01*
X-3863Y-14228D02*
X-4113Y-14147D01*
X-4234Y-14521D01*
X-3985Y-14602D01*
X-4174Y-14334D02*
X-4049Y-14375D01*
X-3738Y-14269D02*
X-3860Y-14643D01*
X-3673Y-14704D01*
X-3590Y-14662D01*
X-3509Y-14412D01*
X-3551Y-14329D01*
X-3738Y-14269D01*
X-3115Y-14471D02*
X-3260Y-14493D01*
X-3425Y-14577D01*
X-3466Y-14702D01*
X-3423Y-14785D01*
X-3299Y-14825D01*
X-3216Y-14783D01*
X-3196Y-14721D01*
X-3238Y-14638D01*
X-3425Y-14577D01*
X-14725Y1102D02*
Y971D01*
Y1037D01*
X-15118D01*
Y1102D01*
Y971D01*
Y774D02*
X-14725D01*
Y578D01*
X-14790Y512D01*
X-14921D01*
X-14987Y578D01*
Y774D01*
Y643D02*
X-15118Y512D01*
X-14921Y381D02*
Y118D01*
X-14725Y-13D02*
X-15118D01*
Y-275D01*
X-14725Y-669D02*
Y-406D01*
X-15118D01*
Y-669D01*
X-14921Y-406D02*
Y-538D01*
X-14725Y-800D02*
X-15118D01*
Y-997D01*
X-15053Y-1062D01*
X-14790D01*
X-14725Y-997D01*
Y-800D01*
X-14790Y-1193D02*
X-14725Y-1259D01*
Y-1390D01*
X-14790Y-1456D01*
X-14856D01*
X-14921Y-1390D01*
X-14987Y-1456D01*
X-15053D01*
X-15118Y-1390D01*
Y-1259D01*
X-15053Y-1193D01*
X-14987D01*
X-14921Y-1259D01*
X-14856Y-1193D01*
X-14790D01*
X-14921Y-1259D02*
Y-1390D01*
X-3264Y14429D02*
X-3389Y14388D01*
X-3327Y14409D01*
X-3448Y14783D01*
X-3386Y14803D01*
X-3511Y14763D01*
X-3698Y14702D02*
X-3576Y14327D01*
X-3763Y14267D01*
X-3846Y14309D01*
X-3886Y14434D01*
X-3844Y14516D01*
X-3657Y14577D01*
X-3782Y14536D02*
X-3947Y14621D01*
X-4011Y14393D02*
X-4261Y14312D01*
X-4325Y14084D02*
X-4446Y14459D01*
X-4696Y14377D01*
X-4949Y13882D02*
X-4699Y13963D01*
X-4821Y14337D01*
X-5070Y14256D01*
X-4760Y14150D02*
X-4885Y14109D01*
X-5073Y13841D02*
X-5195Y14215D01*
X-5382Y14154D01*
X-5424Y14072D01*
X-5343Y13822D01*
X-5261Y13780D01*
X-5073Y13841D01*
X-5569Y14094D02*
X-5694Y14053D01*
X-5632Y14073D01*
X-5510Y13699D01*
X-5468Y13782D01*
X-5780Y13680D02*
X-5822Y13598D01*
X-5947Y13557D01*
X-6029Y13599D01*
X-6111Y13849D01*
X-6068Y13932D01*
X-5944Y13972D01*
X-5861Y13930D01*
X-5780Y13680D01*
X5508Y13720D02*
X5384Y13761D01*
X5446Y13740D01*
X5568Y14115D01*
X5630Y14094D01*
X5505Y14135D01*
X5318Y14196D02*
X5196Y13822D01*
X5009Y13882D01*
X4967Y13965D01*
X5008Y14090D01*
X5090Y14132D01*
X5277Y14071D01*
X5153Y14112D02*
X5068Y14277D01*
X4883Y14130D02*
X4633Y14211D01*
X4448Y14065D02*
X4569Y14439D01*
X4320Y14520D01*
X3824Y14267D02*
X4073Y14186D01*
X4195Y14561D01*
X3946Y14642D01*
X4134Y14374D02*
X4009Y14414D01*
X3699Y14308D02*
X3821Y14682D01*
X3634Y14743D01*
X3551Y14701D01*
X3470Y14451D01*
X3512Y14369D01*
X3699Y14308D01*
X3446Y14804D02*
X3322Y14844D01*
X3384Y14824D01*
X3262Y14450D01*
X3345Y14492D01*
X14764Y-1142D02*
Y-1011D01*
Y-1076D01*
X15157D01*
Y-1142D01*
Y-1011D01*
Y-814D02*
X14764D01*
Y-617D01*
X14829Y-551D01*
X14961D01*
X15026Y-617D01*
Y-814D01*
Y-683D02*
X15157Y-551D01*
X14961Y-420D02*
Y-158D01*
X14764Y-27D02*
X15157D01*
Y236D01*
X14764Y629D02*
Y367D01*
X15157D01*
Y629D01*
X14961Y367D02*
Y498D01*
X14764Y761D02*
X15157D01*
Y957D01*
X15092Y1023D01*
X14829D01*
X14764Y957D01*
Y761D01*
X14829Y1154D02*
X14764Y1220D01*
Y1351D01*
X14829Y1417D01*
X14895D01*
X14961Y1351D01*
Y1285D01*
Y1351D01*
X15026Y1417D01*
X15092D01*
X15157Y1351D01*
Y1220D01*
X15092Y1154D01*
X3500Y-14389D02*
X3625Y-14349D01*
X3563Y-14369D01*
X3684Y-14744D01*
X3622Y-14764D01*
X3747Y-14723D01*
X3934Y-14662D02*
X3812Y-14288D01*
X4000Y-14227D01*
X4082Y-14269D01*
X4123Y-14394D01*
X4081Y-14477D01*
X3893Y-14538D01*
X4018Y-14497D02*
X4184Y-14581D01*
X4247Y-14354D02*
X4497Y-14273D01*
X4561Y-14045D02*
X4683Y-14419D01*
X4932Y-14338D01*
X5185Y-13842D02*
X4935Y-13923D01*
X5057Y-14298D01*
X5306Y-14216D01*
X4996Y-14110D02*
X5121Y-14070D01*
X5310Y-13802D02*
X5431Y-14176D01*
X5618Y-14115D01*
X5660Y-14032D01*
X5579Y-13783D01*
X5497Y-13741D01*
X5310Y-13802D01*
X5933Y-13599D02*
X5684Y-13680D01*
X5745Y-13867D01*
X5849Y-13764D01*
X5912Y-13744D01*
X5994Y-13786D01*
X6035Y-13911D01*
X5993Y-13994D01*
X5868Y-14034D01*
X5785Y-13992D01*
X-12595Y-7721D02*
X-12518Y-7828D01*
X-12556Y-7774D01*
X-12875Y-8006D01*
X-12913Y-7953D01*
X-12836Y-8059D01*
X-12721Y-8218D02*
X-12402Y-7987D01*
X-12287Y-8146D01*
X-12301Y-8238D01*
X-12407Y-8315D01*
X-12499Y-8300D01*
X-12614Y-8141D01*
X-12537Y-8247D02*
X-12566Y-8430D01*
X-12330Y-8421D02*
X-12176Y-8633D01*
X-11940Y-8624D02*
X-12258Y-8855D01*
X-12104Y-9067D01*
X-11554Y-9154D02*
X-11708Y-8942D01*
X-12027Y-9173D01*
X-11872Y-9386D01*
X-11867Y-9058D02*
X-11790Y-9164D01*
X-11477Y-9260D02*
X-11795Y-9492D01*
X-11680Y-9651D01*
X-11588Y-9665D01*
X-11376Y-9511D01*
X-11361Y-9420D01*
X-11477Y-9260D01*
X-11246Y-9579D02*
X-11091Y-9791D01*
X-11144Y-9830D01*
X-11511Y-9772D01*
X-11564Y-9810D01*
X-11335Y9493D02*
X-11412Y9387D01*
X-11374Y9440D01*
X-11692Y9671D01*
X-11654Y9724D01*
X-11731Y9618D01*
X-11846Y9459D02*
X-11528Y9228D01*
X-11644Y9069D01*
X-11735Y9054D01*
X-11841Y9131D01*
X-11856Y9223D01*
X-11740Y9382D01*
X-11817Y9276D02*
X-12001Y9247D01*
X-11918Y9025D02*
X-12073Y8813D01*
X-11991Y8591D02*
X-12309Y8822D01*
X-12463Y8610D01*
X-12376Y8060D02*
X-12222Y8273D01*
X-12540Y8504D01*
X-12695Y8292D01*
X-12381Y8388D02*
X-12458Y8282D01*
X-12453Y7954D02*
X-12772Y8185D01*
X-12887Y8026D01*
X-12873Y7935D01*
X-12661Y7780D01*
X-12569Y7795D01*
X-12453Y7954D01*
X-12950Y7828D02*
X-13042Y7814D01*
X-13119Y7708D01*
X-13104Y7616D01*
X-12892Y7462D01*
X-12800Y7476D01*
X-12723Y7583D01*
X-12738Y7674D01*
X-12791Y7713D01*
X-12882Y7698D01*
X-12998Y7539D01*
X-2480Y5709D02*
Y5315D01*
X-2218D01*
X-2087D02*
X-1956D01*
X-2021D01*
Y5709D01*
X-2087Y5643D01*
X-11614Y2008D02*
Y1614D01*
X-11352D01*
X-10958Y2008D02*
X-11221D01*
Y1614D01*
X-10958D01*
X-11221Y1811D02*
X-11089D01*
X-10827Y2008D02*
Y1614D01*
X-10630D01*
X-10565Y1680D01*
Y1942D01*
X-10630Y2008D01*
X-10827D01*
X-10433Y1614D02*
X-10302D01*
X-10368D01*
Y2008D01*
X-10433Y1942D01*
X-11614Y3543D02*
Y3150D01*
X-11352D01*
X-10958Y3543D02*
X-11221D01*
Y3150D01*
X-10958D01*
X-11221Y3346D02*
X-11089D01*
X-10827Y3543D02*
Y3150D01*
X-10630D01*
X-10565Y3215D01*
Y3478D01*
X-10630Y3543D01*
X-10827D01*
X-10171Y3150D02*
X-10433D01*
X-10171Y3412D01*
Y3478D01*
X-10237Y3543D01*
X-10368D01*
X-10433Y3478D01*
X-10750Y-2706D02*
Y-3100D01*
X-10488D01*
X-10094Y-2706D02*
X-10356D01*
Y-3100D01*
X-10094D01*
X-10356Y-2903D02*
X-10225D01*
X-9963Y-2706D02*
Y-3100D01*
X-9766D01*
X-9700Y-3034D01*
Y-2772D01*
X-9766Y-2706D01*
X-9963D01*
X-9569Y-2772D02*
X-9504Y-2706D01*
X-9372D01*
X-9307Y-2772D01*
Y-2838D01*
X-9372Y-2903D01*
X-9438D01*
X-9372D01*
X-9307Y-2969D01*
Y-3034D01*
X-9372Y-3100D01*
X-9504D01*
X-9569Y-3034D01*
X787Y14606D02*
Y15000D01*
X525D01*
X131Y14606D02*
X394D01*
Y15000D01*
X131D01*
X394Y14803D02*
X263D01*
X0Y14606D02*
Y15000D01*
X-197D01*
X-262Y14934D01*
Y14672D01*
X-197Y14606D01*
X0D01*
X-590Y15000D02*
Y14606D01*
X-393Y14803D01*
X-656D01*
X-709Y-14646D02*
Y-15039D01*
X-446D01*
X-53Y-14646D02*
X-315D01*
Y-15039D01*
X-53D01*
X-315Y-14843D02*
X-184D01*
X78Y-14646D02*
Y-15039D01*
X275D01*
X341Y-14974D01*
Y-14711D01*
X275Y-14646D01*
X78D01*
X734D02*
X472D01*
Y-14843D01*
X603Y-14777D01*
X669D01*
X734Y-14843D01*
Y-14974D01*
X669Y-15039D01*
X538D01*
X472Y-14974D01*
X4006Y-6470D02*
X4400D01*
Y-6208D01*
X4006Y-5815D02*
Y-6077D01*
X4400D01*
Y-5815D01*
X4203Y-6077D02*
Y-5946D01*
X4006Y-5683D02*
X4400D01*
Y-5487D01*
X4334Y-5421D01*
X4072D01*
X4006Y-5487D01*
Y-5683D01*
Y-5027D02*
X4072Y-5159D01*
X4203Y-5290D01*
X4334D01*
X4400Y-5224D01*
Y-5093D01*
X4334Y-5027D01*
X4269D01*
X4203Y-5093D01*
Y-5290D01*
X5771Y-6470D02*
X6164D01*
Y-6208D01*
X5771Y-5815D02*
Y-6077D01*
X6164D01*
Y-5815D01*
X5967Y-6077D02*
Y-5946D01*
X5771Y-5683D02*
X6164D01*
Y-5487D01*
X6099Y-5421D01*
X5836D01*
X5771Y-5487D01*
Y-5683D01*
Y-5290D02*
Y-5027D01*
X5836D01*
X6099Y-5290D01*
X6164D01*
X-4594Y-8150D02*
X-4200D01*
Y-7888D01*
X-4594Y-7494D02*
Y-7756D01*
X-4200D01*
Y-7494D01*
X-4397Y-7756D02*
Y-7625D01*
X-4594Y-7363D02*
X-4200D01*
Y-7166D01*
X-4266Y-7100D01*
X-4528D01*
X-4594Y-7166D01*
Y-7363D01*
X-4528Y-6969D02*
X-4594Y-6904D01*
Y-6772D01*
X-4528Y-6707D01*
X-4462D01*
X-4397Y-6772D01*
X-4331Y-6707D01*
X-4266D01*
X-4200Y-6772D01*
Y-6904D01*
X-4266Y-6969D01*
X-4331D01*
X-4397Y-6904D01*
X-4462Y-6969D01*
X-4528D01*
X-4397Y-6904D02*
Y-6772D01*
X-2844Y-8150D02*
X-2450D01*
Y-7888D01*
X-2844Y-7494D02*
Y-7756D01*
X-2450D01*
Y-7494D01*
X-2647Y-7756D02*
Y-7625D01*
X-2844Y-7363D02*
X-2450D01*
Y-7166D01*
X-2516Y-7100D01*
X-2778D01*
X-2844Y-7166D01*
Y-7363D01*
X-2516Y-6969D02*
X-2450Y-6904D01*
Y-6772D01*
X-2516Y-6707D01*
X-2778D01*
X-2844Y-6772D01*
Y-6904D01*
X-2778Y-6969D01*
X-2712D01*
X-2647Y-6904D01*
Y-6707D01*
X-6388Y-8584D02*
Y-8322D01*
X-6453Y-8256D01*
X-6584D01*
X-6650Y-8322D01*
Y-8584D01*
X-6584Y-8650D01*
X-6453D01*
X-6519Y-8519D02*
X-6388Y-8650D01*
X-6453D02*
X-6388Y-8584D01*
X-6256Y-8650D02*
X-6125D01*
X-6191D01*
Y-8256D01*
X-6256Y-8322D01*
X-6388Y-5434D02*
Y-5172D01*
X-6453Y-5106D01*
X-6584D01*
X-6650Y-5172D01*
Y-5434D01*
X-6584Y-5500D01*
X-6453D01*
X-6519Y-5369D02*
X-6388Y-5500D01*
X-6453D02*
X-6388Y-5434D01*
X-5994Y-5500D02*
X-6256D01*
X-5994Y-5238D01*
Y-5172D01*
X-6060Y-5106D01*
X-6191D01*
X-6256Y-5172D01*
X-5030Y11593D02*
Y11856D01*
X-5095Y11921D01*
X-5227D01*
X-5292Y11856D01*
Y11593D01*
X-5227Y11528D01*
X-5095D01*
X-5161Y11659D02*
X-5030Y11528D01*
X-5095D02*
X-5030Y11593D01*
X-4636Y11921D02*
X-4767Y11856D01*
X-4899Y11724D01*
Y11593D01*
X-4833Y11528D01*
X-4702D01*
X-4636Y11593D01*
Y11659D01*
X-4702Y11724D01*
X-4899D01*
X-4843Y-1614D02*
X-5236D01*
Y-1417D01*
X-5171Y-1352D01*
X-5039D01*
X-4974Y-1417D01*
Y-1614D01*
Y-1483D02*
X-4843Y-1352D01*
Y-1221D02*
Y-1089D01*
Y-1155D01*
X-5236D01*
X-5171Y-1221D01*
X-7165Y-2598D02*
Y-2205D01*
X-6969D01*
X-6903Y-2270D01*
Y-2402D01*
X-6969Y-2467D01*
X-7165D01*
X-7034D02*
X-6903Y-2598D01*
X-6509D02*
X-6772D01*
X-6509Y-2336D01*
Y-2270D01*
X-6575Y-2205D01*
X-6706D01*
X-6772Y-2270D01*
X-4800Y-2595D02*
X-5194D01*
Y-2398D01*
X-5128Y-2333D01*
X-4997D01*
X-4931Y-2398D01*
Y-2595D01*
Y-2464D02*
X-4800Y-2333D01*
X-5128Y-2202D02*
X-5194Y-2136D01*
Y-2005D01*
X-5128Y-1939D01*
X-5062D01*
X-4997Y-2005D01*
Y-2071D01*
Y-2005D01*
X-4931Y-1939D01*
X-4866D01*
X-4800Y-2005D01*
Y-2136D01*
X-4866Y-2202D01*
X-6535Y-3307D02*
Y-2914D01*
X-6339D01*
X-6273Y-2979D01*
Y-3110D01*
X-6339Y-3176D01*
X-6535D01*
X-6404D02*
X-6273Y-3307D01*
X-5945D02*
Y-2914D01*
X-6142Y-3110D01*
X-5879D01*
X-7200Y950D02*
X-7594D01*
Y1147D01*
X-7528Y1212D01*
X-7397D01*
X-7331Y1147D01*
Y950D01*
Y1081D02*
X-7200Y1212D01*
X-7594Y1606D02*
Y1344D01*
X-7397D01*
X-7462Y1475D01*
Y1540D01*
X-7397Y1606D01*
X-7266D01*
X-7200Y1540D01*
Y1409D01*
X-7266Y1344D01*
X-7800Y950D02*
X-8194D01*
Y1147D01*
X-8128Y1212D01*
X-7997D01*
X-7931Y1147D01*
Y950D01*
Y1081D02*
X-7800Y1212D01*
X-8194Y1606D02*
X-8128Y1475D01*
X-7997Y1344D01*
X-7866D01*
X-7800Y1409D01*
Y1540D01*
X-7866Y1606D01*
X-7931D01*
X-7997Y1540D01*
Y1344D01*
X-8400Y950D02*
X-8794D01*
Y1147D01*
X-8728Y1212D01*
X-8597D01*
X-8531Y1147D01*
Y950D01*
Y1081D02*
X-8400Y1212D01*
X-8794Y1344D02*
Y1606D01*
X-8728D01*
X-8466Y1344D01*
X-8400D01*
X-8300Y1800D02*
X-8694D01*
Y1997D01*
X-8628Y2062D01*
X-8497D01*
X-8431Y1997D01*
Y1800D01*
Y1931D02*
X-8300Y2062D01*
X-8628Y2194D02*
X-8694Y2259D01*
Y2390D01*
X-8628Y2456D01*
X-8562D01*
X-8497Y2390D01*
X-8431Y2456D01*
X-8366D01*
X-8300Y2390D01*
Y2259D01*
X-8366Y2194D01*
X-8431D01*
X-8497Y2259D01*
X-8562Y2194D01*
X-8628D01*
X-8497Y2259D02*
Y2390D01*
X-8300Y2743D02*
X-8694D01*
Y2939D01*
X-8628Y3005D01*
X-8497D01*
X-8431Y2939D01*
Y2743D01*
Y2874D02*
X-8300Y3005D01*
X-8366Y3136D02*
X-8300Y3202D01*
Y3333D01*
X-8366Y3398D01*
X-8628D01*
X-8694Y3333D01*
Y3202D01*
X-8628Y3136D01*
X-8562D01*
X-8497Y3202D01*
Y3398D01*
X-3189Y-2520D02*
X-3583D01*
Y-2323D01*
X-3517Y-2257D01*
X-3386D01*
X-3320Y-2323D01*
Y-2520D01*
Y-2388D02*
X-3189Y-2257D01*
Y-2126D02*
Y-1995D01*
Y-2061D01*
X-3583D01*
X-3517Y-2126D01*
Y-1798D02*
X-3583Y-1733D01*
Y-1601D01*
X-3517Y-1536D01*
X-3255D01*
X-3189Y-1601D01*
Y-1733D01*
X-3255Y-1798D01*
X-3517D01*
X-5150Y-9000D02*
X-4756D01*
Y-9197D01*
X-4822Y-9262D01*
X-4953D01*
X-5019Y-9197D01*
Y-9000D01*
Y-9131D02*
X-5150Y-9262D01*
Y-9394D02*
Y-9525D01*
Y-9459D01*
X-4756D01*
X-4822Y-9394D01*
X-5150Y-9722D02*
Y-9853D01*
Y-9787D01*
X-4756D01*
X-4822Y-9722D01*
X2795Y5415D02*
X2402D01*
Y5612D01*
X2467Y5677D01*
X2598D01*
X2664Y5612D01*
Y5415D01*
Y5546D02*
X2795Y5677D01*
Y5809D02*
Y5940D01*
Y5874D01*
X2402D01*
X2467Y5809D01*
X2795Y6399D02*
Y6137D01*
X2533Y6399D01*
X2467D01*
X2402Y6333D01*
Y6202D01*
X2467Y6137D01*
X-3550Y-10100D02*
Y-9706D01*
X-3353D01*
X-3288Y-9772D01*
Y-9903D01*
X-3353Y-9969D01*
X-3550D01*
X-3419D02*
X-3288Y-10100D01*
X-3156D02*
X-3025D01*
X-3091D01*
Y-9706D01*
X-3156Y-9772D01*
X-2632Y-10100D02*
Y-9706D01*
X-2828Y-9903D01*
X-2566D01*
X-3543Y-11260D02*
Y-10866D01*
X-3347D01*
X-3281Y-10932D01*
Y-11063D01*
X-3347Y-11129D01*
X-3543D01*
X-3412D02*
X-3281Y-11260D01*
X-3150D02*
X-3019D01*
X-3084D01*
Y-10866D01*
X-3150Y-10932D01*
X-2559Y-10866D02*
X-2822D01*
Y-11063D01*
X-2691Y-10997D01*
X-2625D01*
X-2559Y-11063D01*
Y-11194D01*
X-2625Y-11260D01*
X-2756D01*
X-2822Y-11194D01*
X-4291Y-1693D02*
X-4685D01*
Y-1496D01*
X-4619Y-1431D01*
X-4488D01*
X-4423Y-1496D01*
Y-1693D01*
Y-1562D02*
X-4291Y-1431D01*
Y-1299D02*
Y-1168D01*
Y-1234D01*
X-4685D01*
X-4619Y-1299D01*
X-4685Y-709D02*
X-4619Y-840D01*
X-4488Y-971D01*
X-4357D01*
X-4291Y-906D01*
Y-775D01*
X-4357Y-709D01*
X-4423D01*
X-4488Y-775D01*
Y-971D01*
X-8740Y-2087D02*
Y-1693D01*
X-8543D01*
X-8478Y-1759D01*
Y-1890D01*
X-8543Y-1955D01*
X-8740D01*
X-8609D02*
X-8478Y-2087D01*
X-8084D02*
X-8347D01*
X-8084Y-1824D01*
Y-1759D01*
X-8150Y-1693D01*
X-8281D01*
X-8347Y-1759D01*
X-7953D02*
X-7887Y-1693D01*
X-7756D01*
X-7691Y-1759D01*
Y-2021D01*
X-7756Y-2087D01*
X-7887D01*
X-7953Y-2021D01*
Y-1759D01*
X-13400Y100D02*
Y494D01*
X-13203D01*
X-13138Y428D01*
Y297D01*
X-13203Y231D01*
X-13400D01*
X-13269D02*
X-13138Y100D01*
X-12744D02*
X-13006D01*
X-12744Y362D01*
Y428D01*
X-12810Y494D01*
X-12941D01*
X-13006Y428D01*
X-12613Y100D02*
X-12482D01*
X-12547D01*
Y494D01*
X-12613Y428D01*
X-8750Y-900D02*
Y-506D01*
X-8553D01*
X-8488Y-572D01*
Y-703D01*
X-8553Y-769D01*
X-8750D01*
X-8619D02*
X-8488Y-900D01*
X-8356D02*
X-8225D01*
X-8291D01*
Y-506D01*
X-8356Y-572D01*
X-8028D02*
X-7963Y-506D01*
X-7832D01*
X-7766Y-572D01*
Y-638D01*
X-7832Y-703D01*
X-7766Y-769D01*
Y-834D01*
X-7832Y-900D01*
X-7963D01*
X-8028Y-834D01*
Y-769D01*
X-7963Y-703D01*
X-8028Y-638D01*
Y-572D01*
X-7963Y-703D02*
X-7832D01*
X-13400Y-600D02*
Y-206D01*
X-13203D01*
X-13138Y-272D01*
Y-403D01*
X-13203Y-469D01*
X-13400D01*
X-13269D02*
X-13138Y-600D01*
X-12744D02*
X-13006D01*
X-12744Y-338D01*
Y-272D01*
X-12810Y-206D01*
X-12941D01*
X-13006Y-272D01*
X-12416Y-600D02*
Y-206D01*
X-12613Y-403D01*
X-12350D01*
X4750Y-11400D02*
Y-11006D01*
X4947D01*
X5012Y-11072D01*
Y-11203D01*
X4947Y-11269D01*
X4750D01*
X4881D02*
X5012Y-11400D01*
X5406D02*
X5144D01*
X5406Y-11138D01*
Y-11072D01*
X5340Y-11006D01*
X5209D01*
X5144Y-11072D01*
X5800Y-11006D02*
X5668Y-11072D01*
X5537Y-11203D01*
Y-11334D01*
X5603Y-11400D01*
X5734D01*
X5800Y-11334D01*
Y-11269D01*
X5734Y-11203D01*
X5537D01*
X-1471Y5624D02*
X-1864D01*
Y5820D01*
X-1799Y5886D01*
X-1668D01*
X-1602Y5820D01*
Y5624D01*
Y5755D02*
X-1471Y5886D01*
Y6280D02*
Y6017D01*
X-1733Y6280D01*
X-1799D01*
X-1864Y6214D01*
Y6083D01*
X-1799Y6017D01*
X-1864Y6411D02*
Y6673D01*
X-1799D01*
X-1536Y6411D01*
X-1471D01*
X-8150Y-14094D02*
X-7983Y-13738D01*
X-7805Y-13821D01*
X-7773Y-13908D01*
X-7829Y-14027D01*
X-7916Y-14059D01*
X-8094Y-13976D01*
X-7975Y-14031D02*
X-7912Y-14205D01*
X-7654Y-13964D02*
X-7567Y-13932D01*
X-7448Y-13987D01*
X-7416Y-14074D01*
X-7444Y-14134D01*
X-7531Y-14166D01*
X-7591Y-14138D01*
X-7531Y-14166D01*
X-7500Y-14253D01*
X-7527Y-14312D01*
X-7615Y-14344D01*
X-7733Y-14289D01*
X-7765Y-14201D01*
X-7298Y-14130D02*
X-7210Y-14098D01*
X-7092Y-14154D01*
X-7060Y-14241D01*
X-7171Y-14479D01*
X-7258Y-14510D01*
X-7377Y-14455D01*
X-7408Y-14368D01*
X-7298Y-14130D01*
X-15984Y3228D02*
X-15592Y3194D01*
X-15609Y2998D01*
X-15680Y2938D01*
X-15811Y2950D01*
X-15871Y3021D01*
X-15854Y3217D01*
X-15865Y3086D02*
X-16007Y2967D01*
X-15692Y2808D02*
X-15632Y2737D01*
X-15644Y2606D01*
X-15715Y2546D01*
X-15780Y2552D01*
X-15840Y2623D01*
X-15834Y2688D01*
X-15840Y2623D01*
X-15911Y2563D01*
X-15976Y2569D01*
X-16036Y2640D01*
X-16024Y2771D01*
X-15953Y2831D01*
X-16053Y2444D02*
X-16064Y2314D01*
X-16059Y2379D01*
X-15667Y2345D01*
X-15726Y2416D01*
X-1693Y16181D02*
X-1625Y15794D01*
X-1818Y15759D01*
X-1894Y15813D01*
X-1917Y15942D01*
X-1864Y16018D01*
X-1670Y16052D01*
X-1799Y16029D02*
X-1951Y16136D01*
X-2024Y15790D02*
X-2077Y15714D01*
X-2206Y15691D01*
X-2282Y15744D01*
X-2293Y15809D01*
X-2240Y15885D01*
X-2176Y15896D01*
X-2240Y15885D01*
X-2316Y15938D01*
X-2328Y16003D01*
X-2274Y16079D01*
X-2145Y16101D01*
X-2069Y16048D01*
X-2727Y15999D02*
X-2468Y16044D01*
X-2681Y15740D01*
X-2670Y15676D01*
X-2594Y15623D01*
X-2464Y15645D01*
X-2411Y15721D01*
X-5433Y9646D02*
Y10039D01*
X-5236D01*
X-5171Y9974D01*
Y9842D01*
X-5236Y9777D01*
X-5433D01*
X-5302D02*
X-5171Y9646D01*
X-5039Y9974D02*
X-4974Y10039D01*
X-4843D01*
X-4777Y9974D01*
Y9908D01*
X-4843Y9842D01*
X-4908D01*
X-4843D01*
X-4777Y9777D01*
Y9711D01*
X-4843Y9646D01*
X-4974D01*
X-5039Y9711D01*
X-4449Y9646D02*
Y10039D01*
X-4646Y9842D01*
X-4384D01*
X-5428Y10386D02*
Y10779D01*
X-5232D01*
X-5166Y10714D01*
Y10583D01*
X-5232Y10517D01*
X-5428D01*
X-5297D02*
X-5166Y10386D01*
X-5035Y10714D02*
X-4969Y10779D01*
X-4838D01*
X-4772Y10714D01*
Y10648D01*
X-4838Y10583D01*
X-4904D01*
X-4838D01*
X-4772Y10517D01*
Y10451D01*
X-4838Y10386D01*
X-4969D01*
X-5035Y10451D01*
X-4379Y10779D02*
X-4510Y10714D01*
X-4641Y10583D01*
Y10451D01*
X-4576Y10386D01*
X-4444D01*
X-4379Y10451D01*
Y10517D01*
X-4444Y10583D01*
X-4641D01*
X3937Y4370D02*
X3543D01*
Y4567D01*
X3609Y4632D01*
X3740D01*
X3806Y4567D01*
Y4370D01*
Y4501D02*
X3937Y4632D01*
X3609Y4764D02*
X3543Y4829D01*
Y4960D01*
X3609Y5026D01*
X3675D01*
X3740Y4960D01*
Y4895D01*
Y4960D01*
X3806Y5026D01*
X3871D01*
X3937Y4960D01*
Y4829D01*
X3871Y4764D01*
X3543Y5157D02*
Y5420D01*
X3609D01*
X3871Y5157D01*
X3937D01*
X1575Y3898D02*
X1181D01*
Y4094D01*
X1247Y4160D01*
X1378D01*
X1444Y4094D01*
Y3898D01*
Y4029D02*
X1575Y4160D01*
X1247Y4291D02*
X1181Y4357D01*
Y4488D01*
X1247Y4554D01*
X1312D01*
X1378Y4488D01*
Y4422D01*
Y4488D01*
X1444Y4554D01*
X1509D01*
X1575Y4488D01*
Y4357D01*
X1509Y4291D01*
X1247Y4685D02*
X1181Y4750D01*
Y4882D01*
X1247Y4947D01*
X1312D01*
X1378Y4882D01*
X1444Y4947D01*
X1509D01*
X1575Y4882D01*
Y4750D01*
X1509Y4685D01*
X1444D01*
X1378Y4750D01*
X1312Y4685D01*
X1247D01*
X1378Y4750D02*
Y4882D01*
X2165Y3898D02*
X1772D01*
Y4094D01*
X1837Y4160D01*
X1969D01*
X2034Y4094D01*
Y3898D01*
Y4029D02*
X2165Y4160D01*
X1837Y4291D02*
X1772Y4357D01*
Y4488D01*
X1837Y4554D01*
X1903D01*
X1969Y4488D01*
Y4422D01*
Y4488D01*
X2034Y4554D01*
X2100D01*
X2165Y4488D01*
Y4357D01*
X2100Y4291D01*
Y4685D02*
X2165Y4750D01*
Y4882D01*
X2100Y4947D01*
X1837D01*
X1772Y4882D01*
Y4750D01*
X1837Y4685D01*
X1903D01*
X1969Y4750D01*
Y4947D01*
X-118Y4724D02*
Y5118D01*
X79D01*
X144Y5052D01*
Y4921D01*
X79Y4856D01*
X-118D01*
X13D02*
X144Y4724D01*
X472D02*
Y5118D01*
X275Y4921D01*
X538D01*
X669Y5052D02*
X735Y5118D01*
X866D01*
X931Y5052D01*
Y4790D01*
X866Y4724D01*
X735D01*
X669Y4790D01*
Y5052D01*
X4566Y5654D02*
Y6047D01*
X4763D01*
X4828Y5982D01*
Y5850D01*
X4763Y5785D01*
X4566D01*
X4697D02*
X4828Y5654D01*
X5156D02*
Y6047D01*
X4959Y5850D01*
X5222D01*
X5353Y5654D02*
X5484D01*
X5418D01*
Y6047D01*
X5353Y5982D01*
X5900Y-1600D02*
X5506D01*
Y-1403D01*
X5572Y-1338D01*
X5703D01*
X5769Y-1403D01*
Y-1600D01*
Y-1469D02*
X5900Y-1338D01*
Y-1010D02*
X5506D01*
X5703Y-1206D01*
Y-944D01*
X5900Y-550D02*
Y-813D01*
X5638Y-550D01*
X5572D01*
X5506Y-616D01*
Y-747D01*
X5572Y-813D01*
X4300Y-1600D02*
X3906D01*
Y-1403D01*
X3972Y-1338D01*
X4103D01*
X4169Y-1403D01*
Y-1600D01*
Y-1469D02*
X4300Y-1338D01*
Y-1010D02*
X3906D01*
X4103Y-1206D01*
Y-944D01*
X3972Y-813D02*
X3906Y-747D01*
Y-616D01*
X3972Y-550D01*
X4038D01*
X4103Y-616D01*
Y-682D01*
Y-616D01*
X4169Y-550D01*
X4234D01*
X4300Y-616D01*
Y-747D01*
X4234Y-813D01*
X-291Y10873D02*
X-684D01*
Y11070D01*
X-619Y11135D01*
X-487D01*
X-422Y11070D01*
Y10873D01*
Y11004D02*
X-291Y11135D01*
Y11463D02*
X-684D01*
X-487Y11266D01*
Y11529D01*
X-291Y11857D02*
X-684D01*
X-487Y11660D01*
Y11922D01*
X2250Y10250D02*
Y10644D01*
X2447D01*
X2512Y10578D01*
Y10447D01*
X2447Y10381D01*
X2250D01*
X2381D02*
X2512Y10250D01*
X2840D02*
Y10644D01*
X2644Y10447D01*
X2906D01*
X3300Y10644D02*
X3037D01*
Y10447D01*
X3168Y10512D01*
X3234D01*
X3300Y10447D01*
Y10316D01*
X3234Y10250D01*
X3103D01*
X3037Y10316D01*
X3550Y-2650D02*
Y-2256D01*
X3747D01*
X3812Y-2322D01*
Y-2453D01*
X3747Y-2519D01*
X3550D01*
X3681D02*
X3812Y-2650D01*
X4140D02*
Y-2256D01*
X3944Y-2453D01*
X4206D01*
X4600Y-2256D02*
X4468Y-2322D01*
X4337Y-2453D01*
Y-2584D01*
X4403Y-2650D01*
X4534D01*
X4600Y-2584D01*
Y-2519D01*
X4534Y-2453D01*
X4337D01*
X4850Y-2650D02*
Y-2256D01*
X5047D01*
X5112Y-2322D01*
Y-2453D01*
X5047Y-2519D01*
X4850D01*
X4981D02*
X5112Y-2650D01*
X5440D02*
Y-2256D01*
X5244Y-2453D01*
X5506D01*
X5637Y-2256D02*
X5900D01*
Y-2322D01*
X5637Y-2584D01*
Y-2650D01*
X8050Y-1600D02*
X7656D01*
Y-1403D01*
X7722Y-1338D01*
X7853D01*
X7919Y-1403D01*
Y-1600D01*
Y-1469D02*
X8050Y-1338D01*
Y-1010D02*
X7656D01*
X7853Y-1206D01*
Y-944D01*
X7722Y-813D02*
X7656Y-747D01*
Y-616D01*
X7722Y-550D01*
X7788D01*
X7853Y-616D01*
X7919Y-550D01*
X7984D01*
X8050Y-616D01*
Y-747D01*
X7984Y-813D01*
X7919D01*
X7853Y-747D01*
X7788Y-813D01*
X7722D01*
X7853Y-747D02*
Y-616D01*
X6450Y-1600D02*
X6056D01*
Y-1403D01*
X6122Y-1338D01*
X6253D01*
X6319Y-1403D01*
Y-1600D01*
Y-1469D02*
X6450Y-1338D01*
Y-1010D02*
X6056D01*
X6253Y-1206D01*
Y-944D01*
X6384Y-813D02*
X6450Y-747D01*
Y-616D01*
X6384Y-550D01*
X6122D01*
X6056Y-616D01*
Y-747D01*
X6122Y-813D01*
X6188D01*
X6253Y-747D01*
Y-550D01*
X6100Y-2650D02*
Y-2256D01*
X6297D01*
X6362Y-2322D01*
Y-2453D01*
X6297Y-2519D01*
X6100D01*
X6231D02*
X6362Y-2650D01*
X6756Y-2256D02*
X6494D01*
Y-2453D01*
X6625Y-2388D01*
X6690D01*
X6756Y-2453D01*
Y-2584D01*
X6690Y-2650D01*
X6559D01*
X6494Y-2584D01*
X6887Y-2322D02*
X6953Y-2256D01*
X7084D01*
X7150Y-2322D01*
Y-2584D01*
X7084Y-2650D01*
X6953D01*
X6887Y-2584D01*
Y-2322D01*
X7400Y-2650D02*
Y-2256D01*
X7597D01*
X7662Y-2322D01*
Y-2453D01*
X7597Y-2519D01*
X7400D01*
X7531D02*
X7662Y-2650D01*
X8056Y-2256D02*
X7794D01*
Y-2453D01*
X7925Y-2388D01*
X7990D01*
X8056Y-2453D01*
Y-2584D01*
X7990Y-2650D01*
X7859D01*
X7794Y-2584D01*
X8187Y-2650D02*
X8318D01*
X8253D01*
Y-2256D01*
X8187Y-2322D01*
X8150Y-8307D02*
Y-7914D01*
X8346D01*
X8412Y-7979D01*
Y-8110D01*
X8346Y-8176D01*
X8150D01*
X8281D02*
X8412Y-8307D01*
X8806Y-7914D02*
X8543D01*
Y-8110D01*
X8674Y-8045D01*
X8740D01*
X8806Y-8110D01*
Y-8241D01*
X8740Y-8307D01*
X8609D01*
X8543Y-8241D01*
X9199Y-8307D02*
X8937D01*
X9199Y-8045D01*
Y-7979D01*
X9134Y-7914D01*
X9002D01*
X8937Y-7979D01*
X4409Y-7795D02*
X4016D01*
Y-7598D01*
X4081Y-7533D01*
X4213D01*
X4278Y-7598D01*
Y-7795D01*
Y-7664D02*
X4409Y-7533D01*
X4016Y-7139D02*
Y-7402D01*
X4213D01*
X4147Y-7271D01*
Y-7205D01*
X4213Y-7139D01*
X4344D01*
X4409Y-7205D01*
Y-7336D01*
X4344Y-7402D01*
X4081Y-7008D02*
X4016Y-6943D01*
Y-6811D01*
X4081Y-6746D01*
X4147D01*
X4213Y-6811D01*
Y-6877D01*
Y-6811D01*
X4278Y-6746D01*
X4344D01*
X4409Y-6811D01*
Y-6943D01*
X4344Y-7008D01*
X11772Y-5512D02*
X11378D01*
Y-5315D01*
X11444Y-5249D01*
X11575D01*
X11640Y-5315D01*
Y-5512D01*
Y-5381D02*
X11772Y-5249D01*
X11378Y-4856D02*
Y-5118D01*
X11575D01*
X11509Y-4987D01*
Y-4921D01*
X11575Y-4856D01*
X11706D01*
X11772Y-4921D01*
Y-5053D01*
X11706Y-5118D01*
X11772Y-4528D02*
X11378D01*
X11575Y-4725D01*
Y-4462D01*
X4393Y-4649D02*
X3999D01*
Y-4452D01*
X4065Y-4386D01*
X4196D01*
X4261Y-4452D01*
Y-4649D01*
Y-4518D02*
X4393Y-4386D01*
X3999Y-3993D02*
Y-4255D01*
X4196D01*
X4130Y-4124D01*
Y-4058D01*
X4196Y-3993D01*
X4327D01*
X4393Y-4058D01*
Y-4190D01*
X4327Y-4255D01*
X3999Y-3599D02*
Y-3862D01*
X4196D01*
X4130Y-3730D01*
Y-3665D01*
X4196Y-3599D01*
X4327D01*
X4393Y-3665D01*
Y-3796D01*
X4327Y-3862D01*
X6164Y-4649D02*
X5771D01*
Y-4452D01*
X5836Y-4386D01*
X5967D01*
X6033Y-4452D01*
Y-4649D01*
Y-4518D02*
X6164Y-4386D01*
X5771Y-3993D02*
Y-4255D01*
X5967D01*
X5902Y-4124D01*
Y-4058D01*
X5967Y-3993D01*
X6099D01*
X6164Y-4058D01*
Y-4190D01*
X6099Y-4255D01*
X5771Y-3599D02*
X5836Y-3730D01*
X5967Y-3862D01*
X6099D01*
X6164Y-3796D01*
Y-3665D01*
X6099Y-3599D01*
X6033D01*
X5967Y-3665D01*
Y-3862D01*
X2841Y-10591D02*
X2447D01*
Y-10394D01*
X2513Y-10328D01*
X2644D01*
X2710Y-10394D01*
Y-10591D01*
Y-10459D02*
X2841Y-10328D01*
X2447Y-9935D02*
Y-10197D01*
X2644D01*
X2579Y-10066D01*
Y-10000D01*
X2644Y-9935D01*
X2775D01*
X2841Y-10000D01*
Y-10131D01*
X2775Y-10197D01*
X2447Y-9803D02*
Y-9541D01*
X2513D01*
X2775Y-9803D01*
X2841D01*
X-3500Y-5550D02*
Y-5156D01*
X-3303D01*
X-3238Y-5222D01*
Y-5353D01*
X-3303Y-5419D01*
X-3500D01*
X-3369D02*
X-3238Y-5550D01*
X-2844Y-5156D02*
X-3106D01*
Y-5353D01*
X-2975Y-5288D01*
X-2910D01*
X-2844Y-5353D01*
Y-5484D01*
X-2910Y-5550D01*
X-3041D01*
X-3106Y-5484D01*
X-2713Y-5222D02*
X-2647Y-5156D01*
X-2516D01*
X-2450Y-5222D01*
Y-5288D01*
X-2516Y-5353D01*
X-2450Y-5419D01*
Y-5484D01*
X-2516Y-5550D01*
X-2647D01*
X-2713Y-5484D01*
Y-5419D01*
X-2647Y-5353D01*
X-2713Y-5288D01*
Y-5222D01*
X-2647Y-5353D02*
X-2516D01*
X3937Y-10591D02*
X3543D01*
Y-10394D01*
X3609Y-10328D01*
X3740D01*
X3806Y-10394D01*
Y-10591D01*
Y-10459D02*
X3937Y-10328D01*
X3543Y-9935D02*
Y-10197D01*
X3740D01*
X3675Y-10066D01*
Y-10000D01*
X3740Y-9935D01*
X3871D01*
X3937Y-10000D01*
Y-10131D01*
X3871Y-10197D01*
Y-9803D02*
X3937Y-9738D01*
Y-9607D01*
X3871Y-9541D01*
X3609D01*
X3543Y-9607D01*
Y-9738D01*
X3609Y-9803D01*
X3675D01*
X3740Y-9738D01*
Y-9541D01*
X-3650Y-6400D02*
Y-6006D01*
X-3453D01*
X-3388Y-6072D01*
Y-6203D01*
X-3453Y-6269D01*
X-3650D01*
X-3519D02*
X-3388Y-6400D01*
X-2994Y-6006D02*
X-3125Y-6072D01*
X-3256Y-6203D01*
Y-6334D01*
X-3191Y-6400D01*
X-3060D01*
X-2994Y-6334D01*
Y-6269D01*
X-3060Y-6203D01*
X-3256D01*
X-2863Y-6072D02*
X-2797Y-6006D01*
X-2666D01*
X-2600Y-6072D01*
Y-6334D01*
X-2666Y-6400D01*
X-2797D01*
X-2863Y-6334D01*
Y-6072D01*
X-2450Y-9450D02*
X-2844D01*
Y-9253D01*
X-2778Y-9188D01*
X-2647D01*
X-2581Y-9253D01*
Y-9450D01*
Y-9319D02*
X-2450Y-9188D01*
X-2844Y-8794D02*
X-2778Y-8925D01*
X-2647Y-9056D01*
X-2516D01*
X-2450Y-8991D01*
Y-8860D01*
X-2516Y-8794D01*
X-2581D01*
X-2647Y-8860D01*
Y-9056D01*
X-2450Y-8663D02*
Y-8532D01*
Y-8597D01*
X-2844D01*
X-2778Y-8663D01*
X-5250Y-8750D02*
Y-8356D01*
X-5053D01*
X-4988Y-8422D01*
Y-8553D01*
X-5053Y-8619D01*
X-5250D01*
X-5119D02*
X-4988Y-8750D01*
X-4594Y-8356D02*
X-4725Y-8422D01*
X-4856Y-8553D01*
Y-8684D01*
X-4791Y-8750D01*
X-4660D01*
X-4594Y-8684D01*
Y-8619D01*
X-4660Y-8553D01*
X-4856D01*
X-4200Y-8750D02*
X-4463D01*
X-4200Y-8488D01*
Y-8422D01*
X-4266Y-8356D01*
X-4397D01*
X-4463Y-8422D01*
X-3858Y236D02*
Y-92D01*
X-3793Y-157D01*
X-3661D01*
X-3596Y-92D01*
Y236D01*
X-3202Y170D02*
X-3268Y236D01*
X-3399D01*
X-3465Y170D01*
Y105D01*
X-3399Y39D01*
X-3268D01*
X-3202Y-26D01*
Y-92D01*
X-3268Y-157D01*
X-3399D01*
X-3465Y-92D01*
X-3071Y236D02*
Y-157D01*
X-2874D01*
X-2809Y-92D01*
Y-26D01*
X-2874Y39D01*
X-3071D01*
X-2874D01*
X-2809Y105D01*
Y170D01*
X-2874Y236D01*
X-3071D01*
X-2678Y-157D02*
X-2546D01*
X-2612D01*
Y236D01*
X-2678Y170D01*
X-9016Y8819D02*
X-8753Y8425D01*
Y8819D02*
X-9016Y8425D01*
X-8622Y8819D02*
X-8360D01*
X-8491D01*
Y8425D01*
X-8229D02*
Y8688D01*
X-8097Y8819D01*
X-7966Y8688D01*
Y8425D01*
Y8622D01*
X-8229D01*
X-7835Y8819D02*
Y8425D01*
X-7573D01*
X-7441D02*
X-7310D01*
X-7376D01*
Y8819D01*
X-7441Y8753D01*
X7664Y8835D02*
X7926Y8442D01*
Y8835D02*
X7664Y8442D01*
X8057Y8835D02*
X8320D01*
X8188D01*
Y8442D01*
X8451D02*
Y8704D01*
X8582Y8835D01*
X8713Y8704D01*
Y8442D01*
Y8638D01*
X8451D01*
X8844Y8835D02*
Y8442D01*
X9107D01*
X9500D02*
X9238D01*
X9500Y8704D01*
Y8769D01*
X9435Y8835D01*
X9304D01*
X9238Y8769D01*
X-906Y-3012D02*
X-643Y-3406D01*
Y-3012D02*
X-906Y-3406D01*
X-512Y-3012D02*
X-250D01*
X-381D01*
Y-3406D01*
X-118D02*
Y-3143D01*
X13Y-3012D01*
X144Y-3143D01*
Y-3406D01*
Y-3209D01*
X-118D01*
X275Y-3012D02*
Y-3406D01*
X538D01*
X669Y-3078D02*
X734Y-3012D01*
X866D01*
X931Y-3078D01*
Y-3143D01*
X866Y-3209D01*
X800D01*
X866D01*
X931Y-3274D01*
Y-3340D01*
X866Y-3406D01*
X734D01*
X669Y-3340D01*
X-1575Y11417D02*
Y11024D01*
X-1312D01*
X-919D02*
X-1181D01*
X-919Y11286D01*
Y11352D01*
X-984Y11417D01*
X-1116D01*
X-1181Y11352D01*
X-3543Y-10669D02*
Y-10276D01*
X-3347D01*
X-3281Y-10341D01*
Y-10473D01*
X-3347Y-10538D01*
X-3543D01*
X-3412D02*
X-3281Y-10669D01*
X-3150D02*
X-3019D01*
X-3084D01*
Y-10276D01*
X-3150Y-10341D01*
X-2822D02*
X-2756Y-10276D01*
X-2625D01*
X-2559Y-10341D01*
Y-10407D01*
X-2625Y-10473D01*
X-2691D01*
X-2625D01*
X-2559Y-10538D01*
Y-10604D01*
X-2625Y-10669D01*
X-2756D01*
X-2822Y-10604D01*
X-13400Y-3386D02*
Y-2992D01*
X-13203D01*
X-13138Y-3058D01*
Y-3189D01*
X-13203Y-3255D01*
X-13400D01*
X-13269D02*
X-13138Y-3386D01*
X-12744D02*
X-13006D01*
X-12744Y-3123D01*
Y-3058D01*
X-12810Y-2992D01*
X-12941D01*
X-13006Y-3058D01*
X-12350Y-2992D02*
X-12613D01*
Y-3189D01*
X-12482Y-3123D01*
X-12416D01*
X-12350Y-3189D01*
Y-3320D01*
X-12416Y-3386D01*
X-12547D01*
X-12613Y-3320D01*
X-8750Y-1500D02*
Y-1106D01*
X-8553D01*
X-8488Y-1172D01*
Y-1303D01*
X-8553Y-1369D01*
X-8750D01*
X-8619D02*
X-8488Y-1500D01*
X-8356D02*
X-8225D01*
X-8291D01*
Y-1106D01*
X-8356Y-1172D01*
X-8028Y-1434D02*
X-7963Y-1500D01*
X-7832D01*
X-7766Y-1434D01*
Y-1172D01*
X-7832Y-1106D01*
X-7963D01*
X-8028Y-1172D01*
Y-1238D01*
X-7963Y-1303D01*
X-7766D01*
X-9357Y7848D02*
X-9291Y7913D01*
Y8045D01*
X-9357Y8110D01*
X-9619D01*
X-9685Y8045D01*
Y7913D01*
X-9619Y7848D01*
X-9291Y7520D02*
Y7651D01*
X-9357Y7717D01*
X-9619D01*
X-9685Y7651D01*
Y7520D01*
X-9619Y7454D01*
X-9357D01*
X-9291Y7520D01*
X-9685Y7323D02*
X-9291D01*
X-9685Y7061D01*
X-9291D01*
X-9685Y6667D02*
Y6930D01*
X-9423Y6667D01*
X-9357D01*
X-9291Y6733D01*
Y6864D01*
X-9357Y6930D01*
X-6388Y-7034D02*
Y-6772D01*
X-6453Y-6706D01*
X-6584D01*
X-6650Y-6772D01*
Y-7034D01*
X-6584Y-7100D01*
X-6453D01*
X-6519Y-6969D02*
X-6388Y-7100D01*
X-6453D02*
X-6388Y-7034D01*
X-6256Y-6772D02*
X-6191Y-6706D01*
X-6060D01*
X-5994Y-6772D01*
Y-6838D01*
X-6060Y-6903D01*
X-6125D01*
X-6060D01*
X-5994Y-6969D01*
Y-7034D01*
X-6060Y-7100D01*
X-6191D01*
X-6256Y-7034D01*
X-6388Y-3834D02*
Y-3572D01*
X-6453Y-3506D01*
X-6584D01*
X-6650Y-3572D01*
Y-3834D01*
X-6584Y-3900D01*
X-6453D01*
X-6519Y-3769D02*
X-6388Y-3900D01*
X-6453D02*
X-6388Y-3834D01*
X-6060Y-3900D02*
Y-3506D01*
X-6256Y-3703D01*
X-5994D01*
X-13400Y-2700D02*
Y-2306D01*
X-13203D01*
X-13138Y-2372D01*
Y-2503D01*
X-13203Y-2569D01*
X-13400D01*
X-13269D02*
X-13138Y-2700D01*
X-12744D02*
X-13006D01*
X-12744Y-2438D01*
Y-2372D01*
X-12810Y-2306D01*
X-12941D01*
X-13006Y-2372D01*
X-12613D02*
X-12547Y-2306D01*
X-12416D01*
X-12350Y-2372D01*
Y-2438D01*
X-12416Y-2503D01*
X-12482D01*
X-12416D01*
X-12350Y-2569D01*
Y-2634D01*
X-12416Y-2700D01*
X-12547D01*
X-12613Y-2634D01*
X14882Y6614D02*
X14541Y6417D01*
X14443Y6588D01*
X14467Y6677D01*
X14580Y6743D01*
X14670Y6719D01*
X14768Y6549D01*
X14703Y6662D02*
X14751Y6841D01*
X14554Y7182D02*
X14685Y6955D01*
X14327Y7051D01*
X14270Y7018D01*
X14246Y6929D01*
X14311Y6815D01*
X14401Y6791D01*
X14204Y7132D02*
X14115Y7156D01*
X14049Y7269D01*
X14073Y7359D01*
X14130Y7392D01*
X14219Y7368D01*
X14244Y7458D01*
X14300Y7490D01*
X14390Y7466D01*
X14456Y7353D01*
X14432Y7263D01*
X14375Y7230D01*
X14285Y7254D01*
X14261Y7165D01*
X14204Y7132D01*
X14285Y7254D02*
X14219Y7368D01*
X10945Y-12047D02*
X10652Y-11784D01*
X10784Y-11638D01*
X10877Y-11633D01*
X10974Y-11721D01*
X10979Y-11813D01*
X10847Y-11959D01*
X10935Y-11862D02*
X11120Y-11852D01*
X11384Y-11560D02*
X11208Y-11755D01*
X11189Y-11384D01*
X11140Y-11340D01*
X11047Y-11345D01*
X10960Y-11443D01*
X10964Y-11535D01*
X11423Y-11418D02*
X11515Y-11414D01*
X11603Y-11316D01*
X11598Y-11223D01*
X11403Y-11048D01*
X11311Y-11053D01*
X11223Y-11150D01*
X11228Y-11243D01*
X11277Y-11287D01*
X11369Y-11282D01*
X11501Y-11136D01*
X-13400Y800D02*
Y1194D01*
X-13203D01*
X-13138Y1128D01*
Y997D01*
X-13203Y931D01*
X-13400D01*
X-13269D02*
X-13138Y800D01*
X-12744D02*
X-13006D01*
X-12744Y1062D01*
Y1128D01*
X-12810Y1194D01*
X-12941D01*
X-13006Y1128D01*
X-12350Y800D02*
X-12613D01*
X-12350Y1062D01*
Y1128D01*
X-12416Y1194D01*
X-12547D01*
X-12613Y1128D01*
X9356Y-10528D02*
X9263Y-10530D01*
X9172Y-10624D01*
X9174Y-10717D01*
X9362Y-10899D01*
X9455Y-10898D01*
X9546Y-10803D01*
X9545Y-10711D01*
X9820Y-10520D02*
X9536Y-10247D01*
X9541Y-10525D01*
X9724Y-10336D01*
X9720Y-10151D02*
X9719Y-10058D01*
X9810Y-9964D01*
X9903Y-9962D01*
X10091Y-10144D01*
X10093Y-10237D01*
X10002Y-10331D01*
X9909Y-10333D01*
X9720Y-10151D01*
X-1428Y14005D02*
X-1353Y13951D01*
X-1224Y13971D01*
X-1169Y14046D01*
X-1210Y14305D01*
X-1285Y14360D01*
X-1415Y14339D01*
X-1469Y14264D01*
X-1804Y14278D02*
X-1742Y13889D01*
X-1578Y14114D01*
X-1838Y14073D01*
X-1998Y14247D02*
X-2128Y14226D01*
X-2063Y14237D01*
X-2001Y13848D01*
X-1947Y13923D01*
X-9396Y-6955D02*
X-9331Y-6890D01*
Y-6759D01*
X-9396Y-6693D01*
X-9659D01*
X-9724Y-6759D01*
Y-6890D01*
X-9659Y-6955D01*
X-9331Y-7283D02*
Y-7152D01*
X-9396Y-7086D01*
X-9659D01*
X-9724Y-7152D01*
Y-7283D01*
X-9659Y-7349D01*
X-9396D01*
X-9331Y-7283D01*
X-9724Y-7480D02*
X-9331D01*
X-9724Y-7742D01*
X-9331D01*
X-9724Y-7874D02*
Y-8005D01*
Y-7939D01*
X-9331D01*
X-9396Y-7874D01*
X5272Y-10438D02*
X5206Y-10503D01*
Y-10634D01*
X5272Y-10700D01*
X5534D01*
X5600Y-10634D01*
Y-10503D01*
X5534Y-10438D01*
X5403D01*
Y-10569D01*
X5600Y-10306D02*
X5206D01*
X5600Y-10044D01*
X5206D01*
Y-9913D02*
X5600D01*
Y-9716D01*
X5534Y-9650D01*
X5272D01*
X5206Y-9716D01*
Y-9913D01*
X4272Y-10438D02*
X4206Y-10503D01*
Y-10634D01*
X4272Y-10700D01*
X4534D01*
X4600Y-10634D01*
Y-10503D01*
X4534Y-10438D01*
X4206Y-10306D02*
X4600D01*
Y-10044D01*
X4206Y-9913D02*
X4600D01*
X4469D01*
X4206Y-9650D01*
X4403Y-9847D01*
X4600Y-9650D01*
X1837Y-12690D02*
X1772Y-12756D01*
Y-12887D01*
X1837Y-12953D01*
X2100D01*
X2165Y-12887D01*
Y-12756D01*
X2100Y-12690D01*
X1969D01*
Y-12822D01*
X2165Y-12559D02*
X1772D01*
X2165Y-12297D01*
X1772D01*
Y-12166D02*
X2165D01*
Y-11969D01*
X2100Y-11903D01*
X1837D01*
X1772Y-11969D01*
Y-12166D01*
X3228Y-12953D02*
X2835D01*
Y-12756D01*
X2900Y-12690D01*
X3032D01*
X3097Y-12756D01*
Y-12953D01*
Y-12822D02*
X3228Y-12690D01*
X2835Y-12559D02*
X3228Y-12297D01*
X2835D02*
X3228Y-12559D01*
X-10997Y5997D02*
X-11063Y6063D01*
X-11194D01*
X-11260Y5997D01*
Y5735D01*
X-11194Y5669D01*
X-11063D01*
X-10997Y5735D01*
Y5866D01*
X-11129D01*
X-10866Y5669D02*
Y6063D01*
X-10604Y5669D01*
Y6063D01*
X-10473D02*
Y5669D01*
X-10276D01*
X-10210Y5735D01*
Y5997D01*
X-10276Y6063D01*
X-10473D01*
X-11260Y4685D02*
Y5079D01*
X-11063D01*
X-10997Y5013D01*
Y4882D01*
X-11063Y4816D01*
X-11260D01*
X-10866Y5079D02*
Y4685D01*
X-10669D01*
X-10604Y4751D01*
Y5013D01*
X-10669Y5079D01*
X-10866D01*
X-10210D02*
X-10473D01*
Y4882D01*
X-10342Y4947D01*
X-10276D01*
X-10210Y4882D01*
Y4751D01*
X-10276Y4685D01*
X-10407D01*
X-10473Y4751D01*
X-11260Y3701D02*
Y4094D01*
X-11063D01*
X-10997Y4029D01*
Y3898D01*
X-11063Y3832D01*
X-11260D01*
X-10866Y4094D02*
Y3701D01*
X-10669D01*
X-10604Y3766D01*
Y4029D01*
X-10669Y4094D01*
X-10866D01*
X-10210D02*
X-10342Y4029D01*
X-10473Y3898D01*
Y3766D01*
X-10407Y3701D01*
X-10276D01*
X-10210Y3766D01*
Y3832D01*
X-10276Y3898D01*
X-10473D01*
X-13425Y-3740D02*
X-13294D01*
X-13360D01*
Y-4134D01*
X-13425D01*
X-13294D01*
X-13097D02*
Y-3740D01*
X-12835Y-4134D01*
Y-3740D01*
X-12704D02*
X-12441D01*
X-12572D01*
Y-4134D01*
X-12048Y-3740D02*
X-12310D01*
Y-4134D01*
X-12048D01*
X-12310Y-3937D02*
X-12179D01*
X-11917Y-4134D02*
Y-3740D01*
X-11720D01*
X-11654Y-3806D01*
Y-3937D01*
X-11720Y-4003D01*
X-11917D01*
X-11785D02*
X-11654Y-4134D01*
X-11523D02*
Y-3740D01*
X-11261Y-4134D01*
Y-3740D01*
X-11129Y-4134D02*
Y-3871D01*
X-10998Y-3740D01*
X-10867Y-3871D01*
Y-4134D01*
Y-3937D01*
X-11129D01*
X-10736Y-3740D02*
Y-4134D01*
X-10473D01*
X-13123Y-5158D02*
X-13386D01*
Y-5551D01*
X-13123D01*
X-13386Y-5354D02*
X-13255D01*
X-12992Y-5158D02*
X-12730Y-5551D01*
Y-5158D02*
X-12992Y-5551D01*
X-12599Y-5158D02*
X-12336D01*
X-12467D01*
Y-5551D01*
X-11943Y-5158D02*
X-12205D01*
Y-5551D01*
X-11943D01*
X-12205Y-5354D02*
X-12074D01*
X-11812Y-5551D02*
Y-5158D01*
X-11615D01*
X-11549Y-5223D01*
Y-5354D01*
X-11615Y-5420D01*
X-11812D01*
X-11680D02*
X-11549Y-5551D01*
X-11418D02*
Y-5158D01*
X-11156Y-5551D01*
Y-5158D01*
X-11024Y-5551D02*
Y-5289D01*
X-10893Y-5158D01*
X-10762Y-5289D01*
Y-5551D01*
Y-5354D01*
X-11024D01*
X-10631Y-5158D02*
Y-5551D01*
X-10368D01*
X-13386Y-4685D02*
Y-4291D01*
X-13189D01*
X-13123Y-4357D01*
Y-4488D01*
X-13189Y-4554D01*
X-13386D01*
X-12992Y-4685D02*
Y-4291D01*
X-12795D01*
X-12730Y-4357D01*
Y-4488D01*
X-12795Y-4554D01*
X-12992D01*
X-12861D02*
X-12730Y-4685D01*
X-12402Y-4291D02*
X-12533D01*
X-12599Y-4357D01*
Y-4619D01*
X-12533Y-4685D01*
X-12402D01*
X-12336Y-4619D01*
Y-4357D01*
X-12402Y-4291D01*
X-11943Y-4357D02*
X-12008Y-4291D01*
X-12140D01*
X-12205Y-4357D01*
Y-4619D01*
X-12140Y-4685D01*
X-12008D01*
X-11943Y-4619D01*
Y-4488D01*
X-12074D01*
X-13386Y-6142D02*
Y-5748D01*
X-13189D01*
X-13123Y-5814D01*
Y-5945D01*
X-13189Y-6011D01*
X-13386D01*
X-12992Y-6142D02*
Y-5748D01*
X-12795D01*
X-12730Y-5814D01*
Y-5945D01*
X-12795Y-6011D01*
X-12992D01*
X-12861D02*
X-12730Y-6142D01*
X-12402Y-5748D02*
X-12533D01*
X-12599Y-5814D01*
Y-6076D01*
X-12533Y-6142D01*
X-12402D01*
X-12336Y-6076D01*
Y-5814D01*
X-12402Y-5748D01*
X-11943Y-5814D02*
X-12008Y-5748D01*
X-12140D01*
X-12205Y-5814D01*
Y-6076D01*
X-12140Y-6142D01*
X-12008D01*
X-11943Y-6076D01*
Y-5945D01*
X-12074D01*
G54D61*
X6520Y-7033D02*
G03*
X6520Y-7033I-49J0D01*
G01*
G54D62*
X-94Y-14173D02*
X24Y-14055D01*
Y-14291D02*
Y-14055D01*
X-94Y-14173D02*
X24Y-14291D01*
X2175Y-2328D02*
Y2412D01*
X-2234Y-2312D02*
Y2412D01*
X742D02*
X2175D01*
X742Y-2328D02*
X2175D01*
X-2234Y2412D02*
X-1620D01*
X-2234Y-2312D02*
X-1620D01*
X-24Y14055D02*
X94Y14173D01*
X-24Y14055D02*
Y14291D01*
X94Y14173D01*
X-3200Y-7306D02*
X-3082Y-7424D01*
X-3318D02*
X-3082D01*
X-3318D02*
X-3200Y-7306D01*
X-3800D02*
X-3682Y-7424D01*
X-3918D02*
X-3682D01*
X-3918D02*
X-3800Y-7306D01*
X-10594Y2874D02*
X-10476Y2992D01*
Y2756D02*
Y2992D01*
X-10594Y2874D02*
X-10476Y2756D01*
X-10594Y2244D02*
X-10476Y2362D01*
Y2126D02*
Y2362D01*
X-10594Y2244D02*
X-10476Y2126D01*
X5382Y-5654D02*
X5500Y-5772D01*
X5264D02*
X5500D01*
X5264D02*
X5382Y-5654D01*
X4782D02*
X4900Y-5772D01*
X4664D02*
X4900D01*
X4664D02*
X4782Y-5654D01*
X-11000Y-1500D02*
Y1500D01*
X-9000D01*
Y-1500D02*
Y1500D01*
X-11000Y-1500D02*
X-9000D01*
X-10124Y-2418D02*
X-10006Y-2300D01*
X-10124Y-2418D02*
Y-2182D01*
X-10006Y-2300D01*
X-13865Y8700D02*
X-13387Y8352D01*
X-12613Y-10448D02*
X-12135Y-10100D01*
X5906Y-14633D02*
X6089Y-15194D01*
X15705Y1075D02*
X16295D01*
X3811Y15306D02*
X3994Y15867D01*
X-5989Y15194D02*
X-5806Y14633D01*
X-16295Y-1075D02*
X-15705D01*
X-3994Y-15867D02*
X-3811Y-15306D01*
X13387Y-8352D02*
X13865Y-8700D01*
X12135Y10100D02*
X12613Y10448D01*
M02*
