%FSLAX24Y24*%
%MOIN*%
G70*
G01*
G75*
G04 Layer_Color=8388736*
%ADD10C,0.0591*%
%ADD11C,0.0472*%
%ADD12R,0.0394X0.0354*%
%ADD13R,0.0236X0.0512*%
%ADD14R,0.0276X0.0354*%
%ADD15R,0.0354X0.0276*%
%ADD16R,0.0551X0.0472*%
%ADD17R,0.0197X0.0591*%
%ADD18R,0.0512X0.0236*%
%ADD19R,0.0354X0.0394*%
%ADD20R,0.0787X0.0177*%
%ADD21R,0.0177X0.0787*%
%ADD22R,0.2362X0.0984*%
%ADD23O,0.0138X0.0827*%
%ADD24R,0.2165X0.0984*%
%ADD25R,0.0472X0.0551*%
G04:AMPARAMS|DCode=26|XSize=70.9mil|YSize=63mil|CornerRadius=0mil|HoleSize=0mil|Usage=FLASHONLY|Rotation=336.000|XOffset=0mil|YOffset=0mil|HoleType=Round|Shape=Rectangle|*
%AMROTATEDRECTD26*
4,1,4,-0.0452,-0.0144,-0.0196,0.0432,0.0452,0.0144,0.0196,-0.0432,-0.0452,-0.0144,0.0*
%
%ADD26ROTATEDRECTD26*%

G04:AMPARAMS|DCode=27|XSize=70.9mil|YSize=63mil|CornerRadius=0mil|HoleSize=0mil|Usage=FLASHONLY|Rotation=120.000|XOffset=0mil|YOffset=0mil|HoleType=Round|Shape=Rectangle|*
%AMROTATEDRECTD27*
4,1,4,0.0450,-0.0149,-0.0096,-0.0464,-0.0450,0.0149,0.0096,0.0464,0.0450,-0.0149,0.0*
%
%ADD27ROTATEDRECTD27*%

G04:AMPARAMS|DCode=28|XSize=51.2mil|YSize=39.4mil|CornerRadius=0mil|HoleSize=0mil|Usage=FLASHONLY|Rotation=31.000|XOffset=0mil|YOffset=0mil|HoleType=Round|Shape=Rectangle|*
%AMROTATEDRECTD28*
4,1,4,-0.0118,-0.0301,-0.0321,0.0037,0.0118,0.0301,0.0321,-0.0037,-0.0118,-0.0301,0.0*
%
%ADD28ROTATEDRECTD28*%

G04:AMPARAMS|DCode=29|XSize=51.2mil|YSize=39.4mil|CornerRadius=0mil|HoleSize=0mil|Usage=FLASHONLY|Rotation=319.000|XOffset=0mil|YOffset=0mil|HoleType=Round|Shape=Rectangle|*
%AMROTATEDRECTD29*
4,1,4,-0.0322,0.0019,-0.0064,0.0316,0.0322,-0.0019,0.0064,-0.0316,-0.0322,0.0019,0.0*
%
%ADD29ROTATEDRECTD29*%

G04:AMPARAMS|DCode=30|XSize=51.2mil|YSize=39.4mil|CornerRadius=0mil|HoleSize=0mil|Usage=FLASHONLY|Rotation=101.000|XOffset=0mil|YOffset=0mil|HoleType=Round|Shape=Rectangle|*
%AMROTATEDRECTD30*
4,1,4,0.0242,-0.0214,-0.0144,-0.0289,-0.0242,0.0214,0.0144,0.0289,0.0242,-0.0214,0.0*
%
%ADD30ROTATEDRECTD30*%

G04:AMPARAMS|DCode=31|XSize=70.9mil|YSize=63mil|CornerRadius=0mil|HoleSize=0mil|Usage=FLASHONLY|Rotation=190.000|XOffset=0mil|YOffset=0mil|HoleType=Round|Shape=Rectangle|*
%AMROTATEDRECTD31*
4,1,4,0.0294,0.0372,0.0404,-0.0249,-0.0294,-0.0372,-0.0404,0.0249,0.0294,0.0372,0.0*
%
%ADD31ROTATEDRECTD31*%

G04:AMPARAMS|DCode=32|XSize=70.9mil|YSize=63mil|CornerRadius=0mil|HoleSize=0mil|Usage=FLASHONLY|Rotation=48.000|XOffset=0mil|YOffset=0mil|HoleType=Round|Shape=Rectangle|*
%AMROTATEDRECTD32*
4,1,4,-0.0003,-0.0474,-0.0471,-0.0053,0.0003,0.0474,0.0471,0.0053,-0.0003,-0.0474,0.0*
%
%ADD32ROTATEDRECTD32*%

G04:AMPARAMS|DCode=33|XSize=51.2mil|YSize=39.4mil|CornerRadius=0mil|HoleSize=0mil|Usage=FLASHONLY|Rotation=246.000|XOffset=0mil|YOffset=0mil|HoleType=Round|Shape=Rectangle|*
%AMROTATEDRECTD33*
4,1,4,-0.0076,0.0314,0.0284,0.0154,0.0076,-0.0314,-0.0284,-0.0154,-0.0076,0.0314,0.0*
%
%ADD33ROTATEDRECTD33*%

G04:AMPARAMS|DCode=34|XSize=70.9mil|YSize=63mil|CornerRadius=0mil|HoleSize=0mil|Usage=FLASHONLY|Rotation=264.000|XOffset=0mil|YOffset=0mil|HoleType=Round|Shape=Rectangle|*
%AMROTATEDRECTD34*
4,1,4,-0.0276,0.0385,0.0350,0.0319,0.0276,-0.0385,-0.0350,-0.0319,-0.0276,0.0385,0.0*
%
%ADD34ROTATEDRECTD34*%

G04:AMPARAMS|DCode=35|XSize=51.2mil|YSize=39.4mil|CornerRadius=0mil|HoleSize=0mil|Usage=FLASHONLY|Rotation=176.000|XOffset=0mil|YOffset=0mil|HoleType=Round|Shape=Rectangle|*
%AMROTATEDRECTD35*
4,1,4,0.0269,0.0179,0.0242,-0.0214,-0.0269,-0.0179,-0.0242,0.0214,0.0269,0.0179,0.0*
%
%ADD35ROTATEDRECTD35*%

%ADD36C,0.0197*%
%ADD37C,0.0177*%
%ADD38C,0.0138*%
%ADD39C,0.0118*%
%ADD40C,0.0236*%
%ADD41C,0.0394*%
%ADD42C,0.0315*%
%ADD43C,0.0276*%
%ADD44O,0.0669X0.0787*%
%ADD45O,0.0787X0.0709*%
%ADD46O,0.1969X0.1181*%
%ADD47O,0.0591X0.0866*%
%ADD48R,0.0591X0.0866*%
%ADD49C,0.0700*%
%ADD50O,0.0866X0.0591*%
%ADD51R,0.0866X0.0591*%
%ADD52C,0.1181*%
%ADD53C,0.0394*%
G04:AMPARAMS|DCode=54|XSize=70.9mil|YSize=98.4mil|CornerRadius=0mil|HoleSize=0mil|Usage=FLASHONLY|Rotation=54.000|XOffset=0mil|YOffset=0mil|HoleType=Round|Shape=Round|*
%AMOVALD54*
21,1,0.0276,0.0709,0.0000,0.0000,144.0*
1,1,0.0709,0.0111,-0.0081*
1,1,0.0709,-0.0111,0.0081*
%
%ADD54OVALD54*%

G04:AMPARAMS|DCode=55|XSize=70.9mil|YSize=98.4mil|CornerRadius=0mil|HoleSize=0mil|Usage=FLASHONLY|Rotation=126.000|XOffset=0mil|YOffset=0mil|HoleType=Round|Shape=Round|*
%AMOVALD55*
21,1,0.0276,0.0709,0.0000,0.0000,216.0*
1,1,0.0709,0.0111,0.0081*
1,1,0.0709,-0.0111,-0.0081*
%
%ADD55OVALD55*%

G04:AMPARAMS|DCode=56|XSize=70.9mil|YSize=98.4mil|CornerRadius=0mil|HoleSize=0mil|Usage=FLASHONLY|Rotation=198.000|XOffset=0mil|YOffset=0mil|HoleType=Round|Shape=Round|*
%AMOVALD56*
21,1,0.0276,0.0709,0.0000,0.0000,288.0*
1,1,0.0709,-0.0043,0.0131*
1,1,0.0709,0.0043,-0.0131*
%
%ADD56OVALD56*%

%ADD57O,0.0984X0.0709*%
G04:AMPARAMS|DCode=58|XSize=70.9mil|YSize=98.4mil|CornerRadius=0mil|HoleSize=0mil|Usage=FLASHONLY|Rotation=342.000|XOffset=0mil|YOffset=0mil|HoleType=Round|Shape=Round|*
%AMOVALD58*
21,1,0.0276,0.0709,0.0000,0.0000,72.0*
1,1,0.0709,-0.0043,-0.0131*
1,1,0.0709,0.0043,0.0131*
%
%ADD58OVALD58*%

%ADD59C,0.0472*%
%ADD60C,0.0079*%
%ADD61C,0.0098*%
%ADD62C,0.0100*%
%ADD63C,0.0787*%
%ADD64R,0.0474X0.0434*%
%ADD65R,0.0316X0.0592*%
%ADD66R,0.0356X0.0434*%
%ADD67R,0.0434X0.0356*%
%ADD68R,0.0631X0.0552*%
%ADD69R,0.0277X0.0671*%
%ADD70R,0.0592X0.0316*%
%ADD71R,0.0434X0.0474*%
%ADD72R,0.0867X0.0257*%
%ADD73R,0.0257X0.0867*%
%ADD74R,0.2442X0.1064*%
%ADD75O,0.0218X0.0907*%
%ADD76R,0.2245X0.1064*%
%ADD77R,0.0552X0.0631*%
G04:AMPARAMS|DCode=78|XSize=78.9mil|YSize=71mil|CornerRadius=0mil|HoleSize=0mil|Usage=FLASHONLY|Rotation=336.000|XOffset=0mil|YOffset=0mil|HoleType=Round|Shape=Rectangle|*
%AMROTATEDRECTD78*
4,1,4,-0.0505,-0.0164,-0.0216,0.0485,0.0505,0.0164,0.0216,-0.0485,-0.0505,-0.0164,0.0*
%
%ADD78ROTATEDRECTD78*%

G04:AMPARAMS|DCode=79|XSize=78.9mil|YSize=71mil|CornerRadius=0mil|HoleSize=0mil|Usage=FLASHONLY|Rotation=120.000|XOffset=0mil|YOffset=0mil|HoleType=Round|Shape=Rectangle|*
%AMROTATEDRECTD79*
4,1,4,0.0505,-0.0164,-0.0110,-0.0519,-0.0505,0.0164,0.0110,0.0519,0.0505,-0.0164,0.0*
%
%ADD79ROTATEDRECTD79*%

G04:AMPARAMS|DCode=80|XSize=59.2mil|YSize=47.4mil|CornerRadius=0mil|HoleSize=0mil|Usage=FLASHONLY|Rotation=31.000|XOffset=0mil|YOffset=0mil|HoleType=Round|Shape=Rectangle|*
%AMROTATEDRECTD80*
4,1,4,-0.0132,-0.0355,-0.0376,0.0051,0.0132,0.0355,0.0376,-0.0051,-0.0132,-0.0355,0.0*
%
%ADD80ROTATEDRECTD80*%

G04:AMPARAMS|DCode=81|XSize=59.2mil|YSize=47.4mil|CornerRadius=0mil|HoleSize=0mil|Usage=FLASHONLY|Rotation=319.000|XOffset=0mil|YOffset=0mil|HoleType=Round|Shape=Rectangle|*
%AMROTATEDRECTD81*
4,1,4,-0.0379,0.0015,-0.0068,0.0373,0.0379,-0.0015,0.0068,-0.0373,-0.0379,0.0015,0.0*
%
%ADD81ROTATEDRECTD81*%

G04:AMPARAMS|DCode=82|XSize=59.2mil|YSize=47.4mil|CornerRadius=0mil|HoleSize=0mil|Usage=FLASHONLY|Rotation=101.000|XOffset=0mil|YOffset=0mil|HoleType=Round|Shape=Rectangle|*
%AMROTATEDRECTD82*
4,1,4,0.0289,-0.0245,-0.0176,-0.0336,-0.0289,0.0245,0.0176,0.0336,0.0289,-0.0245,0.0*
%
%ADD82ROTATEDRECTD82*%

G04:AMPARAMS|DCode=83|XSize=78.9mil|YSize=71mil|CornerRadius=0mil|HoleSize=0mil|Usage=FLASHONLY|Rotation=190.000|XOffset=0mil|YOffset=0mil|HoleType=Round|Shape=Rectangle|*
%AMROTATEDRECTD83*
4,1,4,0.0327,0.0418,0.0450,-0.0281,-0.0327,-0.0418,-0.0450,0.0281,0.0327,0.0418,0.0*
%
%ADD83ROTATEDRECTD83*%

G04:AMPARAMS|DCode=84|XSize=78.9mil|YSize=71mil|CornerRadius=0mil|HoleSize=0mil|Usage=FLASHONLY|Rotation=48.000|XOffset=0mil|YOffset=0mil|HoleType=Round|Shape=Rectangle|*
%AMROTATEDRECTD84*
4,1,4,-0.0000,-0.0531,-0.0528,-0.0056,0.0000,0.0531,0.0528,0.0056,-0.0000,-0.0531,0.0*
%
%ADD84ROTATEDRECTD84*%

G04:AMPARAMS|DCode=85|XSize=59.2mil|YSize=47.4mil|CornerRadius=0mil|HoleSize=0mil|Usage=FLASHONLY|Rotation=246.000|XOffset=0mil|YOffset=0mil|HoleType=Round|Shape=Rectangle|*
%AMROTATEDRECTD85*
4,1,4,-0.0096,0.0367,0.0337,0.0174,0.0096,-0.0367,-0.0337,-0.0174,-0.0096,0.0367,0.0*
%
%ADD85ROTATEDRECTD85*%

G04:AMPARAMS|DCode=86|XSize=78.9mil|YSize=71mil|CornerRadius=0mil|HoleSize=0mil|Usage=FLASHONLY|Rotation=264.000|XOffset=0mil|YOffset=0mil|HoleType=Round|Shape=Rectangle|*
%AMROTATEDRECTD86*
4,1,4,-0.0312,0.0429,0.0394,0.0355,0.0312,-0.0429,-0.0394,-0.0355,-0.0312,0.0429,0.0*
%
%ADD86ROTATEDRECTD86*%

G04:AMPARAMS|DCode=87|XSize=59.2mil|YSize=47.4mil|CornerRadius=0mil|HoleSize=0mil|Usage=FLASHONLY|Rotation=176.000|XOffset=0mil|YOffset=0mil|HoleType=Round|Shape=Rectangle|*
%AMROTATEDRECTD87*
4,1,4,0.0312,0.0216,0.0279,-0.0257,-0.0312,-0.0216,-0.0279,0.0257,0.0312,0.0216,0.0*
%
%ADD87ROTATEDRECTD87*%

%ADD88O,0.0749X0.0867*%
%ADD89O,0.0867X0.0789*%
%ADD90O,0.2049X0.1261*%
%ADD91O,0.0671X0.0946*%
%ADD92R,0.0671X0.0946*%
%ADD93C,0.0780*%
%ADD94O,0.0946X0.0671*%
%ADD95R,0.0946X0.0671*%
%ADD96C,0.1261*%
%ADD97C,0.0474*%
G04:AMPARAMS|DCode=98|XSize=78.9mil|YSize=106.4mil|CornerRadius=0mil|HoleSize=0mil|Usage=FLASHONLY|Rotation=54.000|XOffset=0mil|YOffset=0mil|HoleType=Round|Shape=Round|*
%AMOVALD98*
21,1,0.0276,0.0789,0.0000,0.0000,144.0*
1,1,0.0789,0.0111,-0.0081*
1,1,0.0789,-0.0111,0.0081*
%
%ADD98OVALD98*%

G04:AMPARAMS|DCode=99|XSize=78.9mil|YSize=106.4mil|CornerRadius=0mil|HoleSize=0mil|Usage=FLASHONLY|Rotation=126.000|XOffset=0mil|YOffset=0mil|HoleType=Round|Shape=Round|*
%AMOVALD99*
21,1,0.0276,0.0789,0.0000,0.0000,216.0*
1,1,0.0789,0.0111,0.0081*
1,1,0.0789,-0.0111,-0.0081*
%
%ADD99OVALD99*%

G04:AMPARAMS|DCode=100|XSize=78.9mil|YSize=106.4mil|CornerRadius=0mil|HoleSize=0mil|Usage=FLASHONLY|Rotation=198.000|XOffset=0mil|YOffset=0mil|HoleType=Round|Shape=Round|*
%AMOVALD100*
21,1,0.0276,0.0789,0.0000,0.0000,288.0*
1,1,0.0789,-0.0043,0.0131*
1,1,0.0789,0.0043,-0.0131*
%
%ADD100OVALD100*%

%ADD101O,0.1064X0.0789*%
G04:AMPARAMS|DCode=102|XSize=78.9mil|YSize=106.4mil|CornerRadius=0mil|HoleSize=0mil|Usage=FLASHONLY|Rotation=342.000|XOffset=0mil|YOffset=0mil|HoleType=Round|Shape=Round|*
%AMOVALD102*
21,1,0.0276,0.0789,0.0000,0.0000,72.0*
1,1,0.0789,-0.0043,-0.0131*
1,1,0.0789,0.0043,0.0131*
%
%ADD102OVALD102*%

G54D36*
X27664Y-499D02*
X27401Y-237D01*
X26877D01*
X26614Y-499D01*
Y-1549D01*
X26877Y-1811D01*
X27401D01*
X27664Y-1549D01*
X28451Y-1811D02*
X28976D01*
X29238Y-1549D01*
Y-1024D01*
X28976Y-762D01*
X28451D01*
X28188Y-1024D01*
Y-1549D01*
X28451Y-1811D01*
X29763D02*
Y-762D01*
X30550D01*
X30812Y-1024D01*
Y-1811D01*
X31599Y-499D02*
Y-762D01*
X31337D01*
X31862D01*
X31599D01*
Y-1549D01*
X31862Y-1811D01*
X32649Y-762D02*
Y-1811D01*
Y-1286D01*
X32911Y-1024D01*
X33174Y-762D01*
X33436D01*
X34486Y-1811D02*
X35010D01*
X35273Y-1549D01*
Y-1024D01*
X35010Y-762D01*
X34486D01*
X34223Y-1024D01*
Y-1549D01*
X34486Y-1811D01*
X35798D02*
X36322D01*
X36060D01*
Y-237D01*
X35798D01*
X37109Y-1811D02*
X37634D01*
X37372D01*
Y-237D01*
X37109D01*
X39209Y-1811D02*
X38684D01*
X38421Y-1549D01*
Y-1024D01*
X38684Y-762D01*
X39209D01*
X39471Y-1024D01*
Y-1286D01*
X38421D01*
X39996Y-762D02*
Y-1811D01*
Y-1286D01*
X40258Y-1024D01*
X40520Y-762D01*
X40783D01*
X43144Y-237D02*
Y-1286D01*
X43669Y-1811D01*
X44194Y-1286D01*
Y-237D01*
X44719Y-1811D02*
X45243D01*
X44981D01*
Y-237D01*
X44719Y-499D01*
X46030Y-1811D02*
Y-1549D01*
X46293D01*
Y-1811D01*
X46030D01*
X47342Y-499D02*
X47605Y-237D01*
X48130D01*
X48392Y-499D01*
Y-1549D01*
X48130Y-1811D01*
X47605D01*
X47342Y-1549D01*
Y-499D01*
X48917Y-762D02*
X49179D01*
Y-1024D01*
X48917D01*
Y-762D01*
Y-1549D02*
X49179D01*
Y-1811D01*
X48917D01*
Y-1549D01*
X51803Y-237D02*
X52852D01*
X52328D01*
Y-1811D01*
X53640D02*
X54164D01*
X54427Y-1549D01*
Y-1024D01*
X54164Y-762D01*
X53640D01*
X53377Y-1024D01*
Y-1549D01*
X53640Y-1811D01*
X54951Y-2336D02*
Y-762D01*
X55739D01*
X56001Y-1024D01*
Y-1549D01*
X55739Y-1811D01*
X54951D01*
X58100D02*
X58887D01*
X59150Y-1549D01*
X58887Y-1286D01*
X58362D01*
X58100Y-1024D01*
X58362Y-762D01*
X59150D01*
X59937Y-1811D02*
X60462D01*
X60724Y-1549D01*
Y-1024D01*
X60462Y-762D01*
X59937D01*
X59674Y-1024D01*
Y-1549D01*
X59937Y-1811D01*
X61249D02*
X61773D01*
X61511D01*
Y-237D01*
X61249D01*
X63610D02*
Y-1811D01*
X62823D01*
X62561Y-1549D01*
Y-1024D01*
X62823Y-762D01*
X63610D01*
X64922Y-1811D02*
X64397D01*
X64135Y-1549D01*
Y-1024D01*
X64397Y-762D01*
X64922D01*
X65184Y-1024D01*
Y-1286D01*
X64135D01*
X65709Y-762D02*
Y-1811D01*
Y-1286D01*
X65972Y-1024D01*
X66234Y-762D01*
X66496D01*
G54D63*
X-551Y12323D02*
D03*
X-1181Y-12913D02*
D03*
G54D64*
X-369Y-14173D02*
D03*
X300D02*
D03*
X369Y14173D02*
D03*
X-300D02*
D03*
X-10869Y2874D02*
D03*
X-10200D02*
D03*
X-10869Y2244D02*
D03*
X-10200D02*
D03*
X-9731Y-2300D02*
D03*
X-10400D02*
D03*
G54D65*
X-4031Y11237D02*
D03*
X-3283D02*
D03*
X-3657Y12163D02*
D03*
G54D66*
X-3952Y10599D02*
D03*
X-3361D02*
D03*
X-6745Y8750D02*
D03*
X-6155D02*
D03*
X-4555Y8750D02*
D03*
X-5145D02*
D03*
X1305Y10500D02*
D03*
X1895D02*
D03*
X1895Y9900D02*
D03*
X1305D02*
D03*
X1895Y8500D02*
D03*
X1305D02*
D03*
X-11995Y-2500D02*
D03*
X-11405D02*
D03*
X-11995Y1000D02*
D03*
X-11405D02*
D03*
X-11405Y-3200D02*
D03*
X-11995D02*
D03*
X4395Y-11200D02*
D03*
X3805D02*
D03*
X6188Y-1900D02*
D03*
X6778D02*
D03*
X7878Y-1900D02*
D03*
X7288D02*
D03*
X7288Y-238D02*
D03*
X7878D02*
D03*
X6778Y-238D02*
D03*
X6188D02*
D03*
X-1580Y4200D02*
D03*
X-990D02*
D03*
X-990Y3600D02*
D03*
X-1580D02*
D03*
X6530Y5875D02*
D03*
X5939D02*
D03*
X4855Y8700D02*
D03*
X5445D02*
D03*
X7045Y8700D02*
D03*
X6455D02*
D03*
X5188Y-238D02*
D03*
X5778D02*
D03*
X4678Y-238D02*
D03*
X4088D02*
D03*
X4088Y-1900D02*
D03*
X4678D02*
D03*
X5778Y-1900D02*
D03*
X5188D02*
D03*
X7205Y-8100D02*
D03*
X7795D02*
D03*
X9395Y-3300D02*
D03*
X8805D02*
D03*
X-5605Y205D02*
D03*
X-6195D02*
D03*
X-5305Y5600D02*
D03*
X-5895D02*
D03*
X-6195Y-395D02*
D03*
X-5605D02*
D03*
X-1605Y-10500D02*
D03*
X-2195D02*
D03*
X-1605Y-9900D02*
D03*
X-2195D02*
D03*
X-1605Y-11100D02*
D03*
X-2195D02*
D03*
X-11995Y-400D02*
D03*
X-11405D02*
D03*
X-11995Y-1800D02*
D03*
X-11405D02*
D03*
X-6805Y-700D02*
D03*
X-7395D02*
D03*
X-11405Y-1100D02*
D03*
X-11995D02*
D03*
X-11995Y300D02*
D03*
X-11405D02*
D03*
X-6805Y-1900D02*
D03*
X-7395D02*
D03*
X-6805Y-1300D02*
D03*
X-7395D02*
D03*
X-9005Y2244D02*
D03*
X-9595D02*
D03*
X-9005Y2874D02*
D03*
X-9595D02*
D03*
G54D67*
X-3917Y9439D02*
D03*
Y10029D02*
D03*
X-2709Y10509D02*
D03*
Y9919D02*
D03*
X-2109Y9919D02*
D03*
Y10509D02*
D03*
X709Y10518D02*
D03*
Y9928D02*
D03*
X109Y10518D02*
D03*
Y9928D02*
D03*
X-491Y9928D02*
D03*
Y10518D02*
D03*
X-1654Y7005D02*
D03*
Y7595D02*
D03*
X-424Y4191D02*
D03*
Y3600D02*
D03*
X176Y4191D02*
D03*
Y3600D02*
D03*
X-3800Y-8795D02*
D03*
Y-8205D02*
D03*
X-3200Y-8795D02*
D03*
Y-8205D02*
D03*
X1700Y-6595D02*
D03*
Y-6005D02*
D03*
X2600Y-6005D02*
D03*
Y-6595D02*
D03*
X2800Y-3595D02*
D03*
Y-3005D02*
D03*
X-2800Y-3595D02*
D03*
Y-3005D02*
D03*
X-1700Y-6495D02*
D03*
Y-5905D02*
D03*
X-2300Y-5905D02*
D03*
Y-6495D02*
D03*
X2100Y-10395D02*
D03*
Y-9805D02*
D03*
X3200Y-9095D02*
D03*
Y-8505D02*
D03*
X3200Y-9805D02*
D03*
Y-10395D02*
D03*
X8294Y4788D02*
D03*
Y5379D02*
D03*
X3300Y2395D02*
D03*
Y1805D02*
D03*
X7694Y4788D02*
D03*
Y5379D02*
D03*
X2900Y305D02*
D03*
Y895D02*
D03*
X1976Y3009D02*
D03*
Y3600D02*
D03*
X2576Y3595D02*
D03*
Y3005D02*
D03*
X1376Y3009D02*
D03*
Y3600D02*
D03*
X776Y3605D02*
D03*
Y4195D02*
D03*
X4250Y4505D02*
D03*
Y5095D02*
D03*
X5215Y-805D02*
D03*
Y-1395D02*
D03*
X4650Y-805D02*
D03*
Y-1395D02*
D03*
X6750Y-805D02*
D03*
Y-1395D02*
D03*
X7341Y-805D02*
D03*
Y-1395D02*
D03*
X-8600Y105D02*
D03*
Y695D02*
D03*
X11050Y-6545D02*
D03*
Y-5955D02*
D03*
X11050Y-4755D02*
D03*
Y-5345D02*
D03*
X4782Y-4793D02*
D03*
Y-4202D02*
D03*
X5382Y-4793D02*
D03*
Y-4202D02*
D03*
X4800Y-6805D02*
D03*
Y-7395D02*
D03*
X5400Y-6805D02*
D03*
Y-7395D02*
D03*
X2600Y4505D02*
D03*
Y5095D02*
D03*
X-8000Y105D02*
D03*
Y695D02*
D03*
X-7400Y105D02*
D03*
Y695D02*
D03*
X-6200Y-2591D02*
D03*
Y-2000D02*
D03*
X-4500Y-395D02*
D03*
Y195D02*
D03*
X-6200Y-1541D02*
D03*
Y-950D02*
D03*
X-5600Y-950D02*
D03*
Y-1541D02*
D03*
X-4400Y-9695D02*
D03*
Y-9105D02*
D03*
X-5600Y-2000D02*
D03*
Y-2591D02*
D03*
X-2800Y-2395D02*
D03*
Y-1805D02*
D03*
G54D68*
X-1300Y9846D02*
D03*
Y10554D02*
D03*
X2900Y-1054D02*
D03*
Y-346D02*
D03*
G54D69*
X-265Y9113D02*
D03*
X483D02*
D03*
X-265Y7932D02*
D03*
X109D02*
D03*
X483D02*
D03*
G54D70*
X-8112Y-4926D02*
D03*
Y-5674D02*
D03*
X-7187Y-5300D02*
D03*
X-8112Y-6526D02*
D03*
Y-7274D02*
D03*
X-7187Y-6900D02*
D03*
X-8112Y-3326D02*
D03*
Y-4074D02*
D03*
X-7187Y-3700D02*
D03*
X-8112Y-8126D02*
D03*
Y-8874D02*
D03*
X-7187Y-8500D02*
D03*
G54D71*
X-3200Y-7031D02*
D03*
Y-7700D02*
D03*
X-3800Y-7031D02*
D03*
Y-7700D02*
D03*
X5382Y-5378D02*
D03*
Y-6048D02*
D03*
X4782Y-5378D02*
D03*
Y-6048D02*
D03*
G54D72*
X1772Y-6998D02*
D03*
Y-7313D02*
D03*
Y-7628D02*
D03*
Y-7943D02*
D03*
Y-8257D02*
D03*
Y-8572D02*
D03*
Y-8887D02*
D03*
Y-9202D02*
D03*
X-1772Y-6998D02*
D03*
Y-7313D02*
D03*
Y-7628D02*
D03*
Y-7943D02*
D03*
Y-8257D02*
D03*
Y-8572D02*
D03*
Y-8887D02*
D03*
Y-9202D02*
D03*
X4215Y3987D02*
D03*
Y3672D02*
D03*
Y3357D02*
D03*
Y3043D02*
D03*
Y2728D02*
D03*
Y2413D02*
D03*
Y2098D02*
D03*
Y1783D02*
D03*
X7758D02*
D03*
Y2098D02*
D03*
Y2413D02*
D03*
Y2728D02*
D03*
Y3043D02*
D03*
Y3357D02*
D03*
Y3672D02*
D03*
Y3987D02*
D03*
X-4128Y4002D02*
D03*
Y3687D02*
D03*
Y3372D02*
D03*
Y3057D02*
D03*
Y2743D02*
D03*
Y2428D02*
D03*
Y2113D02*
D03*
Y1798D02*
D03*
X-7672Y4002D02*
D03*
Y3687D02*
D03*
Y3372D02*
D03*
Y3057D02*
D03*
Y2743D02*
D03*
Y2428D02*
D03*
Y2113D02*
D03*
Y1798D02*
D03*
G54D73*
X1102Y-6328D02*
D03*
X787D02*
D03*
X472D02*
D03*
X157D02*
D03*
X-157D02*
D03*
X-472D02*
D03*
X-787D02*
D03*
X-1102D02*
D03*
Y-9872D02*
D03*
X-787D02*
D03*
X-472D02*
D03*
X-157D02*
D03*
X157D02*
D03*
X472D02*
D03*
X787D02*
D03*
X1102D02*
D03*
X4884Y4657D02*
D03*
X5199D02*
D03*
X5514D02*
D03*
X5829D02*
D03*
X6144D02*
D03*
X6459D02*
D03*
X6774D02*
D03*
X7089D02*
D03*
X4884Y1113D02*
D03*
X5199D02*
D03*
X5514D02*
D03*
X5829D02*
D03*
X6144D02*
D03*
X6459D02*
D03*
X6774D02*
D03*
X7089D02*
D03*
X-4798Y4672D02*
D03*
X-5113D02*
D03*
X-5428D02*
D03*
X-5743D02*
D03*
X-6057D02*
D03*
X-6372D02*
D03*
X-6687D02*
D03*
X-7002D02*
D03*
Y1128D02*
D03*
X-6687D02*
D03*
X-6372D02*
D03*
X-6057D02*
D03*
X-5743D02*
D03*
X-5428D02*
D03*
X-5113D02*
D03*
X-4798D02*
D03*
G54D74*
X-1890Y-4500D02*
D03*
X1890D02*
D03*
X-7640Y7200D02*
D03*
X-3860D02*
D03*
G54D75*
X6776Y-7033D02*
D03*
X7031D02*
D03*
X7287D02*
D03*
X7543D02*
D03*
X7799D02*
D03*
X8055D02*
D03*
X8311D02*
D03*
X8567D02*
D03*
X8823D02*
D03*
X9079D02*
D03*
X9335D02*
D03*
X9591D02*
D03*
X9846D02*
D03*
X10102D02*
D03*
X6776Y-4316D02*
D03*
X7031D02*
D03*
X7287D02*
D03*
X7543D02*
D03*
X7799D02*
D03*
X8055D02*
D03*
X8311D02*
D03*
X8567D02*
D03*
X8823D02*
D03*
X9079D02*
D03*
X9335D02*
D03*
X9591D02*
D03*
X9846D02*
D03*
X10102D02*
D03*
G54D76*
X4178Y7200D02*
D03*
X7722D02*
D03*
G54D77*
X-4054Y5550D02*
D03*
X-3346D02*
D03*
G54D78*
X-5676Y-12396D02*
D03*
X-6124Y-13404D02*
D03*
G54D79*
X11923Y6624D02*
D03*
X12877Y7176D02*
D03*
G54D80*
X14002Y7830D02*
D03*
X13677Y8370D02*
D03*
G54D81*
X11793Y-10838D02*
D03*
X12207Y-10362D02*
D03*
G54D82*
X-3091Y15729D02*
D03*
X-3709Y15609D02*
D03*
G54D83*
X-2565Y13357D02*
D03*
X-2756Y14443D02*
D03*
G54D84*
X9990Y-9231D02*
D03*
X10810Y-9969D02*
D03*
G54D85*
X-6688Y-14557D02*
D03*
X-6112Y-14813D02*
D03*
G54D86*
X-13552Y1635D02*
D03*
X-14648Y1751D02*
D03*
G54D87*
X-15917Y1914D02*
D03*
X-15961Y1286D02*
D03*
G54D88*
X-492Y6300D02*
D03*
X492D02*
D03*
G54D89*
X-616Y-450D02*
D03*
Y534D02*
D03*
X644D02*
D03*
Y-450D02*
D03*
G54D90*
X-423Y-2328D02*
D03*
Y2412D02*
D03*
G54D91*
X5400Y-8900D02*
D03*
X3000Y-11200D02*
D03*
G54D92*
X4400Y-8900D02*
D03*
X2000Y-11200D02*
D03*
G54D93*
X-9500Y-1000D02*
D03*
Y0D02*
D03*
Y1000D02*
D03*
X-10500D02*
D03*
Y0D02*
D03*
Y-1000D02*
D03*
G54D94*
X-9500Y5900D02*
D03*
Y4900D02*
D03*
Y-5900D02*
D03*
Y-4900D02*
D03*
G54D95*
Y3900D02*
D03*
Y-3900D02*
D03*
G54D96*
X-39Y-13150D02*
D03*
X10630Y7717D02*
D03*
X-10591Y7756D02*
D03*
G54D97*
X-551Y12323D02*
D03*
X-1181Y-12913D02*
D03*
G54D98*
X-12700Y9800D02*
D03*
X-13279Y9004D02*
D03*
X12700Y-9800D02*
D03*
X13279Y-9004D02*
D03*
G54D99*
X-12721Y-9796D02*
D03*
X-13300Y-9000D02*
D03*
X12721Y9796D02*
D03*
X13300Y9000D02*
D03*
G54D100*
X4500Y-15400D02*
D03*
X5436Y-15096D02*
D03*
X-5336Y15096D02*
D03*
X-4400Y15400D02*
D03*
G54D101*
X16000Y484D02*
D03*
Y-500D02*
D03*
X-16000Y500D02*
D03*
Y-484D02*
D03*
G54D102*
X5400Y15100D02*
D03*
X4464Y15404D02*
D03*
X-4464Y-15404D02*
D03*
X-5400Y-15100D02*
D03*
M02*
