M48
;Layer_Color=9474304
;FILE_FORMAT=2:4
INCH,TZ
;TYPE=PLATED
T1F00S00C0.0157
T2F00S00C0.0315
T3F00S00C0.0350
T4F00S00C0.0354
T5F00S00C0.0362
T6F00S00C0.0787
T7F00S00C0.0906
%
T01
X-6496Y-11260
X-6024Y-11496
X-5551Y-11732
X-6450Y-10050
X-6911Y-8950
X-6861Y-7350
Y-5750
Y-4150
X-8629Y-4074
Y-5674
Y-7274
Y-8874
X-4600Y-6150
X-5150Y-5100
X-4900Y-2800
X-7850Y-2200
X-10800Y-4050
X-4100Y-5600
X-3500Y-5900
Y-6500
X-2900Y-5900
X-3200Y-9250
X-3800
X-450Y-8800
X200
X800Y-9050
X900Y-8250
X0Y-8100
X700Y-7150
X2450Y-7050
X2150Y-6600
Y-5950
X2200Y-3000
X1693Y-2992
X1181
X2750Y-2250
X3300
X6900Y-3350
X7550
X8250
X9150Y-5450
X8850Y-6100
X9900
X10400
X10079Y-8071
X9646Y-8543
X9252Y-8976
X8819Y-9370
X8425Y-8583
X8700Y-7950
X6200Y-8300
Y-9400
X5950Y-7300
X5389Y-6433
X4800
X3740Y-8071
X1614Y-9803
X-394Y-11732
X-1024Y-12244
X-906Y-14173
X866
X-1654Y-2992
X-2150Y-3000
X11378Y6063
X10906Y5787
X10630Y6260
X11102Y6535
X8858Y5433
X7953Y5787
X8700Y3000
Y2480
X6459Y3659
X5609
X3268Y3071
Y4488
X4250Y5600
X1850Y6969
X1260
Y7559
X1850
X1811Y9252
X2323
X1299
X1417Y12244
X866
Y12795
X1417
X39Y11102
X-2126Y11850
X-2677
Y12402
X-2126
X-3307Y12520
X-3307Y12874
X-3661
X-4016
Y12520
X-3228Y9488
X-2677
X-2126
X-2402Y8937
X-1654Y8740
X-1024Y6772
Y6339
Y5866
X-394Y5315
X-118Y4606
X-709
X512
X-3228Y5039
X-4050Y4950
X-2795Y5551
X-3228Y6063
X-3500Y-700
X3800Y-1100
X6000Y-1400
Y-800
X8350Y-1100
X4100Y1250
X3500
X2900
X5944Y8700
X-5650Y8750
X-5827Y11063
X-6378
Y11614
X-5827
X-4850Y5600
X-4950Y2750
X-5750Y2550
Y3250
X-6550Y3750
X-7953Y5197
Y5748
X-11400Y4850
Y4200
Y2874
Y2244
X-12717
X-12795Y1772
X-12874Y1299
X-12913Y787
X-8900Y-1500
X-7850Y-1250
X-7400Y-250
X-5150Y-295
X-5100Y-745
Y-1495
X945Y14173
T02
X-492Y6300
X492
T03
X-10500Y-1000
X-9500
Y0
Y1000
X-10500
Y0
T04
X-12721Y-9796
X-13300Y-9000
X-9500Y-5900
Y-4900
Y-3900
X-5400Y-15100
X-4464Y-15404
X4500Y-15400
X5436Y-15096
X5400Y-8900
X4400
X3000Y-11200
X2000
X12700Y-9800
X13279Y-9004
X16000Y-500
Y484
X13300Y9000
X12721Y9796
X-12700Y9800
X-13279Y9004
X-9500Y5900
Y4900
Y3900
X-16000Y500
Y-484
X-5336Y15096
X-4400Y15400
X4464Y15404
X5400Y15100
T05
X-616Y-450
Y534
X644
Y-450
T06
X-39Y-13150
X10630Y7717
X-10591Y7756
T07
X-423Y-2328
Y2412
M30
