%FSLAX24Y24*%
%MOIN*%
G70*
G01*
G75*
G04 Layer_Color=16711935*
%ADD10C,0.0070*%
%ADD11C,0.0197*%
%ADD12R,0.0091X0.0236*%
%ADD13R,0.0236X0.0091*%
%ADD14R,0.1220X0.1220*%
%ADD15R,0.0350X0.0300*%
%ADD16R,0.0300X0.0350*%
%ADD17R,0.0140X0.0800*%
%ADD18R,0.0098X0.0315*%
%ADD19R,0.0787X0.0630*%
%ADD20R,0.0157X0.0197*%
%ADD21R,0.0197X0.0157*%
%ADD22R,0.0394X0.0492*%
%ADD23R,0.0320X0.0320*%
%ADD24C,0.0080*%
%ADD25C,0.0090*%
%ADD26C,0.0100*%
%ADD27C,0.0120*%
%ADD28C,0.0200*%
%ADD29C,0.0150*%
%ADD30C,0.0060*%
%ADD31C,0.0600*%
%ADD32C,0.0700*%
%ADD33C,0.0512*%
%ADD34C,0.0900*%
%ADD35C,0.0551*%
%ADD36C,0.0250*%
%ADD37C,0.0300*%
%ADD38R,0.0394X0.0394*%
%ADD39R,0.0250X0.0400*%
%ADD40R,0.0394X0.0394*%
%ADD41R,0.0400X0.0250*%
G04:AMPARAMS|DCode=42|XSize=43mil|YSize=59mil|CornerRadius=0mil|HoleSize=0mil|Usage=FLASHONLY|Rotation=135.000|XOffset=0mil|YOffset=0mil|HoleType=Round|Shape=Rectangle|*
%AMROTATEDRECTD42*
4,1,4,0.0361,0.0057,-0.0057,-0.0361,-0.0361,-0.0057,0.0057,0.0361,0.0361,0.0057,0.0*
%
%ADD42ROTATEDRECTD42*%

%ADD43C,0.0250*%
%ADD44R,0.0343X0.0494*%
%ADD45R,0.0280X0.0540*%
%ADD46R,0.0720X0.0910*%
%ADD47R,0.0390X0.0580*%
%ADD48R,0.0900X0.0270*%
%ADD49R,0.0852X0.0273*%
%ADD50R,0.0533X0.0468*%
%ADD51R,0.0430X0.0340*%
%ADD52R,0.0200X0.0199*%
%ADD53R,0.2460X0.0890*%
%ADD54R,0.0710X0.0580*%
%ADD55R,0.0990X0.0600*%
%ADD56R,0.0680X0.0570*%
%ADD57R,0.0630X0.0540*%
%ADD58R,0.0700X0.0210*%
%ADD59R,0.0350X0.0165*%
%ADD60R,0.0069X0.0095*%
%ADD61R,0.0570X0.0270*%
%ADD62R,0.0583X0.0462*%
%ADD63R,0.0570X0.0870*%
%ADD64C,0.0449*%
%ADD65R,0.0131X0.0276*%
%ADD66R,0.0276X0.0131*%
%ADD67R,0.1260X0.1260*%
%ADD68R,0.0390X0.0340*%
%ADD69R,0.0340X0.0390*%
%ADD70R,0.0180X0.0840*%
%ADD71R,0.0138X0.0355*%
%ADD72R,0.0827X0.0670*%
%ADD73R,0.0197X0.0237*%
%ADD74R,0.0237X0.0197*%
%ADD75R,0.0434X0.0532*%
%ADD76R,0.0360X0.0360*%
%ADD77C,0.0640*%
%ADD78C,0.0040*%
%ADD79C,0.0740*%
%ADD80C,0.0552*%
%ADD81C,0.0940*%
%ADD82C,0.0591*%
%ADD83C,0.0290*%
%ADD84C,0.0340*%
%ADD85R,0.0434X0.0434*%
%ADD86R,0.0290X0.0440*%
%ADD87R,0.0434X0.0434*%
%ADD88R,0.0440X0.0290*%
G04:AMPARAMS|DCode=89|XSize=47mil|YSize=63mil|CornerRadius=0mil|HoleSize=0mil|Usage=FLASHONLY|Rotation=135.000|XOffset=0mil|YOffset=0mil|HoleType=Round|Shape=Rectangle|*
%AMROTATEDRECTD89*
4,1,4,0.0389,0.0057,-0.0057,-0.0389,-0.0389,-0.0057,0.0057,0.0389,0.0389,0.0057,0.0*
%
%ADD89ROTATEDRECTD89*%

G54D64*
X104964Y82910D02*
G03*
X104964Y82910I-224J0D01*
G01*
X99254Y82480D02*
G03*
X99254Y82480I-224J0D01*
G01*
X105074Y77350D02*
G03*
X105074Y77350I-224J0D01*
G01*
G54D68*
X96700Y77980D02*
D03*
Y78580D02*
D03*
X100070Y83490D02*
D03*
Y84090D02*
D03*
X105060Y78680D02*
D03*
Y78080D02*
D03*
X106170Y80200D02*
D03*
Y79600D02*
D03*
X103490Y75590D02*
D03*
Y74990D02*
D03*
X103010Y75600D02*
D03*
Y75000D02*
D03*
X103100Y78650D02*
D03*
Y78050D02*
D03*
X97340Y78590D02*
D03*
Y77990D02*
D03*
X102240Y80570D02*
D03*
Y81170D02*
D03*
G54D69*
X95760Y77630D02*
D03*
X95160D02*
D03*
X105670Y78950D02*
D03*
X106270D02*
D03*
X105590Y79680D02*
D03*
X104990D02*
D03*
X106090Y80820D02*
D03*
X105490D02*
D03*
X100480Y80960D02*
D03*
X99880D02*
D03*
X95420Y76280D02*
D03*
X96020D02*
D03*
X95390Y76950D02*
D03*
X95990D02*
D03*
X103180Y80630D02*
D03*
X103780D02*
D03*
X104430Y81150D02*
D03*
X105030D02*
D03*
G54D76*
X105580Y78100D02*
D03*
X105980Y77230D02*
D03*
X106380Y78100D02*
D03*
G54D77*
X106000Y74580D02*
D03*
X96120D02*
D03*
X101060Y84290D02*
D03*
G54D78*
X105940Y82580D02*
D03*
X94890Y80500D02*
D03*
X103000Y71810D02*
D03*
X95030Y80830D02*
D03*
X95170Y81130D02*
D03*
X103300Y71910D02*
D03*
X103600Y72030D02*
D03*
X103920Y72170D02*
D03*
X106150Y82350D02*
D03*
X106520Y81860D02*
D03*
X106340Y82100D02*
D03*
G54D79*
X103092Y83588D02*
D03*
X103858Y82946D02*
D03*
X98251Y82959D02*
D03*
X99018Y83602D02*
D03*
G54D80*
X100550Y71969D02*
D03*
X101550Y71951D02*
D03*
G54D81*
X101060Y83470D02*
D03*
Y75400D02*
D03*
G54D82*
X96632Y80848D02*
D03*
X96290Y79908D02*
D03*
X95948Y78968D02*
D03*
X95008Y79310D02*
D03*
X95350Y80250D02*
D03*
X95692Y81190D02*
D03*
G54D83*
X96330Y78019D02*
D03*
X96000Y78340D02*
D03*
X95680Y78300D02*
D03*
X100250Y76060D02*
D03*
X100000Y76310D02*
D03*
X97280Y80750D02*
D03*
X97100Y81350D02*
D03*
X103420Y81170D02*
D03*
X100620Y82220D02*
D03*
X104690Y80100D02*
D03*
X98340Y73530D02*
D03*
X100830Y80710D02*
D03*
X100950Y82450D02*
D03*
X101230Y82630D02*
D03*
X100950Y82800D02*
D03*
X105010Y80373D02*
D03*
X100530Y74170D02*
D03*
X99340Y73690D02*
D03*
X101740Y76750D02*
D03*
X103190Y76790D02*
D03*
X104300Y79320D02*
D03*
X104580Y79090D02*
D03*
X102720Y79980D02*
D03*
X102550Y79400D02*
D03*
X105150Y76570D02*
D03*
X103980Y79230D02*
D03*
X103640Y79520D02*
D03*
X102280Y79400D02*
D03*
X105490Y81240D02*
D03*
X105417Y80130D02*
D03*
X105630Y80370D02*
D03*
X102870Y81230D02*
D03*
X103220Y74690D02*
D03*
X100410Y78580D02*
D03*
X101810Y80440D02*
D03*
X102060Y78450D02*
D03*
X101700Y78290D02*
D03*
X101500Y78550D02*
D03*
X101330Y78300D02*
D03*
X100540Y78850D02*
D03*
X100790Y78570D02*
D03*
X100560Y78280D02*
D03*
X98769Y81145D02*
D03*
X98400Y81600D02*
D03*
X100350Y82120D02*
D03*
X98000Y82180D02*
D03*
X97860Y81890D02*
D03*
X98581Y79760D02*
D03*
X100100Y79800D02*
D03*
X98690Y80230D02*
D03*
X98210Y80010D02*
D03*
X98070Y78430D02*
D03*
X98680Y79090D02*
D03*
X99570Y79065D02*
D03*
X99580Y78350D02*
D03*
X98700Y78220D02*
D03*
X98760Y77900D02*
D03*
X99185Y77440D02*
D03*
X98350Y81900D02*
D03*
X98790Y80550D02*
D03*
X97340Y79930D02*
D03*
X97210Y80350D02*
D03*
X95770Y79720D02*
D03*
X98300Y77330D02*
D03*
X101020Y80900D02*
D03*
X97660Y79930D02*
D03*
X97730Y78440D02*
D03*
X96840Y79160D02*
D03*
X97520Y83300D02*
D03*
X101070Y71910D02*
D03*
X96650Y82480D02*
D03*
X100270Y74950D02*
D03*
X97060Y81970D02*
D03*
X95670Y75800D02*
D03*
X96500Y75690D02*
D03*
X96230Y75500D02*
D03*
X96760Y76450D02*
D03*
X96980Y74160D02*
D03*
X97890Y74320D02*
D03*
X97960Y77250D02*
D03*
X97560Y77210D02*
D03*
X97200Y77230D02*
D03*
X95890Y75360D02*
D03*
X98210Y72550D02*
D03*
X99180Y72640D02*
D03*
X100950Y81560D02*
D03*
X101410Y81550D02*
D03*
X99000Y73110D02*
D03*
G54D84*
X95260Y78610D02*
D03*
X95022Y79825D02*
D03*
X105480Y81770D02*
D03*
X105220Y82010D02*
D03*
G54D85*
X104040Y79791D02*
D03*
X104414Y78689D02*
D03*
X103666D02*
D03*
X101840Y78929D02*
D03*
X101466Y80031D02*
D03*
X102214D02*
D03*
G54D86*
X97910Y80360D02*
D03*
X98284D02*
D03*
X97536Y79415D02*
D03*
X98284D02*
D03*
X97536Y80360D02*
D03*
X100120Y81680D02*
D03*
X99746D02*
D03*
X100494Y82625D02*
D03*
X99746D02*
D03*
X100494Y81680D02*
D03*
G54D87*
X97828Y81810D02*
D03*
X98400D02*
D03*
X103422Y82240D02*
D03*
X102850D02*
D03*
G54D88*
X99730Y79800D02*
D03*
Y80174D02*
D03*
X100675Y79426D02*
D03*
Y80174D02*
D03*
X99730Y79426D02*
D03*
G54D89*
X97532Y82447D02*
D03*
X96697Y81613D02*
D03*
X96280Y82030D02*
D03*
X97114Y82864D02*
D03*
M02*
