M48
;Layer_Color=9474304
;FILE_FORMAT=2:4
INCH,TZ
;TYPE=PLATED
T1F00S00C0.0150
T2F00S00C0.0236
T3F00S00C0.0350
T4F00S00C0.0600
%
T01
X98210Y72550
X99180Y72640
X99000Y73110
X99340Y73690
X98340Y73530
X97890Y74320
X96980Y74160
X96500Y75690
X96230Y75500
X95890Y75360
X95670Y75800
X96760Y76450
X97200Y77230
X97560Y77210
X97960Y77250
X98300Y77330
X99185Y77440
X98760Y77900
X96330Y78019
X100000Y76310
X100250Y76060
X100270Y74950
X100530Y74170
X101070Y71910
X103000Y71810
X103300Y71910
X103600Y72030
X103920Y72170
X103220Y74690
X103190Y76790
X101740Y76750
X105150Y76570
X104580Y79090
X104300Y79320
X103980Y79230
X103640Y79520
X102550Y79400
X102280
X102720Y79980
X101810Y80440
X100830Y80710
X101020Y80900
X100950Y81560
X101410Y81550
X101230Y82630
X100950Y82800
Y82450
X100620Y82220
X100350Y82120
X98350Y81900
X98400Y81600
X98769Y81145
X98790Y80550
X98690Y80230
X98581Y79760
X98210Y80010
X97660Y79930
X97340
X97210Y80350
X97280Y80750
X97100Y81350
X97060Y81970
X97860Y81890
X98000Y82180
X97520Y83300
X96650Y82480
X95170Y81130
X95030Y80830
X94890Y80500
X95022Y79825
X95770Y79720
X95680Y78300
X96000Y78340
X95260Y78610
X96840Y79160
X97730Y78440
X98070Y78430
X98700Y78220
X98680Y79090
X99570Y79065
X99580Y78350
X100560Y78280
X100410Y78580
X100790Y78570
X100540Y78850
X101500Y78550
X101330Y78300
X101700Y78290
X102060Y78450
X100100Y79800
X102870Y81230
X103420Y81170
X105490Y81240
X105480Y81770
X105220Y82010
X106340Y82100
X106520Y81860
X106150Y82350
X105940Y82580
X105630Y80370
X105417Y80130
X105010Y80373
X104690Y80100
T02
X100550Y71969
X101550Y71951
T03
X96120Y74580
X106000
X103858Y82946
X103092Y83588
X101060Y84290
X99018Y83602
X98251Y82959
X96632Y80848
X95692Y81190
X95350Y80250
X95008Y79310
X95948Y78968
X96290Y79908
T04
X101060Y75400
Y83470
M30
