%FSLAX24Y24*%
%MOIN*%
G70*
G01*
G75*
G04 Layer_Physical_Order=1*
G04 Layer_Color=255*
%ADD10C,0.0070*%
%ADD11C,0.0197*%
%ADD12R,0.0091X0.0236*%
%ADD13R,0.0236X0.0091*%
%ADD14R,0.1220X0.1220*%
%ADD15R,0.0350X0.0300*%
%ADD16R,0.0300X0.0350*%
%ADD17R,0.0140X0.0800*%
%ADD18R,0.0098X0.0315*%
%ADD19R,0.0787X0.0630*%
%ADD20R,0.0157X0.0197*%
%ADD21R,0.0197X0.0157*%
%ADD22R,0.0394X0.0492*%
%ADD23R,0.0320X0.0320*%
%ADD24C,0.0080*%
%ADD25C,0.0090*%
%ADD26C,0.0100*%
%ADD27C,0.0120*%
%ADD28C,0.0200*%
%ADD29C,0.0150*%
%ADD30C,0.0060*%
%ADD31C,0.0600*%
%ADD32C,0.0700*%
%ADD33C,0.0512*%
%ADD34C,0.0900*%
%ADD35C,0.0551*%
%ADD36C,0.0250*%
%ADD37C,0.0300*%
G54D10*
X95148Y80048D02*
G03*
X95022Y79825I337J-337D01*
G01*
X96230Y77990D02*
X96280Y77814D01*
X96330Y78000D01*
X96251Y77709D02*
X96280Y77814D01*
X96280Y77814D02*
X96590Y78060D01*
X96280Y77814D02*
X96310Y77860D01*
X96588Y78087D01*
X96660Y78090D01*
X96380Y78080D02*
X96588Y78087D01*
X96660Y78090D02*
X96918Y78152D01*
X96330Y78000D02*
X96918Y78152D01*
X95890Y78470D02*
X95910Y78318D01*
X95890Y78470D02*
X96110Y78430D01*
X95830Y78510D02*
X96110Y78430D01*
X95830Y78510D02*
X96000Y78340D01*
X95567Y78773D02*
X95830Y78510D01*
X95590Y78150D02*
Y78300D01*
Y78150D02*
X95840Y78170D01*
X95660Y78190D02*
X95840Y78170D01*
X95660Y78190D02*
X95840Y78170D01*
X96000Y78010D01*
X95680Y78330D02*
X95840Y78170D01*
X96460Y79003D02*
X96798Y78664D01*
X97035D01*
X97461Y79090D01*
X96413Y78428D02*
X96996D01*
X96230Y78245D02*
X96413Y78428D01*
X96230Y78245D02*
Y78245D01*
X96996Y78428D02*
X97519Y78950D01*
X95700Y77715D02*
X96230Y78245D01*
X95700Y77230D02*
Y77715D01*
X96460Y79003D02*
Y79342D01*
X95969Y79349D02*
X96101Y79481D01*
X96237D01*
X96266Y79510D01*
X96430D01*
X96330Y78019D02*
Y78080D01*
Y78000D02*
Y78080D01*
X96000Y78340D02*
Y78400D01*
X96309Y77569D02*
X96497D01*
X96000Y77260D02*
X96309Y77569D01*
X95567Y78773D02*
Y79126D01*
X95680Y78300D02*
Y78350D01*
Y78330D02*
Y78350D01*
X95005Y78716D02*
X95174Y78884D01*
X95005Y78504D02*
Y78716D01*
X95260Y78340D02*
X95390Y78580D01*
X95160Y78540D02*
X95260Y78340D01*
X95160Y78540D02*
X95260Y78340D01*
Y78610D01*
Y78070D02*
Y78340D01*
X95010Y77520D02*
Y78499D01*
X95005Y78504D02*
X95010Y78499D01*
X95174Y78884D02*
Y78910D01*
X95408Y79145D01*
X96000Y78370D02*
Y78400D01*
Y76910D02*
Y77260D01*
X96497Y77569D02*
X96558Y77631D01*
X100040Y76240D02*
X100220Y76310D01*
X100010Y76420D02*
X100220Y76310D01*
X100010Y76420D02*
X100220Y76310D01*
X100400D01*
X100000D02*
X100220D01*
X100250Y75900D02*
X100380Y76010D01*
X100140Y76020D02*
X100250Y75900D01*
X100140Y76020D02*
X100250Y75890D01*
Y76060D01*
X100270Y74783D02*
X100360Y74880D01*
X100200D02*
X100270Y74783D01*
X100200Y74880D02*
X100209Y74721D01*
X100270Y74783D01*
X100027Y74540D02*
X100209Y74721D01*
X100270Y74783D02*
Y74950D01*
X100160Y75443D02*
Y75673D01*
X100250Y75763D01*
X100067Y75350D02*
X100160Y75443D01*
X100250Y75763D02*
Y76060D01*
X100400Y76310D02*
X100653Y76563D01*
X99470Y76350D02*
Y76633D01*
X99362Y76242D02*
X99470Y76350D01*
X99185Y76685D02*
X99330Y76540D01*
Y76439D02*
Y76540D01*
X99085Y76439D02*
X99330D01*
X99185Y76685D02*
Y77190D01*
X99085Y76242D02*
X99362D01*
X99415Y76688D02*
X99470Y76633D01*
X99415Y76688D02*
Y76722D01*
Y78090D01*
X99240Y78265D02*
X99415Y78090D01*
X99037Y78265D02*
X99240D01*
X98757Y78545D02*
X99037Y78265D01*
X97350Y80950D02*
X97410Y80790D01*
X97280Y80920D02*
X97410Y80790D01*
X97190D02*
X97280Y80920D01*
X98260Y80790D02*
X98420Y80630D01*
X97750Y80790D02*
X98260D01*
X97280Y80920D02*
X97750Y81390D01*
X97280Y80750D02*
Y80920D01*
X96670Y81248D02*
X98251Y82829D01*
X98632Y77055D02*
X98730Y77153D01*
X98829Y76849D02*
X98933Y76953D01*
Y77629D01*
X98843Y77719D02*
X98933Y77629D01*
X98829Y76695D02*
Y76849D01*
X96982Y81758D02*
X97170Y81950D01*
X96982Y81758D02*
X96990Y81830D01*
X96940Y81980D02*
X96990Y81830D01*
X96940Y81980D02*
X96982Y81758D01*
X97060Y81836D01*
X96612Y81388D02*
X96982Y81758D01*
X97060Y81836D02*
Y81970D01*
X96436Y81388D02*
X96612D01*
X96160Y81112D02*
X96436Y81388D01*
X96132Y81112D02*
X96160D01*
X100715Y79975D02*
Y80269D01*
X100020Y79280D02*
X100715Y79975D01*
X101005Y79855D02*
Y80148D01*
X100020Y78870D02*
X101005Y79855D01*
X99856Y79445D02*
X100020Y79280D01*
X99413Y79445D02*
X99856D01*
X99870Y79020D02*
X100020Y78870D01*
X104170Y79863D02*
X105010D01*
X105038Y79972D02*
X105129Y80062D01*
X105038Y79892D02*
Y79972D01*
X105010Y79863D02*
X105038Y79892D01*
X103975Y80058D02*
X104170Y79863D01*
X103378Y80058D02*
X103975D01*
X102935Y80500D02*
X103378Y80058D01*
X105613Y79570D02*
X105803Y79760D01*
X105007Y79570D02*
X105613D01*
X104043Y79573D02*
X104687D01*
X103849Y79768D02*
X104043Y79573D01*
X103404Y79768D02*
X103849D01*
X98210Y73480D02*
X98280Y73680D01*
X98400Y73610D01*
X98280Y73670D02*
X98400Y73610D01*
X98280Y73670D02*
X98330Y73420D01*
X98180Y73450D02*
X98330Y73420D01*
X98180Y73450D02*
X98280Y73550D01*
X98000Y73270D02*
X98180Y73450D01*
X98435Y73895D02*
Y74805D01*
Y73895D02*
X98570Y73760D01*
X98280Y73550D02*
X98340Y73530D01*
X95089Y80034D02*
X95110Y80320D01*
X95089Y80034D02*
X95350Y80250D01*
X94940Y79910D02*
X95089Y80034D01*
X95157Y79978D02*
X95380Y80230D01*
X95022Y79825D02*
X95157Y79978D01*
X95192Y79925D02*
X95470Y80040D01*
X95192Y79925D02*
X95380Y80230D01*
X95090Y79760D02*
X95192Y79925D01*
X96011Y79629D02*
X96230Y79690D01*
X96011Y79629D02*
X96050Y79980D01*
X96011Y79629D02*
X96056Y79674D01*
X95871Y79489D02*
X96011Y79629D01*
X105620Y80510D02*
X105730Y80410D01*
X105480Y80360D02*
X105620Y80510D01*
X105480Y80360D02*
X105600Y80310D01*
X105480Y80360D02*
X105620D01*
X105322D02*
X105480D01*
X101632Y72685D02*
X102068D01*
X101570Y72747D02*
X101632Y72685D01*
X101570Y72747D02*
Y72785D01*
X101346D02*
X101570D01*
X100260Y78640D02*
X100300Y78570D01*
X100260Y78640D02*
X100570Y78690D01*
X100170Y78640D02*
X100570Y78690D01*
X100170Y78640D02*
X100380Y78490D01*
X100170Y78640D02*
X100486D01*
X99975D02*
X100170D01*
X99600Y78975D02*
X99770Y79020D01*
X99630Y79140D02*
X99770Y79020D01*
X99870D01*
X99615D02*
X99770D01*
X98730Y79130D02*
X98840Y79080D01*
X98700Y78980D02*
X98840Y79080D01*
X98700Y78980D02*
X98900Y79090D01*
X98979D01*
X98680D02*
X98900D01*
X100130Y74950D02*
X100210Y75050D01*
X100130Y74950D02*
X100240Y74820D01*
X100130Y74950D02*
X100270D01*
X100027D02*
X100130D01*
X99000Y73330D02*
X99110Y73130D01*
X98900D02*
X99000Y73330D01*
Y73110D02*
Y73600D01*
X99090Y77420D02*
X99185Y77190D01*
X99275Y77420D01*
X99185Y77190D02*
X99275Y77420D01*
X99185Y77190D02*
Y77440D01*
X98843Y77719D02*
X98870Y77890D01*
X98700Y78399D02*
X98790Y78250D01*
X98670Y78290D02*
X98700Y78399D01*
X98624D02*
X98670Y78290D01*
X98605Y78230D02*
X98624Y78399D01*
X98000Y78350D02*
X98210Y78285D01*
X97963Y78533D02*
X98100Y78480D01*
X97963Y78533D02*
X97978Y78370D01*
X97963Y78533D02*
X98210Y78285D01*
X97825Y78670D02*
X97963Y78533D01*
X98340Y77240D02*
X98435Y77065D01*
X98380Y77420D02*
X98435Y77065D01*
X98210Y77460D02*
X98380Y77420D01*
X98210Y77460D02*
Y78090D01*
Y77290D02*
Y77460D01*
X97560Y77210D02*
X97640Y77030D01*
X97560Y77210D02*
X97670Y77200D01*
X97648Y77002D02*
X97670Y77200D01*
X97160Y77140D02*
X97330Y77100D01*
X97290Y77260D02*
X97330Y77100D01*
X97290Y77260D02*
X97330Y77100D01*
X97451Y76979D01*
X97200Y77230D02*
X97330Y77100D01*
X97790Y74320D02*
X97845Y74540D01*
X97950Y74400D01*
X97845Y74540D02*
X97950Y74400D01*
X97845Y74540D02*
Y74805D01*
Y74365D02*
Y74540D01*
X96980Y74160D02*
X97050Y74020D01*
X96980Y74160D02*
X97070D01*
X97065Y73955D02*
X97070Y74160D01*
X97065Y73955D02*
X97440Y73580D01*
X96980Y74040D02*
X97065Y73955D01*
X95970Y75410D02*
X96158Y75265D01*
X95970Y75410D02*
X96060Y75265D01*
X96404D01*
X95958D02*
X96060D01*
X96230Y75410D02*
X96450Y75455D01*
X97195D01*
X96380D02*
X96450D01*
X96290Y75570D02*
X96380Y75455D01*
X96275D02*
X96380D01*
X95720Y75730D02*
X95790Y75920D01*
X95720Y75730D02*
X95890Y75920D01*
X95620Y75890D02*
X95890Y75920D01*
X95620Y75890D02*
X95790Y75920D01*
X96760Y76450D02*
X96896Y76346D01*
X96710Y76370D02*
X96886Y76356D01*
X96710Y76370D02*
X97000Y76242D01*
X96720Y76400D02*
X97000Y76242D01*
X96056Y79674D02*
X96070Y79870D01*
X96056Y79674D02*
X96240Y79690D01*
X96056Y79674D02*
X96290Y79908D01*
X95090Y79760D02*
X95350Y80250D01*
X98760Y80480D02*
X98925Y80415D01*
X98880Y80580D02*
X98925Y80415D01*
X98975Y80365D01*
X98790Y80550D02*
X98925Y80415D01*
X97060Y81970D02*
X97080Y81880D01*
X96560Y82540D02*
X96650Y82622D01*
X96560Y82540D02*
X96745Y82671D01*
X96789Y82761D01*
X96650Y82480D02*
X96745Y82671D01*
X96740Y82440D02*
X96789Y82761D01*
X97284Y83255D02*
X97530Y83200D01*
X97229Y83201D02*
X97530Y83200D01*
X97229Y83201D02*
X97328Y83300D01*
X96650Y82622D02*
X97229Y83201D01*
X105803Y79760D02*
X106180Y80137D01*
Y80390D01*
X106307Y78796D02*
X106404Y78893D01*
X106587D01*
X105803Y79760D02*
X106138Y79425D01*
X106587Y78893D02*
X106670Y78977D01*
Y79363D01*
X106608Y79425D02*
X106670Y79363D01*
X106138Y79425D02*
X106608D01*
X98757Y78545D02*
X98848Y78453D01*
X98688Y78545D02*
X98757D01*
X98143Y79090D02*
X98688Y78545D01*
X97941Y78950D02*
X98091Y78800D01*
X98223D01*
X98624Y78399D01*
X98700D01*
X98300Y78393D02*
X98323Y78370D01*
X98465Y78180D02*
Y78308D01*
X98403Y78370D02*
X98465Y78308D01*
X98323Y78370D02*
X98403D01*
X98300Y78393D02*
Y78525D01*
X98165Y78660D02*
X98300Y78525D01*
X98033Y78660D02*
X98165D01*
X97883Y78810D02*
X98033Y78660D01*
X95654Y75072D02*
X95742Y74985D01*
X95800Y75125D02*
X95894D01*
X95894Y75125D01*
X96404Y75265D02*
X96411Y75258D01*
X99000Y73590D02*
X99385Y73205D01*
X100925D01*
X101346Y72785D01*
X105620Y80360D02*
X105630Y80370D01*
X105187Y80225D02*
X105322Y80360D01*
X105187Y80105D02*
Y80225D01*
X105137Y80054D02*
X105187Y80105D01*
X101406Y80960D02*
X102235D01*
X102200Y80585D02*
X102575Y80210D01*
X101990Y80585D02*
X102200D01*
X101905Y80670D02*
X101990Y80585D01*
X102235Y80960D02*
X102695Y80500D01*
X102935D01*
X102575Y80210D02*
X102815D01*
X102950Y80075D01*
X99828Y80770D02*
X100485D01*
X101180Y81645D02*
X101315Y81780D01*
X101505D01*
X105620Y80360D02*
X105630Y80370D01*
Y80760D01*
X105600Y80790D02*
X105630Y80760D01*
X98420Y80630D02*
Y80700D01*
X99423Y80365D02*
X99828Y80770D01*
X97270Y79530D02*
X98777D01*
X98927Y79380D01*
X99348D01*
X99413Y79445D01*
X97461Y79090D02*
X98143D01*
X98979D02*
X99235Y78835D01*
X99780D01*
X99570Y79065D02*
X99615Y79020D01*
X98465Y77772D02*
Y78308D01*
X98700Y78220D02*
Y78399D01*
X99780Y78835D02*
X99975Y78640D01*
X98760Y77803D02*
X98843Y77719D01*
X98760Y77803D02*
Y77900D01*
X98210Y78090D02*
Y78285D01*
X96494Y81248D02*
X96670D01*
X96251Y81005D02*
X96494Y81248D01*
X96251Y80683D02*
Y81005D01*
Y80683D02*
X96810Y80124D01*
Y79692D02*
Y80124D01*
X96091Y80644D02*
X96670Y80066D01*
Y79750D02*
Y80066D01*
X96430Y79510D02*
X96670Y79750D01*
X96460Y79342D02*
X96810Y79692D01*
X96091Y80644D02*
Y81071D01*
X97519Y78950D02*
X97941D01*
X95790Y79349D02*
X95969D01*
X95732Y79489D02*
X95871D01*
X95408Y79165D02*
X95732Y79489D01*
X97577Y78810D02*
X97883D01*
X96918Y78152D02*
X97577Y78810D01*
X97635Y78670D02*
X97825D01*
X96596Y77631D02*
X97635Y78670D01*
X96558Y77631D02*
X96596D01*
X96650Y82480D02*
Y82622D01*
X97328Y83300D02*
X97520D01*
X96091Y81071D02*
X96132Y81112D01*
X95567Y79126D02*
X95790Y79349D01*
X95408Y79145D02*
Y79165D01*
X104610Y74090D02*
X105180D01*
X104390Y73870D02*
X104610Y74090D01*
X104390Y73470D02*
Y73870D01*
X104300Y73380D02*
X104390Y73470D01*
X103978Y73380D02*
X104300D01*
X103950Y74690D02*
X105180D01*
X103722Y74462D02*
X103950Y74690D01*
X105190Y74700D02*
Y75200D01*
X105180Y74690D02*
X105190Y74700D01*
X103722Y73880D02*
Y74462D01*
X103978Y73380D02*
Y73620D01*
X103840Y73380D02*
X103978D01*
X100007Y74930D02*
X100027Y74950D01*
X96990Y81970D02*
X97060D01*
X98465Y77772D02*
X98730Y77507D01*
X95840Y77298D02*
X96251Y77709D01*
X95840Y76727D02*
Y77298D01*
Y76727D02*
X95902Y76665D01*
X96338D01*
X96497Y76823D01*
Y77215D01*
X96700Y77418D01*
Y77447D01*
X100486Y78640D02*
X100706Y78420D01*
X95670Y75800D02*
X95790Y75920D01*
X96595D01*
X96667Y75848D01*
X97195D01*
X96230Y75500D02*
X96275Y75455D01*
X100319Y72200D02*
X100550Y71969D01*
X99960Y72200D02*
X100319D01*
X98630Y74803D02*
X98632Y74805D01*
X98630Y74150D02*
Y74803D01*
Y74150D02*
X99000Y73780D01*
X96792Y76450D02*
X97000Y76242D01*
X96760Y76450D02*
X96792D01*
X97000Y76242D02*
X97195D01*
X98238Y74615D02*
X98280Y74573D01*
X98238Y74615D02*
Y74805D01*
X98280Y73550D02*
Y74573D01*
X96980Y74040D02*
Y74160D01*
X98042Y74614D02*
Y74805D01*
Y74614D02*
X98120Y74535D01*
Y74225D02*
Y74535D01*
X98000Y74105D02*
X98120Y74225D01*
X98000Y73870D02*
Y74105D01*
X97750Y73870D02*
X98000D01*
X97440Y74180D02*
X97750Y73870D01*
X97440Y74180D02*
X97648Y74388D01*
Y74805D01*
X97845Y74365D02*
X97890Y74320D01*
X100653Y76563D02*
Y76740D01*
X98140Y75750D02*
X98238Y75652D01*
Y74805D02*
Y75652D01*
X98140Y75750D02*
X98435Y76045D01*
Y76695D01*
X98042Y75848D02*
X98140Y75750D01*
X98042Y75848D02*
Y76695D01*
X98210Y77290D02*
X98435Y77065D01*
Y76695D02*
Y77065D01*
X97560Y77090D02*
Y77210D01*
Y77090D02*
X97648Y77002D01*
Y76695D02*
Y77002D01*
X97451Y76695D02*
Y76979D01*
X96700Y77093D02*
X96703Y77090D01*
X96950D01*
X96990Y77050D01*
Y76450D02*
Y77050D01*
Y76450D02*
X97001Y76439D01*
X97195D01*
X98632Y76695D02*
Y77055D01*
X98975Y80365D02*
X99423D01*
X98251Y82829D02*
Y82959D01*
X95148Y80048D02*
X95350Y80250D01*
X96411Y75258D02*
X97195D01*
X95894Y75125D02*
X96346D01*
X96410Y75061D01*
X97195D01*
X96723Y74550D02*
X97400D01*
X97451Y74601D01*
X95742Y74985D02*
X96288D01*
X96723Y74550D01*
X97451Y74601D02*
Y74805D01*
X95540Y77070D02*
X95700Y77230D01*
X95660Y75265D02*
X95800Y75125D01*
X95660Y75265D02*
Y75485D01*
X95260Y76277D02*
X95440Y76097D01*
Y75705D02*
X95660Y75485D01*
X95440Y75705D02*
Y76097D01*
X95260Y78070D02*
Y78180D01*
Y76277D02*
Y77890D01*
Y78070D01*
Y77890D02*
Y77990D01*
X95010Y77520D02*
X95120Y77410D01*
Y76219D02*
Y77410D01*
Y76219D02*
X95300Y76039D01*
Y75647D02*
Y76039D01*
Y75647D02*
X95520Y75427D01*
Y75207D02*
Y75427D01*
Y75207D02*
X95633Y75094D01*
X98905Y72880D02*
X99280D01*
X99960Y72200D01*
X99000Y73330D02*
Y73600D01*
Y73780D01*
X98570Y73215D02*
X98905Y72880D01*
X103525Y73065D02*
X103840Y73380D01*
X102448Y73065D02*
X103525D01*
X102068Y72685D02*
X102448Y73065D01*
X101685Y81600D02*
X102840D01*
X101505Y81780D02*
X101685Y81600D01*
X101527Y80670D02*
X101905D01*
X101005Y80148D02*
X101527Y80670D01*
X100715Y80269D02*
X101406Y80960D01*
X101180Y81465D02*
Y81645D01*
X100485Y80770D02*
X101180Y81465D01*
X102950Y80075D02*
X103258Y79768D01*
X103404D01*
X104687Y79573D02*
X105003D01*
X105007Y79570D01*
G54D11*
X102168Y83590D02*
G03*
X102168Y83590I-98J0D01*
G01*
X103538Y78580D02*
G03*
X103538Y78580I-98J0D01*
G01*
X96458Y81920D02*
G03*
X96458Y81920I-98J0D01*
G01*
G54D12*
X98829Y76695D02*
D03*
X98632D02*
D03*
X98435D02*
D03*
X98238D02*
D03*
X98042D02*
D03*
X97845D02*
D03*
X97648D02*
D03*
X97451D02*
D03*
X98829Y74805D02*
D03*
X98632D02*
D03*
X98435D02*
D03*
X98238D02*
D03*
X98042D02*
D03*
X97845D02*
D03*
X97648D02*
D03*
X97451D02*
D03*
G54D13*
X97195Y75061D02*
D03*
Y75258D02*
D03*
Y75455D02*
D03*
Y75652D02*
D03*
Y75848D02*
D03*
Y76045D02*
D03*
Y76242D02*
D03*
Y76439D02*
D03*
X99085Y75061D02*
D03*
Y75258D02*
D03*
Y75455D02*
D03*
Y75652D02*
D03*
Y75848D02*
D03*
Y76045D02*
D03*
Y76242D02*
D03*
Y76439D02*
D03*
G54D14*
X98140Y75750D02*
D03*
G54D15*
X97440Y73580D02*
D03*
Y74180D02*
D03*
X96120Y76320D02*
D03*
Y76920D02*
D03*
X95540Y76470D02*
D03*
Y77070D02*
D03*
X99650Y81530D02*
D03*
Y82130D02*
D03*
X97750Y81390D02*
D03*
Y80790D02*
D03*
X105180Y74690D02*
D03*
Y74090D02*
D03*
X105820Y76240D02*
D03*
Y75640D02*
D03*
X106410Y75660D02*
D03*
Y76260D02*
D03*
X105190Y75200D02*
D03*
Y75800D02*
D03*
X104730Y74690D02*
D03*
Y74090D02*
D03*
X106390Y79770D02*
D03*
Y79170D02*
D03*
X101820Y74160D02*
D03*
Y74760D02*
D03*
X98000Y73270D02*
D03*
Y73870D02*
D03*
X101850Y73540D02*
D03*
Y72940D02*
D03*
X105120Y78040D02*
D03*
Y78640D02*
D03*
X99290Y82130D02*
D03*
Y81530D02*
D03*
X106180Y80390D02*
D03*
Y80990D02*
D03*
G54D16*
X98210Y78090D02*
D03*
X97610D02*
D03*
X98210Y77700D02*
D03*
X97610D02*
D03*
X104650Y77270D02*
D03*
X104050D02*
D03*
X103840Y80570D02*
D03*
X104440D02*
D03*
X105000Y80790D02*
D03*
X105600D02*
D03*
X101400Y74160D02*
D03*
X100800D02*
D03*
X101420Y73530D02*
D03*
X100820D02*
D03*
X103020Y77270D02*
D03*
X103620D02*
D03*
X100280Y73530D02*
D03*
X99680D02*
D03*
X99360Y72200D02*
D03*
X99960D02*
D03*
X105200Y79290D02*
D03*
X105800D02*
D03*
X101260Y79930D02*
D03*
X101860D02*
D03*
X103440Y81600D02*
D03*
X102840D02*
D03*
X101270Y79420D02*
D03*
X101870D02*
D03*
X101970Y77830D02*
D03*
X102570D02*
D03*
X103840Y80990D02*
D03*
X104440D02*
D03*
G54D17*
X103978Y76080D02*
D03*
X103722D02*
D03*
X103466D02*
D03*
X103210D02*
D03*
X102954D02*
D03*
X102698D02*
D03*
X103978Y73880D02*
D03*
X103722D02*
D03*
X103466D02*
D03*
X103210D02*
D03*
X102954D02*
D03*
X102698D02*
D03*
X102442Y76080D02*
D03*
Y73880D02*
D03*
G54D18*
X106110Y77449D02*
D03*
X105913D02*
D03*
X105716D02*
D03*
X106504Y78631D02*
D03*
X106307D02*
D03*
X106110D02*
D03*
X105913D02*
D03*
X105716D02*
D03*
X106307Y77449D02*
D03*
X106504D02*
D03*
G54D19*
X106110Y78040D02*
D03*
G54D20*
X100007Y74940D02*
D03*
X99653D02*
D03*
X100027Y74540D02*
D03*
X99673D02*
D03*
X101007Y77120D02*
D03*
X100653D02*
D03*
Y76540D02*
D03*
X101007D02*
D03*
X100067Y75350D02*
D03*
X99713D02*
D03*
X100247Y75760D02*
D03*
X99893D02*
D03*
G54D21*
X98730Y77507D02*
D03*
Y77153D02*
D03*
X96700Y77093D02*
D03*
Y77447D02*
D03*
G54D22*
X100706Y77840D02*
D03*
X101414D02*
D03*
Y78420D02*
D03*
X100706D02*
D03*
G54D23*
X104990Y81570D02*
D03*
X104590Y82440D02*
D03*
X104190Y81570D02*
D03*
X99220Y80630D02*
D03*
X98820Y81500D02*
D03*
X98420Y80630D02*
D03*
G54D24*
X96605Y79063D02*
Y79282D01*
Y79063D02*
X96858Y78809D01*
X99464Y74749D02*
X99673Y74540D01*
X99464Y74749D02*
Y74786D01*
X99608Y75455D02*
X99713Y75350D01*
X99458Y75455D02*
X99608D01*
X99753Y75900D02*
X99893Y75760D01*
X99650Y75900D02*
X99753D01*
X99401Y75652D02*
X99650Y75900D01*
X99380Y75652D02*
X99401D01*
X99765Y76228D02*
Y76805D01*
X99386Y75848D02*
X99765Y76228D01*
X99615Y76290D02*
Y76693D01*
X99370Y76045D02*
X99615Y76290D01*
X99085Y76045D02*
X99370D01*
X99560Y76748D02*
X99615Y76693D01*
X99560Y76748D02*
Y78140D01*
X99710Y76860D02*
X99765Y76805D01*
X99085Y75848D02*
X99386D01*
X99710Y76860D02*
Y78043D01*
X99815Y78148D02*
Y78447D01*
X99710Y78043D02*
X99815Y78148D01*
X99573Y78690D02*
X99815Y78447D01*
X97042Y80586D02*
X97280Y80440D01*
X97042Y80586D02*
X97200Y80430D01*
X97120Y80450D02*
X97200Y80430D01*
X97110Y80320D02*
X97120Y80450D01*
X97042Y80586D02*
X97110Y80320D01*
X97100Y81130D02*
X97200Y81330D01*
X96990Y81360D02*
X97100Y81130D01*
X96990Y81360D02*
X97042Y81072D01*
Y80586D02*
Y81072D01*
Y80586D02*
X97198Y80430D01*
X97042Y81072D02*
X97100Y81130D01*
Y81350D01*
X97198Y80430D02*
X97210D01*
X100900Y75760D02*
X101007Y76040D01*
X101090Y75810D01*
X101007Y76040D02*
Y76510D01*
Y75543D02*
Y76040D01*
X100067Y79123D02*
X100860Y79915D01*
Y80209D01*
X101116Y80464D02*
X101466Y80815D01*
X102175D01*
X99796Y79300D02*
X99973Y79123D01*
X100067D01*
X103840Y80570D02*
Y80990D01*
X104450Y80008D02*
X104730D01*
X104450D02*
X104560Y80030D01*
X104640Y80170D01*
X104450Y80008D02*
X104640Y80170D01*
X104450Y80008D02*
X104598D01*
X104230D02*
X104450D01*
X102740Y80900D02*
X103438Y80203D01*
X104036D01*
X102500Y80900D02*
X102740D01*
X104036Y80203D02*
X104230Y80008D01*
X104598D02*
X104690Y80100D01*
X105197Y79842D02*
Y79909D01*
X105070Y79715D02*
X105197Y79842D01*
X105067Y79718D02*
X105070Y79715D01*
X104110Y79718D02*
X105067D01*
X103958Y79870D02*
X104110Y79718D01*
X103951Y79870D02*
X103958D01*
X103909Y79913D02*
X103951Y79870D01*
X102875Y80355D02*
X103240Y79990D01*
X95263Y79566D02*
X95330Y79480D01*
X95230Y79180D02*
X95263Y79566D01*
X95230Y79180D02*
X95370Y79566D01*
X95541D01*
X95263D02*
X95370D01*
X94990Y79550D02*
X95263Y79566D01*
X95260Y79270D02*
X95263Y79566D01*
X96520Y80650D02*
X96892Y80480D01*
Y80588D01*
Y80247D02*
Y80480D01*
X96680Y80690D02*
X96890Y80520D01*
Y80900D01*
X96892Y80588D01*
X102720Y81270D02*
X102820Y81150D01*
X102630Y81300D02*
X102820Y81150D01*
X102630Y81300D02*
X102800D01*
X102290D02*
X102630D01*
X105450Y81160D02*
X105655Y81075D01*
X105590Y81280D02*
X105655Y81075D01*
X104906Y80406D02*
X105010Y80560D01*
X105120Y80400D01*
X105010Y80560D02*
Y80780D01*
Y80373D02*
Y80560D01*
X105308Y80021D02*
X105470Y80040D01*
X105197Y79909D02*
X105470Y80040D01*
X104530Y79010D02*
X104760Y78910D01*
X104660Y79140D02*
X104760Y78910D01*
X105030Y78640D01*
X104580Y79090D02*
X104760Y78910D01*
X102570Y80010D02*
X102680Y80065D01*
X102570Y80010D02*
X102670Y79900D01*
X101380Y81450D02*
X101570Y81440D01*
X101495Y81585D02*
X101570Y81440D01*
X102150D01*
X101520D02*
X101570D01*
X100850Y81570D02*
X100950Y81560D01*
X98830Y81070D02*
X98930Y81230D01*
X98854D02*
X99020D01*
X99490Y78330D02*
X99560Y78140D01*
X99665Y78310D01*
X99560Y78140D02*
Y78370D01*
X97730Y78210D02*
X97820Y78420D01*
X97680Y78250D02*
X97730Y78210D01*
X97640Y78440D02*
X97680Y78250D01*
X97610Y78090D02*
X97640Y78440D01*
X98000Y77070D02*
X98050Y77280D01*
X98060Y77040D01*
X98140D01*
X97960D02*
X98060D01*
X97870Y77250D02*
X97895Y76975D01*
X97870Y77250D02*
X97880Y77430D01*
X97960Y77350D01*
X97610Y77700D02*
X97880Y77430D01*
X96500Y75600D02*
X96690Y75652D01*
X96590Y75726D02*
X96690Y75652D01*
X97195D01*
X96538D02*
X96690D01*
X95180Y79310D02*
X95263Y79566D01*
X95618Y79643D02*
X95700Y79770D01*
X95618Y79643D02*
X95760Y79634D01*
X95618Y79643D02*
X95695Y79720D01*
X95541Y79566D02*
X95618Y79643D01*
X106790Y77840D02*
Y78866D01*
X106815Y78891D01*
Y79424D01*
X106469Y79770D02*
X106815Y79424D01*
X106390Y79770D02*
X106469D01*
X105490Y81240D02*
X105655Y81075D01*
X106095D01*
X106180Y80990D01*
X106170Y78950D02*
X106390Y79170D01*
X106110Y78950D02*
X106170D01*
X105000Y80790D02*
X105010Y80780D01*
X98203Y79235D02*
X98748Y78690D01*
X97114Y79530D02*
X97270D01*
X96955Y79688D02*
X97114Y79530D01*
X96955Y79632D02*
Y79688D01*
X96605Y79282D02*
X96955Y79632D01*
X101007Y75543D02*
X101070Y75480D01*
X105030Y78640D02*
X105120D01*
X102295Y81105D02*
X102500Y80900D01*
X101346Y81105D02*
X102295D01*
X101141Y80900D02*
X101346Y81105D01*
X101020Y80900D02*
X101141D01*
X102150Y81440D02*
X102290Y81300D01*
X101410Y81550D02*
X101520Y81440D01*
X102175Y80815D02*
X102635Y80355D01*
X102875D01*
X100950Y81560D02*
X100970D01*
X101810Y80440D02*
X102140D01*
X102570Y80010D01*
X102650D01*
X106307Y78631D02*
Y78796D01*
X106110Y78631D02*
Y78950D01*
X105197Y79909D02*
X105417Y80130D01*
X105000Y80790D02*
X105100Y80890D01*
X102800Y81300D02*
X102870Y81230D01*
X98769Y81145D02*
X98854Y81230D01*
X99473Y79300D02*
X99796D01*
X99408Y79235D02*
X99473Y79300D01*
X98867Y79235D02*
X99408D01*
X98717Y79385D02*
X98867Y79235D01*
X97339Y79385D02*
X98717D01*
X97114Y79160D02*
X97339Y79385D01*
X96840Y79160D02*
X97114D01*
X96975Y78809D02*
X97401Y79235D01*
X98203D01*
X98748Y78690D02*
X99573D01*
X99560Y78370D02*
X99580Y78350D01*
X97100Y81350D02*
X97177D01*
X96632Y80848D02*
X96892Y80588D01*
X96955Y79688D02*
Y80184D01*
X96892Y80247D02*
X96955Y80184D01*
X97208Y80350D02*
X97210D01*
X96858Y78809D02*
X96975D01*
X95695Y79720D02*
X95770D01*
X99307Y75061D02*
X99464Y74904D01*
Y74786D02*
Y74904D01*
X99085Y75061D02*
X99307D01*
X99422Y75258D02*
X99454Y75226D01*
Y75126D02*
X99650Y74930D01*
X99653D01*
X99454Y75126D02*
Y75226D01*
X99085Y75258D02*
X99422D01*
X99085Y75455D02*
X99458D01*
X99085Y75652D02*
X99380D01*
X95008Y79310D02*
X95263Y79566D01*
X97730Y78210D02*
Y78440D01*
X97610Y78090D02*
X97730Y78210D01*
X96670Y76050D02*
X97190D01*
X95990Y76320D02*
X96245Y76065D01*
X97190Y76050D02*
X97195Y76045D01*
X96655Y76065D02*
X96670Y76050D01*
X96245Y76065D02*
X96655D01*
X95670Y76320D02*
X95990D01*
X96500Y75690D02*
X96538Y75652D01*
X100653Y76740D02*
Y77150D01*
X97960Y77040D02*
Y77350D01*
X97610Y77700D02*
Y78090D01*
X98140Y77040D02*
X98238Y76942D01*
Y76695D02*
Y76942D01*
X97845Y76925D02*
X97960Y77040D01*
X97845Y76695D02*
Y76925D01*
X95600Y76390D02*
X95670Y76320D01*
X100970Y81470D02*
Y81560D01*
X100860Y80209D02*
X101466Y80815D01*
X99020Y81230D02*
X100590D01*
X98830Y81070D02*
X98955Y81175D01*
X99020Y81230D01*
X98955Y81175D02*
X100599D01*
X100654Y81230D01*
X103240Y79990D02*
X103318Y79913D01*
X103909D01*
G54D25*
X106770Y76020D02*
Y76530D01*
X106970Y76730D01*
X106410Y75660D02*
X106770Y76020D01*
X106780Y80750D02*
X106970Y80088D01*
X106470Y81188D02*
X106780Y80750D01*
X102600Y71998D02*
X103420Y72240D01*
X101921Y71860D02*
X102600Y71998D01*
X96370Y74210D02*
X96920Y73510D01*
X103820Y83760D02*
X104247Y83411D01*
X103470Y83980D02*
X103820Y83760D01*
X103200Y84140D02*
X103470Y83980D01*
X102890Y84230D02*
X103200Y84140D01*
X102427Y84297D02*
X102890Y84230D01*
X106250Y74690D02*
X106320Y74900D01*
X106110Y74820D02*
X106320Y74900D01*
X105690Y74270D02*
X105750Y74510D01*
X105690Y74270D02*
X106070Y74340D01*
X105690Y74270D02*
X106070Y74340D01*
X105690Y74270D02*
X106000Y74580D01*
X105629Y74209D02*
X105690Y74270D01*
X101170Y71890D02*
X101179Y72105D01*
X101030Y71990D02*
X101179Y72105D01*
X101240Y84410D02*
X101520Y84297D01*
X101280Y84160D02*
X101520Y84297D01*
X101280Y84160D02*
X101520Y84297D01*
X101060Y84290D02*
X101520Y84297D01*
X96090Y74320D02*
X96370Y74210D01*
X96310Y74430D02*
X96370Y74210D01*
X96310Y74430D02*
X96370Y74210D01*
X96120Y74461D02*
X96370Y74210D01*
X101060Y84290D02*
X101067Y84297D01*
X102427D01*
X104247Y83411D02*
X106470Y81188D01*
X106970Y76730D02*
Y80088D01*
X101308Y73530D02*
X101420D01*
X106000Y74580D02*
X106410Y74990D01*
Y75660D01*
X105800Y79290D02*
X105913Y79177D01*
Y78631D02*
Y79177D01*
X101921Y71860D02*
Y72105D01*
X101704Y72322D02*
X101921Y72105D01*
X99290Y81530D02*
X99650D01*
X99260Y81500D02*
X99290Y81530D01*
X98820Y81500D02*
X99260D01*
X102440Y73400D02*
Y73878D01*
X102442Y73880D01*
X96120Y74461D02*
Y74580D01*
X101070Y71910D02*
Y71951D01*
X101179Y72060D01*
Y72105D01*
X101396Y72322D01*
X101704D01*
X105629Y73740D02*
Y74209D01*
X98829Y74461D02*
Y74805D01*
X96920Y73510D02*
X98040Y72620D01*
X98210Y72550D01*
X98040Y72620D02*
X98190Y72680D01*
X98040Y72620D02*
X98190Y72680D01*
X98040Y72620D02*
X98140Y72479D01*
X104909Y73091D02*
X105629Y73740D01*
X103940Y72479D02*
X104909Y73091D01*
X103420Y72240D02*
X103940Y72479D01*
X102160Y73400D02*
X102440D01*
G54D26*
X103510Y81210D02*
X103600Y80990D01*
X103400Y81050D02*
X103600Y80990D01*
X103840D01*
X103420Y81170D02*
X103600Y80990D01*
X100360Y82290D02*
X100630Y82300D01*
X100360Y82290D02*
X100502D01*
X100480Y82120D02*
X100680Y82160D01*
X100530Y82050D02*
X100680Y82160D01*
X100200Y82050D02*
X100530D01*
X100200D02*
X100394Y82182D01*
X100502Y82290D01*
X100220Y82150D02*
X100360Y82290D01*
X105070Y81860D02*
X105090Y82060D01*
X105070Y81860D02*
X105220Y82010D01*
X105527Y81897D01*
X105350Y81880D02*
X105527Y81897D01*
X105350Y81880D02*
X105370Y81690D01*
X105340Y81830D02*
X105370Y81690D01*
X105070Y81860D02*
X105340Y81830D01*
X105070Y81860D02*
X105220Y82010D01*
X104990Y81780D02*
X105070Y81860D01*
X105060Y76560D02*
X105190Y76800D01*
X105060Y76560D02*
X105190Y76310D01*
Y77970D01*
Y75800D02*
Y76310D01*
X104330Y79240D02*
X104480Y79335D01*
X104580D01*
X104310Y79410D02*
X104580Y79335D01*
X105155D01*
X104315D02*
X104580D01*
X103890Y79250D02*
X103970Y79040D01*
X103890Y79250D02*
X103930Y79440D01*
X104010Y79360D01*
X103830Y79540D02*
X103930Y79440D01*
X103510Y79540D02*
X103610Y79440D01*
X103640Y79430D02*
X103830Y79540D01*
X103610Y79600D02*
X103830Y79540D01*
X103420D02*
X103610Y79600D01*
X103420Y79540D02*
X103610Y79440D01*
X102770Y79540D02*
X103420D01*
X102630Y79310D02*
X102770Y79540D01*
X102260Y79310D02*
X102550Y79400D01*
X102260Y79310D02*
X102620D01*
X102260Y79480D02*
X102620Y79310D01*
X102260Y79480D02*
X102720Y79490D01*
X102770Y79540D01*
X102630Y79400D02*
X102720Y79490D01*
X103210Y76640D02*
X103290Y76780D01*
X103090D02*
X103210Y76640D01*
X103090Y76780D02*
X103210Y76610D01*
X103190Y76790D02*
X103210Y76610D01*
X103100Y76800D02*
X103190Y76790D01*
X103100Y76800D02*
X103190Y76970D01*
X103280Y76820D01*
X103190Y76970D02*
Y77100D01*
Y76790D02*
Y76970D01*
X103220Y74780D02*
X103440Y74740D01*
X103130Y74680D02*
X103440Y74740D01*
X103130Y74680D02*
X103210Y74510D01*
X101560Y76910D02*
X101810Y76820D01*
X101560Y76910D02*
X101660Y76680D01*
X101560Y76910D02*
X101730Y76740D01*
X101350Y77120D02*
X101560Y76910D01*
X101980Y80430D02*
X102040D01*
X101900Y80300D02*
X102040Y80430D01*
X101900Y80300D02*
X102050Y80430D01*
X101720Y80410D02*
X102050Y80430D01*
X101720Y80410D02*
X101860Y80240D01*
Y80390D01*
Y79930D02*
Y80240D01*
X100990Y80980D02*
X101220Y81000D01*
X100780Y80780D02*
X100990Y80980D01*
X100780Y80780D02*
X101134Y80907D01*
X100839Y80611D02*
X101134Y80907D01*
X100574Y80615D02*
X100839Y80611D01*
X100574Y80615D02*
X100790Y80790D01*
X99880Y79760D02*
X100090Y79710D01*
X99880Y79760D02*
X100060Y79870D01*
X99880Y79760D02*
X99960D01*
X98780D02*
X99880D01*
X98600Y79685D02*
X98780Y79760D01*
X98600Y79850D02*
X98780Y79760D01*
X98581D02*
X98780D01*
X100540Y74270D02*
X100740D01*
X100530Y74170D02*
X100540Y74270D01*
X100550D02*
X100680Y74170D01*
X100550Y74080D02*
X100680Y74170D01*
X100550Y74080D02*
X100800Y74160D01*
X99350Y73765D02*
X99520Y73690D01*
X99340Y73580D02*
X99520Y73690D01*
X99180Y72380D02*
X99270Y72600D01*
X99080Y72620D02*
X99180Y72380D01*
X98525Y80065D02*
X98610Y80250D01*
X98525Y80065D02*
X98710Y80160D01*
X98891Y80230D01*
X98720Y80300D02*
X98891Y80230D01*
X98240Y80090D02*
X98440Y79980D01*
X97330Y79850D02*
X97650D01*
X98105Y79930D01*
X97340D02*
Y80000D01*
X98210Y80010D01*
X97990Y82260D02*
X98245Y82275D01*
X98000Y82180D02*
X98245Y82275D01*
X97810Y81960D02*
X98000Y82180D01*
X97810Y81960D02*
X98020Y82050D01*
X97940Y81850D02*
X98020Y82050D01*
X99018Y83048D01*
X97860Y81890D02*
X98020Y82050D01*
X100220Y82150D02*
X100490Y82200D01*
X100020Y82050D02*
X100220Y82150D01*
X100020Y82050D02*
X100200D01*
X99370D02*
X100020D01*
X100200D02*
X100410D01*
X100480Y82120D01*
X100270D02*
X100480D01*
X99180Y72380D02*
X99360Y72200D01*
X99180Y72380D02*
Y72640D01*
X100790Y74170D02*
X100800Y74160D01*
X100530Y74170D02*
X100790D01*
X99340Y73690D02*
X99520D01*
X99680Y73530D01*
X100820D02*
X101410Y72940D01*
X101850D01*
X100280Y73530D02*
X100820D01*
X101007Y77120D02*
X101350D01*
X101730Y76740D02*
X101740Y76750D01*
X102570Y77720D02*
X103190Y77100D01*
X102570Y77720D02*
Y77830D01*
X103978Y76080D02*
Y76692D01*
X103950Y76720D02*
X103978Y76692D01*
X103940Y76710D02*
X103950Y76720D01*
X103720Y76710D02*
X103940D01*
X103720D02*
X103722Y76708D01*
Y76080D02*
Y76708D01*
X103620Y77270D02*
X104050D01*
X103466Y77116D02*
X103620Y77270D01*
X103466Y76080D02*
Y77116D01*
X103190Y76790D02*
X103210Y76770D01*
Y76080D02*
Y76770D01*
X101970Y77530D02*
X102954Y76546D01*
X101414Y77840D02*
X101424Y77830D01*
X101970D01*
Y77530D02*
Y77830D01*
X102954Y76080D02*
Y76546D01*
X102440Y74970D02*
X102698Y75228D01*
X102440Y74890D02*
Y74970D01*
Y76078D02*
X102442Y76080D01*
X102310Y74760D02*
X102440Y74890D01*
X101820Y74760D02*
X102310D01*
X105155Y79335D02*
X105200Y79290D01*
X104300Y79320D02*
X104315Y79335D01*
X102280Y79400D02*
X102630D01*
X105120Y78040D02*
X105190Y77970D01*
X106297Y76620D02*
X106307Y76610D01*
X105780Y76620D02*
X106297D01*
X105716Y76684D02*
X105780Y76620D01*
X105716Y76684D02*
Y77449D01*
X105120Y78040D02*
X106110D01*
X106780Y76860D02*
X106790Y76870D01*
Y77940D01*
X106690Y78040D02*
X106790Y77940D01*
X106110Y78040D02*
X106690D01*
X106110Y77449D02*
Y78040D01*
X106620Y76860D02*
X106780D01*
X106500Y76980D02*
X106620Y76860D01*
X106500Y76980D02*
X106504Y76984D01*
Y77449D01*
X106307Y76363D02*
X106410Y76260D01*
X106307Y76363D02*
Y77449D01*
X105190Y75800D02*
X105350Y75640D01*
X105850D01*
Y76240D02*
X105870Y76260D01*
X106410D01*
X105120Y78640D02*
X105270D01*
X105590Y78960D01*
X105716Y78834D01*
Y78631D02*
Y78834D01*
X103640Y79520D02*
X103700D01*
X103720Y79540D01*
X104010Y77910D02*
X104650Y77270D01*
X104010Y77910D02*
Y79360D01*
X104160Y81600D02*
X104190Y81570D01*
X103440Y81600D02*
X104160D01*
X105460Y81770D02*
X105480D01*
X105220Y82010D02*
X105460Y81770D01*
X104990Y81570D02*
Y81780D01*
X103210Y74680D02*
X103220Y74690D01*
X103210Y74510D02*
Y74680D01*
Y73880D02*
Y74510D01*
X104650Y75950D01*
Y77270D01*
X101810Y80440D02*
X101860Y80390D01*
Y79930D02*
X101870Y79920D01*
Y79420D02*
Y79920D01*
X100579Y80620D02*
X100740D01*
X100574Y80615D02*
X100579Y80620D01*
X98506Y82536D02*
X98912Y82130D01*
X99290D01*
X100200Y82050D02*
X100270Y82120D01*
X99290Y82130D02*
X99370Y82050D01*
X99290Y82130D02*
X99650D01*
X99018Y83048D02*
Y83602D01*
X98105Y79930D02*
X98155Y79980D01*
X97660Y79930D02*
X98105D01*
X98911Y80210D02*
X100010D01*
X98891Y80230D02*
X98911Y80210D01*
X98690Y80230D02*
X98891D01*
X98440Y79980D02*
X98690Y80230D01*
X98155Y79980D02*
X98440D01*
X99960Y79760D02*
X100030Y79830D01*
X97340Y79930D02*
X97660D01*
X100730Y80610D02*
X101020Y80900D01*
X97660Y79930D02*
X97680Y79950D01*
X102954Y73396D02*
X103030Y73320D01*
X102954Y73396D02*
Y73880D01*
X103030Y73320D02*
X103400D01*
X103466Y73386D01*
Y73880D01*
X101400Y74160D02*
X101820D01*
X102070Y74410D01*
X102930D02*
X102954Y74386D01*
Y73880D02*
Y74386D01*
X102690Y73872D02*
X102698Y73880D01*
X102690Y73370D02*
Y73872D01*
X102643Y73370D02*
X102690D01*
X102508Y73235D02*
X102643Y73370D01*
X104730Y74090D02*
X105180D01*
X104730Y74690D02*
X105180D01*
Y75190D01*
X105190Y75200D01*
X103950Y74690D02*
X104730D01*
X103722Y74462D02*
X103950Y74690D01*
X103722Y73880D02*
Y74462D01*
X103978Y73380D02*
Y73880D01*
X103958Y73360D02*
X103978Y73380D01*
X103820Y73360D02*
X103958D01*
X101555Y72740D02*
X101625Y72670D01*
X101555Y72740D02*
Y72770D01*
X101340D02*
X101555D01*
X99355Y73195D02*
X100915D01*
X99000Y73550D02*
X99355Y73195D01*
X99000Y73550D02*
Y73780D01*
X98630Y74150D02*
Y74630D01*
X103525Y73065D02*
X103820Y73360D01*
X101625Y72670D02*
X102075D01*
X100915Y73195D02*
X101340Y72770D01*
X102698Y75228D02*
Y75560D01*
Y76080D01*
X102440Y74970D02*
Y75520D01*
Y76078D01*
X102070Y74410D02*
X102830D01*
X102930D01*
X100319Y72200D02*
X100550Y71969D01*
X99960Y72200D02*
X100319D01*
X99960D02*
Y72206D01*
X99281Y72885D02*
X99960Y72206D01*
X103210Y73880D02*
Y74510D01*
X105655Y81085D02*
X106085D01*
X105500Y81240D02*
X105655Y81085D01*
X105490Y81240D02*
X105500D01*
X106085Y81085D02*
X106180Y80990D01*
X103840Y80570D02*
Y80990D01*
X104440Y80570D02*
Y80990D01*
X101721Y81600D02*
X102840D01*
X101185Y81671D02*
X101309Y81795D01*
X101526D01*
X99500Y80442D02*
X99828Y80770D01*
X99500Y80420D02*
Y80442D01*
X99460Y80380D02*
X99500Y80420D01*
X97750Y80790D02*
X98260D01*
X98420Y80630D01*
X97350Y80950D02*
Y80990D01*
X97750Y81390D01*
X101830Y72920D02*
X102130Y73220D01*
X102235D01*
X102250Y73235D01*
X102508D01*
X102470Y73065D02*
X103525D01*
X102075Y72670D02*
X102470Y73065D01*
X101526Y81795D02*
X101721Y81600D01*
X100010Y80210D02*
X100415Y80615D01*
X100574D01*
X100654Y81230D02*
X100747Y81323D01*
X100847Y81423D01*
X100747Y81323D02*
X100850Y81570D01*
X100747Y81323D02*
X100850Y81570D01*
X100747Y81323D02*
X100968Y81472D01*
X100747Y81323D02*
X100830Y81640D01*
X104390Y73870D02*
X104610Y74090D01*
X104390Y73470D02*
Y73870D01*
X104300Y73380D02*
X104390Y73470D01*
X103978Y73380D02*
X104300D01*
X104610Y74090D02*
X105180D01*
X98630Y74150D02*
X99000Y73780D01*
G54D27*
X100890Y82360D02*
X101060Y82800D01*
X100870D02*
X100890Y82360D01*
X100870Y82800D02*
X100950Y82450D01*
X104440Y80990D02*
X104590Y81160D01*
X104440Y80570D02*
Y80990D01*
X101030Y82550D02*
X101060Y82700D01*
X100890Y82290D02*
Y82360D01*
Y82050D02*
Y82290D01*
X98290Y81870D02*
X98400Y81600D01*
X98420Y81900D02*
X98460Y81570D01*
X98350Y81320D02*
X98460Y81570D01*
X98350Y81320D02*
Y81900D01*
Y80960D02*
Y81320D01*
X100890Y82360D02*
X100950Y82420D01*
X100592Y81753D02*
X100890Y82050D01*
X98664Y80890D02*
X98744Y80810D01*
X98891D01*
X98594Y80960D02*
X98634Y80920D01*
X98530Y80960D02*
X98594D01*
X104590Y81160D02*
Y82440D01*
X100950Y82730D02*
X101240Y82440D01*
X104590D01*
X98350Y80960D02*
X98530D01*
X98891Y80810D02*
X99071Y80630D01*
X100282Y81753D02*
X100592D01*
X100060Y81530D02*
X100282Y81753D01*
X101060Y82800D02*
X101230Y82630D01*
X100950Y82800D02*
X101060D01*
X100950Y82420D02*
X101020D01*
X101230Y82630D01*
X100950Y82450D02*
Y82800D01*
Y82420D02*
Y82450D01*
X99650Y81530D02*
X100060D01*
X99071Y80630D02*
X99220D01*
X102698Y75228D02*
Y75560D01*
X102440Y74970D02*
X102698Y75228D01*
X102070Y74410D02*
X102930D01*
X101820Y74160D02*
X102070Y74410D01*
X101400Y74160D02*
X101820D01*
X101420Y73530D02*
X101430Y73540D01*
X101329Y73530D02*
X101420D01*
X101024Y73835D02*
X101329Y73530D01*
X99960Y73835D02*
X101024D01*
X99834Y73961D02*
X99960Y73835D01*
X99329Y73961D02*
X99834D01*
X98829Y74461D02*
X99329Y73961D01*
X98445Y73895D02*
X98570Y73770D01*
X98445Y73895D02*
Y74560D01*
X103640Y79520D02*
X103930Y79230D01*
X104010D01*
Y77910D02*
Y79230D01*
Y77910D02*
X104650Y77270D01*
Y75950D02*
Y77270D01*
X103315Y74615D02*
X104650Y75950D01*
X101430Y73540D02*
X102020D01*
X102160Y73400D01*
X98570Y73760D02*
X98595Y73735D01*
Y73399D02*
Y73735D01*
X98570Y73374D02*
X98595Y73399D01*
X98570Y73215D02*
Y73374D01*
Y73179D02*
Y73215D01*
X98894Y72855D02*
X99034D01*
X98570Y73179D02*
X98894Y72855D01*
X102954Y76080D02*
Y76546D01*
X102744Y76756D02*
X102954Y76546D01*
X102698Y75430D02*
Y76080D01*
X102442Y75432D02*
Y76080D01*
X102440Y75430D02*
X102442Y75432D01*
X103722Y76080D02*
Y76708D01*
X103720Y76710D02*
X103722Y76708D01*
X103720Y76710D02*
X103940D01*
X103978Y76672D01*
Y76450D02*
Y76672D01*
X103620Y77270D02*
X104050D01*
X103466Y77116D02*
X103620Y77270D01*
X103488Y76625D02*
Y76852D01*
X103466Y76603D02*
X103488Y76625D01*
X103466Y76875D02*
X103488Y76852D01*
X103466Y76875D02*
Y77116D01*
Y76080D02*
Y76603D01*
G54D28*
X100790Y78580D02*
Y78771D01*
X100706Y78856D02*
X100790Y78771D01*
X100540Y78710D02*
Y78850D01*
X100410Y78580D02*
X100540Y78710D01*
X100410Y78580D02*
X100570Y78420D01*
X100706D01*
X101830D02*
X102030Y78500D01*
X101830Y78420D02*
X102030D01*
X101414D02*
X101830D01*
X102030D02*
X102060Y78450D01*
X101260Y79930D02*
X101270Y79920D01*
Y79420D02*
Y79920D01*
X100706Y78856D02*
X101270Y79420D01*
X100706Y77840D02*
Y78856D01*
X100540Y78850D02*
X100706Y78684D01*
G54D29*
X99620Y81500D02*
X99650Y81530D01*
X98820Y81500D02*
X99620D01*
X101414Y77840D02*
X101960D01*
X101970Y77830D01*
Y77530D02*
Y77830D01*
Y77530D02*
X102866Y76634D01*
X102440Y74890D02*
Y75520D01*
X102310Y74760D02*
X102440Y74890D01*
X101820Y74760D02*
X102310D01*
X102440Y74970D02*
X102698Y75228D01*
Y75560D01*
G54D30*
X99843Y83727D02*
X99810Y83760D01*
X99743D01*
X99710Y83727D01*
Y83693D01*
X99743Y83660D01*
X99810D01*
X99843Y83627D01*
Y83593D01*
X99810Y83560D01*
X99743D01*
X99710Y83593D01*
X100043Y83727D02*
X100010Y83760D01*
X99943D01*
X99910Y83727D01*
Y83693D01*
X99943Y83660D01*
X100010D01*
X100043Y83627D01*
Y83593D01*
X100010Y83560D01*
X99943D01*
X99910Y83593D01*
X100110Y83560D02*
Y83760D01*
X100210D01*
X100243Y83727D01*
Y83660D01*
X100210Y83627D01*
X100110D01*
X100177D02*
X100243Y83560D01*
X99260Y84230D02*
Y84030D01*
Y84130D01*
X99393D01*
Y84230D01*
Y84030D01*
X99493Y84163D02*
X99560D01*
X99593Y84130D01*
Y84030D01*
X99493D01*
X99460Y84063D01*
X99493Y84097D01*
X99593D01*
X99660Y84163D02*
Y84030D01*
Y84097D01*
X99693Y84130D01*
X99727Y84163D01*
X99760D01*
X99860D02*
X99926Y84030D01*
X99993Y84163D01*
X100093D02*
X100160D01*
X100193Y84130D01*
Y84030D01*
X100093D01*
X100060Y84063D01*
X100093Y84097D01*
X100193D01*
X100260Y84163D02*
Y84030D01*
Y84097D01*
X100293Y84130D01*
X100326Y84163D01*
X100360D01*
X100593Y84230D02*
Y84030D01*
X100493D01*
X100460Y84063D01*
Y84130D01*
X100493Y84163D01*
X100593D01*
X99330Y82690D02*
Y82557D01*
X99397Y82490D01*
X99463Y82557D01*
Y82690D01*
X99530Y82490D02*
Y82523D01*
X99563D01*
Y82490D01*
X99530D01*
X99896D02*
X99963D01*
X99930D01*
Y82690D01*
X99896Y82657D01*
X100063Y82490D02*
Y82523D01*
X100096D01*
Y82490D01*
X100063D01*
X100230D02*
X100296D01*
X100263D01*
Y82690D01*
X100230Y82657D01*
X99300Y83160D02*
Y82960D01*
Y83027D01*
X99433Y83160D01*
X99333Y83060D01*
X99433Y82960D01*
X99500D02*
X99567D01*
X99533D01*
Y83093D01*
X99500D01*
X99667Y82960D02*
X99733D01*
X99700D01*
Y83160D01*
X99667D01*
X99866Y82960D02*
X99933D01*
X99966Y82993D01*
Y83060D01*
X99933Y83093D01*
X99866D01*
X99833Y83060D01*
Y82993D01*
X99866Y82960D01*
X100033Y83160D02*
Y82960D01*
X100133D01*
X100166Y82993D01*
Y83027D01*
Y83060D01*
X100133Y83093D01*
X100033D01*
X100266Y82960D02*
X100333D01*
X100366Y82993D01*
Y83060D01*
X100333Y83093D01*
X100266D01*
X100233Y83060D01*
Y82993D01*
X100266Y82960D01*
X100466Y83127D02*
Y83093D01*
X100433D01*
X100500D01*
X100466D01*
Y82993D01*
X100500Y82960D01*
G54D31*
X106000Y74580D02*
D03*
X96120D02*
D03*
X101060Y84290D02*
D03*
G54D32*
X103092Y83588D02*
D03*
X103858Y82946D02*
D03*
X98251Y82959D02*
D03*
X99018Y83602D02*
D03*
G54D33*
X100550Y71969D02*
D03*
X101550Y71951D02*
D03*
G54D34*
X101060Y83470D02*
D03*
Y75400D02*
D03*
G54D35*
X96632Y80848D02*
D03*
X96290Y79908D02*
D03*
X95948Y78968D02*
D03*
X95008Y79310D02*
D03*
X95350Y80250D02*
D03*
X95692Y81190D02*
D03*
G54D36*
X96330Y78019D02*
D03*
X96000Y78340D02*
D03*
X95680Y78300D02*
D03*
X100250Y76060D02*
D03*
X100000Y76310D02*
D03*
X97280Y80750D02*
D03*
X97100Y81350D02*
D03*
X103420Y81170D02*
D03*
X100620Y82220D02*
D03*
X104690Y80100D02*
D03*
X98340Y73530D02*
D03*
X100830Y80710D02*
D03*
X100950Y82450D02*
D03*
X101230Y82630D02*
D03*
X100950Y82800D02*
D03*
X105010Y80373D02*
D03*
X100530Y74170D02*
D03*
X99340Y73690D02*
D03*
X101740Y76750D02*
D03*
X103190Y76790D02*
D03*
X104300Y79320D02*
D03*
X104580Y79090D02*
D03*
X102720Y79980D02*
D03*
X102550Y79400D02*
D03*
X105150Y76570D02*
D03*
X103980Y79230D02*
D03*
X103640Y79520D02*
D03*
X102280Y79400D02*
D03*
X105490Y81240D02*
D03*
X105417Y80130D02*
D03*
X105630Y80370D02*
D03*
X102870Y81230D02*
D03*
X103220Y74690D02*
D03*
X100410Y78580D02*
D03*
X101810Y80440D02*
D03*
X102060Y78450D02*
D03*
X101700Y78290D02*
D03*
X101500Y78550D02*
D03*
X101330Y78300D02*
D03*
X100540Y78850D02*
D03*
X100790Y78570D02*
D03*
X100560Y78280D02*
D03*
X98769Y81145D02*
D03*
X98400Y81600D02*
D03*
X100350Y82120D02*
D03*
X98000Y82180D02*
D03*
X97860Y81890D02*
D03*
X98581Y79760D02*
D03*
X100100Y79800D02*
D03*
X98690Y80230D02*
D03*
X98210Y80010D02*
D03*
X98070Y78430D02*
D03*
X98680Y79090D02*
D03*
X99570Y79065D02*
D03*
X99580Y78350D02*
D03*
X98700Y78220D02*
D03*
X98760Y77900D02*
D03*
X99185Y77440D02*
D03*
X98350Y81900D02*
D03*
X98790Y80550D02*
D03*
X97340Y79930D02*
D03*
X97210Y80350D02*
D03*
X95770Y79720D02*
D03*
X98300Y77330D02*
D03*
X101020Y80900D02*
D03*
X97660Y79930D02*
D03*
X97730Y78440D02*
D03*
X96840Y79160D02*
D03*
X97520Y83300D02*
D03*
X101070Y71910D02*
D03*
X96650Y82480D02*
D03*
X100270Y74950D02*
D03*
X97060Y81970D02*
D03*
X95670Y75800D02*
D03*
X96500Y75690D02*
D03*
X96230Y75500D02*
D03*
X96760Y76450D02*
D03*
X96980Y74160D02*
D03*
X97890Y74320D02*
D03*
X97960Y77250D02*
D03*
X97560Y77210D02*
D03*
X97200Y77230D02*
D03*
X95890Y75360D02*
D03*
X98210Y72550D02*
D03*
X99180Y72640D02*
D03*
X100950Y81560D02*
D03*
X101410Y81550D02*
D03*
X99000Y73110D02*
D03*
G54D37*
X95260Y78610D02*
D03*
X95022Y79825D02*
D03*
X105480Y81770D02*
D03*
X105220Y82010D02*
D03*
M02*
